<svg id="Layer_1" data-name="Layer 1" xmlns="http://www.w3.org/2000/svg" xmlns:xlink="http://www.w3.org/1999/xlink" viewBox="0 0 1343.3 656.29"><defs><style>.cls-1{mask:url(#mask);filter:url(#luminosity-noclip-3);}.cls-2,.cls-4{mix-blend-mode:multiply;}.cls-2{fill:url(#linear-gradient);}.cls-3{mask:url(#mask-2);filter:url(#luminosity-noclip-4);}.cls-4{fill:url(#linear-gradient-2);}.cls-5{opacity:0.2;}.cls-6{fill:#053166;}.cls-7{fill:url(#linear-gradient-3);}.cls-8{mask:url(#mask-3);}.cls-11,.cls-14,.cls-9{opacity:0.3;}.cls-9{fill:url(#linear-gradient-4);}.cls-10{fill:url(#linear-gradient-5);}.cls-12{fill:url(#linear-gradient-6);}.cls-13{mask:url(#mask-4);}.cls-14{fill:url(#linear-gradient-7);}.cls-15{fill:url(#linear-gradient-8);}.cls-16{fill:url(#linear-gradient-9);}.cls-17{fill:url(#linear-gradient-10);}.cls-18{fill:url(#linear-gradient-11);}.cls-19{fill:url(#linear-gradient-12);}.cls-20{fill:url(#linear-gradient-13);}.cls-21{fill:url(#linear-gradient-14);}.cls-22{fill:#42ffff;}.cls-23{fill:url(#linear-gradient-15);}.cls-24{fill:url(#linear-gradient-16);}.cls-25{fill:#1cd1ff;}.cls-26{fill:#00a6ff;}.cls-27{fill:#ffffc0;}.cls-28{fill:#ffb45c;}.cls-29{fill:#a56438;}.cls-30{fill:#ffd874;}.cls-31{fill:#ffe87a;}.cls-32{fill:#ffffab;}.cls-33,.cls-46{fill:#fff;}.cls-34{fill:url(#linear-gradient-17);}.cls-35{fill:url(#linear-gradient-18);}.cls-36{fill:url(#linear-gradient-19);}.cls-37{fill:url(#linear-gradient-20);}.cls-38{fill:url(#linear-gradient-21);}.cls-39{fill:url(#linear-gradient-22);}.cls-40{fill:url(#linear-gradient-23);}.cls-41{fill:url(#linear-gradient-24);}.cls-42{fill:url(#linear-gradient-25);}.cls-43{fill:url(#linear-gradient-26);}.cls-44{fill:url(#linear-gradient-27);}.cls-45{fill:url(#linear-gradient-28);}.cls-46{font-size:164.29px;font-family:Roboto-Bold, Roboto;font-weight:700;}.cls-47{filter:url(#luminosity-noclip-2);}.cls-48{filter:url(#luminosity-noclip);}</style><filter id="luminosity-noclip" x="1156.09" y="-12654.79" width="154.19" height="32766" filterUnits="userSpaceOnUse" color-interpolation-filters="sRGB"><feFlood flood-color="#fff" result="bg"/><feBlend in="SourceGraphic" in2="bg"/></filter><mask id="mask" x="1156.09" y="-12654.79" width="154.19" height="32766" maskUnits="userSpaceOnUse"><g class="cls-48"/></mask><linearGradient id="linear-gradient" x1="1156.09" y1="511.31" x2="1310.28" y2="511.31" gradientUnits="userSpaceOnUse"><stop offset="0" stop-color="#fff"/><stop offset="0.97"/></linearGradient><filter id="luminosity-noclip-2" x="33.02" y="-12654.79" width="154.18" height="32766" filterUnits="userSpaceOnUse" color-interpolation-filters="sRGB"><feFlood flood-color="#fff" result="bg"/><feBlend in="SourceGraphic" in2="bg"/></filter><mask id="mask-2" x="33.02" y="-12654.79" width="154.18" height="32766" maskUnits="userSpaceOnUse"><g class="cls-47"/></mask><linearGradient id="linear-gradient-2" x1="-188.35" y1="511.31" x2="-34.17" y2="511.31" gradientTransform="matrix(-1, 0, 0, 1, -1.15, 0)" xlink:href="#linear-gradient"/><linearGradient id="linear-gradient-3" x1="1147.09" y1="501.07" x2="1340.82" y2="501.07" gradientUnits="userSpaceOnUse"><stop offset="0.01" stop-color="#0039da"/><stop offset="0.81" stop-color="#0fb8ff"/></linearGradient><filter id="luminosity-noclip-3" x="1156.09" y="397.15" width="154.19" height="228.31" filterUnits="userSpaceOnUse" color-interpolation-filters="sRGB"><feFlood flood-color="#fff" result="bg"/><feBlend in="SourceGraphic" in2="bg"/></filter><mask id="mask-3" x="1156.09" y="397.15" width="154.19" height="228.31" maskUnits="userSpaceOnUse"><g class="cls-1"><path class="cls-2" d="M1310.28,618.89s-26.23-54.85-22-97,11.85-124.74,11.85-124.74l-49.07.86-73.61,55.06-21.16,142.8s-2.9,21.36,13.76,24.74c13.78,2.79,28.89,4.77,41.63,4.83C1281.68,625.88,1310.28,618.89,1310.28,618.89Z"/></g></mask><linearGradient id="linear-gradient-4" x1="1156.09" y1="511.31" x2="1310.28" y2="511.31" gradientUnits="userSpaceOnUse"><stop offset="0"/><stop offset="0.97" stop-color="#0fb8ff"/></linearGradient><linearGradient id="linear-gradient-5" x1="1138.01" y1="480.6" x2="1265.45" y2="480.6" gradientUnits="userSpaceOnUse"><stop offset="0" stop-color="#00b5ff"/><stop offset="0.1" stop-color="#013ddc"/><stop offset="0.53" stop-color="#0f81ff"/><stop offset="0.94" stop-color="#007fff"/></linearGradient><linearGradient id="linear-gradient-6" x1="-197.36" y1="501.07" x2="-3.62" y2="501.07" gradientTransform="matrix(-1, 0, 0, 1, -1.15, 0)" xlink:href="#linear-gradient-3"/><filter id="luminosity-noclip-4" x="33.02" y="397.15" width="154.18" height="228.31" filterUnits="userSpaceOnUse" color-interpolation-filters="sRGB"><feFlood flood-color="#fff" result="bg"/><feBlend in="SourceGraphic" in2="bg"/></filter><mask id="mask-4" x="33.02" y="397.15" width="154.18" height="228.31" maskUnits="userSpaceOnUse"><g class="cls-3"><path class="cls-4" d="M33,618.89s26.22-54.85,22-97S43.16,397.15,43.16,397.15l49.08.86,73.61,55.06L187,595.87s2.9,21.36-13.76,24.74c-13.77,2.79-28.89,4.77-41.63,4.83C61.61,625.88,33,618.89,33,618.89Z"/></g></mask><linearGradient id="linear-gradient-7" x1="-188.35" y1="511.31" x2="-34.17" y2="511.31" gradientTransform="matrix(-1, 0, 0, 1, -1.15, 0)" xlink:href="#linear-gradient-4"/><linearGradient id="linear-gradient-8" x1="-206.43" y1="480.6" x2="-79" y2="480.6" gradientTransform="matrix(-1, 0, 0, 1, -1.15, 0)" xlink:href="#linear-gradient-5"/><linearGradient id="linear-gradient-9" x1="55.6" y1="411.02" x2="1289.73" y2="411.02" gradientUnits="userSpaceOnUse"><stop offset="0" stop-color="#053166"/><stop offset="0.52" stop-color="#0531bb"/><stop offset="1" stop-color="#053166"/></linearGradient><linearGradient id="linear-gradient-10" x1="-1040.56" y1="414.89" x2="193.13" y2="414.89" gradientTransform="matrix(-1, 0, 0, 1, 248.89, 0)" gradientUnits="userSpaceOnUse"><stop offset="0" stop-color="#00daff"/><stop offset="0.06" stop-color="#0071ff"/><stop offset="0.53" stop-color="#0fc1ff"/><stop offset="0.89" stop-color="#007fff"/><stop offset="0.92" stop-color="#0082ff"/><stop offset="0.93" stop-color="#008dff"/><stop offset="0.95" stop-color="#009eff"/><stop offset="0.97" stop-color="#00b7ff"/><stop offset="0.99" stop-color="#00d6ff"/><stop offset="0.99" stop-color="#00dcff"/></linearGradient><linearGradient id="linear-gradient-11" x1="451.94" y1="129.89" x2="891.36" y2="129.89" gradientUnits="userSpaceOnUse"><stop offset="0.04" stop-color="#ffad01"/><stop offset="0.16" stop-color="#ffd032"/><stop offset="0.25" stop-color="#ffd236"/><stop offset="0.35" stop-color="#ffd643"/><stop offset="0.45" stop-color="#ffde58"/><stop offset="0.54" stop-color="#ffe975"/><stop offset="0.56" stop-color="#ffeb79"/><stop offset="0.6" stop-color="#ffe770"/><stop offset="0.73" stop-color="#ffd74d"/><stop offset="0.84" stop-color="#ffcb35"/><stop offset="0.91" stop-color="#ffc72c"/><stop offset="1" stop-color="#ff8701"/></linearGradient><linearGradient id="linear-gradient-12" x1="512.89" y1="62.58" x2="510.81" y2="131.62" gradientUnits="userSpaceOnUse"><stop offset="0.22" stop-color="#ffad01"/><stop offset="1" stop-color="#ff8701"/></linearGradient><linearGradient id="linear-gradient-13" x1="828.24" y1="68.44" x2="827.58" y2="127.7" xlink:href="#linear-gradient-12"/><linearGradient id="linear-gradient-14" x1="466.67" y1="256.14" x2="871.32" y2="256.14" gradientUnits="userSpaceOnUse"><stop offset="0" stop-color="#0086ff"/><stop offset="0.08" stop-color="#1ca2ff"/><stop offset="0.54" stop-color="#1ce3ff"/><stop offset="0.84" stop-color="#00a6ff"/><stop offset="0.88" stop-color="#02a9ff"/><stop offset="0.91" stop-color="#07b4ff"/><stop offset="0.94" stop-color="#11c5ff"/><stop offset="0.96" stop-color="#1cdaff"/></linearGradient><linearGradient id="linear-gradient-15" x1="668.87" y1="277.96" x2="669.36" y2="406.11" gradientUnits="userSpaceOnUse"><stop offset="0" stop-color="#001a3a"/><stop offset="0.26" stop-color="#11447a"/><stop offset="0.9" stop-color="#00a6ff"/></linearGradient><linearGradient id="linear-gradient-16" x1="670.18" y1="361.44" x2="666.29" y2="183.12" xlink:href="#linear-gradient-15"/><linearGradient id="linear-gradient-17" x1="972.09" y1="329.3" x2="1317.53" y2="329.3" gradientTransform="matrix(0.97, -0.23, 0.23, 0.97, -928.89, 135.22)" xlink:href="#linear-gradient-11"/><linearGradient id="linear-gradient-18" x1="1020.01" y1="276.4" x2="1018.37" y2="330.66" gradientTransform="matrix(0.97, -0.23, 0.23, 0.97, -928.89, 135.22)" xlink:href="#linear-gradient-12"/><linearGradient id="linear-gradient-19" x1="1267.91" y1="281.01" x2="1267.39" y2="327.59" gradientTransform="matrix(0.97, -0.23, 0.23, 0.97, -928.89, 135.22)" xlink:href="#linear-gradient-12"/><linearGradient id="linear-gradient-20" x1="983.68" y1="428.55" x2="1301.78" y2="428.55" gradientTransform="matrix(0.97, -0.23, 0.23, 0.97, -928.89, 135.22)" xlink:href="#linear-gradient-14"/><linearGradient id="linear-gradient-21" x1="1142.63" y1="445.7" x2="1143.01" y2="546.45" gradientTransform="matrix(0.97, -0.23, 0.23, 0.97, -928.89, 135.22)" xlink:href="#linear-gradient-15"/><linearGradient id="linear-gradient-22" x1="1143.66" y1="511.33" x2="1140.6" y2="371.15" gradientTransform="matrix(0.97, -0.23, 0.23, 0.97, -928.89, 135.22)" xlink:href="#linear-gradient-15"/><linearGradient id="linear-gradient-23" x1="697.54" y1="265.13" x2="1042.97" y2="265.13" gradientTransform="matrix(-0.97, -0.23, -0.23, 0.97, 1990.22, 135.22)" xlink:href="#linear-gradient-11"/><linearGradient id="linear-gradient-24" x1="745.46" y1="212.23" x2="743.82" y2="266.49" gradientTransform="matrix(-0.97, -0.23, -0.23, 0.97, 1990.22, 135.22)" xlink:href="#linear-gradient-12"/><linearGradient id="linear-gradient-25" x1="993.36" y1="216.84" x2="992.84" y2="263.42" gradientTransform="matrix(-0.97, -0.23, -0.23, 0.97, 1990.22, 135.22)" xlink:href="#linear-gradient-12"/><linearGradient id="linear-gradient-26" x1="709.12" y1="364.38" x2="1027.23" y2="364.38" gradientTransform="matrix(-0.97, -0.23, -0.23, 0.97, 1990.22, 135.22)" xlink:href="#linear-gradient-14"/><linearGradient id="linear-gradient-27" x1="868.08" y1="381.53" x2="868.46" y2="482.28" gradientTransform="matrix(-0.97, -0.23, -0.23, 0.97, 1990.22, 135.22)" xlink:href="#linear-gradient-15"/><linearGradient id="linear-gradient-28" x1="869.11" y1="447.16" x2="866.05" y2="306.98" gradientTransform="matrix(-0.97, -0.23, -0.23, 0.97, 1990.22, 135.22)" xlink:href="#linear-gradient-15"/></defs><title>completed</title><path class="cls-5" d="M1336.55,616.56c-7.12-21.34-20.65-64.53-20.68-84.5,0-9.59,3-24.48,7-39.79,6.48-23.71,15.33-49.9,19.89-62.56a9,9,0,0,0-9.7-12c-17.73,2.39-32.84,4.26-46.09,5.72l2-30.94a24.24,24.24,0,0,0,.39-6.2c2.33-15-7.9-30.93-23.87-41.14-8-5.13-22.58-10.7-42.56-16.39l1.6-3.32a2.45,2.45,0,0,0,.06-.29h0v-.05a8.7,8.7,0,0,0,.11-.91,10.3,10.3,0,0,0-.26-3.84,18,18,0,0,0-5.17-9.07l19.77-42.46,2.36-3.6c-.08-.28-.2-.56-.29-.84L1260.38,223a109.5,109.5,0,0,0-9.83-15.11l-2.89-3.7-38.4-8.92.14.06h-.05l0,0h0l-28,33.53-3.08,3.68L1159,223l-2.9-80.9s-39.92-18.9-98.7-23c-19.81,30.26-36.05,65.29-38.7,71.1L995.21,186l.35,0-.46,0-.4-.07-11.44-47.19-35.18-4.46-1.43.89a106,106,0,0,0-23.93,14.77l-.42,41.32c-.38.28-.79.55-1.16.83l-7.58,71.71-4.61-.12-9,10.66-.34,5.66q-8.42-.68-16.92-1.29l.91-5.35-8.1-15.83L868.32,256l2.44-11.18h0l.56-2.55A13.36,13.36,0,0,0,869,235l24.09-80.22a102.55,102.55,0,0,0-8.68-10.95l7-31.2a136,136,0,0,0-25.63-25.48l-1.26-1.27L819.6,81.19l-27.83,55.15-.49,0-.59-.17.44.17-30.33-1.54c-1.61-8-11.57-56.06-27.34-99.26-74-12-128.9-.11-128.9-.11l-27,99.35L551,141.11l-.34-.68L523.2,86h0l0,0,.12,0-49.38-.07h-.75L467,90.76h0a137,137,0,0,0-15.1,14.7l6.64,31.75a116.1,116.1,0,0,0-9.63,10.4L472,230.85a20.91,20.91,0,0,0-3.75,5.42,13.16,13.16,0,0,0-1.52,5c0,.28-.06.52-.08.72s0,.17,0,.26v0a3.18,3.18,0,0,0,0,.35l3,13.34-7.19,1.46-8.11,15.83,1.14,6.63-11.7.94-.4-6.59-9-10.66-5.74.16-.12-9v0l-.05-2.07a9.86,9.86,0,0,0-1.91-3.83L421.06,192l-.05,0-.43-42.11a106.56,106.56,0,0,0-23.93-14.77l-1.43-.89L360,138.67,348.6,185.86l-.41.07-.47,0,.36,0-23.47,4.26c-2.65-5.8-18.88-40.84-38.69-71.1-58.78,4.07-98.7,23-98.7,23l-2.9,80.9-19.2,9.62L134,195.39h0l0,0h0l.14-.05-38.4,8.92-3,3.87c-.23.31-.49.62-.72.93l0,.05h0a107.29,107.29,0,0,0-8.93,14l18.18,39c-.36,1-.71,2.06-1,3.1L109,278.94l15,32.31a18,18,0,0,0-5.16,9,10.42,10.42,0,0,0-.28,3.9c0,.39.08.68.11.89a.13.13,0,0,0,0,.06h0c0,.19,0,.29,0,.29l2,4.12c-19.38,5.45-33.44,10.74-41,15.59C64,355.19,53.9,370.8,55.88,385.66a23.85,23.85,0,0,0,.35,6.81L58,423.59c-13.65-1.48-29.29-3.41-47.76-5.9a9,9,0,0,0-9.7,12c4.56,12.68,13.44,39,19.92,62.68,3.95,15.27,7,30.11,7,39.67,0,20.22-13.91,64.27-21,85.32-2.3,6.79-4.36,12.66-5.92,17a9,9,0,0,0,7.28,12c12.92,1.73,24.48,3.2,35,4.44,6.14.93,15.29,2.05,27.83,3,18.53,1.73,33.22,2.5,46.46,2.5a335.81,335.81,0,0,0,42.94-2.77c18.95-2.36,39-6.14,43.22-20.33A8.92,8.92,0,0,0,205,628v-1.82a5.13,5.13,0,0,1,.33,1.59v-57.5l.08-7.54c105.31-13.57,277.3-22.31,467.78-22.31h3.11c187.46.1,356.91,8.73,461.68,22.07l.08,7.63v57.65a5.13,5.13,0,0,1,.33-1.59V628a9,9,0,0,0,1.68,5.21c4.27,14.18,24.28,18,43.23,20.32a335.58,335.58,0,0,0,42.94,2.77c13.23,0,27.92-.77,46.45-2.5,12.54-.93,21.71-2,27.85-3,10.49-1.24,22.06-2.71,35-4.44a9,9,0,0,0,7.29-12C1341.13,629.87,1339,623.7,1336.55,616.56ZM1019.23,189.79l-.25.47h-.09Zm-258.71-55h-.09l-.15-.57ZM324.4,190.25h-.08l-.24-.45Z"/><path class="cls-6" d="M1226.19,626.13a337.41,337.41,0,0,1-42.94-2.77c-21.63-2.7-44.64-7.23-44.06-27V387c0-.53,0-1.06,0-1.6a9,9,0,0,1,9-8.69h.17a9,9,0,0,1,8.86,9v.8c.12.56,1.8,4.81,28.22,8.09a315.73,315.73,0,0,0,40.71,2.64c24.54,0,54.51-2.74,106.87-9.77a9,9,0,0,1,9.7,12C1335,421,1315,481.33,1315,502.52c0,21,20,80.47,27.74,101.64a9,9,0,0,1-7.29,12C1282.24,623.35,1251.6,626.13,1226.19,626.13Zm-68.93-218.84V596.86c-.1,2.44,7.27,6,28.22,8.57a317.53,317.53,0,0,0,40.71,2.64c22.76,0,50.19-2.36,95.85-8.31-7.83-22.56-25.06-74.81-25.1-97.22,0-21.65,15.73-70.92,24-95.18-44.44,5.72-71.72,8-94.72,8a335.65,335.65,0,0,1-42.94-2.78C1174.24,411.47,1165,410,1157.26,407.29Z"/><path class="cls-7" d="M1147.1,393.18c-.31,8.36,6,14.11,36.13,17.87,39.13,4.87,77.8,3.27,157.59-7.45,0,0-25,70.85-25,98.29,0,27.11,25,97,25,97-79.79,10.72-118.46,12.32-157.59,7.44-30.12-3.74-36.44-9.5-36.13-17.85Z"/><g class="cls-8"><path class="cls-9" d="M1310.28,618.89s-26.23-54.85-22-97,11.85-124.74,11.85-124.74l-49.07.86-73.61,55.06-21.16,142.8s-2.9,21.36,13.76,24.74c13.78,2.79,28.89,4.77,41.63,4.83C1281.68,625.88,1310.28,618.89,1310.28,618.89Z"/></g><path class="cls-6" d="M1274.48,363.61V572.22a9,9,0,0,1-4.24,7.65c-7.34,4.61-31.53,7.61-37.13,8.11-1.93.17-5.1.34-9.1.56-51.41,2.76-64.61,7.78-67.72,10.76a9,9,0,0,1-8.91,7.56h-.18a9,9,0,0,1-8.86-9V389.21c0-.11,0-.22,0-.33.7-18.82,31.57-24.15,84.69-27,3.73-.19,6.68-.35,8.48-.51,11.07-1,26.39-4,29.3-5.52a8.85,8.85,0,0,1,9.09-.2A9,9,0,0,1,1274.48,363.61Z"/><path class="cls-10" d="M1265.45,363.61c-4.14,2.59-22.68,5.83-33.13,6.76-13.07,1.16-93.69,2-94.31,18.62V597.6c.62-16.63,81.24-17.46,94.31-18.61,10.45-.92,29-4.18,33.13-6.77Z"/><path class="cls-11" d="M1265.44,579.05s-35.16-17.59-91.29-20.49c-26.68-1.38-35.92,1.18-35.92,1.18l-.85-78.28,133.38,11Z"/><path class="cls-6" d="M7.83,616.2a9,9,0,0,1-7.28-12C8.26,583,28.25,523.47,28.28,502.52c0-21.19-20-81.52-27.74-103a9,9,0,0,1,9.7-12c52.36,7,82.32,9.77,106.87,9.77a315.73,315.73,0,0,0,40.71-2.64c26.41-3.28,28.09-7.53,28.21-8.09v-.8a9,9,0,0,1,8.87-9h.17a9,9,0,0,1,9,8.69c0,.54,0,1.07,0,1.6V596.38c.59,19.75-22.42,24.28-44,27a337.64,337.64,0,0,1-42.94,2.77C91.69,626.13,61.06,623.35,7.83,616.2ZM160.05,412.59a335.88,335.88,0,0,1-42.94,2.78c-23,0-50.29-2.29-94.73-8,8.25,24.26,24,73.53,24,95.18,0,22.41-17.27,74.66-25.08,97.22,45.64,6,73.07,8.31,95.84,8.31a317.53,317.53,0,0,0,40.71-2.64c20.94-2.6,28.31-6.13,28.21-8.57V407.29C178.32,410,169.05,411.47,160.05,412.59Z"/><path class="cls-12" d="M196.19,393.18c.31,8.36-6,14.11-36.13,17.87-39.14,4.87-77.8,3.27-157.59-7.45,0,0,25,70.85,25,98.29-.05,27.11-25,97-25,97,79.79,10.72,118.45,12.32,157.59,7.44,30.13-3.74,36.44-9.5,36.13-17.85Z"/><g class="cls-13"><path class="cls-14" d="M33,618.89s26.22-54.85,22-97S43.16,397.15,43.16,397.15l49.08.86,73.61,55.06L187,595.87s2.9,21.36-13.76,24.74c-13.77,2.79-28.89,4.77-41.63,4.83C61.61,625.88,33,618.89,33,618.89Z"/></g><path class="cls-6" d="M73.39,355.65a8.83,8.83,0,0,1,9.08.2c2.92,1.48,18.23,4.53,29.3,5.52,1.81.16,4.76.32,8.49.51,53.11,2.85,84,8.18,84.69,27V597.82a9,9,0,0,1-8.86,9h-.17A9,9,0,0,1,187,599.3c-3.12-3-16.31-8-67.71-10.76-4-.22-7.19-.39-9.12-.56-5.59-.5-29.78-3.5-37.13-8.11a9,9,0,0,1-4.23-7.65V363.61A9,9,0,0,1,73.39,355.65Z"/><path class="cls-15" d="M77.84,363.61c4.14,2.59,22.68,5.83,33.14,6.76,13.07,1.16,93.69,2,94.3,18.62V597.6C204.67,581,124.05,580.14,111,579c-10.46-.92-29-4.18-33.14-6.77Z"/><path class="cls-11" d="M77.85,579.05s35.17-17.59,91.3-20.49c26.67-1.38,35.91,1.18,35.91,1.18l.86-78.28-133.39,11Z"/><path class="cls-16" d="M1289.31,356.61l-14,216.11a9,9,0,0,1-17.19,3.33c-4.71-10-6.48-13.2-15.79-19.64-37.81-26.16-281.17-46-566.09-46.16h-3.11c-287.09,0-532.24,19.85-570.27,46.16-9.3,6.44-11.07,9.63-15.78,19.64a9,9,0,0,1-8.18,5.2,8.5,8.5,0,0,1-1.72-.17,9,9,0,0,1-7.3-8.36L56,356.61C53.37,341.42,63.56,325.28,79.7,315c45.44-29.06,322.26-74,597-74.17h1.55c273.4,0,540.58,44.3,587.27,74.17C1281.65,325.29,1292,341.43,1289.31,356.61Z"/><path class="cls-17" d="M87.32,549c-11.38,7.75-14,12.47-19.16,23.23L56.23,362.31c-2.63-13.34,6.26-24.82,17.69-32,43.61-27.4,324.25-72.58,602.85-72.75,275.68-.17,549.35,44.38,594.53,72.75,11.42,7.17,20.32,18.65,17.69,32l-13.71,209.47c-5.14-10.75-6-15-17.39-22.79-44.12-30-242.46-57.85-581.57-57.85C321.19,491.14,131.84,518.72,87.32,549Z"/><path class="cls-5" d="M869.19,99.18l-1.26-1.32-45.46-4.67-31.08,55.15-.48,0-.6-.16.45.16-30.31-1.53c-1.31-8-9.73-56.06-24.66-99.26-76.75-12-133.74-.12-133.74-.12l-25.11,99.36-26.36,6.34-4.08-7.48L520.12,98h0l0,0h0l.14,0-50.34-.06h-.76l-5.1,4.26c-.21.18-.45.36-.67.54l-.1.1h0A122.88,122.88,0,0,0,449,117.46l33.61,121.17a20.45,20.45,0,0,0-8,9.64,12.74,12.74,0,0,0-1.12,5c0,.29,0,.53,0,.74a2,2,0,0,0,0,.25l0,0c0,.22,0,.35,0,.35L477.18,268l-6.78,1.47-6.58,15.83L471,315.8,486,329l.29,1.08,7.41-1.64,5.39,20.23a1.65,1.65,0,0,0,.06.32c0,.11,0,.21,0,.33,1.46,23.35,76.86,42.29,168.42,42.29s167.11-18.94,168.75-42.29c0-.12,0-.22,0-.33s0-.21.05-.32l5.54-20.21,7.35,1.62.28-1.08,15.14-13.2,7.39-30.52-6.45-15.83L858.88,268l3.94-13.73c.3-4.1-1.48-8.07-5.11-11.86l35.37-117.81A119.11,119.11,0,0,0,869.19,99.18Zm-109,47.57h-.09l-.14-.59ZM453.47,286.26,444,275.59l-5.48.17-.87-9v0l-.2-2.07c-1-3.13-3.47-5.77-7.29-7.95l-9.13-94.89a118.81,118.81,0,0,0-25.23-14.77l-1.53-.9-34.76,4.46-6.12,47.2-.38.07-.47,0,.37,0-22.56,4.25c-3.31-5.8-23.78-40.83-47.59-71.1-58.56,4.08-95.47,23-95.47,23l11,80.9-16.89,9.6-3.57-3.6-33.57-33.6h0l0,0h0l.1,0-35.79,8.92-2.21,4c-.15.26-.31.53-.46.81l0,.05h0a80.85,80.85,0,0,0-5.79,14L157,323.24a15,15,0,0,0-3.07,9,11.31,11.31,0,0,0,.55,4.06c.07.24.13.44.19.6a1.17,1.17,0,0,0,.06.2l0,0,.1.27,6.21,9.68-4.38,2.41-.46,13.57,13.09,22.42,14.1,7.42.49.79,4.83-2.69,9.1,14.69a1,1,0,0,0,.13.23,1.83,1.83,0,0,0,.06.25c7.06,17.88,66.19,17.82,133-.13C398.91,388.1,450.34,359,445,341.16c0-.08-.08-.15-.11-.23s0-.17,0-.26l-1.58-16.27,6-.17-.1-.88,7.6-12.79Zm-123.3-84h-.08l-.29-.44Zm849.17,144.86,6.31-9.68a2.19,2.19,0,0,1,.11-.27v0a1.17,1.17,0,0,0,.06-.2c.06-.16.13-.36.2-.6a11.11,11.11,0,0,0,.58-4.06,14.87,14.87,0,0,0-3-9L1241.43,235a80.87,80.87,0,0,0-5.65-14h0l0-.05-.44-.81-2.18-4-35.7-8.92.1,0h0l0,0h0L1163.57,241l-3.62,3.6-16.8-9.6,11.81-80.9s-36.72-18.9-95.23-23c-24.13,30.27-44.92,65.3-48.29,71.1l-22.52-4.25.37,0-.48,0-.37-.07-5.67-47.2-34.72-4.46-1.54.9a121,121,0,0,0-25.37,14.77l-10,94.89c-3.85,2.18-6.38,4.82-7.37,7.95l-.23,2.07v0l-1,9-5.47-.17-9.55,10.67L884,310.56l7.47,12.79-.11.88,6,.17-1.73,16.27a2.38,2.38,0,0,0,0,.26,2.29,2.29,0,0,0-.1.23C890,359,941.11,388.1,1008.78,406.05c66.67,17.95,125.79,18,133,.13,0-.08,0-.16.07-.25a1.71,1.71,0,0,0,.13-.23l9.24-14.69,4.81,2.69.49-.79,14.18-7.42L1184,363.07l-.31-13.57ZM1012,201.8l-.3.44h-.07Z"/><path class="cls-18" d="M864.24,55.79,819.6,51l-27.83,55.15-31.34-1.59-27-99.24a415,415,0,0,0-128.9-.11l-27,99.35L551,110.94,523.15,55.79h-50.1a143.75,143.75,0,0,0-21.11,19.52L481.5,216.65c37.06,25.59,107.11,42.86,187.49,42.86,84.84,0,158.22-19.24,193.4-47.2l29-129.86A138,138,0,0,0,864.24,55.79Z"/><polygon class="cls-19" points="473.51 55.7 501.18 123.84 551.02 111.04 523.2 55.84 473.51 55.7"/><polygon class="cls-20" points="791.72 106.43 837.99 119.67 864.47 55.7 819.6 51.03 791.72 106.43"/><path class="cls-21" d="M871.32,212.11c0-26.52-90.58-48-202.33-48s-202.32,21.49-202.32,48l20.63,94.41c0,23,81.35,41.66,181.69,41.66s181.7-18.66,181.7-41.66Z"/><path class="cls-22" d="M669,170.06c106.93,0,194.42,19.67,201.77,44.6l.56-2.55c0-26.52-90.58-48-202.33-48s-202.32,21.49-202.32,48l.56,2.55C474.57,189.73,562.06,170.06,669,170.06Z"/><path class="cls-23" d="M669,341.35c-90.7,0-164.24-14.22-164.24-31.77S578.29,277.81,669,277.81,833.24,292,833.24,309.58,759.71,341.35,669,341.35Z"/><path class="cls-24" d="M669,264.87c-100.34,0-181.69,18.94-181.69,42.29S568.65,349.45,669,349.45s181.7-18.93,181.7-42.29S769.33,264.87,669,264.87Zm0,73.31c-87.2,0-157.89-12.8-157.89-28.6S581.79,281,669,281s157.9,12.8,157.9,28.6S756.2,338.18,669,338.18Z"/><path class="cls-25" d="M489.87,299.88l-14.21-82.36a13.35,13.35,0,0,1,1-6.6c.82-1.81,1.18-2.27,5.82-5.57,55.63-39.62,197.1-40.72,179.25-41.2,0,0-126.54-5.36-184.23,32.19-11.09,6.74-10.81,16.16-10.81,16.16l20.68,93.13S487.4,303.35,489.87,299.88Z"/><polygon class="cls-26" points="715.01 212.11 671.67 255.45 628.33 212.11 671.67 168.76 715.01 212.11"/><polygon class="cls-27" points="671.64 250.58 633.17 212.11 671.64 173.62 710.13 212.11 671.64 250.58"/><polygon class="cls-28" points="633.17 212.1 633.17 212.11 671.64 250.58 710.13 212.11 710.13 212.1 633.17 212.1"/><polygon class="cls-29" points="671.64 212.1 633.17 212.1 633.17 212.11 671.64 250.58 671.64 212.1"/><polygon class="cls-30" points="671.64 232.56 651.18 212.1 671.64 191.63 692.11 212.1 671.64 232.56"/><polygon class="cls-31" points="523.27 55.77 476.93 63.88 501.18 123.84 577.55 104.59 494.44 129.98 467.03 60.6 473.14 55.7 523.27 55.77"/><path class="cls-32" d="M604.56,5.24s54.92-11.86,128.9.11C750.71,52.63,761,105.78,761,105.78L722.55,16.13S651.14-1.33,604.73,6.21"/><polygon class="cls-31" points="790.69 105.98 837.99 119.67 861.2 62.25 819.6 51.03 864.47 55.7 868.93 60.16 840.08 124.13 790.69 105.98"/><polygon class="cls-32" points="604.56 5.24 577.58 104.79 580.25 99.36 610.38 6.9 631.21 2.43 604.56 5.24"/><path class="cls-33" d="M725.46,43.19c6.87,13.17,7.46,26.42,1.32,29.62s-16.67-4.88-23.53-18-7.46-26.43-1.33-29.63S718.59,30,725.46,43.19Z"/><path class="cls-33" d="M738.53,83.37c2,3.65,1.67,7.71-.77,9.07s-6.09-.51-8.11-4.16-1.69-7.72.76-9.08S736.51,79.71,738.53,83.37Z"/><polygon class="cls-33" points="673.16 144.26 670.59 169.66 634.48 171.84 669.99 175 669.39 195.04 675.94 176 692.6 173.62 674.95 169.66 673.16 144.26"/><polygon class="cls-33" points="609.89 8.59 577.58 104.79 530.15 120.47 584.5 112.53 609.89 8.59"/><polygon class="cls-30" points="462.44 227.3 454.33 243.13 459.56 273.65 475.1 287.27 480.5 284.95 464.23 230.17 462.44 227.3"/><polygon class="cls-27" points="482.99 286.26 474.84 287.94 462.44 227.3 470.6 225.64 482.99 286.26"/><polygon class="cls-29" points="482.99 286.26 474.84 287.94 468.87 258.79 477.04 257.11 482.99 286.26"/><polygon class="cls-30" points="875.47 227.3 883.57 243.13 878.36 273.65 862.82 287.27 857.41 284.95 873.66 230.17 875.47 227.3"/><polygon class="cls-27" points="854.92 286.26 863.09 287.94 875.47 227.3 867.31 225.64 854.92 286.26"/><rect class="cls-29" x="847.1" y="268.36" width="29.75" height="8.33" transform="translate(421.81 1062.16) rotate(-78.41)"/><path class="cls-34" d="M395.05,104.17l-35,4.34L348.6,155.69l-24.28,4.4-38.4-71.15a326.55,326.55,0,0,0-98.7,23l-2.9,80.89-19.21,9.62-31.17-37.24-38.34,9a111.93,111.93,0,0,0-12.68,18.72l47.92,102.91c33,12.95,89.67,13.64,151.2-.74C347,279.86,399.72,252,421.65,224.3l-1.07-104.59A107.74,107.74,0,0,0,395.05,104.17Z"/><polygon class="cls-35" points="95.92 174 129.31 221.2 165.17 202.5 133.99 165.23 95.92 174"/><polygon class="cls-36" points="348.61 155.9 386.4 157.76 395.21 104.05 360.04 108.51 348.61 155.9"/><path class="cls-37" d="M428.44,222.55C423.7,202.26,350.51,202,265,222s-151,52.65-146.29,72.95l32.68,68.59c4.12,17.6,69.73,17.32,146.55-.63s135.75-46.79,131.64-64.4Z"/><path class="cls-22" d="M266,226.57c81.85-19.13,152.35-19.73,162.45-1.95l-.05-2.07C423.7,202.26,350.51,202,265,222s-151,52.65-146.29,72.95l.88,1.86C120.72,276.42,184.18,245.7,266,226.57Z"/><path class="cls-38" d="M296.69,357.7c-69.44,16.22-128.28,18.5-131.42,5.06s50.61-37.48,120-53.71,128.27-18.5,131.41-5.07S366.13,341.46,296.69,357.7Z"/><path class="cls-39" d="M283,299.15c-76.82,18-135.71,47-131.52,64.88s69.84,17.82,146.65-.13,135.71-47,131.53-64.89S359.82,281.19,283,299.15Zm13.12,56.12c-66.76,15.6-123.16,18.44-126,6.36s49-34.55,115.76-50.15S409,293,411.87,305.12,362.87,339.67,296.12,355.27Z"/><path class="cls-25" d="M152.15,358,126.52,297.5a10.61,10.61,0,0,1-.43-5.24c.32-1.52.5-1.94,3.46-5.3,35.5-40.29,143.61-66.43,129.85-63.61,0,0-97.83,18.54-135.27,57.6-7.28,7.16-5.39,14.3-5.39,14.3l32.5,67.6S150.87,361.1,152.15,358Z"/><polygon class="cls-26" points="308.79 250.52 283.36 291.46 242.43 266.03 267.85 225.09 308.79 250.52"/><rect class="cls-27" x="254.2" y="236.89" width="42.78" height="42.78" transform="translate(-89.2 356.18) rotate(-58.17)"/><polygon class="cls-28" points="246.13 265.16 246.13 265.16 282.48 287.73 305.05 251.39 305.05 251.39 246.13 265.16"/><polygon class="cls-29" points="275.59 258.27 246.13 265.16 246.13 265.16 282.48 287.73 275.59 258.27"/><polygon class="cls-30" points="279.25 273.95 259.93 261.94 271.93 242.61 291.25 254.61 279.25 273.95"/><polygon class="cls-31" points="134.04 165.14 100.02 179.65 129.31 221.2 184.32 192.81 125.25 227.13 91.85 178.91 95.64 174.06 134.04 165.14"/><path class="cls-32" d="M187.22,111.92s39.92-18.9,98.7-23C307.59,122.05,325,160.89,325,160.89L279.49,99.14s-57.79-.58-92,13.49"/><polygon class="cls-31" points="347.72 155.75 386.4 157.76 393.89 109.64 360.04 108.51 395.21 104.05 399.44 106.66 388.79 160.79 347.72 155.75"/><polygon class="cls-32" points="187.22 111.92 184.38 192.96 185.45 188.32 191.97 112.16 207.11 105.01 187.22 111.92"/><path class="cls-33" d="M286.56,119.34c7.61,8.85,10.45,18.9,6.31,22.44s-13.63-.75-21.24-9.6-10.44-18.89-6.32-22.43S279,110.5,286.56,119.34Z"/><path class="cls-33" d="M303.75,147.77c2.21,2.42,2.66,5.59,1,7.08s-4.75.69-7-1.75-2.67-5.6-1-7.08S301.55,145.32,303.75,147.77Z"/><polygon class="cls-33" points="264.61 206.07 267.18 225.97 239.93 234.1 267.68 230.18 270.81 245.62 272.42 229.87 284.75 225.07 270.52 225.19 264.61 206.07"/><polygon class="cls-33" points="191.9 113.54 184.38 192.96 150.87 213.45 191.06 197.64 191.9 113.54"/><polygon class="cls-30" points="118.15 307.34 114.78 320.92 124.24 343.34 138.57 350.99 142.3 348.25 120.05 309.21 118.15 307.34"/><polygon class="cls-27" points="144.44 348.8 138.5 351.54 118.15 307.34 124.11 304.61 144.44 348.8"/><rect class="cls-29" x="133.31" y="327.85" width="6.55" height="23.39" transform="translate(-129.63 88.4) rotate(-24.76)"/><polygon class="cls-30" points="434.34 233.44 443.37 244.11 444.84 268.4 435.39 281.62 430.82 280.81 433.48 235.96 434.34 233.44"/><rect class="cls-27" x="428.48" y="233.52" width="6.55" height="48.65" transform="translate(-6.76 11.67) rotate(-1.54)"/><polygon class="cls-29" points="429.17 282.25 435.71 282.08 435.05 258.69 428.51 258.88 429.17 282.25"/><path class="cls-40" d="M948.24,104.17l35,4.34,11.44,47.18,24.28,4.4,38.4-71.15a326.55,326.55,0,0,1,98.7,23l2.9,80.89,19.2,9.62,31.17-37.24,38.35,9a112.54,112.54,0,0,1,12.68,18.72l-47.92,102.91c-33,12.95-89.67,13.64-151.21-.74-65-15.19-117.67-43.05-139.6-70.75l1.07-104.59A107.67,107.67,0,0,1,948.24,104.17Z"/><polygon class="cls-41" points="1247.37 174 1213.99 221.2 1178.13 202.5 1209.3 165.23 1247.37 174"/><polygon class="cls-42" points="994.69 155.9 956.9 157.76 948.08 104.05 983.26 108.51 994.69 155.9"/><path class="cls-43" d="M913.75,298.52c-4.12,17.61,54.82,46.44,131.63,64.4s142.44,18.23,146.56.63L1224.62,295c4.74-20.3-60.75-53-146.29-72.95s-158.74-19.75-163.48.54Z"/><path class="cls-22" d="M1077.26,226.57c-81.86-19.13-152.36-19.73-162.45-1.95l0-2.07c4.74-20.29,77.93-20.54,163.48-.54s151,52.65,146.29,72.95l-.88,1.86C1222.57,276.42,1159.12,245.7,1077.26,226.57Z"/><path class="cls-44" d="M1046.61,357.7c69.43,16.22,128.28,18.5,131.41,5.06s-50.6-37.48-120-53.71S929.71,290.55,926.57,304,977.16,341.46,1046.61,357.7Z"/><path class="cls-45" d="M913.63,299c-4.18,17.89,54.71,46.94,131.53,64.89s142.48,18,146.65.13-54.7-46.93-131.52-64.88S917.82,281.13,913.63,299Zm17.8,6.11c2.82-12.09,59.23-9.25,126,6.36s118.57,38,115.75,50.15-59.24,9.24-126-6.36S928.6,317.21,931.43,305.12Z"/><path class="cls-25" d="M1191.15,358l25.62-60.49a10.61,10.61,0,0,0,.43-5.24c-.31-1.52-.49-1.94-3.46-5.3-35.49-40.29-143.61-66.43-129.85-63.61,0,0,97.84,18.54,135.28,57.6,7.28,7.16,5.38,14.3,5.38,14.3l-32.5,67.6S1192.43,361.1,1191.15,358Z"/><polygon class="cls-26" points="1034.51 250.52 1059.93 291.46 1100.86 266.03 1075.44 225.09 1034.51 250.52"/><rect class="cls-27" x="1046.32" y="236.89" width="42.77" height="42.78" transform="translate(24.41 602.15) rotate(-31.84)"/><polygon class="cls-28" points="1097.16 265.16 1097.16 265.16 1060.82 287.73 1038.25 251.39 1038.25 251.39 1097.16 265.16"/><polygon class="cls-29" points="1067.7 258.27 1097.16 265.16 1097.16 265.16 1060.82 287.73 1067.7 258.27"/><polygon class="cls-30" points="1064.05 273.95 1083.36 261.94 1071.37 242.61 1052.04 254.61 1064.05 273.95"/><polygon class="cls-31" points="1209.26 165.14 1243.29 179.65 1213.99 221.2 1158.98 192.81 1218.05 227.13 1251.44 178.91 1247.66 174.06 1209.26 165.14"/><path class="cls-32" d="M1156.08,111.92s-39.92-18.9-98.7-23c-21.67,33.11-39.08,71.95-39.08,71.95l45.49-61.75s57.8-.58,92,13.49"/><polygon class="cls-31" points="995.56 155.75 956.9 157.76 949.42 109.64 983.26 108.51 948.08 104.05 943.87 106.66 954.5 160.79 995.56 155.75"/><polygon class="cls-32" points="1156.08 111.92 1158.92 192.96 1157.84 188.32 1151.33 112.16 1136.18 105.01 1156.08 111.92"/><path class="cls-33" d="M1056.73,119.34c-7.61,8.85-10.43,18.9-6.31,22.44s13.63-.75,21.24-9.6,10.45-18.89,6.33-22.43S1064.34,110.5,1056.73,119.34Z"/><path class="cls-33" d="M1039.54,147.77c-2.19,2.42-2.66,5.59-1,7.08s4.74.69,7-1.75,2.67-5.6,1-7.08S1041.74,145.32,1039.54,147.77Z"/><polygon class="cls-33" points="1078.68 206.07 1076.11 225.97 1103.36 234.1 1075.61 230.18 1072.49 245.62 1070.88 229.87 1058.55 225.07 1072.77 225.19 1078.68 206.07"/><polygon class="cls-33" points="1151.4 113.54 1158.92 192.96 1192.43 213.45 1152.24 197.64 1151.4 113.54"/><polygon class="cls-30" points="1225.13 307.34 1228.52 320.92 1219.05 343.34 1204.71 350.99 1200.99 348.25 1223.25 309.21 1225.13 307.34"/><polygon class="cls-27" points="1198.85 348.8 1204.8 351.54 1225.13 307.34 1219.18 304.61 1198.85 348.8"/><polygon class="cls-29" points="1198.85 348.8 1204.8 351.54 1214.58 330.3 1208.63 327.55 1198.85 348.8"/><polygon class="cls-30" points="908.95 233.44 899.92 244.11 898.45 268.4 907.9 281.62 912.46 280.81 909.81 235.96 908.95 233.44"/><polygon class="cls-27" points="914.13 282.25 907.59 282.08 908.95 233.44 915.5 233.62 914.13 282.25"/><polygon class="cls-29" points="914.13 282.25 907.59 282.08 908.24 258.69 914.78 258.88 914.13 282.25"/><text class="cls-46" transform="translate(202.81 553.34)">COMPLETED</text></svg>