<svg xmlns="http://www.w3.org/2000/svg" xmlns:xlink="http://www.w3.org/1999/xlink" viewBox="0 0 973.27 835.48"><defs><style>.cls-1{fill:url(#radial-gradient);}.cls-2{isolation:isolate;}.cls-3{fill:#fff;}.cls-4{fill:url(#Áåçûìÿííûé_ãðàäèåíò_12);}.cls-5,.cls-7,.cls-8{fill:#00c4ee;}.cls-5,.cls-7{opacity:0.5;}.cls-6,.cls-8{mix-blend-mode:screen;}.cls-6{fill:url(#Áåçûìÿííûé_ãðàäèåíò_12-2);}.cls-11,.cls-7{mix-blend-mode:overlay;}.cls-9{fill:#00f1f8;}.cls-10{mask:url(#mask);}.cls-11{fill:#00fff5;}.cls-12{fill:url(#linear-gradient);}.cls-13{mix-blend-mode:multiply;fill:url(#linear-gradient-2);}.cls-14,.cls-15{fill-rule:evenodd;}.cls-14{fill:url(#linear-gradient-3);}.cls-15{fill:url(#linear-gradient-4);}</style><radialGradient id="radial-gradient" cx="-4696.07" cy="3110.7" r="6.16" gradientTransform="matrix(-0.01, -2.89, 59.79, 0.06, -185588.29, -13753.57)" gradientUnits="userSpaceOnUse"><stop offset="0" stop-color="#fff"/><stop offset="0.12" stop-color="#c7c7c7"/><stop offset="0.24" stop-color="#929292"/><stop offset="0.37" stop-color="#666"/><stop offset="0.5" stop-color="#414141"/><stop offset="0.62" stop-color="#242424"/><stop offset="0.75" stop-color="#101010"/><stop offset="0.88" stop-color="#040404"/><stop offset="1"/></radialGradient><linearGradient id="Áåçûìÿííûé_ãðàäèåíò_12" x1="486.63" y1="101.07" x2="486.63" y2="823.76" gradientUnits="userSpaceOnUse"><stop offset="0" stop-color="#004d9c"/><stop offset="0.76" stop-color="#00174a"/></linearGradient><linearGradient id="Áåçûìÿííûé_ãðàäèåíò_12-2" x1="1.5" y1="148.42" x2="1.5" y2="814.8" xlink:href="#Áåçûìÿííûé_ãðàäèåíò_12"/><mask id="mask" x="55.69" y="18.3" width="896.61" height="35.66" maskUnits="userSpaceOnUse"><path class="cls-1" d="M424.06,18.3c203.43.21,368.36,8.37,368.34,18.21S627.45,54.17,424.05,54,55.68,45.59,55.69,35.75,220.64,18.09,424.06,18.3Z"/></mask><linearGradient id="linear-gradient" x1="56" y1="411.66" x2="916" y2="411.66" gradientUnits="userSpaceOnUse"><stop offset="0" stop-color="#e6e6e6"/><stop offset="0.22" stop-color="#f0f0f0"/><stop offset="0.59" stop-color="#fbfbfb"/><stop offset="1" stop-color="#fff"/></linearGradient><linearGradient id="linear-gradient-2" x1="432.95" y1="480.15" x2="558.57" y2="354.52" gradientUnits="userSpaceOnUse"><stop offset="0.01" stop-color="#f6c4de"/><stop offset="1" stop-color="#9dceec"/></linearGradient><linearGradient id="linear-gradient-3" x1="775.37" y1="290.88" x2="239.02" y2="827.23" gradientUnits="userSpaceOnUse"><stop offset="0.01" stop-color="#00b2ee"/><stop offset="1" stop-color="#0058a8"/></linearGradient><linearGradient id="linear-gradient-4" x1="669.29" y1="-53.8" x2="133.28" y2="482.2" xlink:href="#linear-gradient-3"/></defs><title>Artboard 16</title><g class="cls-2"><g id="Layer_1" data-name="Layer 1"><polygon class="cls-3" points="752.63 582.88 746.46 575.74 740.29 568.61 752.63 568.61 764.96 568.61 758.79 575.74 752.63 582.88"/><polygon class="cls-4" points="0 47.9 0 835.48 925.35 835.48 973.27 787.59 973.27 0 47.91 0 0 47.9"/><polygon class="cls-5" points="0 58.21 0 47.91 47.91 0.01 973.27 0.01 973.27 10.31 47.91 10.31 0 58.21"/><polygon class="cls-6" points="3 825.6 0 825.6 0 58.21 3 55.23 3 825.6"/><path class="cls-7" d="M13.32,44.9l34.6-34.59H437.23S126.61,8.82,94.83,7.78A182.88,182.88,0,0,1,47.92,0S47.92,11.68,13.32,44.9Z"/><path class="cls-8" d="M47.92,10.31l925.35,0S462.38,5.17,363,5.17,47.92,10.31,47.92,10.31Z"/><path class="cls-9" d="M910.73,796.36H30.57V65.06l31-32.58H950.11v722ZM35.36,791.57h873.3l36.66-39V37.26H63.64L35.36,67Z"/><g class="cls-10"><path class="cls-11" d="M424.06,18.3c203.43.21,528.26,8.37,528.25,18.21S627.45,54.17,424.05,54,55.68,45.59,55.69,35.75,220.64,18.09,424.06,18.3Z"/></g><rect class="cls-12" x="56" y="56.8" width="860" height="709.74"/><path class="cls-13" d="M430.22,411.16c0,42.55,32.11,77,71.71,77s71.73-34.48,71.73-77-32.12-77-71.73-77S430.22,368.63,430.22,411.16Z"/><path class="cls-3" d="M507.24,442.61H463.63a11.32,11.32,0,0,1-11.34-11.55c0-5.21,2-9.27,5.46-13.65l46-57.39c4.39-5.54,7.71-8.46,14.54-8.46,6.19,0,11.2,5.2,11.2,11.87v58.85h5.59c5.3,0,9.54,4.56,9.54,10.24s-4.24,10.09-9.54,10.09H529.5v13.65c0,6.67-5,11.87-11.2,11.87s-11.06-5.2-11.06-11.87Zm0-20.33V386.84l-28.15,35.44Z"/><path class="cls-14" d="M754.41,197H636.23c-24.32,0-43.56,20.66-43.56,46.78V473.48c0,.11,0,.22,0,.31v64.38c0,57.57-42.83,104.5-96.06,106.2a35.47,35.47,0,0,0-18.63,2.2,29.28,29.28,0,0,0-8.51,5.84,46,46,0,0,0-12.31,13.42c-3.17,3.45-6.39,6.48-9.9,8.16-26.78,12.85-69.55-9.74-80.34,25.79,12.61,18.1,55.91-4.76,72.73,18.16-22.54-6.78-47,3.94-81.37-7.18l-44.68-15.6v0c-12.15-3.35-24.13-6.17-36.25,4.72,48.36,29.34,108,57.92,166.86,55.48,34.09-1.42,89.71-12.25,137.34-41A188.47,188.47,0,0,0,623,681.69c.25-.29.55-.52.81-.79.07-.06.1-.15.16-.21,34.38-36.3,55.77-86.77,55.77-142.52V494.69h66.17c88.78,0,160.07-51,160.07-149.44v-1.2C906,257.17,848.87,197,754.41,197Zm63.34,150c0,36.44-25.45,64.39-69,64.39h-69v-130h67.31c43.53,0,70.68,22.47,70.68,64.4Z"/><path class="cls-15" d="M525.69,175.76a29,29,0,0,0,8.52-5.85,45.75,45.75,0,0,0,12.31-13.42c3.15-3.43,6.4-6.47,9.9-8.16,26.77-12.85,69.54,9.74,80.33-25.79-12.61-18.11-55.92,4.77-72.72-18.15,22.52,6.78,47-3.94,81.38,7.17l44.67,15.61v0c12.15,3.33,24.09,6.16,36.25-4.73C678,93.07,618.3,64.49,559.46,66.94c-34.09,1.42-89.71,12.25-137.34,41a189.64,189.64,0,0,0-41.5,32.66c-.24.27-.52.51-.8.8-.06.06-.09.13-.16.2-34.39,36.29-55.78,86.76-55.78,142.53V440.63c0,67.43-32.23,102.06-85.39,102.06s-85.4-35.85-85.4-105.1V240.15c0-26.11-19.23-46.76-43.56-46.76S66,214,66,240.15V440c0,125.13,65,188.91,171.36,188.91S411,565.76,411,437V348.77c0-.09,0-.17,0-.25V284.17c0-57.59,42.84-104.5,96.07-106.22A35.42,35.42,0,0,0,525.69,175.76Z"/></g></g></svg>