<svg xmlns="http://www.w3.org/2000/svg" xmlns:xlink="http://www.w3.org/1999/xlink" viewBox="0 0 133 169"><defs><style>.cls-1{fill:none;}.cls-2{isolation:isolate;}.cls-3{clip-path:url(#clip-path);}.cls-4{clip-path:url(#clip-path-2);}.cls-5{clip-path:url(#clip-path-3);}.cls-14,.cls-6{fill-rule:evenodd;}.cls-6{opacity:0.3;mix-blend-mode:screen;fill:url(#Áåçûìÿííûé_ãðàäèåíò_118);}.cls-7{fill:url(#linear-gradient);}.cls-8{fill:#6342a1;}.cls-9{fill:#0f083a;}.cls-10{fill:#a5d5d4;}.cls-11{fill:#cbbddc;}.cls-12,.cls-13,.cls-14{fill:#fff;}.cls-12{mix-blend-mode:multiply;}</style><clipPath id="clip-path"><rect class="cls-1" x="-2555.24" y="-1032.57" width="1920" height="1080"/></clipPath><clipPath id="clip-path-2"><rect class="cls-1" x="-2556" y="235.53" width="1920" height="1080"/></clipPath><clipPath id="clip-path-3"><rect class="cls-1" x="-2866.59" y="231.53" width="2488.5" height="1106"/></clipPath><linearGradient id="Áåçûìÿííûé_ãðàäèåíò_118" x1="-5987.17" y1="5731.17" x2="-6587.55" y2="4835.31" gradientTransform="translate(834.68 8462.59) rotate(121.41)" gradientUnits="userSpaceOnUse"><stop offset="0" stop-color="#b8a27c"/><stop offset="1"/></linearGradient><linearGradient id="linear-gradient" y1="84.5" x2="133" y2="84.5" gradientUnits="userSpaceOnUse"><stop offset="0.01" stop-color="#00b2ee"/><stop offset="1" stop-color="#0058a8"/></linearGradient></defs><title>front-img</title><g class="cls-2"><g id="Layer_1" data-name="Layer 1"><g class="cls-4"><g class="cls-5"><path class="cls-6" d="M-257.94,366.18s-108.28,32.57-159.4,60S-472,483.6-472,483.6s-34,31-65.88,43.26-61.85-11-88.47-7.6-50.14,70.06-50.14,70.06l-151.7,28.79L-925.4,639s120.8-12.87,145.15-12.55,172.87-9.68,199.49-13.06,35.06-25.25,68.84-24.27,72.22,2.35,107.88-7.79,97.31-38.74,127.46-56S-207,475.77-207,475.77l59.78-61.71,80.72-46.47L129,47.43S-74.79,138.59-145.19,193.58C-171.82,214.38-257.94,366.18-257.94,366.18Z"/></g></g><polygon class="cls-7" points="0 0 133 0 133 169 0 169 0 0"/><g id="_1765962544" data-name=" 1765962544"><polygon class="cls-8" points="66.52 84.5 116.61 89.53 125.42 90.75 116.56 90.1 66.52 84.5"/><polygon class="cls-8" points="66.52 84.5 116.04 94.91 124.75 96.95 115.99 95.26 66.52 84.5"/><polygon class="cls-8" points="66.52 84.51 115.14 100 123.64 103.06 115.02 100.56 66.52 84.51"/><polygon class="cls-8" points="66.52 84.51 113.81 105.18 122.09 109.03 113.71 105.52 66.52 84.51"/><polygon class="cls-8" points="66.52 84.51 112.17 110 120.11 114.81 111.97 110.52 66.52 84.51"/><polygon class="cls-8" points="66.52 84.51 110.12 114.82 117.73 120.35 109.97 115.13 66.52 84.51"/><polygon class="cls-8" points="66.52 84.52 107.82 119.22 114.95 125.62 107.55 119.69 66.52 84.52"/><polygon class="cls-8" points="66.52 84.52 105.11 123.54 111.81 130.59 104.92 123.81 66.52 84.52"/><polygon class="cls-8" points="66.52 84.52 102.22 127.39 108.32 135.2 101.89 127.8 66.52 84.52"/><polygon class="cls-8" points="66.51 84.52 98.93 131.07 104.52 139.42 98.7 131.3 66.51 84.52"/><polygon class="cls-8" points="66.51 84.52 95.53 134.26 100.42 143.23 95.14 134.59 66.51 84.52"/><polygon class="cls-8" points="66.51 84.52 91.77 137.19 96.08 146.6 91.51 137.38 66.51 84.52"/><polygon class="cls-8" points="66.51 84.52 87.97 139.62 91.5 149.49 87.54 139.87 66.51 84.52"/><polygon class="cls-8" points="66.51 84.53 83.84 141.72 86.73 151.89 83.56 141.85 66.51 84.53"/><polygon class="cls-8" points="66.5 84.53 79.74 143.31 81.81 153.77 79.29 143.46 66.5 84.53"/><polygon class="cls-8" points="66.5 84.53 75.38 144.49 76.77 155.11 75.08 144.56 66.5 84.53"/><polygon class="cls-8" points="66.5 84.53 71.12 145.19 71.65 155.92 70.65 145.24 66.5 84.53"/><polygon class="cls-8" points="66.5 84.53 66.65 145.45 66.5 156.2 66.35 145.45 66.5 84.53"/><polygon class="cls-8" points="66.5 84.53 62.35 145.24 61.34 155.92 61.88 145.19 66.5 84.53"/><polygon class="cls-8" points="66.5 84.53 57.91 144.56 56.23 155.11 57.62 144.49 66.5 84.53"/><polygon class="cls-8" points="66.49 84.53 53.71 143.46 51.19 153.77 53.26 143.31 66.49 84.53"/><polygon class="cls-8" points="66.49 84.53 49.44 141.85 46.27 151.89 49.16 141.72 66.49 84.53"/><polygon class="cls-8" points="66.49 84.52 45.46 139.87 41.5 149.49 45.03 139.62 66.49 84.52"/><polygon class="cls-8" points="66.49 84.52 41.49 137.38 36.92 146.6 41.23 137.19 66.49 84.52"/><polygon class="cls-8" points="66.49 84.52 37.85 134.59 32.57 143.23 37.47 134.26 66.49 84.52"/><polygon class="cls-8" points="66.49 84.52 34.3 131.3 28.48 139.42 34.07 131.07 66.49 84.52"/><polygon class="cls-8" points="66.48 84.52 31.11 127.8 24.68 135.2 30.78 127.39 66.48 84.52"/><polygon class="cls-8" points="66.48 84.52 28.08 123.81 21.19 130.59 27.89 123.54 66.48 84.52"/><polygon class="cls-8" points="66.48 84.52 25.45 119.69 18.05 125.62 25.18 119.22 66.48 84.52"/><polygon class="cls-8" points="66.48 84.51 23.03 115.13 15.27 120.35 22.88 114.82 66.48 84.51"/><polygon class="cls-8" points="66.48 84.51 21.02 110.52 12.89 114.81 20.82 110 66.48 84.51"/><polygon class="cls-8" points="66.48 84.51 19.29 105.52 10.91 109.03 19.19 105.18 66.48 84.51"/><polygon class="cls-8" points="66.48 84.51 17.98 100.56 9.36 103.06 17.86 100 66.48 84.51"/><polygon class="cls-8" points="66.48 84.5 17.01 95.26 8.25 96.95 16.96 94.91 66.48 84.5"/><polygon class="cls-8" points="66.48 84.5 16.43 90.1 7.58 90.75 16.39 89.53 66.48 84.5"/><polygon class="cls-8" points="66.48 84.5 16.22 84.68 7.35 84.5 16.22 84.32 66.48 84.5"/><polygon class="cls-8" points="66.48 84.5 16.39 79.47 7.58 78.25 16.43 78.9 66.48 84.5"/><polygon class="cls-8" points="66.48 84.5 16.96 74.09 8.25 72.05 17.01 73.74 66.48 84.5"/><polygon class="cls-8" points="66.48 84.49 17.86 69 9.36 65.94 17.98 68.44 66.48 84.49"/><polygon class="cls-8" points="66.48 84.49 19.19 63.82 10.91 59.97 19.29 63.48 66.48 84.49"/><polygon class="cls-8" points="66.48 84.49 20.82 59 12.89 54.19 21.02 58.48 66.48 84.49"/><polygon class="cls-8" points="66.48 84.49 22.88 54.18 15.27 48.65 23.03 53.87 66.48 84.49"/><polygon class="cls-8" points="66.48 84.48 25.18 49.78 18.05 43.38 25.45 49.31 66.48 84.48"/><polygon class="cls-8" points="66.48 84.48 27.89 45.46 21.19 38.41 28.08 45.19 66.48 84.48"/><polygon class="cls-8" points="66.48 84.48 30.78 41.61 24.68 33.8 31.11 41.2 66.48 84.48"/><polygon class="cls-8" points="66.49 84.48 34.07 37.93 28.48 29.58 34.3 37.7 66.49 84.48"/><polygon class="cls-8" points="66.49 84.48 37.47 34.74 32.57 25.77 37.85 34.41 66.49 84.48"/><polygon class="cls-8" points="66.49 84.48 41.23 31.8 36.92 22.4 41.49 31.62 66.49 84.48"/><polygon class="cls-8" points="66.49 84.48 45.03 29.38 41.5 19.51 45.46 29.13 66.49 84.48"/><polygon class="cls-8" points="66.49 84.47 49.16 27.28 46.27 17.11 49.44 27.15 66.49 84.47"/><polygon class="cls-8" points="66.49 84.47 53.26 25.69 51.19 15.23 53.71 25.54 66.49 84.47"/><polygon class="cls-8" points="66.5 84.47 57.62 24.51 56.23 13.89 57.91 24.44 66.5 84.47"/><polygon class="cls-8" points="66.5 84.47 61.88 23.81 61.34 13.08 62.35 23.76 66.5 84.47"/><polygon class="cls-8" points="66.5 84.47 66.35 23.55 66.5 12.8 66.65 23.55 66.5 84.47"/><polygon class="cls-8" points="66.5 84.47 70.65 23.76 71.65 13.08 71.12 23.81 66.5 84.47"/><polygon class="cls-8" points="66.5 84.47 75.08 24.44 76.77 13.89 75.38 24.51 66.5 84.47"/><polygon class="cls-8" points="66.5 84.47 79.29 25.54 81.81 15.23 79.74 25.69 66.5 84.47"/><polygon class="cls-8" points="66.51 84.47 83.56 27.15 86.73 17.11 83.84 27.28 66.51 84.47"/><polygon class="cls-8" points="66.51 84.48 87.54 29.13 91.5 19.51 87.97 29.38 66.51 84.48"/><polygon class="cls-8" points="66.51 84.48 91.51 31.62 96.08 22.4 91.77 31.8 66.51 84.48"/><polygon class="cls-8" points="66.51 84.48 95.14 34.41 100.42 25.77 95.53 34.74 66.51 84.48"/><polygon class="cls-8" points="66.51 84.48 98.7 37.7 104.52 29.58 98.93 37.93 66.51 84.48"/><polygon class="cls-8" points="66.52 84.48 101.89 41.2 108.32 33.8 102.22 41.61 66.52 84.48"/><polygon class="cls-8" points="66.52 84.48 104.92 45.19 111.81 38.41 105.11 45.46 66.52 84.48"/><polygon class="cls-8" points="66.52 84.48 107.55 49.31 114.95 43.38 107.82 49.78 66.52 84.48"/><polygon class="cls-8" points="66.52 84.49 109.97 53.87 117.73 48.65 110.12 54.18 66.52 84.49"/><polygon class="cls-8" points="66.52 84.49 111.97 58.48 120.11 54.19 112.17 59 66.52 84.49"/><polygon class="cls-8" points="66.52 84.49 113.71 63.48 122.09 59.97 113.81 63.82 66.52 84.49"/><polygon class="cls-8" points="66.52 84.49 115.02 68.44 123.64 65.94 115.14 69 66.52 84.49"/><polygon class="cls-8" points="66.52 84.5 115.99 73.74 124.75 72.05 116.04 74.09 66.52 84.5"/><polygon class="cls-8" points="66.52 84.5 116.56 78.9 125.42 78.25 116.61 79.47 66.52 84.5"/><polygon class="cls-8" points="66.52 84.5 116.78 84.32 125.65 84.5 116.78 84.68 66.52 84.5"/></g><path class="cls-9" d="M0,0H133V169H0V0ZM21.35,6.22c0,7.51-6.84,13.65-15.19,13.65V150.38c8.35,0,15.19,6.14,15.19,13.65h89.87c0-7.51,6.84-13.65,15.19-13.65V19.87c-8.35,0-15.19-6.14-15.19-13.65Z"/><path class="cls-10" d="M23.24,8.42h86.4V8.7a12.12,12.12,0,0,0,4.18,9,15,15,0,0,0,10.06,3.76h.31V148.76h-.31a15,15,0,0,0-10.06,3.76,12.13,12.13,0,0,0-4.18,9v.28H22.92v-.28a12.13,12.13,0,0,0-4.18-9,15,15,0,0,0-10-3.76H8.38V21.49h.31a15,15,0,0,0,10-3.76,12.12,12.12,0,0,0,4.18-9V8.42ZM109,9H23.55a12.68,12.68,0,0,1-4.36,9.15A15.73,15.73,0,0,1,9,22.06V148.2a15.63,15.63,0,0,1,10.18,3.92,12.64,12.64,0,0,1,4.36,9.15H109a12.69,12.69,0,0,1,4.37-9.15,15.63,15.63,0,0,1,10.18-3.92V22.06a15.73,15.73,0,0,1-10.18-3.92A12.73,12.73,0,0,1,109,9Z"/><path class="cls-11" d="M22.4,4.39v.84H21a11.75,11.75,0,0,1-.11,1.32L20,6.44a12.44,12.44,0,0,0,.11-1.61h.46V4.39ZM19.83,7.24a12.15,12.15,0,0,1-.43,1.57l.88.26a12.55,12.55,0,0,0,.46-1.67ZM19.1,9.58a11.89,11.89,0,0,1-.74,1.47l.82.39A12,12,0,0,0,20,9.88l-.87-.3Zm-1.18,2.18a14.35,14.35,0,0,1-1,1.33l.73.51a13.27,13.27,0,0,0,1.09-1.41Zm-1.6,2c-.4.4-.83.79-1.27,1.15l.61.62A14.29,14.29,0,0,0,17,14.26Zm-2,1.67a15.93,15.93,0,0,1-1.48.92l.49.72a15.8,15.8,0,0,0,1.56-1ZM12.1,16.71a15.49,15.49,0,0,1-1.63.67l.33.78a15.54,15.54,0,0,0,1.74-.72Zm-2.49.94a16.31,16.31,0,0,1-1.74.4l.17.82c.64-.11,1.24-.25,1.86-.42ZM7,18.18c-.6.06-1.19.1-1.8.11v.83c.64,0,1.27,0,1.91-.11ZM4.61,19.44h.93v1.67H4.61Zm0,2.5h.93v1.67H4.61Zm0,2.51h.93v1.66H4.61Zm0,2.5h.93v1.67H4.61Zm0,2.5h.93v1.67H4.61Zm0,2.51h.93v1.66H4.61Zm0,2.5h.93v1.67H4.61Zm0,2.5h.93v1.67H4.61Zm0,2.5h.93v1.67H4.61Zm0,2.51h.93v1.67H4.61Zm0,2.5h.93v1.67H4.61Zm0,2.5h.93v1.67H4.61Zm0,2.51h.93v1.67H4.61Zm0,2.5h.93v1.67H4.61Zm0,2.5h.93v1.67H4.61Zm0,2.51h.93v1.67H4.61Zm0,2.5h.93v1.67H4.61Zm0,2.5h.93v1.67H4.61Zm0,2.51h.93v1.66H4.61Zm0,2.5h.93v1.67H4.61Zm0,2.5h.93v1.67H4.61Zm0,2.5h.93v1.67H4.61Zm0,2.51h.93v1.67H4.61Zm0,2.5h.93v1.67H4.61Zm0,2.5h.93v1.67H4.61Zm0,2.51h.93v1.67H4.61Zm0,2.5h.93v1.67H4.61Zm0,2.5h.93v1.67H4.61Zm0,2.51h.93V91.2H4.61Zm0,2.5h.93V93.7H4.61Zm0,2.5h.93V96.2H4.61Zm0,2.51h.93V98.7H4.61Zm0,2.5h.93v1.67H4.61Zm0,2.5h.93v1.67H4.61Zm0,2.51h.93v1.66H4.61Zm0,2.5h.93v1.67H4.61Zm0,2.5h.93v1.67H4.61Zm0,2.5h.93v1.67H4.61Zm0,2.51h.93v1.67H4.61Zm0,2.5h.93v1.67H4.61Zm0,2.5h.93v1.67H4.61Zm0,2.51h.93v1.67H4.61Zm0,2.5h.93v1.67H4.61Zm0,2.5h.93v1.67H4.61Zm0,2.51h.93v1.67H4.61Zm0,2.5h.93v1.67H4.61Zm0,2.5h.93v1.67H4.61Zm0,2.51h.93v1.66H4.61Zm0,2.5h.93v1.67H4.61Zm0,2.5h.93v1.67H4.61Zm0,2.51h.93v1.66H4.61Zm0,2.5h.93v1.67H4.61Zm0,2.5h.93v1.67H4.61ZM5.68,152a15.45,15.45,0,0,1,1.79.16l.15-.83c-.63-.09-1.26-.14-1.9-.17Zm2.67.31a16.89,16.89,0,0,1,1.73.45l.32-.78a16.57,16.57,0,0,0-1.84-.48Zm2.57.75a11.62,11.62,0,0,1,1.61.72L13,153a15.41,15.41,0,0,0-1.71-.77Zm2.38,1.14a15.85,15.85,0,0,1,1.44,1l.6-.64a16.35,16.35,0,0,0-1.53-1l-.51.69Zm2.11,1.52a13.71,13.71,0,0,1,1.23,1.18l.71-.53a14.08,14.08,0,0,0-1.3-1.26Zm1.78,1.82a14.16,14.16,0,0,1,1,1.36l.81-.41a14.61,14.61,0,0,0-1-1.44Zm1.39,2.08a13.42,13.42,0,0,1,.69,1.49l.88-.27a14.19,14.19,0,0,0-.73-1.59Zm1,2.26a12.89,12.89,0,0,1,.37,1.58l.92-.12a14.13,14.13,0,0,0-.4-1.68Zm.48,2.39c.05.55.06,1.06.06,1.61h1V165h0q0-.42-.06-.84ZM22,165.86V165h1.85v.84Zm2.78,0V165H26.6v.84Zm2.79,0V165h1.86v.84Zm2.79,0V165h1.85v.84Zm2.78,0V165H35v.84Zm2.79,0V165h1.85v.84Zm2.78,0V165h1.86v.84Zm2.79,0V165h1.86v.84Zm2.79,0V165H46.1v.84Zm2.78,0V165h1.86v.84Zm2.79,0V165h1.85v.84Zm2.78,0V165h1.86v.84Zm2.79,0V165h1.86v.84Zm2.79,0V165H60v.84Zm2.78,0V165h1.86v.84Zm2.79,0V165H65.6v.84Zm2.78,0V165h1.86v.84Zm2.79,0V165h1.86v.84Zm2.79,0V165H74v.84Zm2.78,0V165h1.86v.84Zm2.79,0V165h1.85v.84Zm2.78,0V165h1.86v.84Zm2.79,0V165h1.86v.84Zm2.79,0V165h1.85v.84Zm2.78,0V165h1.86v.84Zm2.79,0V165h1.86v.84Zm2.78,0V165h1.86v.84Zm2.79,0V165H99v.84Zm2.79,0V165h1.85v.84Zm2.78,0V165h1.86v.84Zm2.79,0V165h1.86v.84Zm2.78,0V165h1.86v.84Zm2.79,0V165h.46c0-.15,0-.3,0-.45l.93.05c0,.42,0,.82,0,1.24Zm1.49-2a10.68,10.68,0,0,1,.33-1.59L112,162a10.91,10.91,0,0,0-.35,1.7Zm.57-2.37a11.79,11.79,0,0,1,.64-1.51l-.85-.35a13.38,13.38,0,0,0-.68,1.61Zm1-2.24a11.58,11.58,0,0,1,.94-1.38l-.77-.48a14.53,14.53,0,0,0-1,1.47l.82.39Zm1.47-2a15.08,15.08,0,0,1,1.19-1.21l-.66-.59a15.31,15.31,0,0,0-1.26,1.29l.73.51Zm1.84-1.77a15.59,15.59,0,0,1,1.41-1l-.53-.69a16.09,16.09,0,0,0-1.49,1.07l.61.62Zm2.17-1.45a15.29,15.29,0,0,1,1.58-.76l-.38-.76a17.47,17.47,0,0,0-1.69.81Zm2.41-1.08a16.89,16.89,0,0,1,1.72-.49l-.23-.81a18.91,18.91,0,0,0-1.82.52l.33.78Zm2.6-.67a15.14,15.14,0,0,1,1.78-.2l-.06-.84c-.64,0-1.26.12-1.89.22l.17.82Zm2.68-.23H128v-2H127v1.56l.34.31V152Zm.58-2.82H127v-1.66H128Zm0-2.5H127V145H128Zm0-2.5H127v-1.67H128Zm0-2.51H127V140H128Zm0-2.5H127v-1.67H128Zm0-2.5H127V135H128Zm0-2.5H127v-1.67H128Zm0-2.51H127V130H128Zm0-2.5H127v-1.67H128Zm0-2.5H127V125H128Zm0-2.51H127v-1.67H128Zm0-2.5H127V120H128Zm0-2.5H127v-1.67H128Zm0-2.51H127v-1.67H128Zm0-2.5H127v-1.67H128Zm0-2.5H127v-1.67H128Zm0-2.51H127v-1.66H128Zm0-2.5H127v-1.67H128Zm0-2.5H127v-1.67H128Zm0-2.51H127V99.93H128Zm0-2.5H127V97.42H128Zm0-2.5H127V94.92H128Zm0-2.5H127V92.42H128Zm0-2.51H127V89.91H128Zm0-2.5H127V87.41H128Zm0-2.5H127V84.91H128Zm0-2.51H127V82.4H128Zm0-2.5H127V79.9H128Zm0-2.5H127V77.4H128Zm0-2.51H127V74.89H128Zm0-2.5H127V72.39H128Zm0-2.5H127V69.89H128Zm0-2.51H127V67.39H128Zm0-2.5H127V64.88H128Zm0-2.5H127V62.38H128Zm0-2.5H127V59.88H128ZM128,59H127V57.37H128Zm0-2.5H127V54.87H128Zm0-2.5H127V52.37H128Zm0-2.51H127V49.86H128Zm0-2.5H127V47.36H128Zm0-2.5H127V44.86H128ZM128,44H127V42.35H128Zm0-2.5H127V39.85H128Zm0-2.5H127V37.35H128Zm0-2.51H127V34.85H128Zm0-2.5H127V32.34H128Zm0-2.5H127V29.84H128ZM128,29H127V27.34H128Zm0-2.5H127V24.83H128Zm0-2.5H127V22.33H128Zm0-2.51H127V19.83H128Zm0-2.5h-.6l.14.13c-.53,0-1,0-1.58-.07l.09-.83c.67.06,1.29.07,2,.07Zm-2.84-.87a17,17,0,0,1-1.75-.36l-.27.8a17.21,17.21,0,0,0,1.87.38Zm-2.61-.61a15.76,15.76,0,0,1-1.66-.63h0l-.42.75c.58.25,1.16.47,1.76.67Zm-2.45-1a16.17,16.17,0,0,1-1.51-.89l-.55.66a14.2,14.2,0,0,0,1.59.95Zm-2.21-1.4A14,14,0,0,1,116.53,14l-.68.57a17.64,17.64,0,0,0,1.39,1.18l.6-.64Zm-1.9-1.72a13.57,13.57,0,0,1-1.07-1.31l-.78.46a14.79,14.79,0,0,0,1.13,1.38Zm-1.53-2a12.81,12.81,0,0,1-.79-1.45l-.86.31a15.47,15.47,0,0,0,.84,1.55ZM113.3,9.17a14.06,14.06,0,0,1-.48-1.56l-.91.18a16.5,16.5,0,0,0,.51,1.65Zm-.64-2.35a12.54,12.54,0,0,1-.16-1.61l-.93,0a14.14,14.14,0,0,0,.17,1.71Zm-1.11-2.43v.84h-1.86V4.39Zm-2.78,0v.84h-1.86V4.39Zm-2.79,0v.84h-1.86V4.39Zm-2.79,0v.84h-1.85V4.39Zm-2.78,0v.84H98.55V4.39Zm-2.79,0v.84H95.76V4.39Zm-2.78,0v.84H93V4.39Zm-2.79,0v.84H90.19V4.39Zm-2.79,0v.84H87.41V4.39Zm-2.78,0v.84H84.62V4.39Zm-2.79,0v.84H81.83V4.39Zm-2.78,0v.84H79.05V4.39Zm-2.79,0v.84H76.26V4.39Zm-2.79,0v.84H73.48V4.39Zm-2.78,0v.84H70.69V4.39Zm-2.79,0v.84H67.9V4.39ZM67,4.39v.84H65.12V4.39Zm-2.79,0v.84H62.33V4.39Zm-2.79,0v.84H59.55V4.39Zm-2.78,0v.84H56.76V4.39Zm-2.79,0v.84H54V4.39Zm-2.78,0v.84H51.19V4.39Zm-2.79,0v.84H48.4V4.39Zm-2.79,0v.84H45.62V4.39Zm-2.78,0v.84H42.83V4.39Zm-2.79,0v.84H40V4.39Zm-2.79,0v.84H37.26V4.39Zm-2.78,0v.84H34.47V4.39Zm-2.79,0v.84H31.69V4.39Zm-2.78,0v.84H28.9V4.39ZM28,4.39v.84H26.11V4.39Zm-2.79,0v.84H23.33V4.39Z"/><g id="_1765966960" data-name=" 1765966960"><path class="cls-10" d="M10.81,5.34a3.7,3.7,0,0,0-2.17.1,2.82,2.82,0,0,0-2,2.13c-.24,1.8,2.12,3.43,3.7,2.94s2.14-2.89.88-3.63S8,6.65,8,7.84a1.07,1.07,0,0,0,2,.65c.54-.75-.61-1-.77-.85A.69.69,0,0,0,9,8s-.08,0-.14-.14-.1-.53.37-.56,1.09,0,1.28.7a1.25,1.25,0,0,1-.31,1.09,1.47,1.47,0,0,1-1.62.36,1.67,1.67,0,0,1-1.17-1.3A2.15,2.15,0,0,1,8.89,5.93a3,3,0,0,1,3.9,1.64c.63,1.65-1.15,4.13-3.28,4A4.19,4.19,0,0,1,5.82,9.05c-.89-2.19.87-3.86,2.61-4.29C9.48,4.5,10.72,4.69,10.81,5.34Z"/><path class="cls-10" d="M11.93,163.66a3.74,3.74,0,0,1-2.18-.1,2.81,2.81,0,0,1-2-2.13c-.24-1.8,2.12-3.43,3.7-2.94s2.13,2.89.88,3.63-3.19.23-3.24-1a1.07,1.07,0,0,1,1.94-.65c.54.75-.61,1-.76.85a.69.69,0,0,1-.18-.32s-.08,0-.14.14-.1.53.37.56,1.09,0,1.28-.7a1.25,1.25,0,0,0-.31-1.09,1.47,1.47,0,0,0-1.62-.36,1.7,1.7,0,0,0-1.18,1.3A2.16,2.16,0,0,0,10,163.07a3,3,0,0,0,3.9-1.64c.63-1.65-1.15-4.13-3.28-4A4.18,4.18,0,0,0,6.94,160c-.89,2.19.87,3.86,2.61,4.29C10.59,164.5,11.84,164.31,11.93,163.66Z"/><path class="cls-10" d="M121.07,5.34a3.74,3.74,0,0,1,2.18.1,2.81,2.81,0,0,1,2,2.13c.24,1.8-2.12,3.43-3.7,2.94s-2.13-2.89-.88-3.63,3.19-.23,3.24,1a1.07,1.07,0,0,1-1.94.65c-.55-.75.6-1,.76-.85a.69.69,0,0,1,.18.32s.08,0,.14-.14.1-.53-.37-.56-1.09,0-1.28.7a1.25,1.25,0,0,0,.31,1.09,1.47,1.47,0,0,0,1.62.36,1.67,1.67,0,0,0,1.17-1.3c.21-.79-.53-1.81-1.51-2.18a3,3,0,0,0-3.9,1.64c-.63,1.65,1.15,4.13,3.28,4a4.18,4.18,0,0,0,3.69-2.56c.89-2.19-.87-3.86-2.61-4.29-1-.26-2.29-.07-2.38.58Z"/><path class="cls-10" d="M122.18,163.66a3.73,3.73,0,0,0,2.18-.1,2.82,2.82,0,0,0,2-2.13c.24-1.8-2.12-3.43-3.71-2.94s-2.13,2.89-.87,3.63,3.19.23,3.24-1a1.07,1.07,0,0,0-2-.65c-.54.75.61,1,.77.85A.69.69,0,0,0,124,161s.08,0,.14.14.1.53-.37.56-1.09,0-1.28-.7a1.25,1.25,0,0,1,.31-1.09,1.47,1.47,0,0,1,1.62-.36,1.67,1.67,0,0,1,1.17,1.3,2.15,2.15,0,0,1-1.51,2.18,3,3,0,0,1-3.9-1.64c-.63-1.65,1.15-4.13,3.28-4a4.19,4.19,0,0,1,3.69,2.56c.89,2.19-.87,3.86-2.61,4.29-1,.26-2.29.07-2.38-.58Z"/></g><path class="cls-12" d="M57.45,82.36a8.65,8.65,0,1,0,8.64-8.67A8.66,8.66,0,0,0,57.45,82.36Z"/><path class="cls-13" d="M66.73,85.9H61.47a1.32,1.32,0,0,1-1.36-1.3,2.27,2.27,0,0,1,.66-1.53l5.54-6.47a2.07,2.07,0,0,1,1.76-.95A1.34,1.34,0,0,1,69.42,77v6.62h.67a1.15,1.15,0,0,1,1.15,1.16,1.13,1.13,0,0,1-1.15,1.13h-.67v1.54a1.34,1.34,0,0,1-1.35,1.34,1.33,1.33,0,0,1-1.34-1.34Zm0-2.29v-4l-3.39,4Z"/><path class="cls-14" d="M96.54,58.24H82.29A5.22,5.22,0,0,0,77,63.51V89.38s0,0,0,0v7.25a12,12,0,0,1-11.58,12,4.57,4.57,0,0,0-2.25.25,3.74,3.74,0,0,0-1,.65,5.39,5.39,0,0,0-1.49,1.52,4.11,4.11,0,0,1-1.19.91c-3.23,1.45-8.39-1.09-9.69,2.91,1.52,2,6.74-.54,8.77,2-2.72-.76-5.66.45-9.81-.8l-5.39-1.76h0c-1.47-.37-2.91-.69-4.37.53,5.83,3.31,13,6.53,20.12,6.25a39,39,0,0,0,16.56-4.62,22.4,22.4,0,0,0,5-3.68l.09-.09a0,0,0,0,0,0,0,22.47,22.47,0,0,0,6.73-16v-4.9h8c10.7,0,19.3-5.75,19.3-16.83V74.8C114.82,65,107.93,58.24,96.54,58.24Zm7.64,16.9c0,4.11-3.07,7.26-8.32,7.26H87.54V67.75h8.11c5.25,0,8.53,2.54,8.53,7.26Z"/><path class="cls-14" d="M69,55.85a3.47,3.47,0,0,0,1-.66,5.32,5.32,0,0,0,1.48-1.51,4.15,4.15,0,0,1,1.19-.92c3.23-1.45,8.39,1.1,9.69-2.9-1.52-2-6.74.53-8.77-2,2.72.76,5.67-.44,9.82.81l5.38,1.76h0c1.47.37,2.91.69,4.37-.54-5.83-3.3-13-6.52-20.12-6.25a38.91,38.91,0,0,0-16.56,4.63,22.38,22.38,0,0,0-5,3.67l-.1.09,0,0a22.45,22.45,0,0,0-6.73,16.05V85.68c0,7.6-3.88,11.5-10.3,11.5S24,93.14,24,85.34V63.1a5.26,5.26,0,1,0-10.51,0V85.61c0,14.1,7.85,21.28,20.67,21.28s20.94-7.11,20.94-21.62V68.06a12,12,0,0,1,11.58-12A4.57,4.57,0,0,0,69,55.85Z"/></g></g></svg>