<svg xmlns="http://www.w3.org/2000/svg" xmlns:xlink="http://www.w3.org/1999/xlink" viewBox="0 0 1346.89 699.73"><defs><style>.cls-1{mask:url(#mask);filter:url(#luminosity-noclip-3);}.cls-2,.cls-4{mix-blend-mode:multiply;}.cls-2{fill:url(#linear-gradient);}.cls-3{mask:url(#mask-2);filter:url(#luminosity-noclip-4);}.cls-4{fill:url(#linear-gradient-2);}.cls-5{isolation:isolate;}.cls-6{opacity:0.2;}.cls-7{fill:url(#linear-gradient-3);}.cls-8{fill:url(#linear-gradient-4);}.cls-9{mask:url(#mask-3);}.cls-10,.cls-13,.cls-17{opacity:0.3;}.cls-10{fill:url(#linear-gradient-5);}.cls-11{fill:#5c0000;}.cls-12{fill:url(#linear-gradient-6);}.cls-14{fill:url(#linear-gradient-7);}.cls-15{fill:url(#linear-gradient-8);}.cls-16{mask:url(#mask-4);}.cls-17{fill:url(#linear-gradient-9);}.cls-18{fill:url(#linear-gradient-10);}.cls-19{fill:url(#linear-gradient-11);}.cls-20{fill:url(#linear-gradient-12);}.cls-21,.cls-27,.cls-28,.cls-29,.cls-30,.cls-32,.cls-33,.cls-34,.cls-39,.cls-40,.cls-42,.cls-43,.cls-44{mix-blend-mode:luminosity;}.cls-21{fill:url(#linear-gradient-13);}.cls-22{fill:url(#linear-gradient-14);}.cls-23{fill:#ff9eac;}.cls-24{fill:url(#linear-gradient-15);}.cls-25{fill:url(#linear-gradient-16);}.cls-26{fill:#78001e;}.cls-27{fill:#ffffc0;}.cls-28{fill:#ffb45c;}.cls-29{fill:#a56438;}.cls-30{fill:#ffd874;}.cls-31,.cls-48{fill:#fff;}.cls-32{fill:url(#linear-gradient-17);}.cls-33{fill:url(#linear-gradient-18);}.cls-34{fill:url(#linear-gradient-19);}.cls-35{fill:url(#linear-gradient-20);}.cls-36{fill:url(#linear-gradient-21);}.cls-37{fill:url(#linear-gradient-22);}.cls-38{fill:#ff8fcf;}.cls-39{fill:#ffe87a;}.cls-40,.cls-41{fill:#ffffab;}.cls-42{fill:url(#linear-gradient-23);}.cls-43{fill:url(#linear-gradient-24);}.cls-44{fill:url(#linear-gradient-25);}.cls-45{fill:url(#linear-gradient-26);}.cls-46{fill:url(#linear-gradient-27);}.cls-47{fill:url(#linear-gradient-28);}.cls-48{font-size:164.29px;font-family:Roboto-Bold, Roboto;font-weight:700;}.cls-49{letter-spacing:-0.01em;}.cls-50{filter:url(#luminosity-noclip-2);}.cls-51{filter:url(#luminosity-noclip);}</style><filter id="luminosity-noclip" x="1159.2" y="-11769.1" width="154.6" height="32766" filterUnits="userSpaceOnUse" color-interpolation-filters="sRGB"><feFlood flood-color="#fff" result="bg"/><feBlend in="SourceGraphic" in2="bg"/></filter><mask id="mask" x="1159.2" y="-11769.1" width="154.6" height="32766" maskUnits="userSpaceOnUse"><g class="cls-51"/></mask><linearGradient id="linear-gradient" x1="1159.2" y1="554.3" x2="1313.8" y2="554.3" gradientUnits="userSpaceOnUse"><stop offset="0" stop-color="#fff"/><stop offset="0.97"/></linearGradient><filter id="luminosity-noclip-2" x="33.1" y="-11769.1" width="154.6" height="32766" filterUnits="userSpaceOnUse" color-interpolation-filters="sRGB"><feFlood flood-color="#fff" result="bg"/><feBlend in="SourceGraphic" in2="bg"/></filter><mask id="mask-2" x="33.1" y="-11769.1" width="154.6" height="32766" maskUnits="userSpaceOnUse"><g class="cls-50"/></mask><linearGradient id="linear-gradient-2" x1="-207.26" y1="554.3" x2="-52.66" y2="554.3" gradientTransform="matrix(-1, 0, 0, 1, -19.55, 0)" xlink:href="#linear-gradient"/><linearGradient id="linear-gradient-3" x1="1129.81" y1="585.36" x2="1440.34" y2="461.15" gradientUnits="userSpaceOnUse"><stop offset="0" stop-color="#5c0000"/><stop offset="0.52" stop-color="#c70000"/><stop offset="1" stop-color="#5c0000"/></linearGradient><linearGradient id="linear-gradient-4" x1="1388.88" y1="535.45" x2="1115.45" y2="547.52" gradientUnits="userSpaceOnUse"><stop offset="0" stop-color="#ff3847"/><stop offset="0.02" stop-color="#ff9eac"/><stop offset="0.05" stop-color="#ff5f6b"/><stop offset="0.93" stop-color="#d40040"/></linearGradient><filter id="luminosity-noclip-3" x="1159.2" y="439.84" width="154.6" height="228.92" filterUnits="userSpaceOnUse" color-interpolation-filters="sRGB"><feFlood flood-color="#fff" result="bg"/><feBlend in="SourceGraphic" in2="bg"/></filter><mask id="mask-3" x="1159.2" y="439.84" width="154.6" height="228.92" maskUnits="userSpaceOnUse"><g class="cls-1"><path class="cls-2" d="M1313.8,662.16s-26.3-55-22.06-97.25,11.88-125.07,11.88-125.07l-49.21.86-73.81,55.2-21.2,143.19s-2.93,21.4,13.79,24.8c13.8,2.8,29,4.77,41.73,4.85C1285.12,669.17,1313.8,662.16,1313.8,662.16Z"/></g></mask><linearGradient id="linear-gradient-5" x1="1159.2" y1="554.3" x2="1313.8" y2="554.3" gradientUnits="userSpaceOnUse"><stop offset="0"/><stop offset="0.97" stop-color="#0fb8ff"/></linearGradient><linearGradient id="linear-gradient-6" x1="1125.36" y1="523.5" x2="1283" y2="523.5" gradientUnits="userSpaceOnUse"><stop offset="0.02" stop-color="#ff9eac"/><stop offset="0.17" stop-color="#ff3847"/><stop offset="0.58" stop-color="#8d0000"/><stop offset="0.91" stop-color="#ff3847"/></linearGradient><linearGradient id="linear-gradient-7" x1="188.13" y1="588.28" x2="-62.01" y2="445.96" xlink:href="#linear-gradient-3"/><linearGradient id="linear-gradient-8" x1="-36.48" y1="527.13" x2="296.4" y2="557.99" xlink:href="#linear-gradient-4"/><filter id="luminosity-noclip-4" x="33.1" y="439.84" width="154.6" height="228.92" filterUnits="userSpaceOnUse" color-interpolation-filters="sRGB"><feFlood flood-color="#fff" result="bg"/><feBlend in="SourceGraphic" in2="bg"/></filter><mask id="mask-4" x="33.1" y="439.84" width="154.6" height="228.92" maskUnits="userSpaceOnUse"><g class="cls-3"><path class="cls-4" d="M33.1,662.16s26.3-55,22.06-97.25S43.28,439.84,43.28,439.84l49.21.86,73.82,55.2,21.2,143.19s2.91,21.4-13.81,24.8c-13.8,2.8-29,4.77-41.73,4.85C61.78,669.17,33.1,662.16,33.1,662.16Z"/></g></mask><linearGradient id="linear-gradient-9" x1="-207.26" y1="554.3" x2="-52.66" y2="554.3" gradientTransform="matrix(-1, 0, 0, 1, -19.55, 0)" xlink:href="#linear-gradient-5"/><linearGradient id="linear-gradient-10" x1="-240.91" y1="523.5" x2="-77.44" y2="523.5" gradientTransform="matrix(-1, 0, 0, 1, -19.55, 0)" xlink:href="#linear-gradient-6"/><linearGradient id="linear-gradient-11" x1="55.75" y1="453.74" x2="1293.18" y2="453.74" xlink:href="#linear-gradient-3"/><linearGradient id="linear-gradient-12" x1="-1068.24" y1="457.63" x2="211.85" y2="457.63" gradientTransform="matrix(-1, 0, 0, 1, 230.49, 0)" gradientUnits="userSpaceOnUse"><stop offset="0" stop-color="#ff3847"/><stop offset="0.02" stop-color="#ff9eac"/><stop offset="0.05" stop-color="#ff5f6b"/><stop offset="0.52" stop-color="#ff3040"/><stop offset="0.9" stop-color="#ff3847"/><stop offset="0.95" stop-color="#ff9eac"/><stop offset="0.98" stop-color="#ff3847"/></linearGradient><linearGradient id="linear-gradient-13" x1="453.15" y1="129.97" x2="893.75" y2="129.97" gradientUnits="userSpaceOnUse"><stop offset="0.04" stop-color="#ffad01"/><stop offset="0.16" stop-color="#ffd032"/><stop offset="0.25" stop-color="#ffd236"/><stop offset="0.35" stop-color="#ffd643"/><stop offset="0.45" stop-color="#ffde58"/><stop offset="0.54" stop-color="#ffe975"/><stop offset="0.56" stop-color="#ffeb79"/><stop offset="0.6" stop-color="#ffe770"/><stop offset="0.73" stop-color="#ffd74d"/><stop offset="0.84" stop-color="#ffcb35"/><stop offset="0.91" stop-color="#ffc72c"/><stop offset="1" stop-color="#ff8701"/></linearGradient><linearGradient id="linear-gradient-14" x1="455.83" y1="256.57" x2="887.7" y2="256.57" gradientUnits="userSpaceOnUse"><stop offset="0.03" stop-color="#ff3847"/><stop offset="0.06" stop-color="#ff9eac"/><stop offset="0.08" stop-color="#ff5f6b"/><stop offset="0.52" stop-color="#ff3040"/><stop offset="0.9" stop-color="#ff3847"/><stop offset="0.95" stop-color="#ff9eac"/><stop offset="0.98" stop-color="#ff3847"/></linearGradient><linearGradient id="linear-gradient-15" x1="670.67" y1="278.44" x2="671.61" y2="526.57" gradientUnits="userSpaceOnUse"><stop offset="0.11" stop-color="#460040"/><stop offset="0.34" stop-color="#ff3040"/><stop offset="0.9" stop-color="#ff87a1"/></linearGradient><linearGradient id="linear-gradient-16" x1="672.57" y1="389.32" x2="664.64" y2="26.15" gradientUnits="userSpaceOnUse"><stop offset="0" stop-color="#1a0040"/><stop offset="0.46" stop-color="#ff3040"/><stop offset="0.9" stop-color="#ff87a1"/></linearGradient><linearGradient id="linear-gradient-17" x1="685.5" y1="285.28" x2="1029.68" y2="285.28" gradientTransform="translate(-637.36 108.93) rotate(-12.95)" xlink:href="#linear-gradient-13"/><linearGradient id="linear-gradient-18" x1="733.23" y1="232.55" x2="731.6" y2="286.62" gradientTransform="translate(-637.36 108.93) rotate(-12.95)" gradientUnits="userSpaceOnUse"><stop offset="0.22" stop-color="#ffad01"/><stop offset="1" stop-color="#ff8701"/></linearGradient><linearGradient id="linear-gradient-19" x1="980.24" y1="237.16" x2="979.72" y2="283.57" xlink:href="#linear-gradient-18"/><linearGradient id="linear-gradient-20" x1="687.84" y1="384.17" x2="1026.29" y2="384.17" gradientTransform="translate(-637.36 108.93) rotate(-12.95)" gradientUnits="userSpaceOnUse"><stop offset="0.03" stop-color="#ff3847"/><stop offset="0.06" stop-color="#ff9eac"/><stop offset="0.11" stop-color="#ff5f6b"/><stop offset="0.52" stop-color="#ff3040"/><stop offset="0.9" stop-color="#ff3847"/><stop offset="0.95" stop-color="#ff9eac"/><stop offset="0.98" stop-color="#ff3847"/></linearGradient><linearGradient id="linear-gradient-21" x1="855.41" y1="401.26" x2="856.15" y2="595.03" gradientTransform="translate(-637.36 108.93) rotate(-12.95)" xlink:href="#linear-gradient-15"/><linearGradient id="linear-gradient-22" x1="856.43" y1="466.65" x2="850.23" y2="182.97" gradientTransform="translate(-637.36 108.93) rotate(-12.95)" xlink:href="#linear-gradient-16"/><linearGradient id="linear-gradient-23" x1="405.7" y1="220.94" x2="749.88" y2="220.94" gradientTransform="matrix(-0.97, -0.22, -0.22, 0.97, 1697.15, 108.93)" xlink:href="#linear-gradient-13"/><linearGradient id="linear-gradient-24" x1="453.44" y1="168.22" x2="451.81" y2="222.28" gradientTransform="matrix(-0.97, -0.22, -0.22, 0.97, 1697.15, 108.93)" xlink:href="#linear-gradient-18"/><linearGradient id="linear-gradient-25" x1="700.44" y1="172.82" x2="699.93" y2="219.24" gradientTransform="matrix(-0.97, -0.22, -0.22, 0.97, 1697.15, 108.93)" xlink:href="#linear-gradient-18"/><linearGradient id="linear-gradient-26" x1="405.14" y1="319.83" x2="752.66" y2="319.83" gradientTransform="matrix(-0.97, -0.22, -0.22, 0.97, 1697.15, 108.93)" gradientUnits="userSpaceOnUse"><stop offset="0.03" stop-color="#ff3847"/><stop offset="0.06" stop-color="#ff9eac"/><stop offset="0.08" stop-color="#ff5f6b"/><stop offset="0.52" stop-color="#ff3040"/><stop offset="0.9" stop-color="#ff3847"/><stop offset="0.93" stop-color="#ff9eac"/><stop offset="0.98" stop-color="#ff3847"/></linearGradient><linearGradient id="linear-gradient-27" x1="575.61" y1="336.92" x2="576.35" y2="530.7" gradientTransform="matrix(-0.97, -0.22, -0.22, 0.97, 1697.15, 108.93)" xlink:href="#linear-gradient-15"/><linearGradient id="linear-gradient-28" x1="576.63" y1="402.31" x2="570.44" y2="118.64" gradientTransform="matrix(-0.97, -0.22, -0.22, 0.97, 1697.15, 108.93)" xlink:href="#linear-gradient-16"/></defs><title>gameover</title><g class="cls-5"><g id="Layer_1" data-name="Layer 1"><path class="cls-6" d="M1340.44,660.8c-7-21.07-21-65.32-21-85.64,0-9.76,3.13-25,7.19-40.6,6.48-23.58,15.23-49.46,19.75-62a9.05,9.05,0,0,0-9.72-12c-17.78,2.39-32.93,4.27-46.21,5.73l2-31a24,24,0,0,0,.39-6.22c2.33-15.09-7.92-31-23.93-41.26-8.6-5.5-24.69-11.49-46.89-17.6l8.53-20.46-3.41-13.5-5.23-2.38,4.6-9.66,0-.24,0-.06a10.17,10.17,0,0,0-.21-4.94,17.92,17.92,0,0,0-5.15-8.85l13.08-28.37,10.45-16c-.38-1.31-.82-2.62-1.28-3.92L1261.82,222a106.1,106.1,0,0,0-8.94-13.86h0l-.06-.08c-.16-.22-.34-.43-.5-.64l-3.23-4.1-38.29-8.74.09,0,0,0h0L1189,221l-9,10.83-19.17-9.51-3.18-80.58s-39.85-18.68-98.43-22.54c-19.61,30.22-35.66,65.17-38.29,71L997.52,186l.33,0-.44,0-.43-.07-11.56-47-35.08-4.31-1.43.9a106.58,106.58,0,0,0-23.78,14.79l-.27,41.14c-.41.3-.85.59-1.25.9l-7.55,71.43-4.22-.1-9,10.67-1.37,24.2,3.77,5.23-.29,2.76-5.49-.15-9.58,10.68-.62,4.31q-7.92-.58-15.89-1.14l1-4.14-1.84-4.52,8.15-7.15,5.23-30.59L877.81,258l-7.16-1.47,2.45-11.19h0l.56-2.57a13.44,13.44,0,0,0-2.34-7.33L895.46,155a101.8,101.8,0,0,0-8.69-11l7-31.28a136.44,136.44,0,0,0-25.67-25.53l-1.28-1.29-45-4.68-27.91,55.3-.49,0-.6-.17.45.16-30.41-1.53c-1.6-8-11.6-56.21-27.41-99.53-74.19-12-129.26-.11-129.26-.11l-27.08,99.62-26.64,6.36L550.8,138,524.6,86h0l0-.06h0l.13,0-49.56-.07h-.7L470,89.44c-.54.44-1.11.87-1.64,1.32l-.07,0h0a137.77,137.77,0,0,0-15.14,14.74l6.66,31.84a115.3,115.3,0,0,0-9.65,10.43l23.15,83.44a20.78,20.78,0,0,0-3.73,5.37,13.24,13.24,0,0,0-1.58,5.2c0,.23-.05.42-.06.6s0,.19,0,.29v0c0,.23,0,.36,0,.36l3,13.37L463.69,258l-8.13,15.88,5.23,30.59,6.69,5.87-2.41,5.8,1.3,5.52-10.95.83-.72-5.38-9.49-10.68-5.48.15,0-.11,5.69-7.88L444,274.34l-8.95-10.67-5.73.14-.09-9h0l0-2a9.47,9.47,0,0,0-1.54-3.36l-5.48-57.1-.16-.11-.27-41.93A106.54,106.54,0,0,0,398,135.5l-1.43-.89-35.08,4.31-11.55,47-.43.07-.44,0,.33,0L326,190.14c-2.62-5.81-18.67-40.76-38.29-71-58.57,3.86-98.42,22.54-98.42,22.54l-3.18,80.58-19.18,9.51-5-6.07-25.83-31.11h0l0,0,.09,0-38.29,8.74-2.61,3.33A107.33,107.33,0,0,0,85.08,222l17.41,37.76c-.79,2-1.54,4-2.15,6l17.17,26.6L125.68,310a17.81,17.81,0,0,0-5.15,8.87,10.13,10.13,0,0,0-.21,4.93l0,.07a1.45,1.45,0,0,0,.05.23l4.59,9.65-5.22,2.39-3.42,13.5,8.88,21.28c-21.6,5.87-37.17,11.58-45.31,16.78C64.13,397.82,54.05,413.46,56,428.37a24,24,0,0,0,.35,6.83l1.77,31.2c-13.68-1.48-29.36-3.42-47.89-5.91a9.05,9.05,0,0,0-9.72,12C5.1,485.18,13.92,511.29,20.41,535c4,15.46,7.1,30.51,7.09,40.18,0,19.82-13.31,62.39-20.5,84-2.51,7.46-4.78,13.89-6.46,18.5a9.07,9.07,0,0,0,7.32,12.08c13,1.74,24.56,3.22,35.1,4.47,6.13.92,15.25,2,27.72,3,18.65,1.75,33.43,2.52,46.75,2.52a335.47,335.47,0,0,0,43-2.78c19-2.37,39.08-6.15,43.35-20.4a9,9,0,0,0,1.68-5.21v-1.83a5.19,5.19,0,0,1,.33,1.6V613.46l.08-7.55c105.59-13.61,278-22.38,469-22.38h3.13c187.95.1,357.85,8.75,462.91,22.13l.09,8v57.43a5.19,5.19,0,0,1,.33-1.6v1.83a9,9,0,0,0,1.67,5.21c4.27,14.25,24.34,18,43.35,20.4a335.85,335.85,0,0,0,43,2.78c13.31,0,28.09-.77,46.74-2.52,12.49-.93,21.62-2.06,27.75-3,10.53-1.24,22.13-2.72,35.08-4.46a9.06,9.06,0,0,0,7.3-12.08C1344.79,673.42,1342.73,667.57,1340.44,660.8Zm-319-471-.23.43h-.08ZM762.57,134.92h-.1l-.16-.6ZM325.78,190.18h-.07l-.23-.41Z"/><path class="cls-7" d="M1229.47,669.43a334.11,334.11,0,0,1-43-2.79c-21.69-2.69-44.76-7.23-44.17-27V429.69c0-.53,0-1.07,0-1.6a9.07,9.07,0,0,1,9-8.73h.18a9.08,9.08,0,0,1,8.89,9.06v.81c.11.55,1.8,4.82,28.28,8.1a317.57,317.57,0,0,0,40.82,2.65c24.61,0,54.65-2.74,107.16-9.79a9,9,0,0,1,9.72,12c-7.74,21.51-27.85,82-27.81,103.25,0,21,20.09,80.69,27.8,101.91a9.06,9.06,0,0,1-7.3,12.08C1285.67,666.63,1255,669.43,1229.47,669.43ZM1160.37,450V639.75c0,.12,0,.22,0,.33-.09,2.44,7.3,6,28.29,8.58a317.64,317.64,0,0,0,40.82,2.66c22.83,0,50.33-2.37,96.1-8.34-7.84-22.61-25.11-75-25.15-97.46,0-21.72,15.77-71.12,24-95.45-44.57,5.74-71.93,8-95,8a337.67,337.67,0,0,1-43-2.78C1177.38,454.18,1168.09,452.75,1160.37,450Z"/><path class="cls-8" d="M1150.18,435.86c-.31,8.37,6,14.15,36.22,17.91,39.25,4.88,78,3.28,158-7.47,0,0-25.05,71-25,98.55,0,27.19,25,97.26,25,97.26-80,10.74-118.77,12.34-158,7.46-30.21-3.76-36.53-9.53-36.22-17.91Z"/><g class="cls-9"><path class="cls-10" d="M1313.8,662.16s-26.3-55-22.06-97.25,11.88-125.07,11.88-125.07l-49.21.86-73.81,55.2-21.2,143.19s-2.93,21.4,13.79,24.8c13.8,2.8,29,4.77,41.73,4.85C1285.12,669.17,1313.8,662.16,1313.8,662.16Z"/></g><path class="cls-11" d="M1277.89,406.2V615.37a9.05,9.05,0,0,1-4.24,7.67c-7.38,4.63-31.62,7.64-37.23,8.14-1.94.17-5.11.35-9.14.57-51.55,2.75-64.77,7.78-67.9,10.77a9,9,0,0,1-8.93,7.58h-.17a9.07,9.07,0,0,1-8.88-9.06V431.54c.7-18.87,31.66-24.22,84.91-27.07,3.74-.2,6.7-.34,8.51-.51,11.11-1,26.45-4,29.37-5.54a8.9,8.9,0,0,1,9.12-.2A9.05,9.05,0,0,1,1277.89,406.2Z"/><path class="cls-12" d="M1268.84,406.2c-4.15,2.6-22.74,5.85-33.22,6.78-13.11,1.16-93.94,2-94.55,18.66V640.81c.61-16.67,81.44-17.49,94.55-18.66,10.48-.93,29.07-4.18,33.22-6.78Z"/><path class="cls-13" d="M1268.84,622.21s-35.26-17.62-91.55-20.54c-26.75-1.38-36,1.18-36,1.18l-.86-78.48,133.75,11Z"/><path class="cls-14" d="M7.86,659.47A9.07,9.07,0,0,1,.54,647.39c7.73-21.22,27.78-80.9,27.82-101.91,0-21.25-20.07-81.74-27.82-103.25a9,9,0,0,1,9.72-12C62.77,437.24,92.82,440,117.43,440a317.57,317.57,0,0,0,40.82-2.65c26.47-3.28,28.17-7.55,28.28-8.1v-.81a9.07,9.07,0,0,1,8.89-9.06h.18a9.06,9.06,0,0,1,9,8.73c0,.53,0,1.07,0,1.6v209.9c.58,19.82-22.49,24.36-44.18,27a333.74,333.74,0,0,1-43,2.79C92,669.43,61.23,666.63,7.86,659.47ZM160.47,455.32a337.28,337.28,0,0,1-43,2.78c-23.07,0-50.42-2.29-95-8,8.27,24.33,24.07,73.73,24,95.45,0,22.46-17.31,74.85-25.15,97.46,45.77,6,73.28,8.34,96.11,8.34a317.64,317.64,0,0,0,40.82-2.66c21-2.61,28.38-6.14,28.28-8.58V450C178.8,452.75,169.51,454.18,160.47,455.32Z"/><path class="cls-15" d="M196.72,435.86c.31,8.37-6,14.15-36.23,17.91-39.25,4.88-78,3.28-158-7.47,0,0,25.06,71,25,98.55-.05,27.19-25,97.26-25,97.26,80,10.74,118.76,12.34,158,7.46,30.22-3.76,36.54-9.53,36.23-17.91Z"/><g class="cls-16"><path class="cls-17" d="M33.1,662.16s26.3-55,22.06-97.25S43.28,439.84,43.28,439.84l49.21.86,73.82,55.2,21.2,143.19s2.91,21.4-13.81,24.8c-13.8,2.8-29,4.77-41.73,4.85C61.78,669.17,33.1,662.16,33.1,662.16Z"/></g><path class="cls-11" d="M73.58,398.22a8.9,8.9,0,0,1,9.12.2C85.63,399.91,101,403,112.08,404c1.8.17,4.76.31,8.5.51,53.25,2.85,84.22,8.2,84.92,27.07V641a9.07,9.07,0,0,1-8.88,9.06h-.17a9.07,9.07,0,0,1-8.94-7.58c-3.13-3-16.35-8-67.9-10.77-4-.22-7.2-.4-9.14-.57-5.6-.5-29.86-3.51-37.22-8.14A9.06,9.06,0,0,1,69,615.37V406.2A9.05,9.05,0,0,1,73.58,398.22Z"/><path class="cls-18" d="M78.06,406.2c4.15,2.6,22.74,5.85,33.21,6.78,13.11,1.16,94,2,94.56,18.66V640.81c-.61-16.67-81.45-17.49-94.56-18.66-10.47-.93-29.06-4.18-33.21-6.78Z"/><path class="cls-13" d="M78.07,622.21s35.24-17.62,91.54-20.54c26.74-1.38,36,1.18,36,1.18l.87-78.48-133.76,11Z"/><path class="cls-19" d="M1292.77,399.19l-14,216.69a9.06,9.06,0,0,1-17.24,3.34c-4.72-10.05-6.5-13.24-15.83-19.69-37.91-26.24-281.92-46.15-567.6-46.3h-3.13c-287.85,0-533.67,19.91-571.79,46.3-9.33,6.45-11.1,9.64-15.82,19.69a9.09,9.09,0,0,1-8.2,5.21,8.46,8.46,0,0,1-1.73-.17,9,9,0,0,1-7.31-8.38L56.17,399.19c-2.65-15.24,7.56-31.42,23.75-41.77C125.48,328.29,403,283.23,678.5,283.06h1.57c274.12,0,542,44.42,588.83,74.36C1285.09,367.77,1295.41,384,1292.77,399.19Z"/><path class="cls-20" d="M87.56,592.08c-11.41,7.76-14.06,12.51-19.21,23.29l-12-210.47c-2.63-13.37,6.29-24.89,17.74-32.08,43.73-27.47,325.12-72.77,604.47-72.94,276.42-.16,550.82,44.5,596.12,72.94,11.45,7.19,20.37,18.71,17.73,32.08l-13.74,210c-5.15-10.77-6-15.09-17.43-22.85-44.24-30.07-243.12-58-583.13-58C322.05,534.07,132.19,561.73,87.56,592.08Z"/><path class="cls-6" d="M871.51,99.18l-1.24-1.33-45.59-4.67-31.16,55.29-.5,0-.58-.18.44.18-30.39-1.55c-1.31-8-9.76-56.2-24.74-99.53-76.94-12-134.08-.11-134.08-.11l-25.18,99.62-26.44,6.36L548,145.76,521.52,98h0l0,0h0l.14,0-50.49-.07h-.75l-5.11,4.28-.68.56-.09.09h0a122,122,0,0,0-14.31,14.74L483.86,239a20.47,20.47,0,0,0-8.05,9.67,12.92,12.92,0,0,0-1.12,5c0,.29,0,.54,0,.74s0,.16,0,.25l0,0c0,.22,0,.36,0,.36l3.77,13.37-6.79,1.47-6.6,15.87,7.19,30.59,15.07,13.25.29,1.08,7.43-1.65,5.4,20.29c0,.11,0,.21.06.32s0,.21,0,.32c1.46,23.43,77.06,42.41,168.87,42.41s167.57-19,169.2-42.41c0-.11,0-.22,0-.32s.05-.21.05-.32l5.56-20.28,7.36,1.64.29-1.09L867,316.38l7.41-30.59-6.46-15.87-6.76-1.47,4-13.77c.31-4.11-1.48-8.09-5.12-11.89l35.45-118.12A118.76,118.76,0,0,0,871.51,99.18ZM762.22,146.89h-.1l-.14-.59ZM454.7,286.76l-9.49-10.68-5.48.15-.88-9h0l-.21-2c-1-3.14-3.47-5.81-7.31-8L422.2,162a118.28,118.28,0,0,0-25.31-14.81l-1.53-.9L360.5,150.8l-6.14,47.32-.37.08-.48,0,.38,0-22.63,4.28c-3.32-5.82-23.83-40.95-47.71-71.3-58.72,4.09-95.72,23-95.72,23l11,81.11L182,245l-3.59-3.62L144.7,207.67h0l0,0h0l.09-.05-35.87,8.94-2.22,4c-.15.27-.32.55-.46.82l0,.07h0a82,82,0,0,0-5.8,14l57.09,88.45a14.94,14.94,0,0,0-3.07,9,11.33,11.33,0,0,0,.54,4.06c.08.24.14.44.19.61a1.17,1.17,0,0,1,.06.2l0,0,.09.26,6.24,9.71-4.41,2.42-.44,13.61,13.12,22.48,14.13,7.44.5.79,4.83-2.7,9.13,14.73a2,2,0,0,0,.13.25,1.36,1.36,0,0,0,.07.25c7.08,17.92,66.36,17.87,133.38-.14,68-18,119.6-47.14,114.24-65.06a1.86,1.86,0,0,0-.1-.25,2,2,0,0,1,0-.24L444.47,325l6-.19-.09-.87L458,311.13ZM331.06,202.52H331l-.29-.45ZM1182.5,347.75l6.32-9.71a2.74,2.74,0,0,0,.12-.26v0l.06-.2c.06-.17.12-.37.19-.61a11.15,11.15,0,0,0,.6-4.06,14.9,14.9,0,0,0-3-9l57.93-88.45a80.42,80.42,0,0,0-5.66-14h0l0-.07c-.13-.27-.29-.55-.43-.82l-2.19-4-35.79-8.94.1.05h0l0,0h0l-34,33.68-3.63,3.62-16.85-9.63,11.85-81.11s-36.82-19-95.5-23c-24.18,30.35-45,65.48-48.4,71.3l-22.59-4.28.37,0-.48,0-.37-.08L985.4,150.8l-34.8-4.47-1.56.9A120.24,120.24,0,0,0,923.61,162l-10.06,95.13c-3.87,2.18-6.4,4.85-7.39,8l-.23,2h0l-1,9-5.49-.15-9.58,10.68-3.52,24.37L893.88,324l-.11.87,6,.19L898,341.33a1,1,0,0,1,0,.24,1.86,1.86,0,0,0-.1.25c-5.54,17.92,45.75,47.06,113.61,65.06,66.84,18,126.13,18.06,133.38.14a1.83,1.83,0,0,1,.08-.25c0-.08.09-.16.12-.25l9.27-14.73,4.83,2.7.48-.79,14.22-7.44,13.32-22.48-.31-13.61ZM1014.73,202.08l-.29.45h-.07Z"/><path class="cls-21" d="M866.55,55.68,821.8,50.91,793.89,106.2l-31.42-1.59-27-99.5A416.11,416.11,0,0,0,606.17,5l-27.08,99.62L552.45,111l-27.91-55.3H474.32a144.07,144.07,0,0,0-21.17,19.57L482.78,217c37.18,25.66,107.41,43,188,43,85.07,0,158.63-19.29,193.91-47.33l29-130.22A138.17,138.17,0,0,0,866.55,55.68Z"/><path class="cls-22" d="M873.66,212.41c0-26.57-90.83-48.13-202.87-48.13s-202.88,21.56-202.88,48.13l20.7,94.68c0,23.06,81.56,41.76,182.18,41.76S853,330.15,853,307.09Z"/><path class="cls-23" d="M670.79,170.26C778,170.26,865.72,190,873.1,215l.56-2.58c0-26.57-90.83-48.13-202.87-48.13s-202.88,21.56-202.88,48.13l.57,2.58C475.84,190,563.58,170.26,670.79,170.26Z"/><path class="cls-24" d="M670.79,342c-90.95,0-164.68-14.27-164.68-31.87s73.73-31.86,164.68-31.86,164.67,14.26,164.67,31.86S761.74,342,670.79,342Z"/><path class="cls-25" d="M670.79,265.31c-100.62,0-182.18,19-182.18,42.41s81.56,42.41,182.18,42.41S853,331.15,853,307.72,771.41,265.31,670.79,265.31Zm0,73.51c-87.44,0-158.32-12.84-158.32-28.67s70.88-28.67,158.32-28.67S829.1,294.31,829.1,310.15,758.22,338.82,670.79,338.82Z"/><path class="cls-23" d="M491.19,300.42l-14.26-82.58a13.36,13.36,0,0,1,1-6.62c.84-1.8,1.18-2.27,5.83-5.59,55.78-39.72,197.63-40.82,179.73-41.3,0,0-126.88-5.37-184.72,32.27-11.12,6.76-10.85,16.21-10.85,16.21l20.75,93.38S488.7,303.89,491.19,300.42Z"/><polygon class="cls-26" points="716.93 212.41 673.48 255.87 630.01 212.41 673.48 168.96 716.93 212.41"/><polygon class="cls-27" points="673.44 251 634.86 212.41 673.44 173.83 712.03 212.41 673.44 251"/><polygon class="cls-28" points="634.86 212.41 634.86 212.41 673.44 251 712.03 212.41 712.03 212.41 634.86 212.41"/><polygon class="cls-29" points="673.44 212.41 634.86 212.41 634.86 212.41 673.44 251 673.44 212.41"/><polygon class="cls-30" points="673.44 232.92 652.94 212.41 673.44 191.89 693.97 212.41 673.44 232.92"/><polygon class="cls-31" points="674.97 144.38 672.38 169.85 636.18 172.04 671.79 175.22 671.19 195.31 677.75 176.21 694.45 173.82 676.75 169.85 674.97 144.38"/><polygon class="cls-30" points="463.69 227.65 455.56 243.52 460.79 274.12 476.37 287.78 481.8 285.46 465.49 230.53 463.69 227.65"/><polygon class="cls-27" points="484.3 286.77 476.11 288.45 463.69 227.65 471.86 225.97 484.3 286.77"/><rect class="cls-29" x="473.04" y="258.08" width="8.35" height="29.84" transform="translate(-45.09 101.36) rotate(-11.58)"/><polygon class="cls-30" points="877.81 227.65 885.95 243.52 880.71 274.12 865.13 287.78 859.71 285.46 876.01 230.53 877.81 227.65"/><rect class="cls-27" x="836.49" y="253.03" width="62.05" height="8.35" transform="translate(441.45 1055.46) rotate(-78.42)"/><rect class="cls-29" x="849.37" y="268.82" width="29.84" height="8.35" transform="translate(423.41 1064.92) rotate(-78.42)"/><path class="cls-32" d="M396.38,104.42l-34.91,4.2-11.55,47-24.21,4.3-38-71a325.4,325.4,0,0,0-98.42,22.54L186.1,192l-19.18,9.51L136,164.28l-38.23,8.79a112.44,112.44,0,0,0-12.69,18.6l47.36,102.71c32.79,13,89.29,13.93,150.65-.19,64.77-14.88,117.41-42.44,139.36-70L421.77,120A107.7,107.7,0,0,0,396.38,104.42Z"/><polygon class="cls-33" points="98.09 172.92 131.18 220.07 166.98 201.56 136.05 164.31 98.09 172.92"/><polygon class="cls-34" points="349.92 155.8 387.56 157.79 396.55 104.3 361.47 108.62 349.92 155.8"/><path class="cls-35" d="M429.22,222.5c-4.64-20.24-77.56-20.75-162.87-1.13s-150.68,51.91-146,72.15L152.64,362c4,17.56,69.42,17.52,146-.09s135.43-46.12,131.39-63.68Z"/><path class="cls-23" d="M267.4,225.91c81.63-18.76,151.86-19.1,161.85-1.36l0-2.05c-4.64-20.24-77.56-20.75-162.87-1.13s-150.68,51.91-146,72.15l.88,1.86C122.44,275.05,185.77,244.67,267.4,225.91Z"/><path class="cls-36" d="M297.46,356.67c-69.24,15.92-127.88,18-131,4.57s50.56-37.16,119.81-53.07,127.87-18,131-4.57S366.7,340.75,297.46,356.67Z"/><path class="cls-37" d="M284,298.29c-76.6,17.62-135.38,46.34-131.28,64.17s69.52,18,146.12.4,135.38-46.34,131.28-64.17S360.64,280.67,284,298.29Zm12.86,55.95c-66.56,15.31-122.78,17.94-125.55,5.89s48.94-34.24,115.51-49.55,122.79-17.93,125.57-5.88S363.47,339,296.9,354.24Z"/><path class="cls-38" d="M153.45,356.44l-25.32-60.37a10.39,10.39,0,0,1-.4-5.21c.32-1.51.49-1.94,3.46-5.27,35.51-40,143.32-65.68,129.6-62.91,0,0-97.53,18.12-135,56.9-7.29,7.1-5.41,14.24-5.41,14.24l32.12,67.46S152.16,359.53,153.45,356.44Z"/><polygon class="cls-26" points="309.9 249.93 284.42 290.63 243.73 265.14 269.2 224.46 309.9 249.93"/><rect class="cls-27" x="255.49" y="236.23" width="42.62" height="42.63" transform="translate(-88.39 355.44) rotate(-57.94)"/><polygon class="cls-28" points="247.42 264.29 247.42 264.29 283.55 286.92 306.17 250.8 306.17 250.79 247.42 264.29"/><polygon class="cls-29" points="276.8 257.54 247.42 264.29 247.42 264.29 283.55 286.92 276.8 257.54"/><rect class="cls-30" x="265.47" y="246.21" width="22.66" height="22.67" transform="translate(-88.4 355.38) rotate(-57.93)"/><polygon class="cls-39" points="136.1 164.25 102.15 178.57 131.18 220.07 186.1 191.98 127.12 225.95 94.03 177.8 97.81 172.98 136.1 164.25"/><path class="cls-40" d="M189.28,111.4s39.85-18.69,98.42-22.54c21.47,33.07,38.68,71.83,38.68,71.83L281.26,99s-57.57-.79-91.69,13.11"/><polygon class="cls-39" points="349.05 155.65 387.56 157.79 395.2 109.87 361.47 108.62 396.55 104.3 400.74 106.93 389.93 160.83 349.05 155.65"/><polygon class="cls-41" points="189.28 111.4 186.16 192.13 187.25 187.52 194.02 111.65 209.13 104.58 189.28 111.4"/><path class="cls-31" d="M288.23,119.15c7.56,8.85,10.34,18.87,6.22,22.38s-13.59-.79-21.14-9.64S263,113,267.1,109.51,280.68,110.3,288.23,119.15Z"/><path class="cls-31" d="M305.26,147.53c2.19,2.43,2.64,5.59,1,7.06s-4.74.68-6.93-1.75-2.63-5.59-1-7.05S303.08,145.09,305.26,147.53Z"/><polygon class="cls-31" points="266.05 205.49 268.54 225.33 241.36 233.32 269.02 229.51 272.09 244.91 273.74 229.22 286.04 224.49 271.87 224.56 266.05 205.49"/><polygon class="cls-31" points="193.94 113.02 186.16 192.13 152.7 212.42 192.8 196.82 193.94 113.02"/><polygon class="cls-30" points="119.77 305.86 116.35 319.36 125.69 341.75 139.95 349.42 143.67 346.7 121.64 307.74 119.77 305.86"/><rect class="cls-27" x="129.53" y="302.32" width="6.52" height="48.48" transform="translate(-123.83 84.85) rotate(-24.59)"/><polygon class="cls-29" points="145.81 347.26 139.88 349.97 130.21 328.76 136.14 326.06 145.81 347.26"/><polygon class="cls-30" points="435.07 233.36 444.02 244.03 445.4 268.24 435.92 281.37 431.39 280.55 434.19 235.88 435.07 233.36"/><rect class="cls-27" x="429.13" y="233.44" width="6.53" height="48.48" transform="translate(-6.24 10.77) rotate(-1.42)"/><polygon class="cls-29" points="429.72 281.99 436.24 281.83 435.68 258.54 429.16 258.69 429.72 281.99"/><path class="cls-42" d="M950.51,104.42l34.91,4.2,11.56,47,24.21,4.3,38-71a325.56,325.56,0,0,1,98.43,22.54L1160.8,192l19.17,9.51,30.93-37.21,38.23,8.79a111.83,111.83,0,0,1,12.69,18.6l-47.36,102.71c-32.79,13-89.3,13.93-150.66-.19-64.76-14.88-117.4-42.44-139.35-70L925.13,120A107.63,107.63,0,0,1,950.51,104.42Z"/><polygon class="cls-43" points="1248.81 172.92 1215.71 220.07 1179.92 201.56 1210.85 164.31 1248.81 172.92"/><polygon class="cls-44" points="996.98 155.8 959.33 157.79 950.34 104.3 985.42 108.62 996.98 155.8"/><path class="cls-45" d="M916.85,298.2c-4,17.56,54.78,46.07,131.39,63.68s142,17.65,146,.09l32.33-68.45c4.64-20.24-60.74-52.54-146-72.15s-158.22-19.11-162.87,1.13Z"/><path class="cls-23" d="M1079.5,225.91c-81.63-18.76-151.87-19.1-161.86-1.36l0-2.05c4.65-20.24,77.58-20.75,162.87-1.13s150.68,51.91,146,72.15l-.89,1.86C1224.46,275.05,1161.13,244.67,1079.5,225.91Z"/><path class="cls-46" d="M1049.43,356.67c69.25,15.92,127.89,18,131,4.57s-50.56-37.16-119.8-53.07-127.87-18-131-4.57S980.2,340.75,1049.43,356.67Z"/><path class="cls-47" d="M916.74,298.69c-4.1,17.83,54.67,46.55,131.28,64.17s142,17.43,146.12-.4-54.69-46.55-131.28-64.17S920.84,280.86,916.74,298.69Zm17.74,6c2.78-12.05,59-9.41,125.55,5.88s118.28,37.5,115.51,49.55-59,9.42-125.54-5.89S931.71,316.76,934.48,304.7Z"/><path class="cls-38" d="M1193.45,356.44l25.31-60.37a10.34,10.34,0,0,0,.41-5.21c-.32-1.51-.5-1.94-3.46-5.27-35.5-40-143.32-65.68-129.61-62.91,0,0,97.53,18.12,135,56.9,7.29,7.1,5.42,14.24,5.42,14.24l-32.12,67.46S1194.74,359.53,1193.45,356.44Z"/><polygon class="cls-26" points="1036.99 249.93 1062.48 290.63 1103.16 265.14 1077.68 224.46 1036.99 249.93"/><rect class="cls-27" x="1048.78" y="236.23" width="42.63" height="42.62" transform="translate(26.49 607.29) rotate(-32.06)"/><polygon class="cls-28" points="1099.47 264.29 1099.47 264.29 1063.34 286.92 1040.73 250.8 1040.73 250.79 1099.47 264.29"/><polygon class="cls-29" points="1070.1 257.54 1099.47 264.29 1099.47 264.29 1063.34 286.92 1070.1 257.54"/><rect class="cls-30" x="1058.76" y="246.21" width="22.67" height="22.66" transform="translate(26.48 607.25) rotate(-32.06)"/><polygon class="cls-39" points="1210.8 164.25 1244.75 178.57 1215.71 220.07 1160.8 191.98 1219.78 225.95 1252.88 177.8 1249.09 172.98 1210.8 164.25"/><path class="cls-40" d="M1157.62,111.4s-39.85-18.69-98.43-22.54c-21.47,33.07-38.68,71.83-38.68,71.83L1065.63,99s57.58-.79,91.69,13.11"/><polygon class="cls-39" points="997.85 155.65 959.33 157.79 951.7 109.87 985.42 108.62 950.34 104.3 946.15 106.93 956.96 160.83 997.85 155.65"/><polygon class="cls-40" points="1157.62 111.4 1160.74 192.13 1159.65 187.52 1152.87 111.65 1137.76 104.58 1157.62 111.4"/><path class="cls-31" d="M1058.66,119.15c-7.55,8.85-10.33,18.87-6.22,22.38s13.59-.79,21.14-9.64,10.35-18.87,6.21-22.38S1066.2,110.3,1058.66,119.15Z"/><path class="cls-31" d="M1041.64,147.53c-2.19,2.43-2.63,5.59-1,7.06s4.74.68,6.92-1.75,2.64-5.59,1-7.05S1043.82,145.09,1041.64,147.53Z"/><polygon class="cls-31" points="1080.85 205.49 1078.36 225.33 1105.54 233.32 1077.87 229.51 1074.82 244.91 1073.15 229.22 1060.86 224.49 1075.03 224.56 1080.85 205.49"/><polygon class="cls-31" points="1152.95 113.02 1160.74 192.13 1194.2 212.42 1154.1 196.82 1152.95 113.02"/><polygon class="cls-30" points="1227.13 305.86 1230.54 319.36 1221.2 341.75 1206.94 349.42 1203.22 346.7 1225.25 307.74 1227.13 305.86"/><polygon class="cls-27" points="1201.1 347.26 1207.03 349.97 1227.13 305.86 1221.2 303.15 1201.1 347.26"/><polygon class="cls-29" points="1201.1 347.26 1207.03 349.97 1216.69 328.76 1210.75 326.06 1201.1 347.26"/><polygon class="cls-30" points="911.84 233.36 902.87 244.03 901.5 268.24 910.98 281.37 915.5 280.55 912.71 235.88 911.84 233.36"/><polygon class="cls-27" points="917.17 281.99 910.65 281.83 911.84 233.36 918.35 233.53 917.17 281.99"/><polygon class="cls-29" points="917.17 281.99 910.65 281.83 911.22 258.54 917.74 258.69 917.17 281.99"/><text class="cls-48" transform="translate(218.44 588.65)">GAME <tspan class="cls-49" x="489.17" y="0">O</tspan><tspan x="600.43" y="0">VER</tspan></text></g></g></svg>