<svg xmlns="http://www.w3.org/2000/svg" xmlns:xlink="http://www.w3.org/1999/xlink" viewBox="0 0 372.51 123.7"><defs><style>.cls-1{mask:url(#mask);filter:url(#luminosity-noclip-2);}.cls-14,.cls-2,.cls-4,.cls-8{mix-blend-mode:multiply;}.cls-2{fill:url(#linear-gradient);}.cls-3{isolation:isolate;}.cls-4{fill:#304eba;}.cls-4,.cls-8{opacity:0.5;}.cls-5{fill:url(#Áåçûìÿííûé_ãðàäèåíò_113);}.cls-6{fill:url(#Áåçûìÿííûé_ãðàäèåíò_116);}.cls-7{opacity:0.3;mix-blend-mode:screen;fill:url(#Áåçûìÿííûé_ãðàäèåíò_78);}.cls-8{fill:#3531d2;}.cls-9{fill:#ffe300;}.cls-10{fill:#faff92;}.cls-11{fill:#faac18;}.cls-12{fill:#a84400;}.cls-13{mask:url(#mask-2);}.cls-14{opacity:0.56;fill:url(#linear-gradient-2);}.cls-15{fill:#fff;}.cls-16{filter:url(#luminosity-noclip);}</style><filter id="luminosity-noclip" x="0.25" y="-12981.45" width="119.7" height="32766" filterUnits="userSpaceOnUse" color-interpolation-filters="sRGB"><feFlood flood-color="#fff" result="bg"/><feBlend in="SourceGraphic" in2="bg"/></filter><mask id="mask" x="0.25" y="-12981.45" width="119.7" height="32766" maskUnits="userSpaceOnUse"><g class="cls-16"/></mask><linearGradient id="linear-gradient" x1="60.1" y1="115.76" x2="60.1" y2="0.55" gradientUnits="userSpaceOnUse"><stop offset="0.02" stop-color="#fff"/><stop offset="0.28" stop-color="#b5b5b5"/><stop offset="0.63" stop-color="#555"/><stop offset="0.88" stop-color="#181818"/><stop offset="1"/></linearGradient><linearGradient id="Áåçûìÿííûé_ãðàäèåíò_113" x1="214.51" y1="92.95" x2="214.51" y2="115.6" gradientUnits="userSpaceOnUse"><stop offset="0" stop-color="#5855ce"/><stop offset="0.71" stop-color="#5a46c5"/><stop offset="1" stop-color="#556cd7"/></linearGradient><linearGradient id="Áåçûìÿííûé_ãðàäèåíò_116" x1="214.51" y1="110.05" x2="214.51" y2="16.98" gradientUnits="userSpaceOnUse"><stop offset="0" stop-color="#62acf7"/><stop offset="0.06" stop-color="#61a0f0"/><stop offset="0.16" stop-color="#5e7fdc"/><stop offset="0.22" stop-color="#5c69cf"/><stop offset="0.56" stop-color="#7590ff"/><stop offset="1" stop-color="#a3cafb"/></linearGradient><linearGradient id="Áåçûìÿííûé_ãðàäèåíò_78" x1="-2981.28" y1="12469.93" x2="-2665.28" y2="12469.93" gradientTransform="translate(-2608.76 12567.36) rotate(180)" gradientUnits="userSpaceOnUse"><stop offset="0" stop-color="#7caaff"/><stop offset="0.24" stop-color="#5c98ff"/><stop offset="0.85" stop-color="#5754c2"/><stop offset="1" stop-color="#5b75df"/></linearGradient><filter id="luminosity-noclip-2" x="0.25" y="0.55" width="119.7" height="115.22" filterUnits="userSpaceOnUse" color-interpolation-filters="sRGB"><feFlood flood-color="#fff" result="bg"/><feBlend in="SourceGraphic" in2="bg"/></filter><mask id="mask-2" x="0.25" y="0.55" width="119.7" height="115.22" maskUnits="userSpaceOnUse"><g class="cls-1"><path class="cls-2" d="M118.79,41.6c-1.78-2.93-5.55-4.74-10.34-5L80.92,35.41C79.86,32.32,77.71,26.2,75.14,20,68.59,4.07,64.93.71,61.47.55a4.63,4.63,0,0,0-1.29.12C53.32,2.3,48.25,11.53,42.76,24.89l-3.43,8.34c-3.29,0-9.93.13-16.73.7C7.77,35.18,1.11,37.75.33,42.54c-.45,2.78.59,7.59,12.74,20.14,4.6,4.75,9.21,9,11.49,11-.68,2.66-2,7.8-3.15,13.23-3.18,14.53-3,18.62-2.5,20.56,1,3.9,2.64,7.54,7.71,7.77a24,24,0,0,0,4.84-.44c5.58-.94,21.76-11,27.84-14.87,6.76,4.18,25.61,15.48,32.6,15.8a5.79,5.79,0,0,0,2.78-.5c4.66-2.22,5.65-9.75,3.31-25.18C96.9,82.88,95.35,76,94.55,72.63c5.59-3.88,21.08-15,24.12-21.55C120.77,46.55,119.9,43.43,118.79,41.6Z"/></g></mask><linearGradient id="linear-gradient-2" x1="60.1" y1="115.76" x2="60.1" y2="0.55" gradientUnits="userSpaceOnUse"><stop offset="0.02" stop-color="#eb4b00"/><stop offset="0.13" stop-color="#df4d08"/><stop offset="0.72" stop-color="#a3592d"/><stop offset="1" stop-color="#8b5e3c"/></linearGradient></defs><title>score-img</title><g class="cls-3"><g id="Layer_1" data-name="Layer 1"><rect class="cls-4" x="56.51" y="29.42" width="316" height="94.28" rx="36.81" ry="36.81"/><rect class="cls-5" x="56.51" y="20.61" width="316" height="94.28" rx="36.81" ry="36.81"/><rect class="cls-6" x="56.51" y="14.43" width="316" height="94.28" rx="39.46" ry="39.46"/><path class="cls-7" d="M56.52,91.28V86.15c0,9.63,8.77,19.73,24.46,19.73l266-.08c17.53,0,25.58-10,25.58-19.65v5.13c0,9.63-10.95,17.43-24.47,17.43H81C67.47,108.71,56.52,100.91,56.52,91.28Z"/><rect class="cls-8" x="76" y="29.73" width="281.78" height="65.27" rx="26.73" ry="26.73"/><path class="cls-9" d="M61.09,1.35C55,2.79,49.81,13.71,45.48,24.24L41.15,34.77s-37.73-.4-38.92,6.84,25.24,30.3,25.24,30.3-7.74,29.25-6.28,34.89,3.16,6.15,9.21,5.13,29-15.86,29-15.86,30,18.93,34.86,16.58c7.45-3.53-2.4-42.15-2.4-42.15s22.11-14.88,25.43-22-2.13-10-7.69-10.21l-30.4-1.36S67.15-.09,61.09,1.35Z"/><path class="cls-10" d="M109.05,37.73,78.67,36.37S66.6-.63,60.53.81,49.25,13.17,44.92,23.7L40.59,34.24S2.86,33.83,1.68,41.07s25.23,30.3,25.24,30.3c2,1.78-6.81,28.1-6.39,33.44C31.53,90.53,36.42,71.22,55.4,64,67.82,59.31,83,57.82,96,56.19c6.81-.86,13.21-.59,18.18-5.94C119.7,44.31,117.55,38.11,109.05,37.73Z"/><path class="cls-11" d="M30.16,64.68s-19.75-15.45-26.53-25a3.2,3.2,0,0,0-1.4,2c-.92,5.63,18.19,23.82,25.24,30.3C28.52,69,30.16,64.68,30.16,64.68Z"/><path class="cls-11" d="M117.35,42.85c-7.61,11.88-27.92,20-27.92,20a28.82,28.82,0,0,1,2.45,7.67c2.73-1.86,22.35-15.39,25.43-22C119.41,44,120.05,44.36,117.35,42.85Z"/><path class="cls-11" d="M92.55,103.34c-4.82,2.36-34.86-16.57-34.86-16.57s-23.11,14.19-29,15.86c-8.69,2.45-5.72-6.26-6.1-8.69-1.94,7.47-1.65,11.82-1.38,12.86,1.46,5.64,3.16,6.15,9.21,5.13s29-15.86,29-15.86,30,18.93,34.86,16.58c5.15-2.44,2-21.61-.38-33.24C95.6,89.94,96.47,101.49,92.55,103.34Z"/><path class="cls-12" d="M98.4,90.14C97.3,82.89,95.74,76,94.94,72.57c5.63-3.91,21.22-15.12,24.29-21.7,2.11-4.55,1.23-7.7.11-9.54-1.79-2.95-5.58-4.77-10.41-5L81.21,35.1C80.15,32,78,25.82,75.4,19.56,68.81,3.54,65.13.16,61.63,0a5.59,5.59,0,0,0-1.29.12c-6.91,1.65-12,10.94-17.54,24.39L39.35,32.9c-3.32,0-10,.13-16.85.71C7.58,34.86.87,37.45.08,42.28c-.45,2.8.59,7.64,12.82,20.27,4.64,4.78,9.28,9,11.58,11.11-.69,2.68-2,7.86-3.17,13.32-3.2,14.63-3,18.75-2.53,20.7,1,3.93,2.67,7.59,7.77,7.82a23.73,23.73,0,0,0,4.87-.45c5.62-.94,21.92-11.07,28-15,6.8,4.22,25.77,15.6,32.81,15.91a5.82,5.82,0,0,0,2.81-.5C99.76,113.26,100.76,105.68,98.4,90.14Zm-4.12,22.51a2.73,2.73,0,0,1-1.32.19c-7.46-.33-33.54-16.77-33.54-16.77s-23,14.85-29,15.86a21.12,21.12,0,0,1-4.27.41c-2.75-.12-3.9-1.54-4.94-5.54-1.46-5.64,6.28-34.89,6.28-34.89S1.05,48.85,2.23,41.61s38.92-6.84,38.92-6.84l4.33-10.53C49.81,13.71,55,2.79,61.09,1.35a1.46,1.46,0,0,1,.42,0c6.19.28,17.71,35.6,17.71,35.6l30.4,1.36c5.56.25,11,3.06,7.69,10.21s-25.43,22-25.43,22S101.73,109.12,94.28,112.65Z"/><g class="cls-13"><path class="cls-14" d="M118.79,41.6c-1.78-2.93-5.55-4.74-10.34-5L80.92,35.41C79.86,32.32,77.71,26.2,75.14,20,68.59,4.07,64.93.71,61.47.55a4.63,4.63,0,0,0-1.29.12C53.32,2.3,48.25,11.53,42.76,24.89l-3.43,8.34c-3.29,0-9.93.13-16.73.7C7.77,35.18,1.11,37.75.33,42.54c-.45,2.78.59,7.59,12.74,20.14,4.6,4.75,9.21,9,11.49,11-.68,2.66-2,7.8-3.15,13.23-3.18,14.53-3,18.62-2.5,20.56,1,3.9,2.64,7.54,7.71,7.77a24,24,0,0,0,4.84-.44c5.58-.94,21.76-11,27.84-14.87,6.76,4.18,25.61,15.48,32.6,15.8a5.79,5.79,0,0,0,2.78-.5c4.66-2.22,5.65-9.75,3.31-25.18C96.9,82.88,95.35,76,94.55,72.63c5.59-3.88,21.08-15,24.12-21.55C120.77,46.55,119.9,43.43,118.79,41.6Z"/></g><path class="cls-15" d="M104.7,40c-7-.79-19.62-.07-13.63,2.61s12.46,2,14.78.5S104.7,40,104.7,40Z"/><path class="cls-15" d="M85.08,39.92c-3.21-.14-4.24,1.26-3,1.64s2.2,1.06,3.55-.17S85.08,39.92,85.08,39.92Z"/><path class="cls-15" d="M61.93,6.1c-.76.13-1.17,1.42-1.14,2.28.12,4.39.74,7.58,4,10.79,1,1,3.59,2.86,3.87.23S67,14.31,66.09,12C65.3,10,64.51,7.21,62.48,6.19A.94.94,0,0,0,61.93,6.1Z"/></g></g></svg>