<svg xmlns="http://www.w3.org/2000/svg" xmlns:xlink="http://www.w3.org/1999/xlink" viewBox="0 0 379.34 167.81"><defs><style>.cls-1{mask:url(#mask);filter:url(#luminosity-noclip-4);}.cls-12,.cls-17,.cls-2,.cls-23,.cls-32,.cls-4,.cls-6,.cls-8{mix-blend-mode:multiply;}.cls-2{fill:url(#linear-gradient);}.cls-3{mask:url(#mask-2);filter:url(#luminosity-noclip-5);}.cls-4{fill:url(#linear-gradient-2);}.cls-5{mask:url(#mask-3);filter:url(#luminosity-noclip-6);}.cls-6{fill:url(#linear-gradient-3);}.cls-7{isolation:isolate;}.cls-8{fill:#304eba;}.cls-12,.cls-24,.cls-8{opacity:0.5;}.cls-9{fill:url(#Áåçûìÿííûé_ãðàäèåíò_113);}.cls-10{fill:url(#Áåçûìÿííûé_ãðàäèåíò_116);}.cls-11,.cls-25,.cls-26{opacity:0.3;}.cls-11{mix-blend-mode:screen;fill:url(#Áåçûìÿííûé_ãðàäèåíò_78);}.cls-12{fill:#3531d2;}.cls-13,.cls-17{fill:#fb8e00;}.cls-14{fill:#e87e00;}.cls-15{mask:url(#mask-4);}.cls-16{fill:url(#linear-gradient-4);}.cls-18{fill:#a84400;}.cls-19{fill:#71eeff;}.cls-19,.cls-21{opacity:0.49;}.cls-20{fill:#f8d48e;}.cls-21{fill:#d69a55;}.cls-22{fill:#d1a454;}.cls-24,.cls-25{fill:#4bbfe8;}.cls-26,.cls-30{fill:#fffce6;}.cls-27{fill:#4d8edb;}.cls-28{mask:url(#mask-5);}.cls-29{fill:url(#linear-gradient-5);}.cls-31{mask:url(#mask-6);}.cls-32{opacity:0.4;fill:url(#linear-gradient-6);}.cls-33{filter:url(#luminosity-noclip-3);}.cls-34{filter:url(#luminosity-noclip-2);}.cls-35{filter:url(#luminosity-noclip);}</style><filter id="luminosity-noclip" x="45.81" y="-12493.48" width="100.18" height="32766" filterUnits="userSpaceOnUse" color-interpolation-filters="sRGB"><feFlood flood-color="#fff" result="bg"/><feBlend in="SourceGraphic" in2="bg"/></filter><mask id="mask" x="45.81" y="-12493.48" width="100.18" height="32766" maskUnits="userSpaceOnUse"><g class="cls-35"/></mask><linearGradient id="linear-gradient" x1="1871.56" y1="1411.92" x2="1980.42" y2="1411.92" gradientTransform="translate(-2236.13 -386.28) rotate(-23.82)" gradientUnits="userSpaceOnUse"><stop offset="0" stop-color="#fff"/><stop offset="0.26" stop-color="#c1c1c1"/><stop offset="0.86" stop-color="#262626"/><stop offset="1"/></linearGradient><filter id="luminosity-noclip-2" x="1.65" y="-12493.48" width="97.04" height="32766" filterUnits="userSpaceOnUse" color-interpolation-filters="sRGB"><feFlood flood-color="#fff" result="bg"/><feBlend in="SourceGraphic" in2="bg"/></filter><mask id="mask-2" x="1.65" y="-12493.48" width="97.04" height="32766" maskUnits="userSpaceOnUse"><g class="cls-34"/></mask><linearGradient id="linear-gradient-2" x1="1873.11" y1="1298.67" x2="1978.86" y2="1298.67" gradientTransform="matrix(1, 0, 0, 1, -1875.7, -1274.63)" xlink:href="#linear-gradient"/><filter id="luminosity-noclip-3" x="0" y="-12493.48" width="152.99" height="32766" filterUnits="userSpaceOnUse" color-interpolation-filters="sRGB"><feFlood flood-color="#fff" result="bg"/><feBlend in="SourceGraphic" in2="bg"/></filter><mask id="mask-3" x="0" y="-12493.48" width="152.99" height="32766" maskUnits="userSpaceOnUse"><g class="cls-33"/></mask><linearGradient id="linear-gradient-3" x1="1925.61" y1="1441.34" x2="1925.61" y2="1288.33" gradientTransform="translate(-2236.13 -386.28) rotate(-23.82)" gradientUnits="userSpaceOnUse"><stop offset="0.02" stop-color="#fff"/><stop offset="0.28" stop-color="#b5b5b5"/><stop offset="0.63" stop-color="#555"/><stop offset="0.88" stop-color="#181818"/><stop offset="1"/></linearGradient><linearGradient id="Áåçûìÿííûé_ãðàäèåíò_113" x1="221.34" y1="108.98" x2="221.34" y2="131.63" gradientUnits="userSpaceOnUse"><stop offset="0" stop-color="#5855ce"/><stop offset="0.71" stop-color="#5a46c5"/><stop offset="1" stop-color="#556cd7"/></linearGradient><linearGradient id="Áåçûìÿííûé_ãðàäèåíò_116" x1="221.34" y1="126.07" x2="221.34" y2="33.01" gradientUnits="userSpaceOnUse"><stop offset="0" stop-color="#62acf7"/><stop offset="0.06" stop-color="#61a0f0"/><stop offset="0.16" stop-color="#5e7fdc"/><stop offset="0.22" stop-color="#5c69cf"/><stop offset="0.56" stop-color="#7590ff"/><stop offset="1" stop-color="#a3cafb"/></linearGradient><linearGradient id="Áåçûìÿííûé_ãðàäèåíò_78" x1="-3442.45" y1="11477.96" x2="-3126.46" y2="11477.96" gradientTransform="translate(-3063.12 11591.42) rotate(180)" gradientUnits="userSpaceOnUse"><stop offset="0" stop-color="#7caaff"/><stop offset="0.24" stop-color="#5c98ff"/><stop offset="0.85" stop-color="#5754c2"/><stop offset="1" stop-color="#5b75df"/></linearGradient><filter id="luminosity-noclip-4" x="45.81" y="102.5" width="100.18" height="50.27" filterUnits="userSpaceOnUse" color-interpolation-filters="sRGB"><feFlood flood-color="#fff" result="bg"/><feBlend in="SourceGraphic" in2="bg"/></filter><mask id="mask-4" x="45.81" y="102.5" width="100.18" height="50.27" maskUnits="userSpaceOnUse"><g class="cls-1"><path class="cls-2" d="M145.7,105.65c3,6.73-16.92,22-44.42,34.16s-52.21,16.53-55.17,9.81,16.92-22,44.42-34.16S142.73,98.93,145.7,105.65Z"/></g></mask><linearGradient id="linear-gradient-4" x1="1871.56" y1="1411.92" x2="1980.42" y2="1411.92" gradientTransform="translate(-2236.13 -386.28) rotate(-23.82)" gradientUnits="userSpaceOnUse"><stop offset="0" stop-color="#ffde17"/><stop offset="1" stop-color="#ffde17"/></linearGradient><filter id="luminosity-noclip-5" x="1.65" y="0.99" width="97.04" height="46.1" filterUnits="userSpaceOnUse" color-interpolation-filters="sRGB"><feFlood flood-color="#fff" result="bg"/><feBlend in="SourceGraphic" in2="bg"/></filter><mask id="mask-5" x="1.65" y="0.99" width="97.04" height="46.1" maskUnits="userSpaceOnUse"><g class="cls-3"><ellipse class="cls-4" cx="50.17" cy="24.04" rx="52.87" ry="9.47" transform="translate(-5.43 22.31) rotate(-23.82)"/></g></mask><linearGradient id="linear-gradient-5" x1="1873.11" y1="1298.67" x2="1978.86" y2="1298.67" gradientTransform="matrix(1, 0, 0, 1, -1875.7, -1274.63)" xlink:href="#linear-gradient-4"/><filter id="luminosity-noclip-6" x="0" y="0.14" width="152.99" height="167.67" filterUnits="userSpaceOnUse" color-interpolation-filters="sRGB"><feFlood flood-color="#fff" result="bg"/><feBlend in="SourceGraphic" in2="bg"/></filter><mask id="mask-6" x="0" y="0.14" width="152.99" height="167.67" maskUnits="userSpaceOnUse"><g class="cls-5"><path class="cls-6" d="M146.86,105.83a3.25,3.25,0,0,0-.22-.6c-1.81-4.11-9-4.77-18.75-3.18-3.8-5.74-9.48-13-15.53-16.2-8.75-4.59-24.53-6.92-29.71-7.69l-1.46-.22a1.49,1.49,0,0,1-.82-1,3.92,3.92,0,0,1,.68-3.2c.19-.26.5-.67.91-1.2,5-6.67,11-14.62,12.06-16.91,4.62-9.68,2.52-19.07-.3-25.57,7.53-5.06,12.4-9.73,12.09-13a3,3,0,0,0-.25-1,2.77,2.77,0,0,0-.38-.64c-.23-.52-.45-1-.68-1.54l-3.23-7.32L100,3.84c-.07-.16-.16-.33-.22-.5a5,5,0,0,0-.27-1A3.48,3.48,0,0,0,98.28,1.1a9.47,9.47,0,0,0-1-.43A9.82,9.82,0,0,0,95.15.24a31.84,31.84,0,0,0-9,.71,109.87,109.87,0,0,0-12.22,3.1c-4.72,1.43-9.37,3.07-14,4.82q-7.23,2.74-14.31,5.87-4.15,1.83-8.24,3.79-6.91,3.3-13.62,7c-4,2.22-7.94,4.54-11.73,7.1a57,57,0,0,0-8.4,6.59C1.88,40.92-.89,43.82.28,46.46a3.2,3.2,0,0,0,.55.84L6,59a2.89,2.89,0,0,0,.25,1c1.35,3.07,7.42,3,15.32,1.3,2.88,6.5,8.42,14.49,18.77,17.63,2.44.73,12.3,1.71,20.62,2.48l1.5.14a4,4,0,0,1,2.83,1.65,1.56,1.56,0,0,1,.21,1.3c-.12.19-.46.7-.82,1.22C61.74,90,52.83,103.26,50.32,112.83c-1.42,5.41-.69,11.27.2,16.29.38,2.13.89,4.71,1.59,7.41-6,5.29-9.24,10.19-7.65,13.8l6.16,13.94.61,1.28.34-.15c6.65,6.23,32.61-.43,55.87-10.7,24.76-10.93,49-27.28,45.14-36a3.91,3.91,0,0,0-.3-.57Z"/></g></mask><linearGradient id="linear-gradient-6" x1="1925.61" y1="1441.34" x2="1925.61" y2="1288.33" gradientTransform="translate(-2236.13 -386.28) rotate(-23.82)" gradientUnits="userSpaceOnUse"><stop offset="0.02" stop-color="#eb4b00"/><stop offset="0.13" stop-color="#df4d08"/><stop offset="0.72" stop-color="#a3592d"/><stop offset="1" stop-color="#8b5e3c"/></linearGradient></defs><title>time-img</title><g class="cls-7"><g id="Layer_1" data-name="Layer 1"><rect class="cls-8" x="63.34" y="45.45" width="316" height="94.28" rx="36.81" ry="36.81"/><rect class="cls-9" x="63.34" y="36.64" width="316" height="94.28" rx="36.81" ry="36.81"/><rect class="cls-10" x="63.34" y="30.46" width="316" height="94.28" rx="39.46" ry="39.46"/><path class="cls-11" d="M63.34,107.31v-5.13c0,9.63,8.77,19.73,24.46,19.73l266-.08c17.53,0,25.58-10,25.58-19.65v5.13c0,9.63-10.95,17.43-24.47,17.43H87.8C74.29,124.74,63.34,116.94,63.34,107.31Z"/><rect class="cls-12" x="82.82" y="45.76" width="281.78" height="65.27" rx="26.73" ry="26.73"/><path class="cls-13" d="M145.87,106.16a3.39,3.39,0,0,0-.17-.51c-3-6.72-27.67-2.33-55.17,9.81s-47.39,27.43-44.42,34.16l6.15,13.94,0,0c3.92,6,28.08,1.57,54.91-10.28,27.51-12.14,47.39-27.43,44.43-34.16-.08-.16-.17-.32-.26-.47Z"/><path class="cls-14" d="M129.39,141.19c-26.83,11.85-51,16.31-54.91,10.28l0,0-6.16-13.94c-1.59-3.61,3.4-9.68,12.6-16.4-22.11,11.13-36.95,23.54-34.36,29.41l6.15,13.93h0c3.91,6,28.08,1.56,54.91-10.28,12.75-5.63,23.86-11.94,31.82-17.75C136.24,138.06,132.88,139.65,129.39,141.19Z"/><g class="cls-15"><path class="cls-16" d="M145.7,105.65c3,6.73-16.92,22-44.42,34.16s-52.21,16.53-55.17,9.81,16.92-22,44.42-34.16S142.73,98.93,145.7,105.65Z"/></g><path class="cls-17" d="M135.74,110.12c2.41,5.46-14.25,18.11-37.22,28.25S55,152.3,52.57,146.83s14.25-18.11,37.21-28.25S133.32,104.66,135.74,110.12Z"/><path class="cls-18" d="M107.79,154.55c-23.27,10.27-49.22,16.94-55.88,10.7l-.33.15L51,164.13l-6.16-13.94C41,141.44,65.19,125.1,90,114.17s53.17-17.83,57-9.09c.08.19.15.39.22.61L152.63,118a4.41,4.41,0,0,1,.3.56C156.79,127.28,132.55,143.62,107.79,154.55ZM53.4,162.64l.09.13c1.17,1.81,6.36,3,17.41.94,10.19-1.9,22.89-6.07,35.74-11.74,13.2-5.83,25-12.56,33.35-18.94,8.94-6.88,11.21-11.41,10.35-13.36a2,2,0,0,0-.15-.27l-.11-.2-5.58-12.68a2.82,2.82,0,0,0-.09-.3c-.86-1.94-5.74-3.32-16.85-1.34-10.31,1.83-23.26,6.05-36.46,11.87s-25,12.56-33.35,18.94c-8.94,6.88-11.21,11.41-10.35,13.36Z"/><path class="cls-19" d="M131.69,110.44S122.24,92.3,112.06,87s-30.37-7.59-31-7.81c-2.36-.92-2.39-4.36-.83-6.44S91.75,57.65,93.09,54.85C101,38.2,87.83,21.93,88,22.19s-22.41,10-30.65,13.56l-.43-.92s-36.33,17-36.44,16.76,3,20.46,20.66,25.8c3,.9,19.26,2.31,21.84,2.56s5.11,2.59,4.19,5C66.9,85.49,55,101.92,52,113c-1.33,5.06-.68,10.61.22,15.68a78.47,78.47,0,0,0,2.66,11c.71,2.12.47,5.18,2.9,6,3.47,1.19,7.78.35,11.26-.29,9.82-1.8,19.37-5.36,28.48-9.38,21-9.27,36.29-20.72,34.15-25.58C131.7,110.46,131.69,110.45,131.69,110.44Z"/><path class="cls-20" d="M43.88,72.28c8.35,2.28,24,2.61,27.21.77s15-16,13.94-19.25C82.84,46.73,35.52,70,43.88,72.28Z"/><path class="cls-21" d="M44.38,71.83c8.36,2.29,22.45,2.45,25.69.61S86.53,50.41,84.25,53C65,74.7,36,69.54,44.38,71.83Z"/><path class="cls-22" d="M70.8,73.2h0c-4.21,1.86-19.47,1.38-27.68-.87-1.49-.41-1.78-1.35-1.82-1.88C41,65.69,61.81,56.43,62.7,56c5-2.23,17.22-7.2,21.4-5.3a2.72,2.72,0,0,1,1.55,1.69C86.94,56.6,74.42,71.16,71.19,73ZM43.62,70.12l.1,0c8.12,2.22,22.75,2.49,26.16,1a.47.47,0,0,0,.2-.1c1.25-.71,4.75-4.27,8.22-8.78,4.69-6.11,5.34-8.67,5.19-9.15,0-.05,0-.17-.33-.3-1.84-.84-8.6.48-19.55,5.31C52,63.23,44.42,68.39,43.62,70.12Z"/><path class="cls-20" d="M61,140.16c8.26,2.6,53.68-12.29,65.1-28.7,2.13-3-31.63-15.38-43.65-9.84C75.72,104.72,52.72,137.56,61,140.16Z"/><path class="cls-21" d="M61.93,139.79c8.26,2.6,53.68-12.3,65.1-28.7,1-1.46-8.25-8.38-15.46-4.88-7.87,3.81-14,18.1-20.89,17.12C63.42,119.41,53.66,137.19,61.93,139.79Z"/><path class="cls-22" d="M93.16,133.84h0c-14.34,5.7-28,8.81-32.5,7.4a3.68,3.68,0,0,1-2.55-3.61c-.56-8.87,17.68-34.19,23.86-37l.6-.25c12-4.75,40.83,5.19,44.23,9.47a1.83,1.83,0,0,1,.23,2.3C119.83,122.43,101,130.74,93.16,133.84Zm-9.77-31.4-.48.21c-5.52,2.54-23,27.07-22.55,34.84.07,1.16.53,1.45,1,1.59,3.43,1.08,16-1.37,31-7.34h0C108.15,125.45,120,118,125,111.12c-1.06-1.22-7.21-4.42-17-7.07C97.18,101.11,88.22,100.53,83.39,102.44Z"/><g class="cls-23"><path class="cls-24" d="M82.11,138.83c-3.47.64-8.76,1.15-10.07-3.14-.75-2.46-6.5-23.41-5.17-28.48C68.51,101,76.65,84.46,78.93,79.3c-.76-6-8.59-3.9-17.49-4.71-.11,0-.14-.16-.2-.24A93.11,93.11,0,0,1,52,72.56C34.33,67.22,48.65,60.4,50.8,59.14c.16-.09,35-12.66,41.66-25.53C92.4,33.49,88.62,17,88.61,17S20.54,51.84,20.43,51.59s3,20.46,20.66,25.8c3,.9,19.26,2.31,21.84,2.56s5.11,2.59,4.19,5C66.9,85.49,55,101.92,52,113c-1.33,5.06-.68,10.61.22,15.68a78.47,78.47,0,0,0,2.66,11c.71,2.12.47,5.18,2.9,6,3.47,1.19,7.78.35,11.26-.29,9.82-1.8,19.37-5.36,28.48-9.38,1.82-.8,3.61-1.63,5.34-2.46C95.49,136.62,90,137.39,82.11,138.83Z"/><path class="cls-25" d="M88,22.28,88,22.19a27.46,27.46,0,0,1-2.88,1.39Z"/></g><path class="cls-26" d="M120.79,117.61c1-2.35-1.39-4.24-2.48-6.19A79.1,79.1,0,0,0,112,102c-3.15-4.09-6.81-8.3-11.44-10.73A135.41,135.41,0,0,0,82.2,83.85c-9.5-1.46-5.54-16.51-5.55-16.61,2-3.06-15.05-40.7-14.94-40.45,0,0,14.36,0,13.72.25,0,0,0-.08,0-.12,6.63-2.79,12-5.08,11.91-5.17-.11-.26,13.1,16,5.15,32.65C91.13,57.2,81.2,70.19,79.65,72.27s-1.53,5.51.83,6.43c.59.23,20.77,2.47,31,7.81,4.64,2.43,8.3,6.64,11.44,10.74a77,77,0,0,1,6.34,9.37c1.09,1.95,3.51,3.84,2.48,6.2-1.46,3.35-5,6-7.8,8.12-7.94,6-17,10.7-26.12,14.72-1.82.8-3.63,1.57-5.42,2.29A118.11,118.11,0,0,0,113,125.74C115.81,123.59,119.33,121,120.79,117.61Z"/><path class="cls-27" d="M98.13,137.36c-11.09,4.89-20.24,7.9-28.8,9.47l-.22,0c-3.57.65-8,1.47-11.75.19-2.55-.87-3-3.39-3.4-5.24a11,11,0,0,0-.39-1.66,81,81,0,0,1-2.7-11.2c-.89-5-1.62-10.87-.2-16.29C53.18,103.12,62.09,89.89,65,85.54l.81-1.22a1.51,1.51,0,0,0-.2-1.3,3.94,3.94,0,0,0-2.84-1.66l-1.49-.14c-8.32-.77-18.18-1.74-20.62-2.48C22.13,73.13,19,51.9,19,51.69l-.06-1,2.19-1,0,.05.57-.25c7.37-3.25,34.26-15.84,34.53-16L57.39,33l.57.89c5.36-2.32,14.15-6.15,20.75-9.06,4.21-1.86,6.34-2.82,7.4-3.32l0-.07,2.2-1,.69.72c.15.15,13.75,16.75,5.4,34.24-1.1,2.29-7,10.24-12.06,16.9l-.91,1.2a3.94,3.94,0,0,0-.68,3.21,1.48,1.48,0,0,0,.82,1L83,78c5.19.77,21,3.1,29.72,7.69,10.46,5.48,19.84,23.32,20.23,24.07l.12.23v.06C135.63,116.73,117.51,128.8,98.13,137.36ZM22,52.48C22.91,56.53,27.14,71.69,41.5,76c2.47.74,15.71,2,20.06,2.37l1.51.14a6.71,6.71,0,0,1,5,3,4.25,4.25,0,0,1,.41,3.87,10.33,10.33,0,0,1-1.08,1.71c-2.86,4.25-11.57,17.18-14,26.28-1.28,4.89-.6,10.36.24,15.07a77.33,77.33,0,0,0,2.61,10.81,15.6,15.6,0,0,1,.48,2c.36,1.87.63,2.79,1.54,3.1,3,1,7.07.29,10.31-.3l.23,0c8.33-1.53,17.28-4.48,28.16-9.28,22.31-9.85,34.65-20.54,33.46-23.67l-.1-.18v0c-1.06-2-9.82-17.9-18.93-22.68-8.33-4.37-23.75-6.64-28.82-7.39a10,10,0,0,1-2-.36A4.29,4.29,0,0,1,78,77.55a6.73,6.73,0,0,1,1.14-5.68l.91-1.21c2.63-3.49,10.65-14.09,11.76-16.42C98.27,40.72,90,27.4,87.54,24c-.39.19-.88.42-1.46.68-1.44.66-3.54,1.59-6.22,2.78C72.71,30.6,63,34.81,57.86,37l-1.26.55-.41-.88c-5.47,2.56-26.84,12.55-33.31,15.4Z"/><path class="cls-13" d="M104.29,16,98.68,3.23a2.12,2.12,0,0,0-.14-.55,2,2,0,0,0-.31-.47L98.15,2l-.07,0c-3.93-3.6-26.32,2.09-51.74,13.31S1.64,39.3,1.65,44.63h0a1.87,1.87,0,0,0,.15.76,1.93,1.93,0,0,0,.45.62L7.71,58.37a1.86,1.86,0,0,0,.15.75c2.12,4.79,25.49-.89,52.2-12.68C85.81,35.07,105.27,22.17,104.74,17h0a1.71,1.71,0,0,0-.14-.55A1.6,1.6,0,0,0,104.29,16Z"/><g class="cls-28"><ellipse class="cls-29" cx="50.17" cy="24.04" rx="52.87" ry="9.47" transform="translate(-5.43 22.31) rotate(-23.82)"/></g><path class="cls-18" d="M60.57,47.69C43.39,55.27,10,67.56,6.59,59.82a3,3,0,0,1-.25-1L1.18,47.15a2.71,2.71,0,0,1-.55-.84C-.54,43.67,2.23,40.77,4,39.05a58.81,58.81,0,0,1,8.39-6.59c3.8-2.55,7.74-4.88,11.74-7.09,4.47-2.47,9-4.78,13.61-7q4.1-2,8.24-3.79Q53,11.47,60.28,8.72c4.6-1.75,9.26-3.38,14-4.82A114.46,114.46,0,0,1,86.48.8a32.21,32.21,0,0,1,9-.7,9.23,9.23,0,0,1,2.09.42,7.9,7.9,0,0,1,1,.44,3.35,3.35,0,0,1,1.26,1.22,4.76,4.76,0,0,1,.28,1c0,.17.15.34.22.51l1.23,2.77q1.6,3.68,3.23,7.33l.67,1.53a3,3,0,0,1,.39.64,3.39,3.39,0,0,1,.25,1C106.83,23.94,83,37.79,60.57,47.69Zm-57.51-3c0,.06,0,.12,0,.16a.71.71,0,0,0,.12.15l.22.2,5.69,12.9v.3a.45.45,0,0,0,0,.18c.31.7,3.64,1.89,15.24-.93,9.78-2.37,22.24-6.8,35.09-12.48,28.77-12.7,44.19-24.63,43.85-28a.39.39,0,0,0,0-.12l-.07-.1-.15-.17L97.29,3.6l0-.22a.31.31,0,0,0,0-.12s0,0-.07-.11l0,0C94.47.67,75.54,4,46.92,16.66S3.06,41,3.06,44.63Z"/><path class="cls-30" d="M73,20.77c-7.58,2.72-14.72,8.67-9.68,7.83S75.88,24,77.44,22.1,73,20.77,73,20.77Z"/><path class="cls-30" d="M83.73,15.05a4.51,4.51,0,0,0-2.82,2.31c-.19.37-.75,1.73.08,1.81a9.87,9.87,0,0,0,1.53-.08,4,4,0,0,0,2.69-.7C86.54,17.26,85.64,14.56,83.73,15.05Z"/><path class="cls-30" d="M86.38,41.12c-1.9,4.7,1,13.32,2.11,8.19S90.19,41.6,89,40,86.38,41.12,86.38,41.12Z"/><g class="cls-31"><path class="cls-32" d="M146.86,105.83a3.25,3.25,0,0,0-.22-.6c-1.81-4.11-9-4.77-18.75-3.18-3.8-5.74-9.48-13-15.53-16.2-8.75-4.59-24.53-6.92-29.71-7.69l-1.46-.22a1.49,1.49,0,0,1-.82-1,3.92,3.92,0,0,1,.68-3.2c.19-.26.5-.67.91-1.2,5-6.67,11-14.62,12.06-16.91,4.62-9.68,2.52-19.07-.3-25.57,7.53-5.06,12.4-9.73,12.09-13a3,3,0,0,0-.25-1,2.77,2.77,0,0,0-.38-.64c-.23-.52-.45-1-.68-1.54l-3.23-7.32L100,3.84c-.07-.16-.16-.33-.22-.5a5,5,0,0,0-.27-1A3.48,3.48,0,0,0,98.28,1.1a9.47,9.47,0,0,0-1-.43A9.82,9.82,0,0,0,95.15.24a31.84,31.84,0,0,0-9,.71,109.87,109.87,0,0,0-12.22,3.1c-4.72,1.43-9.37,3.07-14,4.82q-7.23,2.74-14.31,5.87-4.15,1.83-8.24,3.79-6.91,3.3-13.62,7c-4,2.22-7.94,4.54-11.73,7.1a57,57,0,0,0-8.4,6.59C1.88,40.92-.89,43.82.28,46.46a3.2,3.2,0,0,0,.55.84L6,59a2.89,2.89,0,0,0,.25,1c1.35,3.07,7.42,3,15.32,1.3,2.88,6.5,8.42,14.49,18.77,17.63,2.44.73,12.3,1.71,20.62,2.48l1.5.14a4,4,0,0,1,2.83,1.65,1.56,1.56,0,0,1,.21,1.3c-.12.19-.46.7-.82,1.22C61.74,90,52.83,103.26,50.32,112.83c-1.42,5.41-.69,11.27.2,16.29.38,2.13.89,4.71,1.59,7.41-6,5.29-9.24,10.19-7.65,13.8l6.16,13.94.61,1.28.34-.15c6.65,6.23,32.61-.43,55.87-10.7,24.76-10.93,49-27.28,45.14-36a3.91,3.91,0,0,0-.3-.57Z"/></g><path class="cls-30" d="M132.52,120.8c-5.82-.38-10.19,4.86-12.46,9.64-.1.21.16.43.36.34,4.57-2.19,10.5-4.18,12.52-9.29A.52.52,0,0,0,132.52,120.8Z"/><path class="cls-30" d="M138,116.4a1.82,1.82,0,0,0-1.79-.19,2.63,2.63,0,0,0-1.32,1.6,3.72,3.72,0,0,0-.19,1.28,3.1,3.1,0,0,0,.13.89.41.41,0,0,0,.35.34c.28,0,0,0,.45.08a4.13,4.13,0,0,0,.93-.08,2.68,2.68,0,0,0,2.17-2.26A1.79,1.79,0,0,0,138,116.4Z"/><path class="cls-30" d="M113,97.68c1,11.45,8.36,15.72,10.68,12.88,2-2.47-.5-11.12-7.71-14.19C112.69,95,113,97.68,113,97.68Z"/><path class="cls-30" d="M106.38,89.71c-2.83,1.09-1.28,5.5,2.33,4.84s3.12-2.46,1.6-3.64A7.39,7.39,0,0,0,106.38,89.71Z"/></g></g></svg>