<svg xmlns="http://www.w3.org/2000/svg" xmlns:xlink="http://www.w3.org/1999/xlink" viewBox="0 0 548 184.14"><defs><style>.cls-1{fill:url(#Áåçûìÿííûé_ãðàäèåíò_188);}.cls-2{fill:none;}.cls-3{isolation:isolate;}.cls-4{clip-path:url(#clip-path);}.cls-5{clip-path:url(#clip-path-2);}.cls-6{mix-blend-mode:screen;fill:url(#Áåçûìÿííûé_ãðàäèåíò_702);}.cls-7{fill:url(#Áåçûìÿííûé_ãðàäèåíò_74);}.cls-8{fill:url(#Áåçûìÿííûé_ãðàäèåíò_74-2);}.cls-9{fill:url(#Áåçûìÿííûé_ãðàäèåíò_140);}.cls-10,.cls-13{fill:#ffa000;mix-blend-mode:multiply;}.cls-10{opacity:0.7;}.cls-11{mix-blend-mode:overlay;}.cls-12{fill:#ffeea3;}.cls-14{mask:url(#mask);}.cls-15{fill:#fff;}.cls-16{fill:url(#linear-gradient);}.cls-17,.cls-19,.cls-21,.cls-23,.cls-25,.cls-27,.cls-29,.cls-31,.cls-33,.cls-35,.cls-37,.cls-39,.cls-41,.cls-43{stroke:#333;stroke-linejoin:round;stroke-width:0.11px;}.cls-17{fill:url(#linear-gradient-2);}.cls-18{fill:url(#linear-gradient-3);}.cls-19{fill:url(#linear-gradient-4);}.cls-20{fill:url(#linear-gradient-5);}.cls-21{fill:url(#linear-gradient-6);}.cls-22{fill:url(#linear-gradient-7);}.cls-23{fill:url(#linear-gradient-8);}.cls-24{fill:url(#linear-gradient-9);}.cls-25{fill:url(#linear-gradient-10);}.cls-26{fill:url(#linear-gradient-11);}.cls-27{fill:url(#linear-gradient-12);}.cls-28{fill:url(#linear-gradient-13);}.cls-29{fill:url(#linear-gradient-14);}.cls-30{fill:url(#linear-gradient-15);}.cls-31{fill:url(#linear-gradient-16);}.cls-32{fill:url(#linear-gradient-17);}.cls-33{fill:url(#linear-gradient-18);}.cls-34{fill:url(#linear-gradient-19);}.cls-35{fill:url(#linear-gradient-20);}.cls-36{fill:url(#linear-gradient-21);}.cls-37{fill:url(#linear-gradient-22);}.cls-38{fill:url(#linear-gradient-23);}.cls-39{fill:url(#linear-gradient-24);}.cls-40{fill:url(#linear-gradient-25);}.cls-41{fill:url(#linear-gradient-26);}.cls-42{fill:url(#linear-gradient-27);}.cls-43{fill:url(#linear-gradient-28);}</style><radialGradient id="Áåçûìÿííûé_ãðàäèåíò_188" cx="-2719.58" cy="5694.64" r="4.52" gradientTransform="matrix(-3.69, 3.2, -7.01, -11.77, 29964.35, 75808.21)" gradientUnits="userSpaceOnUse"><stop offset="0" stop-color="#fff"/><stop offset="0.12" stop-color="#c7c7c7"/><stop offset="0.24" stop-color="#929292"/><stop offset="0.37" stop-color="#666"/><stop offset="0.5" stop-color="#414141"/><stop offset="0.62" stop-color="#242424"/><stop offset="0.75" stop-color="#101010"/><stop offset="0.88" stop-color="#040404"/><stop offset="1"/></radialGradient><clipPath id="clip-path"><rect class="cls-2" x="-916.36" y="-1177.32" width="1923.62" height="1082.04"/></clipPath><clipPath id="clip-path-2"><rect class="cls-2" x="-1227.54" y="-1181.33" width="2493.19" height="1108.09"/></clipPath><radialGradient id="Áåçûìÿííûé_ãðàäèåíò_702" cx="-2077.65" cy="1957.76" r="106.86" gradientTransform="translate(8056.66 -3700.38) scale(3.86 1.79)" gradientUnits="userSpaceOnUse"><stop offset="0" stop-color="#683600"/><stop offset="0.19" stop-color="#4f2900"/><stop offset="0.55" stop-color="#241300"/><stop offset="0.83" stop-color="#0a0500"/><stop offset="1"/></radialGradient><linearGradient id="Áåçûìÿííûé_ãðàäèåíò_74" x1="-7.21" y1="102.48" x2="545.5" y2="102.48" gradientUnits="userSpaceOnUse"><stop offset="0" stop-color="#ffd83d"/><stop offset="0.14" stop-color="#ff9c04"/><stop offset="0.88" stop-color="#ff9c04"/><stop offset="1" stop-color="#ffd83d"/></linearGradient><linearGradient id="Áåçûìÿííûé_ãðàäèåíò_74-2" x1="-7.21" y1="102.48" x2="545.5" y2="102.48" xlink:href="#Áåçûìÿííûé_ãðàäèåíò_74"/><linearGradient id="Áåçûìÿííûé_ãðàäèåíò_140" x1="56.12" y1="114.82" x2="491.88" y2="114.82" gradientUnits="userSpaceOnUse"><stop offset="0" stop-color="#ffd83d"/><stop offset="0.34" stop-color="#ff8d0d"/><stop offset="0.62" stop-color="#ff9c04"/><stop offset="0.8" stop-color="#ffe138"/><stop offset="1" stop-color="#ff9c04"/></linearGradient><mask id="mask" x="31.6" y="20.84" width="71.75" height="110.71" maskUnits="userSpaceOnUse"><path class="cls-1" d="M50.75,90.83c-17.51-29.4-24.24-59.71-15-67.7S66.59,32.49,84.1,61.89s24.24,59.72,15,67.71S68.27,120.24,50.75,90.83Z"/></mask><linearGradient id="linear-gradient" x1="336.34" y1="57.98" x2="426.95" y2="57.98" gradientUnits="userSpaceOnUse"><stop offset="0" stop-color="#053166"/><stop offset="0.52" stop-color="#0531bb"/><stop offset="1" stop-color="#053166"/></linearGradient><linearGradient id="linear-gradient-2" x1="373.01" y1="101.05" x2="373.01" y2="0.74" gradientTransform="translate(1.86 1.49) rotate(0.03)" gradientUnits="userSpaceOnUse"><stop offset="0" stop-color="#e6e6e6"/><stop offset="0.22" stop-color="#f0f0f0"/><stop offset="0.59" stop-color="#fbfbfb"/><stop offset="1" stop-color="#fff"/></linearGradient><linearGradient id="linear-gradient-3" x1="163.55" y1="60.38" x2="234.91" y2="60.38" xlink:href="#linear-gradient"/><linearGradient id="linear-gradient-4" x1="190.59" y1="103.33" x2="190.59" y2="4.04" xlink:href="#linear-gradient-2"/><linearGradient id="linear-gradient-5" x1="278.98" y1="60.38" x2="350.33" y2="60.38" xlink:href="#linear-gradient"/><linearGradient id="linear-gradient-6" x1="306.02" y1="103.27" x2="306.02" y2="3.98" xlink:href="#linear-gradient-2"/><linearGradient id="linear-gradient-7" x1="415.68" y1="54.89" x2="478.53" y2="54.89" xlink:href="#linear-gradient"/><linearGradient id="linear-gradient-8" x1="438.46" y1="98.77" x2="438.46" y2="-1.66" xlink:href="#linear-gradient-2"/><linearGradient id="linear-gradient-9" x1="87.42" y1="57.83" x2="180.11" y2="57.83" xlink:href="#linear-gradient"/><linearGradient id="linear-gradient-10" x1="125.13" y1="104.59" x2="125.13" y2="-0.41" xlink:href="#linear-gradient-2"/><linearGradient id="linear-gradient-11" x1="218.93" y1="59.77" x2="298.51" y2="59.77" xlink:href="#linear-gradient"/><linearGradient id="linear-gradient-12" x1="250.08" y1="103.92" x2="250.08" y2="4.58" xlink:href="#linear-gradient-2"/><linearGradient id="linear-gradient-13" x1="203.09" y1="143.68" x2="240.95" y2="143.68" xlink:href="#linear-gradient"/><linearGradient id="linear-gradient-14" x1="199.49" y1="140.97" x2="237.35" y2="140.97" gradientTransform="matrix(1, 0, 0, 1, 0, 0)" xlink:href="#linear-gradient-2"/><linearGradient id="linear-gradient-15" x1="153.2" y1="142.67" x2="205.93" y2="142.67" xlink:href="#linear-gradient"/><linearGradient id="linear-gradient-16" x1="149.6" y1="140.08" x2="202.33" y2="140.08" gradientTransform="matrix(1, 0, 0, 1, 0, 0)" xlink:href="#linear-gradient-2"/><linearGradient id="linear-gradient-17" x1="339.63" y1="143.91" x2="363.46" y2="143.91" xlink:href="#linear-gradient"/><linearGradient id="linear-gradient-18" x1="336.01" y1="141.35" x2="359.84" y2="141.35" gradientTransform="matrix(1, 0, 0, 1, 0, 0)" xlink:href="#linear-gradient-2"/><linearGradient id="linear-gradient-19" x1="309.11" y1="143.85" x2="345.52" y2="143.85" xlink:href="#linear-gradient"/><linearGradient id="linear-gradient-20" x1="305.49" y1="141.48" x2="341.92" y2="141.48" gradientTransform="matrix(1, 0, 0, 1, 0, 0)" xlink:href="#linear-gradient-2"/><linearGradient id="linear-gradient-21" x1="359.34" y1="142.07" x2="401.62" y2="142.07" xlink:href="#linear-gradient"/><linearGradient id="linear-gradient-22" x1="355.74" y1="139.93" x2="398.02" y2="139.93" gradientTransform="matrix(1, 0, 0, 1, 0, 0)" xlink:href="#linear-gradient-2"/><linearGradient id="linear-gradient-23" x1="113.62" y1="141.37" x2="155.9" y2="141.37" xlink:href="#linear-gradient"/><linearGradient id="linear-gradient-24" x1="110.02" y1="139.22" x2="152.29" y2="139.22" gradientTransform="matrix(1, 0, 0, 1, 0, 0)" xlink:href="#linear-gradient-2"/><linearGradient id="linear-gradient-25" x1="268.28" y1="144.73" x2="309.9" y2="144.73" xlink:href="#linear-gradient"/><linearGradient id="linear-gradient-26" x1="264.68" y1="142.63" x2="306.3" y2="142.63" gradientTransform="matrix(1, 0, 0, 1, 0, 0)" xlink:href="#linear-gradient-2"/><linearGradient id="linear-gradient-27" x1="390.54" y1="143.05" x2="440.13" y2="143.05" xlink:href="#linear-gradient"/><linearGradient id="linear-gradient-28" x1="386.94" y1="141.1" x2="436.53" y2="141.1" gradientTransform="matrix(1, 0, 0, 1, 0, 0)" xlink:href="#linear-gradient-2"/></defs><title>title</title><g class="cls-3"><g id="Layer_1" data-name="Layer 1"><g class="cls-4"><g class="cls-5"><ellipse class="cls-6" cx="46.71" cy="-187.37" rx="411.97" ry="191.74"/></g></g><polygon class="cls-7" points="0 61.87 31.68 134.6 104.86 143.09 70.05 61.87 0 61.87"/><polygon class="cls-8" points="477.95 61.87 443.14 143.09 516.32 134.6 548 61.87 477.95 61.87"/><path class="cls-9" d="M274,57.72C116.59,57.58,56.12,45.51,56.12,45.51L90.86,152.17C170.52,186.8,258,184.55,274,183.81c16,.74,103.48,3,183.14-31.64L491.88,45.51S431.41,57.58,274,57.72Z"/><path class="cls-10" d="M491.89,45.51,457.14,152.17C377.48,186.81,290,184.56,274,183.81c-16,.75-103.48,3-183.14-31.64L56.11,45.51s1.2.23,3.7.64l31.05,95.31C170.52,176.1,258,173.85,274,173.1c16,.75,103.48,3,183.14-31.64l31.05-95.31C490.69,45.74,491.89,45.51,491.89,45.51Z"/><g class="cls-11"><path class="cls-12" d="M491.89,45.51,484,59.08c-16.32,2.65-76.49,11-210,11.13C140.51,70.1,80.41,62,64.1,59.32l-8-13.81S116.6,57.59,274,57.72C431.4,57.59,491.89,45.51,491.89,45.51Z"/></g><g class="cls-11"><polygon class="cls-12" points="0 61.87 8.86 69.16 63.82 69.16 61.44 61.87 0 61.87"/></g><g class="cls-11"><polygon class="cls-12" points="548 61.87 539.14 69.16 484.18 69.16 486.56 61.87 548 61.87"/></g><polygon class="cls-13" points="0 61.87 31.68 134.6 87.24 141.05 85.12 134.27 33.69 128.8 8.86 69.16 0 61.87"/><polygon class="cls-13" points="548 61.87 516.32 134.6 460.76 141.05 462.88 134.27 514.31 128.8 539.14 69.16 548 61.87"/><polygon class="cls-13" points="61.44 61.87 60.32 69.16 73.54 139.46 87.24 141.05 61.44 61.87"/><polygon class="cls-13" points="486.56 61.87 487.68 69.16 474.46 139.46 460.76 141.05 486.56 61.87"/><g class="cls-14"><g class="cls-11"><path class="cls-15" d="M50.75,90.83c-17.51-29.4-23.83-60.06-14.63-68S67,32.14,84.5,61.54s23.84,60.07,14.63,68.06S68.27,120.24,50.75,90.83Z"/></g></g><path class="cls-16" d="M426.88,106.6c.26,1-.18,1.53-1.31,1.53l-33.65-1a1.15,1.15,0,0,1-1.31-1.28,35.84,35.84,0,0,0-.46-4.58q-.45-3.18-.85-6l-13.09-.64c-.09.51-.26,1.53-.52,3.06s-.55,3.31-.85,5.35-.77,3-1.38,3c-1.66.17-3.9.3-6.74.38s-5.7.13-8.57.13q-6.56,0-11.59-.13t-8.84-.38c-1.13,0-1.57-.55-1.31-1.65L362.73,9.86c.08-.43.43-.72,1-.89a57.86,57.86,0,0,1,7.79-.89q4.51-.25,9-.26,7.47,0,13.75.45c4.19.3,7.76.53,10.73.7.88,0,1.31.42,1.31,1.27ZM389.93,79.74,386.68,69a2.28,2.28,0,0,0-4.31-.28l-4.59,10.47Z"/><path class="cls-17" d="M420.05,101.22c.26,1-.17,1.53-1.31,1.53l-33.64-1c-.88,0-1.31-.42-1.31-1.27a37.64,37.64,0,0,0-.46-4.58c-.3-2.12-.59-4.12-.85-6l-13.09-.64c-.09.51-.26,1.53-.52,3s-.55,3.31-.86,5.35-.76,3.05-1.37,3.05q-2.49.25-6.75.38t-8.57.13c-4.37,0-8.23,0-11.59-.14s-6.3-.21-8.83-.38c-1.14,0-1.58-.56-1.31-1.66L356,4.45c.08-.43.43-.72,1-.89a58.05,58.05,0,0,1,7.79-.89c3-.17,6-.25,9-.25q7.47,0,13.75.45t10.73.71c.88,0,1.31.42,1.31,1.27ZM383.12,74.34l-3.25-10.7a2.28,2.28,0,0,0-4.31-.28L371,73.83Z"/><path class="cls-18" d="M234.91,12q-.66,10.69-1,16.68c-.88,12.13-1.7,24.35-2.49,28.42a1.23,1.23,0,0,1-1.31,1l-16.87-.61V65c.87,0-.76,0,4.56.36s9.43.51,12.31.51c1.13,0,1.57.51,1.31,1.53l-1,14.25c-.18.6-.72,1-1.64,1.21s-5.78.43-9.84.64-2.8.46-5.68.46v9.55l15.3-.15a1.14,1.14,0,0,1,1.31,1.27l-.53,12.69c0,.68-.39,1.1-1.17,1.27q-6.56.76-13,1.09t-14.86.32q-4.71,0-14.14-.13t-14.27-.13a1.34,1.34,0,0,1-1.44-1.15Q168.66,97,167,74.13T164.4,34.8q-.84-16.42-.85-20.5.13-2.16,13.95-2.86t34.76-.7h21.47C234.51,10.74,234.91,11.16,234.91,12Z"/><path class="cls-19" d="M228.13,6.92q-.66,10.68-1.06,16.67c-.88,12.14-1.71,24.36-2.5,28.43a1.23,1.23,0,0,1-1.31,1l-16.87-.63v7.51c.87,0-.76,0,4.56.37s9.43.51,12.31.51c1.13,0,1.57.51,1.3,1.53l-1,14.26c-.18.59-.72,1-1.64,1.2s-5.79.43-9.85.64-2.79.46-5.67.46v9.55l15.29-.14A1.14,1.14,0,0,1,223,89.57l-.53,12.68c0,.68-.39,1.11-1.18,1.28q-6.54.77-13,1.07t-14.86.31q-4.71,0-14.13-.13T165,104.64a1.33,1.33,0,0,1-1.44-1.14q-1.71-11.58-3.39-34.5t-2.54-39.33q-.84-16.43-.84-20.5.14-2.16,13.95-2.85t34.76-.69H227C227.73,5.64,228.13,6.07,228.13,6.92Z"/><path class="cls-20" d="M350.33,12q-.65,10.69-1,16.68c-.88,12.13-1.71,24.35-2.49,28.42a1.23,1.23,0,0,1-1.31,1l-16.87-.61V65c.87,0-.76,0,4.56.36s9.43.51,12.31.51c1.13,0,1.57.51,1.31,1.53l-1,14.25c-.18.6-.72,1-1.64,1.21s-5.78.43-9.84.64-2.8.46-5.68.46v9.55l15.3-.15a1.14,1.14,0,0,1,1.31,1.27l-.53,12.69c0,.68-.39,1.1-1.17,1.27q-6.55.76-13,1.09t-14.86.32q-4.71,0-14.14-.13t-14.27-.13a1.34,1.34,0,0,1-1.44-1.15q-1.71-11.58-3.4-34.49T279.83,34.8Q279,18.38,279,14.3q.13-2.16,13.95-2.86t34.76-.7h21.47C349.94,10.74,350.33,11.16,350.33,12Z"/><path class="cls-21" d="M343.55,6.92q-.66,10.68-1.05,16.67C341.62,35.73,340.79,48,340,52a1.23,1.23,0,0,1-1.31,1l-16.87-.63v7.51c.87,0-.76,0,4.56.37s9.42.51,12.3.51c1.14,0,1.57.51,1.31,1.53l-1,14.26c-.18.59-.72,1-1.64,1.2s-5.79.43-9.85.64-2.79.46-5.67.46v9.55l15.3-.14a1.14,1.14,0,0,1,1.31,1.27l-.53,12.68c0,.68-.39,1.11-1.18,1.28q-6.56.77-13,1.07t-14.86.31q-4.71,0-14.13-.13t-14.27-.14A1.33,1.33,0,0,1,279,103.5q-1.71-11.58-3.39-34.5T273,29.67q-.84-16.43-.84-20.5.14-2.16,13.95-2.85t34.76-.69h21.47C343.16,5.64,343.55,6.07,343.55,6.92Z"/><path class="cls-22" d="M478.53,85.63,478,102.44c0,.67-.39,1.1-1.17,1.27q-6.56.77-13,1.08c-4.32.21-5.88.32-11.47.32q-4.71,0-14.14-.13t-14.27-.13a1.34,1.34,0,0,1-1.44-1.14q-1.69-11.58-3.4-34.43t-2.55-39.34q-.86-16.47-.85-20.55.26-2.18,17.74-3.44t25.85-1.27A1.14,1.14,0,0,1,460.58,6l-3.39,78.41h20A1.14,1.14,0,0,1,478.53,85.63Z"/><path class="cls-23" d="M471.71,81l-.53,16.81c0,.67-.39,1.1-1.18,1.27-4.36.51-8.71.86-13,1.08s-5.88.31-11.47.31q-4.71,0-14.13-.14t-14.27-.13a1.35,1.35,0,0,1-1.45-1.15Q414,87.49,412.27,64.64T409.74,25.3q-.86-16.47-.84-20.55.25-2.18,17.74-3.43T452.49.06c.88,0,1.31.42,1.31,1.27l-3.43,78.41h20A1.14,1.14,0,0,1,471.71,81Z"/><path class="cls-24" d="M178.94,56.37q-1.71,7-9.43,15.53a95.7,95.7,0,0,1-10.34,9.81l13.89,18c.61.85.39,1.49-.66,1.91l-8.31,8.66a1.36,1.36,0,0,1-1.44-.39L133.37,95.45V105c0,.76-.3,1.19-.91,1.27a35.48,35.48,0,0,1-6.48,1.08c-2.49.22-5.61.32-9.36.32-3.5,0-6.92,0-10.28-.13l-9.75-.25a1.23,1.23,0,0,1-1.31-1q-.91-3.81-3-28.26Q91,62.11,89,34.48,88.21,23.28,87.42,12a1.39,1.39,0,0,1,.92-1.4,163,163,0,0,1,16.5-3.75,93.12,93.12,0,0,1,16.1-1.47,80.06,80.06,0,0,1,14.2,1.21,88.07,88.07,0,0,1,14.73,4.14Q164.41,16.27,172,24.93a32.1,32.1,0,0,1,8.11,21.77A44.32,44.32,0,0,1,178.94,56.37Zm-44.67,1.24-.9,20.4q4.59,0,9.43-3.82C145.42,72.08,155.65,60,134.27,57.61Z"/><path class="cls-25" d="M172.13,52.22q-1.69,7-9.43,15.52a94,94,0,0,1-10.35,9.8l13.88,18c.61.85.39,1.48-.65,1.91l-8.32,8.65a1.36,1.36,0,0,1-1.44-.38L126.55,91.27v9.55c0,.76-.31,1.19-.92,1.27a35.48,35.48,0,0,1-6.48,1.08c-2.49.21-5.61.32-9.36.31q-5.24,0-10.28-.13l-9.75-.26a1.23,1.23,0,0,1-1.31-1q-.92-3.81-3-28.26-1.3-15.9-3.26-43.53-.78-11.21-1.56-22.53a1.39,1.39,0,0,1,.92-1.4A163,163,0,0,1,98.06,2.6a94.07,94.07,0,0,1,16.1-1.46,80.82,80.82,0,0,1,14.2,1.22A89,89,0,0,1,143.09,6.5q14.53,5.61,22.12,14.27a32.12,32.12,0,0,1,8.11,21.77A44,44,0,0,1,172.13,52.22Zm-44.66,1.21-.91,20.4c3.06,0,6.2-1.27,9.43-3.81C138.61,67.9,148.84,55.79,127.47,53.43Z"/><path class="cls-26" d="M298.44,11.63,271.11,108a1.14,1.14,0,0,1-1.31,1.27c-.35,0-13.51.47-16.65-.12-.61-.17-1-.47-1.05-.89L219,13.67c-.26-1.1.18-1.66,1.31-1.66,2.62-.16,41.31-.74,42.31,0,2.81,2.09,7.18,19.67,9.28,24.33L280,11.89a1.12,1.12,0,0,1,1.17-.9L297,10.1Q298.85,10.1,298.44,11.63Z"/><path class="cls-27" d="M291.67,7.75,264.28,104.1a1.14,1.14,0,0,1-1.31,1.27c-.35,0-13.51.46-16.65-.14-.61-.17-1-.47-1-.89L212.22,9.75c-.26-1.11.18-1.66,1.31-1.66,2.62-.16,41.31-.72,42.31,0,2.81,2.09,7.17,19.67,9.27,24.34L273.21,8a1.12,1.12,0,0,1,1.18-.89l15.83-.88C291.45,6.22,291.93,6.73,291.67,7.75Z"/><path class="cls-28" d="M241,118c-.23,3.79-.42,6.74-.55,8.85-.47,6.44-.91,12.93-1.32,15.09a.66.66,0,0,1-.7.54l-8.95-.33v4c.46,0-.41,0,2.42.19s5,.27,6.53.27c.6,0,.83.27.7.81l-.55,7.57a1,1,0,0,1-.86.64c-.49.11-3.08.23-5.23.34s-1.48.24-3,.24v5.07l8.12-.08a.61.61,0,0,1,.69.68l-.28,6.73a.67.67,0,0,1-.62.68c-2.32.27-4.62.46-6.92.57s-4.92.17-7.88.17q-2.5,0-7.5-.07c-3.34,0-5.86-.07-7.58-.07a.71.71,0,0,1-.76-.6q-.9-6.15-1.81-18.31t-1.35-20.87q-.45-8.72-.45-10.88c0-.77,2.51-1.27,7.4-1.52s11-.37,18.44-.37h11.4C240.74,117.34,241,117.56,241,118Z"/><path class="cls-29" d="M237.35,115.31q-.34,5.67-.56,8.85c-.46,6.44-.91,12.92-1.32,15.09a.66.66,0,0,1-.7.54l-9-.34v4c.46,0-.41,0,2.42.19s5,.28,6.53.28q.9,0,.69.81l-.54,7.56c-.1.32-.38.53-.87.64s-3.07.23-5.23.34-1.48.25-3,.25v5.06l8.12-.07a.6.6,0,0,1,.69.67l-.28,6.73c0,.37-.21.59-.62.68-2.32.27-4.62.46-6.92.57s-4.92.17-7.88.17c-1.67,0-4.17,0-7.51-.07s-5.86-.08-7.57-.08a.7.7,0,0,1-.76-.6q-.9-6.15-1.8-18.31t-1.35-20.88q-.44-8.72-.44-10.87c0-.77,2.51-1.27,7.4-1.52s11-.36,18.44-.36h11.4C237.15,114.63,237.35,114.86,237.35,115.31Z"/><path class="cls-30" d="M205.93,117.34q0,12.28-.14,18.84t-.77,15q-.61,8.44-2.08,17.56a.65.65,0,0,1-.69.54c-2.27,0-5.09-.05-8.44-.16s-6.5-.24-9.42-.38a.6.6,0,0,1-.69-.67,23.36,23.36,0,0,1-.42-3.5q-.42-5.2-.42-7.09l-6.81-.07c0,2.16-.07,4.17-.2,6s-.35,1.79-.63,4.18q-.14.6-.63.6c-.88.09-1.9.16-3.05.21s-2.3.06-3.41.06c-1.39,0-3.71,0-7-.13s-5.13-.14-5.59-.14-.63-.22-.63-.67q-.21-4.67-.41-9.32-.57-11.76-.84-20.27-.48-14-.48-19.79c0-.45.18-.7.55-.75a27,27,0,0,1,3.93-.54c1.36-.09,2.86-.13,4.48-.13,1,0,2.48,0,4.51.07s3.59.06,4.66.06h1.39q1,0,2-.06l2.16-.14a.61.61,0,0,1,.69.68q0,6.21-.21,14.25c-.14,5.36-.44,12.56-.9,17.24l6.32.95V117.34a.65.65,0,0,1,.56-.68,31.7,31.7,0,0,1,3.92-.47c1.46-.09,2.89-.14,4.28-.14,2.17,0,4.34.07,6.49.21s4.55.27,7.19.4A.61.61,0,0,1,205.93,117.34Z"/><path class="cls-31" d="M202.33,114.75q0,12.3-.15,18.85t-.77,15q-.63,8.44-2.09,17.57a.66.66,0,0,1-.7.54q-3.41,0-8.44-.18c-3.36-.11-6.49-.24-9.41-.37a.61.61,0,0,1-.7-.68,22.63,22.63,0,0,1-.41-3.49q-.42-5.21-.42-7.1l-6.8-.07c0,2.16-.08,4.17-.22,6s-.34,1.79-.62,4.18c-.1.4-.3.6-.63.6-.88.09-1.9.16-3.06.2s-2.29.07-3.4.07q-2.08,0-7-.14c-3.27-.09-5.13-.14-5.59-.14s-.63-.22-.63-.67q-.21-4.66-.41-9.32-.56-11.76-.83-20.27-.48-14-.47-19.79c0-.45.18-.7.55-.75a27,27,0,0,1,3.93-.54c1.36-.08,2.86-.13,4.48-.13,1,0,2.48,0,4.52.07s3.58.07,4.65.07h1.39c.65,0,1.32,0,2-.06l2.15-.14a.61.61,0,0,1,.69.68q0,6.21-.21,14.25c-.14,5.36-.45,12.56-.91,17.24l6.32,1V114.74a.65.65,0,0,1,.56-.68,31.65,31.65,0,0,1,3.93-.47c1.46-.09,2.88-.13,4.27-.13q3.27,0,6.49.21c2.16.13,4.56.27,7.2.4C202.1,114.08,202.33,114.3,202.33,114.75Z"/><path class="cls-32" d="M339.63,169.35q.14-4.53.28-9.06.34-11.41.62-23.6t.28-18.21a.61.61,0,0,1,.69-.68H361a.61.61,0,0,1,.69.68q0,7.69.45,16.45T363,153.2q.45,9.53.45,16.15c0,.45-.23.67-.7.67H340.32A.6.6,0,0,1,339.63,169.35Z"/><path class="cls-33" d="M336,166.78q.14-4.53.28-9.05.34-11.41.63-23.61t.29-18.21c0-.45.23-.67.7-.67h19.45a.6.6,0,0,1,.69.67q0,7.71.45,16.45t.89,18.27q.45,9.54.45,16.15a.61.61,0,0,1-.7.68H336.7C336.24,167.45,336,167.23,336,166.78Z"/><path class="cls-34" d="M345.52,169.25c0,.45-.21.68-.62.68-.79.09-1.72.16-2.78.2s-2.39.07-4,.07h-.77a53.37,53.37,0,0,1-5.69-.27l-.49-.27-11.4-8.25c0,1.44.28,6.74.14,7.91-.09.41-.3.61-.62.61q-3,.27-5.49.27c-1.16,0-2,0-2.64-.07a9.64,9.64,0,0,1-1.49-.2.66.66,0,0,1-.6-.68V118.79c0-.4.17-.63.49-.67a21.44,21.44,0,0,1,5-.48c1.58,0,3.31.1,5.21.28.61,0,1.39.13,2.37.26l.48.27,11.12,7.06v-6.65c0-.22.17-.43.52-.61a3,3,0,0,1,1-.33,15.6,15.6,0,0,1,3.68-.41c1.25,0,2.18,0,2.78.07a27.52,27.52,0,0,1,3.2.54.63.63,0,0,1,.55.67Z"/><path class="cls-35" d="M341.9,166.89c0,.44-.21.67-.63.67-.78.09-1.71.16-2.78.2s-2.38.07-4,.07h-.76a53.5,53.5,0,0,1-5.7-.28l-.48-.27L316.2,159c0,1.44.27,6.74.13,7.91-.09.41-.3.61-.62.61q-3,.27-5.49.27c-1.16,0-2,0-2.64-.07a11,11,0,0,1-1.5-.21.65.65,0,0,1-.59-.67l0-50.46c0-.41.16-.63.48-.68a22.17,22.17,0,0,1,5-.47c1.57,0,3.31.09,5.21.27.6,0,1.39.14,2.36.27l.49.27,11.11,7.06v-6.64c0-.23.17-.43.52-.61a3.34,3.34,0,0,1,1-.34,16.22,16.22,0,0,1,3.68-.4c1.25,0,2.18,0,2.78.07a27.52,27.52,0,0,1,3.2.54.63.63,0,0,1,.55.67Z"/><path class="cls-36" d="M401.62,139.93a.61.61,0,0,1-.69.68h-9.52c0,3.42-2.22,22-2.82,27.24a.64.64,0,0,1-.38.6,6.86,6.86,0,0,1-2,.34c-1.09.09-2.21.14-3.37.14-1.89,0-3.74-.05-5.52-.14l-4.83-.27c-.41,0-.62-.22-.62-.67,0-.77-1.91-26.61-1.91-27.24h-9.65a.61.61,0,0,1-.7-.68l-.25-24a.61.61,0,0,1,.7-.68l40.64.54a.61.61,0,0,1,.69.68Z"/><path class="cls-37" d="M398,137.79a.61.61,0,0,1-.7.68H387.8c0,3.42-2.23,22-2.83,27.24a.65.65,0,0,1-.38.6,6.86,6.86,0,0,1-2,.34c-1.09.09-2.21.13-3.37.13-1.9,0-3.74,0-5.52-.13l-4.83-.28c-.42,0-.63-.22-.63-.67,0-.77-1.89-26.61-1.89-27.25h-9.65c-.47,0-.7-.22-.7-.68l-.24-24c0-.45.24-.67.7-.67l40.64.56c.46,0,.7.22.7.67Z"/><path class="cls-38" d="M155.9,139.23a.6.6,0,0,1-.69.67h-9.52c0,3.43-2.22,22-2.82,27.24a.66.66,0,0,1-.38.61,6.86,6.86,0,0,1-2,.34c-1.09.09-2.21.13-3.37.13-1.9,0-3.74,0-5.52-.13l-4.83-.27c-.42,0-.63-.23-.63-.68,0-.76-1.9-26.61-1.9-27.24h-9.65c-.47,0-.7-.22-.7-.67l-.25-24a.61.61,0,0,1,.69-.68l40.65.54a.61.61,0,0,1,.69.68Z"/><path class="cls-39" d="M152.29,137.09a.61.61,0,0,1-.69.68h-9.52c0,3.43-2.23,22-2.83,27.24a.65.65,0,0,1-.39.61,7.05,7.05,0,0,1-2,.34c-1.09.09-2.21.13-3.37.13-1.9,0-3.74-.05-5.52-.14s-3.4-.18-4.83-.27c-.42,0-.63-.23-.63-.68,0-.76-1.89-26.61-1.89-27.24H111a.61.61,0,0,1-.7-.68L110,113a.6.6,0,0,1,.7-.67l40.64.56c.46,0,.7.22.7.67Z"/><path class="cls-40" d="M309.9,119.44q0,13.86-1.12,25.4c-.92,9.55-1.5,15.46-3.21,18a16.23,16.23,0,0,1-6.74,5.85,20.91,20.91,0,0,1-9,2,23.28,23.28,0,0,1-11.05-2.77c-3.47-1.85-5.11-4.3-6.78-7.45-3.58-7.92-3.76-39.95-3.76-39.95,0-.45.18-.7.55-.75,1.53-.31,22.17-.74,23.14-.74a.61.61,0,0,1,.7.67,98.3,98.3,0,0,0,.45,11.28c.12,4.17,4.45,3.24,4.75-.33v-11a.64.64,0,0,1,.55-.67c1.39-.27,10-.27,10.77-.27C309.66,118.77,309.9,119,309.9,119.44Z"/><path class="cls-41" d="M306.3,117.35q0,13.85-1.13,25.4c-.93,9.54-1.5,15.46-3.22,18a16.14,16.14,0,0,1-6.74,5.84,20.77,20.77,0,0,1-9,2,23.14,23.14,0,0,1-11-2.78c-3.47-1.84-5.11-4.29-6.77-7.45-3.58-7.92-3.75-40-3.75-40,0-.45.18-.7.56-.75,1.52-.31,22.16-.73,23.13-.73a.61.61,0,0,1,.7.68,101.47,101.47,0,0,0,.44,11.27c.13,4.18,4.46,3.25,4.76-.32v-11a.63.63,0,0,1,.55-.67c1.39-.27,10-.27,10.77-.27A.61.61,0,0,1,306.3,117.35Z"/><path class="cls-42" d="M440,118.73l-16.57,33.85.3,16a.61.61,0,0,1-.69.68l-15.58-.06c-.46,0-.7-.22-.7-.67l.25-16.1-16.38-33.62a.88.88,0,0,1-.07-.61c.05-.27.26-.41.63-.41l17.16-.87a.71.71,0,0,1,.69.4l6.48,8.55,6.07-8.63a.72.72,0,0,1,.69-.4l17.17.87c.32,0,.53.09.62.27A.9.9,0,0,1,440,118.73Z"/><path class="cls-43" d="M436.4,116.79l-16.58,33.85.29,16a.6.6,0,0,1-.7.67l-15.57-.06c-.47,0-.7-.22-.7-.67l.26-16.1L387,116.85a.87.87,0,0,1-.07-.61c.05-.27.26-.4.63-.4l17.16-.87a.72.72,0,0,1,.7.4l6.47,8.56L418,115.3a.73.73,0,0,1,.7-.41l17.16.89c.32,0,.53.09.62.27A.84.84,0,0,1,436.4,116.79Z"/></g></g></svg>