<svg xmlns="http://www.w3.org/2000/svg" xmlns:xlink="http://www.w3.org/1999/xlink" viewBox="0 0 447.84 119.54"><defs><style>.cls-1{clip-path:url(#clip-path);}.cls-2{fill:none;}.cls-3{isolation:isolate;}.cls-4{clip-path:url(#clip-path-2);}.cls-5{fill:url(#radial-gradient);}.cls-6{clip-path:url(#clip-path-3);}.cls-7{clip-path:url(#clip-path-4);}.cls-8{fill:url(#radial-gradient-2);}.cls-9{clip-path:url(#clip-path-5);}.cls-10{fill:url(#radial-gradient-3);}.cls-11{clip-path:url(#clip-path-6);}.cls-12{fill:url(#radial-gradient-4);}.cls-13{clip-path:url(#clip-path-7);}.cls-14{fill:url(#radial-gradient-5);}.cls-15{clip-path:url(#clip-path-8);}.cls-16{fill:url(#linear-gradient);}.cls-17{opacity:0.7;mix-blend-mode:multiply;}.cls-18{clip-path:url(#clip-path-9);}.cls-19{fill:#ffa000;}.cls-20{mix-blend-mode:overlay;}.cls-21{clip-path:url(#clip-path-10);}.cls-22{fill:#ffeea3;}.cls-23{fill:#fff;}.cls-24{mask:url(#mask);}.cls-25{clip-path:url(#clip-path-11);}.cls-26{mask:url(#mask-2);}.cls-27{clip-path:url(#clip-path-12);}</style><clipPath id="clip-path"><rect class="cls-2" x="11.35" width="127.75" height="34.65"/></clipPath><clipPath id="clip-path-2"><path class="cls-2" d="M80,34.58c-35.14.89-65.76-6-68.37-15.44S35.4,1.37,70.55.49s65.76,6,68.38,15.44S115.18,33.69,80,34.58"/></clipPath><radialGradient id="radial-gradient" cx="-1204.67" cy="-251.83" r="1" gradientTransform="matrix(4.74, 17.05, 63.64, -1.61, 21805.8, 20149.37)" gradientUnits="userSpaceOnUse"><stop offset="0" stop-color="#fff"/><stop offset="0.12" stop-color="#c7c7c7"/><stop offset="0.24" stop-color="#929292"/><stop offset="0.37" stop-color="#666"/><stop offset="0.5" stop-color="#414141"/><stop offset="0.62" stop-color="#242424"/><stop offset="0.75" stop-color="#101010"/><stop offset="0.88" stop-color="#040404"/><stop offset="1"/></radialGradient><clipPath id="clip-path-3"><rect class="cls-2" x="275.48" y="9.29" width="127.75" height="34.65"/></clipPath><clipPath id="clip-path-4"><path class="cls-2" d="M344.14,43.87c-35.14.88-65.75-6-68.37-15.44s23.75-17.77,58.9-18.66,65.76,6,68.38,15.44S379.3,43,344.14,43.87"/></clipPath><radialGradient id="radial-gradient-2" cx="-1204.67" cy="-251.83" r="1" gradientTransform="matrix(4.74, 17.05, 63.64, -1.61, 22069.86, 20158.6)" xlink:href="#radial-gradient"/><clipPath id="clip-path-5"><path class="cls-2" d="M279.11,31.62c-5.53,1.14,11.6,2,14.1,1.76,2.86-.31,4.1-1.57,1.75-2.06a39.3,39.3,0,0,0-6.79-.47,47.22,47.22,0,0,0-9.06.77"/></clipPath><radialGradient id="radial-gradient-3" cx="-1148.18" cy="-430.52" r="1" gradientTransform="matrix(5.79, 0, 0, -2.85, 6942.67, -1195.1)" gradientUnits="userSpaceOnUse"><stop offset="0" stop-color="#ffbd00"/><stop offset="0.23" stop-color="#ffc200"/><stop offset="0.49" stop-color="#ffcf00"/><stop offset="0.76" stop-color="#ffe500"/><stop offset="1" stop-color="#ff0"/></radialGradient><clipPath id="clip-path-6"><path class="cls-2" d="M339.08,52.23c-3.2,1.14,6.73,2,8.17,1.76,1.66-.31,2.38-1.57,1-2.06a13.55,13.55,0,0,0-3.94-.47,16.29,16.29,0,0,0-5.25.77"/></clipPath><radialGradient id="radial-gradient-4" cx="-1085.81" cy="-430.5" r="1" gradientTransform="matrix(3.36, 0, 0, -2.85, 3991.08, -1174.58)" xlink:href="#radial-gradient-3"/><clipPath id="clip-path-7"><path class="cls-2" d="M241.64,36.18c-12,3.18,25.13,5.63,30.54,4.88,6.19-.85,8.89-4.35,3.8-5.73-2.67-.72-8.28-1.3-14.72-1.3a80.58,80.58,0,0,0-19.62,2.15"/></clipPath><radialGradient id="radial-gradient-5" cx="-1194.47" cy="-319.72" r="1" gradientTransform="matrix(12.56, 0, 0, -7.92, 15261.22, -2496)" xlink:href="#radial-gradient-3"/><clipPath id="clip-path-8"><path class="cls-2" d="M223.92,17.61C62.16,17.5,0,8,0,8L35.71,92.19c81.86,27.35,171.79,25.57,188.21,25,16.41.59,106.34,2.37,188.2-25L447.83,8s-62.15,9.53-223.91,9.64"/></clipPath><linearGradient id="linear-gradient" x1="-1233.02" y1="-258.56" x2="-1232.02" y2="-258.56" gradientTransform="matrix(447.82, 0, 0, -447.82, 552177.9, -115727.69)" gradientUnits="userSpaceOnUse"><stop offset="0" stop-color="#ffd83d"/><stop offset="0.34" stop-color="#ff8d0d"/><stop offset="0.62" stop-color="#ff9c04"/><stop offset="0.8" stop-color="#ffe138"/><stop offset="1" stop-color="#ff9c04"/></linearGradient><clipPath id="clip-path-9"><rect class="cls-2" y="7.97" width="447.84" height="109.47"/></clipPath><clipPath id="clip-path-10"><rect class="cls-2" y="7.97" width="447.84" height="19.51"/></clipPath><mask id="mask" x="-0.86" y="-3.72" width="152.3" height="42.51" maskUnits="userSpaceOnUse"><g class="cls-1"><rect x="8.92" y="-0.81" width="132.63" height="36.28"/><g class="cls-3"><g class="cls-4"><polygon class="cls-5" points="140.62 -3.72 151.44 35.22 9.95 38.79 -0.86 -0.15 140.62 -3.72"/></g></g></g></mask><clipPath id="clip-path-11"><rect class="cls-2" x="11.35" width="127.75" height="34.65"/></clipPath><mask id="mask-2" x="263.26" y="5.57" width="152.3" height="42.51" maskUnits="userSpaceOnUse"><g class="cls-6"><rect x="273.04" y="8.47" width="132.63" height="36.28"/><g class="cls-3"><g class="cls-7"><polygon class="cls-8" points="404.74 5.57 415.56 44.5 274.07 48.07 263.26 9.13 404.74 5.57"/></g></g></g></mask><clipPath id="clip-path-12"><rect class="cls-2" x="275.48" y="9.29" width="127.75" height="34.65"/></clipPath></defs><title>tryAgain-btn</title><g class="cls-3"><g id="Layer_1" data-name="Layer 1"><g class="cls-9"><rect class="cls-10" x="273.58" y="30.85" width="23.73" height="2.8"/></g><g class="cls-11"><rect class="cls-12" x="335.88" y="51.46" width="13.75" height="2.8"/></g><g class="cls-13"><rect class="cls-14" x="229.65" y="34.03" width="51.42" height="7.78"/></g><g class="cls-15"><rect class="cls-16" y="7.97" width="447.82" height="111.56"/></g><g class="cls-17"><g class="cls-18"><path class="cls-19" d="M447.83,8,412.12,92.19c-81.86,27.35-171.79,25.58-188.2,25-16.42.59-106.35,2.36-188.21-25L0,8s1.23.18,3.8.5L35.71,83.73c81.86,27.36,171.79,25.58,188.21,25,16.41.59,106.34,2.37,188.2-25L444,8.47c2.56-.32,3.79-.5,3.79-.5"/></g></g><g class="cls-20"><g class="cls-21"><path class="cls-22" d="M447.83,8l-8.14,10.72c-16.76,2.08-78.6,8.7-215.77,8.78C86.74,27.39,25,21,8.21,18.87L0,8s62.16,9.54,223.92,9.64C385.67,17.51,447.83,8,447.83,8"/></g></g><path class="cls-23" d="M8.21,18.87s84.2,7.78,146,7.77c0,0-53.64-2.58-62.81-5.75s-9.63-6.16,13.29-5.39c0,0-30.23-.93-44.25-2,0,0-2.17,9-52.21,5.38"/><path class="cls-23" d="M284.19,27s70.92-.91,105.7-3.91c0,0-44.26-5.34-105.7,3.91"/><g class="cls-24"><g class="cls-20"><g class="cls-25"><path class="cls-23" d="M80,34.58c-35.14.89-65.87-6.44-68.49-15.85S35.29,1,70.43.07s65.88,6.44,68.5,15.86S115.18,33.69,80,34.58"/></g></g></g><g class="cls-26"><g class="cls-20"><g class="cls-27"><path class="cls-23" d="M344.14,43.87C309,44.75,278.27,37.43,275.65,28s23.76-17.77,58.9-18.65,65.88,6.44,68.5,15.85S379.3,43,344.14,43.87"/></g></g></g><path class="cls-23" d="M99,51.2H86.85V87.26H78.3V51.2h-12V44.6H99Z"/><path class="cls-23" d="M112.28,70.21V87.26h-8.55V44.6H118.5q7.29,0,11.41,3.33A11.27,11.27,0,0,1,134,57.2a9.36,9.36,0,0,1-1.74,5.67,12.12,12.12,0,0,1-5.08,3.85,9.22,9.22,0,0,1,5.43,3.72,11.85,11.85,0,0,1,1.66,6.45V80a15.6,15.6,0,0,0,.48,3.74,5.15,5.15,0,0,0,1.65,2.89v.61h-8.81a4.71,4.71,0,0,1-1.51-3.11,26.54,26.54,0,0,1-.34-4.18V77A6.79,6.79,0,0,0,124,72a6.64,6.64,0,0,0-4.94-1.77Zm0-6.59h6.07q3.6,0,5.36-1.53a5.65,5.65,0,0,0,1.76-4.51,6.2,6.2,0,0,0-1.78-4.66,7.14,7.14,0,0,0-5.19-1.72h-6.22Z"/><path class="cls-23" d="M155.64,64.26h.18l9.31-19.66h9.38L159.89,72.26v15h-8.56V71.82L137,44.6h9.37Z"/><path class="cls-23" d="M213.89,78.06H200.07l-2.88,9.2h-8.93L202.64,44.6h8.76l14.33,42.66h-8.94Zm-11.72-6.71h9.64l-4.71-15h-.18Z"/><path class="cls-23" d="M262.53,81.43A16.29,16.29,0,0,1,256.58,86a23.43,23.43,0,0,1-10.2,1.92A17.25,17.25,0,0,1,233.73,83a17,17,0,0,1-4.93-12.62V61.48a17.27,17.27,0,0,1,4.78-12.61A16.41,16.41,0,0,1,245.86,44q7.81,0,12,3.7a12.19,12.19,0,0,1,4,9.89l-.06.18h-8.05a7,7,0,0,0-2-5.29,7.92,7.92,0,0,0-5.71-1.89,7.68,7.68,0,0,0-6.33,3,12.21,12.21,0,0,0-2.4,7.81v9a12.15,12.15,0,0,0,2.46,7.88,8,8,0,0,0,6.59,3,15.19,15.19,0,0,0,4.82-.61,7.39,7.39,0,0,0,2.74-1.55V70.88h-8.2V65h16.79Z"/><path class="cls-23" d="M292,78.06H278.2l-2.87,9.2h-8.94L280.78,44.6h8.76l14.32,42.66h-8.93Zm-11.72-6.71H290l-4.72-15h-.18Z"/><path class="cls-23" d="M317.11,87.26h-8.56V44.6h8.56Z"/><path class="cls-23" d="M360.05,87.26H351.5L334.3,58.49l-.17,0V87.26h-8.56V44.6h8.56l17.19,28.74.18,0V44.6h8.55Z"/></g></g></svg>