<svg xmlns="http://www.w3.org/2000/svg" xmlns:xlink="http://www.w3.org/1999/xlink" viewBox="0 0 244.46 244.45"><defs><style>.cls-1{isolation:isolate;}.cls-2{mix-blend-mode:multiply;fill:url(#linear-gradient);}.cls-3{fill:#f2f2f2;opacity:0.45;}.cls-4,.cls-5{fill:#f3f3f3;}.cls-4{opacity:0.43;}.cls-5{opacity:0.41;}.cls-6,.cls-7{fill:#f4f4f4;}.cls-6{opacity:0.4;}.cls-7{opacity:0.38;}.cls-8,.cls-9{fill:#f5f5f5;}.cls-8{opacity:0.36;}.cls-9{opacity:0.34;}.cls-10,.cls-11{fill:#f6f6f6;}.cls-10{opacity:0.32;}.cls-11{opacity:0.31;}.cls-12,.cls-13{fill:#f7f7f7;}.cls-12{opacity:0.29;}.cls-13{opacity:0.27;}.cls-14,.cls-15{fill:#f8f8f8;}.cls-14{opacity:0.25;}.cls-15{opacity:0.23;}.cls-16,.cls-17{fill:#f9f9f9;}.cls-16{opacity:0.22;}.cls-17{opacity:0.2;}.cls-18,.cls-19{fill:#fafafa;}.cls-18{opacity:0.18;}.cls-19{opacity:0.16;}.cls-20,.cls-21{fill:#fbfbfb;}.cls-20{opacity:0.14;}.cls-21{opacity:0.13;}.cls-22,.cls-23{fill:#fcfcfc;}.cls-22{opacity:0.11;}.cls-23{opacity:0.09;}.cls-24,.cls-25{fill:#fdfdfd;}.cls-24{opacity:0.07;}.cls-25{opacity:0.05;}.cls-26,.cls-27{fill:#fefefe;}.cls-26{opacity:0.04;}.cls-27{opacity:0.02;}.cls-28{fill:#fff;opacity:0;}.cls-29{fill:none;stroke:#fff;stroke-miterlimit:10;stroke-width:2.18px;}</style><linearGradient id="linear-gradient" x1="235.82" y1="8.63" x2="47.08" y2="197.37" gradientUnits="userSpaceOnUse"><stop offset="0.01" stop-color="#00b2ee"/><stop offset="1" stop-color="#0058a8"/></linearGradient></defs><g class="cls-1"><g id="Layer_1" data-name="Layer 1"><path class="cls-2" d="M0,122.23A122.23,122.23,0,1,0,122.22,0,122.21,122.21,0,0,0,0,122.23Z"/><path class="cls-3" d="M123.13,221.64a99.13,99.13,0,1,1,99.13-99.12A99.12,99.12,0,0,1,123.13,221.64Zm0-209.52a110.4,110.4,0,1,0,110.4,110.4A110.39,110.39,0,0,0,123.13,12.12Z"/><path class="cls-4" d="M123.13,221.82a99.31,99.31,0,1,1,99.31-99.3A99.3,99.3,0,0,1,123.13,221.82Zm0-209.55A110.25,110.25,0,1,0,233.38,122.52,110.25,110.25,0,0,0,123.13,12.27Z"/><path class="cls-5" d="M123.13,222a99.49,99.49,0,1,1,99.49-99.49A99.49,99.49,0,0,1,123.13,222Zm0-209.59a110.1,110.1,0,1,0,110.1,110.1A110.09,110.09,0,0,0,123.13,12.42Z"/><path class="cls-6" d="M123.13,222.19a99.67,99.67,0,1,1,99.67-99.67A99.68,99.68,0,0,1,123.13,222.19Zm0-209.62a109.95,109.95,0,1,0,110,110A109.95,109.95,0,0,0,123.13,12.57Z"/><path class="cls-7" d="M123.13,222.37A99.85,99.85,0,1,1,223,122.52,99.86,99.86,0,0,1,123.13,222.37Zm0-209.65a109.8,109.8,0,1,0,109.8,109.8A109.8,109.8,0,0,0,123.13,12.72Z"/><path class="cls-8" d="M123.13,222.55a100,100,0,1,1,100-100A100,100,0,0,1,123.13,222.55Zm0-209.68A109.65,109.65,0,1,0,232.78,122.52,109.65,109.65,0,0,0,123.13,12.87Z"/><path class="cls-9" d="M123.13,222.73A100.22,100.22,0,1,1,223.35,122.52,100.22,100.22,0,0,1,123.13,222.73Zm0-209.71a109.5,109.5,0,1,0,109.5,109.5A109.49,109.49,0,0,0,123.13,13Z"/><path class="cls-10" d="M123.13,222.92a100.4,100.4,0,1,1,100.4-100.4A100.39,100.39,0,0,1,123.13,222.92Zm0-209.75A109.35,109.35,0,1,0,232.48,122.52,109.34,109.34,0,0,0,123.13,13.17Z"/><path class="cls-11" d="M123.13,223.1A100.58,100.58,0,1,1,223.71,122.52,100.58,100.58,0,0,1,123.13,223.1Zm0-209.78a109.2,109.2,0,1,0,109.2,109.2A109.2,109.2,0,0,0,123.13,13.32Z"/><path class="cls-12" d="M123.13,223.28A100.76,100.76,0,1,1,223.89,122.52,100.76,100.76,0,0,1,123.13,223.28Zm0-209.81A109,109,0,1,0,232.18,122.52,109,109,0,0,0,123.13,13.47Z"/><path class="cls-13" d="M123.13,223.46a100.95,100.95,0,1,1,101-100.94A100.94,100.94,0,0,1,123.13,223.46Zm0-209.84A108.9,108.9,0,1,0,232,122.52,108.89,108.89,0,0,0,123.13,13.62Z"/><path class="cls-14" d="M123.13,223.64A101.13,101.13,0,1,1,224.26,122.52,101.12,101.12,0,0,1,123.13,223.64Zm0-209.87A108.75,108.75,0,1,0,231.88,122.52,108.74,108.74,0,0,0,123.13,13.77Z"/><path class="cls-15" d="M123.13,223.83A101.31,101.31,0,1,1,224.44,122.52,101.3,101.3,0,0,1,123.13,223.83Zm0-209.91a108.6,108.6,0,1,0,108.6,108.6A108.6,108.6,0,0,0,123.13,13.92Z"/><path class="cls-16" d="M123.13,224A101.49,101.49,0,1,1,224.62,122.52,101.49,101.49,0,0,1,123.13,224Zm0-209.94A108.45,108.45,0,1,0,231.58,122.52,108.45,108.45,0,0,0,123.13,14.07Z"/><path class="cls-17" d="M123.13,224.19A101.68,101.68,0,1,1,224.81,122.52,101.67,101.67,0,0,1,123.13,224.19Zm0-210a108.3,108.3,0,1,0,108.3,108.3A108.29,108.29,0,0,0,123.13,14.22Z"/><path class="cls-18" d="M123.13,224.37A101.86,101.86,0,1,1,225,122.52,101.85,101.85,0,0,1,123.13,224.37Zm0-210A108.15,108.15,0,1,0,231.28,122.52,108.15,108.15,0,0,0,123.13,14.37Z"/><path class="cls-19" d="M123.13,224.55a102,102,0,1,1,102-102A102,102,0,0,1,123.13,224.55Zm0-210a108,108,0,1,0,108,108A108,108,0,0,0,123.13,14.52Z"/><path class="cls-20" d="M123.13,224.73A102.22,102.22,0,1,1,225.35,122.52,102.22,102.22,0,0,1,123.13,224.73Zm0-210.06A107.85,107.85,0,1,0,231,122.52,107.85,107.85,0,0,0,123.13,14.67Z"/><path class="cls-21" d="M123.13,224.92a102.4,102.4,0,1,1,102.4-102.4A102.41,102.41,0,0,1,123.13,224.92Zm0-210.1a107.7,107.7,0,1,0,107.7,107.7A107.7,107.7,0,0,0,123.13,14.82Z"/><path class="cls-22" d="M123.13,225.1A102.59,102.59,0,1,1,225.72,122.52,102.58,102.58,0,0,1,123.13,225.1Zm0-210.13A107.55,107.55,0,1,0,230.68,122.52,107.55,107.55,0,0,0,123.13,15Z"/><path class="cls-23" d="M123.13,225.28A102.77,102.77,0,1,1,225.9,122.52,102.76,102.76,0,0,1,123.13,225.28Zm0-210.16a107.4,107.4,0,1,0,107.4,107.4A107.4,107.4,0,0,0,123.13,15.12Z"/><path class="cls-24" d="M123.13,225.46a102.95,102.95,0,1,1,103-102.94A102.94,102.94,0,0,1,123.13,225.46Zm0-210.19A107.25,107.25,0,1,0,230.38,122.52,107.25,107.25,0,0,0,123.13,15.27Z"/><path class="cls-25" d="M123.13,225.65A103.13,103.13,0,1,1,226.26,122.52,103.14,103.14,0,0,1,123.13,225.65Zm0-210.23a107.1,107.1,0,1,0,107.1,107.1A107.1,107.1,0,0,0,123.13,15.42Z"/><path class="cls-26" d="M123.13,225.83A103.31,103.31,0,1,1,226.44,122.52,103.32,103.32,0,0,1,123.13,225.83Zm0-210.26a107,107,0,1,0,107,107A107,107,0,0,0,123.13,15.57Z"/><path class="cls-27" d="M123.13,226a103.5,103.5,0,1,1,103.5-103.49A103.49,103.49,0,0,1,123.13,226Zm0-210.29a106.8,106.8,0,1,0,106.8,106.8A106.8,106.8,0,0,0,123.13,15.72Z"/><path class="cls-28" d="M123.13,226.19A103.68,103.68,0,1,1,226.81,122.52,103.67,103.67,0,0,1,123.13,226.19Zm0-210.32A106.65,106.65,0,1,0,229.78,122.52,106.65,106.65,0,0,0,123.13,15.87Z"/><path class="cls-29" d="M227.93,122.48a104.8,104.8,0,1,1-104.8-104.8A104.81,104.81,0,0,1,227.93,122.48Z"/></g></g></svg>