<svg xmlns="http://www.w3.org/2000/svg" xmlns:xlink="http://www.w3.org/1999/xlink" viewBox="0 0 818.65 217.8"><defs><style>.cls-1{isolation:isolate;}.cls-2{mix-blend-mode:multiply;fill:url(#linear-gradient);}.cls-3{fill:#fff;}.cls-4{fill:url(#linear-gradient-2);}.cls-5{mix-blend-mode:color-burn;}</style><linearGradient id="linear-gradient" x1="594.25" y1="78.96" x2="615.61" y2="57.6" gradientUnits="userSpaceOnUse"><stop offset="0.01" stop-color="#f6c4de"/><stop offset="1" stop-color="#9dceec"/></linearGradient><linearGradient id="linear-gradient-2" x1="592.21" y1="56.53" x2="641.79" y2="56.53" xlink:href="#linear-gradient"/></defs><g class="cls-1"><g id="Layer_1" data-name="Layer 1"><path class="cls-2" d="M588.45,56.53c0,15.18,12.64,27.47,28.23,27.47s28.23-12.29,28.23-27.47-12.64-27.47-28.23-27.47S588.45,41.36,588.45,56.53Z"/><path class="cls-3" d="M107.2,33.13H90.41a8.06,8.06,0,1,1,0-16.11h51.05a8.06,8.06,0,1,1,0,16.11H124.67V88.38a8.74,8.74,0,1,1-17.47,0Z"/><path class="cls-3" d="M156.55,25.08a8.74,8.74,0,1,1,17.47,0V48.45h32.22V25.08a8.74,8.74,0,1,1,17.47,0v63.3a8.74,8.74,0,1,1-17.47,0V64.56H174V88.38a8.74,8.74,0,1,1-17.47,0Z"/><path class="cls-3" d="M232.68,85.2l27.68-62.51c1.93-4.31,5.45-6.92,10.21-6.92h1c4.77,0,8.17,2.61,10.1,6.92L309.37,85.2a8.52,8.52,0,0,1,.91,3.52,8.28,8.28,0,0,1-8.28,8.4c-4.09,0-6.81-2.39-8.4-6l-5.33-12.48H253.33l-5.56,13a8.6,8.6,0,0,1-8.06,5.45A8,8,0,0,1,231.66,89,9.25,9.25,0,0,1,232.68,85.2Zm49.12-22L270.8,37l-11,26.2Z"/><path class="cls-3" d="M318.34,25.3a8.66,8.66,0,0,1,8.73-8.73h1.82c4.2,0,6.69,2,9.07,5.1l33.7,44.25V25a8.62,8.62,0,0,1,17.24,0V88.15a8.66,8.66,0,0,1-8.73,8.74h-.57c-4.2,0-6.69-2-9.08-5.11L335.58,46V88.49a8.62,8.62,0,1,1-17.24,0Z"/><path class="cls-3" d="M402.29,25.08a8.74,8.74,0,1,1,17.47,0V51.74l32.22-32c2.16-2.15,4.31-3.4,7.38-3.4a7.87,7.87,0,0,1,8.05,8.06A8.78,8.78,0,0,1,464.24,31L441.89,51.85l24.39,30.63a9.31,9.31,0,0,1,2.38,6.13c0,4.88-3.74,8.51-8.85,8.51-3.4,0-5.44-1.71-7.37-4.2L429.75,63.19l-10,9.31V88.38a8.74,8.74,0,1,1-17.47,0Z"/><path class="cls-3" d="M526.52,65.8,500.88,31a10.37,10.37,0,0,1-2.15-6.24,8.52,8.52,0,0,1,8.73-8.4c4,0,6.47,2.16,8.62,5.33l19.29,27.8,19.63-28c2.15-3.18,4.76-5.22,8.39-5.22,5.33,0,8.51,3.74,8.51,8.51a10.81,10.81,0,0,1-2.27,6.12L544,65.46V88.38a8.74,8.74,0,1,1-17.47,0Z"/><path class="cls-3" d="M574.63,57v-.23c0-22.58,17.81-41.07,42.31-41.07S659,33.92,659,56.5v.23c0,22.57-17.81,41.07-42.31,41.07S574.63,79.53,574.63,57Zm66.14,0v-.23c0-13.62-10-25-24-25S592.89,42.89,592.89,56.5v.23c0,13.61,10,25,24.05,25S640.77,70.57,640.77,57Z"/><path class="cls-3" d="M667.66,62.4V25.08a8.74,8.74,0,1,1,17.47,0V62c0,12.93,6.47,19.62,17.13,19.62s17.13-6.46,17.13-19.06V25.08a8.74,8.74,0,1,1,17.47,0V61.83c0,24-13.5,35.85-34.83,35.85S667.66,85.77,667.66,62.4Z"/><path class="cls-3" d="M7.47,153.83a2.78,2.78,0,1,1,5.56,0v44.38a2.78,2.78,0,1,1-5.56,0Z"/><path class="cls-3" d="M23,166.65a2.71,2.71,0,1,1,5.42,0v3.74c2.4-3.6,5.64-6.91,11.76-6.91a12.37,12.37,0,0,1,11.7,7.26c2.61-4,6.48-7.26,12.82-7.26,8.38,0,13.53,5.64,13.53,14.65v20.15a2.72,2.72,0,1,1-5.43,0V179.4c0-7-3.52-11-9.44-11-5.49,0-10,4.09-10,11.27v18.6a2.72,2.72,0,1,1-5.43,0v-19c0-6.83-3.59-10.85-9.37-10.85S28.46,173.2,28.46,179.9v18.38A2.65,2.65,0,0,1,25.78,201,2.7,2.7,0,0,1,23,198.28Z"/><path class="cls-3" d="M83.76,190.11V190c0-7.68,6.34-11.76,15.57-11.76a38.89,38.89,0,0,1,11.2,1.54v-1.26c0-6.55-4-9.94-10.85-9.94a22.72,22.72,0,0,0-9.44,2,2.75,2.75,0,0,1-1,.21,2.41,2.41,0,0,1-2.39-2.33,2.48,2.48,0,0,1,1.48-2.25,28.69,28.69,0,0,1,11.91-2.47c5.14,0,9.08,1.34,11.76,4,2.47,2.46,3.73,6,3.73,10.64v19.93a2.57,2.57,0,0,1-2.6,2.68,2.5,2.5,0,0,1-2.61-2.53v-3.32a15.94,15.94,0,0,1-13.17,6.27C90.59,201.45,83.76,197.58,83.76,190.11Zm26.84-2.82v-3.52a38.19,38.19,0,0,0-10.71-1.55c-6.83,0-10.64,3-10.64,7.54v.14c0,4.58,4.23,7.26,9.16,7.26C105.11,197.16,110.6,193.07,110.6,187.29Z"/><path class="cls-3" d="M124.69,207.79a2.49,2.49,0,0,1-1.41-2.25,2.59,2.59,0,0,1,2.47-2.4,2.17,2.17,0,0,1,1.19.36,23.08,23.08,0,0,0,12.89,3.94c8,0,13.25-4.44,13.25-13v-4.3c-3.17,4.23-7.61,7.68-14.3,7.68-8.74,0-17.12-6.55-17.12-17.05v-.14A17.24,17.24,0,0,1,153,170.81v-4.16a2.7,2.7,0,0,1,2.68-2.75,2.75,2.75,0,0,1,2.74,2.75v27.69c0,5.63-1.69,9.93-4.65,12.89-3.24,3.24-8.1,4.86-13.87,4.86A28.51,28.51,0,0,1,124.69,207.79Zm28.53-27v-.14c0-7.47-6.48-12.33-13.39-12.33s-12.61,4.79-12.61,12.26v.14a12.33,12.33,0,0,0,12.61,12.4C146.74,193.07,153.22,188.07,153.22,180.74Z"/><path class="cls-3" d="M183,201.52c-10,0-18.18-7.67-18.18-19v-.14c0-10.49,7.4-19,17.47-19,10.78,0,16.91,8.81,16.91,18.46a2.53,2.53,0,0,1-2.54,2.54H170.27c.77,7.89,6.34,12.32,12.82,12.32a14.87,14.87,0,0,0,10.49-4.22,2.34,2.34,0,0,1,3.95,1.69,2.32,2.32,0,0,1-.85,1.76A18.49,18.49,0,0,1,183,201.52Zm10.78-21.06c-.57-6.62-4.37-12.4-11.63-12.4-6.34,0-11.13,5.28-11.83,12.4Z"/><path class="cls-3" d="M222,194.76a2.51,2.51,0,0,1-1.05-2.11,2.69,2.69,0,0,1,2.67-2.75,2.46,2.46,0,0,1,1.69.63,22.41,22.41,0,0,0,15.57,5.85c6.63,0,11-3.52,11-8.38v-.14c0-4.58-2.46-7.19-12.82-9.37-11.34-2.47-16.55-6.13-16.55-14.23v-.14c0-7.75,6.83-13.46,16.2-13.46a25.16,25.16,0,0,1,15.71,4.86,2.88,2.88,0,0,1,1.2,2.26,2.68,2.68,0,0,1-2.68,2.67,2.61,2.61,0,0,1-1.62-.49,20.63,20.63,0,0,0-12.75-4.3c-6.41,0-10.5,3.52-10.5,8v.14c0,4.65,2.54,7.26,13.39,9.58s16.06,6.41,16.06,13.95v.14c0,8.46-7.05,13.95-16.84,13.95A28.82,28.82,0,0,1,222,194.76Z"/><path class="cls-3" d="M261.63,190.11V190c0-7.68,6.34-11.76,15.57-11.76a39,39,0,0,1,11.21,1.54v-1.26c0-6.55-4-9.94-10.85-9.94a22.65,22.65,0,0,0-9.44,2,2.84,2.84,0,0,1-1,.21,2.41,2.41,0,0,1-2.4-2.33,2.49,2.49,0,0,1,1.48-2.25,28.76,28.76,0,0,1,11.91-2.47c5.14,0,9.09,1.34,11.76,4,2.47,2.46,3.74,6,3.74,10.64v19.93A2.58,2.58,0,0,1,291,201a2.49,2.49,0,0,1-2.6-2.53v-3.32a16,16,0,0,1-13.18,6.27C268.47,201.45,261.63,197.58,261.63,190.11Zm26.85-2.82v-3.52a38.19,38.19,0,0,0-10.71-1.55c-6.84,0-10.64,3-10.64,7.54v.14c0,4.58,4.23,7.26,9.16,7.26C283,197.16,288.48,193.07,288.48,187.29Z"/><path class="cls-3" d="M316.3,201.24H316a3.36,3.36,0,0,1-3.1-2.32l-13.67-30.86a5.68,5.68,0,0,1-.35-1.48,2.79,2.79,0,0,1,5.5-.56l11.76,28.46,12-28.6a2.59,2.59,0,0,1,2.53-2,2.68,2.68,0,0,1,2.68,2.68,3.79,3.79,0,0,1-.28,1.34l-13.74,31C318.7,200.33,317.78,201.24,316.3,201.24Z"/><path class="cls-3" d="M355.19,201.52c-10,0-18.18-7.67-18.18-19v-.14c0-10.49,7.4-19,17.47-19,10.78,0,16.91,8.81,16.91,18.46a2.53,2.53,0,0,1-2.53,2.54H342.51c.77,7.89,6.34,12.32,12.82,12.32a14.92,14.92,0,0,0,10.5-4.22,2.33,2.33,0,0,1,1.55-.64,2.31,2.31,0,0,1,1.55,4.09A18.53,18.53,0,0,1,355.19,201.52ZM366,180.46c-.57-6.62-4.37-12.4-11.63-12.4-6.34,0-11.13,5.28-11.83,12.4Z"/><path class="cls-3" d="M412.11,198.28a2.72,2.72,0,1,1-5.43,0v-4.93c-2.95,4.37-7.25,8.1-13.94,8.1-8.74,0-17.41-6.9-17.41-18.88v-.14c0-11.9,8.67-19,17.41-19,6.76,0,11.13,3.66,13.94,7.75V151.65a2.65,2.65,0,0,1,2.68-2.75,2.71,2.71,0,0,1,2.75,2.75ZM380.9,182.36v.14c0,8.6,6,14.09,12.82,14.09s13.18-5.7,13.18-14.09v-.14c0-8.38-6.41-14-13.18-14C386.68,168.34,380.9,173.56,380.9,182.36Z"/><path class="cls-3" d="M437.47,194.76a2.49,2.49,0,0,1-1.06-2.11,2.7,2.7,0,0,1,2.68-2.75,2.5,2.5,0,0,1,1.69.63,22.41,22.41,0,0,0,15.57,5.85c6.62,0,11-3.52,11-8.38v-.14c0-4.58-2.47-7.19-12.83-9.37C443.17,176,438,172.36,438,164.26v-.14c0-7.75,6.83-13.46,16.2-13.46a25.16,25.16,0,0,1,15.71,4.86,2.85,2.85,0,0,1,1.2,2.26,2.68,2.68,0,0,1-2.68,2.67,2.63,2.63,0,0,1-1.62-.49,20.61,20.61,0,0,0-12.75-4.3c-6.41,0-10.5,3.52-10.5,8v.14c0,4.65,2.54,7.26,13.39,9.58S473,179.75,473,187.29v.14c0,8.46-7,13.95-16.83,13.95A28.79,28.79,0,0,1,437.47,194.76Z"/><path class="cls-3" d="M511.08,198.28a2.68,2.68,0,1,1-5.35,0v-3.94c-2.47,3.94-6.2,7.11-12.47,7.11-8.81,0-13.95-5.91-13.95-14.58V166.65A2.65,2.65,0,0,1,482,163.9a2.75,2.75,0,0,1,2.75,2.75v18.88c0,6.77,3.66,11,10.07,11,6.2,0,10.92-4.58,10.92-11.41V166.65a2.65,2.65,0,0,1,2.68-2.75,2.69,2.69,0,0,1,2.67,2.75Z"/><path class="cls-3" d="M517.49,182.64v-.14a18.93,18.93,0,0,1,32.06-13.73,2.54,2.54,0,0,1,.84,1.9,2.59,2.59,0,0,1-2.6,2.6,2.8,2.8,0,0,1-1.76-.63c-2.61-2.4-5.57-4.37-9.94-4.37-7.39,0-13,6.27-13,14.09v.14c0,7.89,5.78,14.16,13.38,14.16a14.55,14.55,0,0,0,10.15-4.44,2.14,2.14,0,0,1,1.55-.7,2.55,2.55,0,0,1,2.47,2.47,2.5,2.5,0,0,1-.71,1.69,18.33,18.33,0,0,1-13.74,5.84A18.7,18.7,0,0,1,517.49,182.64Z"/><path class="cls-3" d="M554.2,182.64v-.14a18.92,18.92,0,0,1,32-13.73,2.54,2.54,0,0,1,.85,1.9,2.6,2.6,0,0,1-2.61,2.6,2.82,2.82,0,0,1-1.76-.63c-2.61-2.4-5.57-4.37-9.94-4.37-7.39,0-13,6.27-13,14.09v.14c0,7.89,5.78,14.16,13.39,14.16a14.55,14.55,0,0,0,10.14-4.44,2.16,2.16,0,0,1,1.55-.7,2.55,2.55,0,0,1,2.47,2.47,2.45,2.45,0,0,1-.71,1.69,18.33,18.33,0,0,1-13.73,5.84A18.7,18.7,0,0,1,554.2,182.64Z"/><path class="cls-3" d="M609.08,201.52c-10,0-18.18-7.67-18.18-19v-.14c0-10.49,7.4-19,17.47-19,10.78,0,16.91,8.81,16.91,18.46a2.53,2.53,0,0,1-2.54,2.54H596.39c.78,7.89,6.34,12.32,12.83,12.32a14.89,14.89,0,0,0,10.49-4.22,2.34,2.34,0,0,1,3.95,1.69,2.32,2.32,0,0,1-.85,1.76A18.51,18.51,0,0,1,609.08,201.52Zm10.77-21.06c-.56-6.62-4.36-12.4-11.62-12.4-6.34,0-11.13,5.28-11.84,12.4Z"/><path class="cls-3" d="M629.36,196.8a2.44,2.44,0,0,1-1-2,2.35,2.35,0,0,1,2.39-2.32,2.18,2.18,0,0,1,1.34.42,20.42,20.42,0,0,0,11.55,3.87c4.37,0,7.54-2.25,7.54-5.77v-.14c0-3.67-4.3-5.08-9.09-6.41-5.7-1.62-12-3.6-12-10.29v-.14c0-6.27,5.21-10.43,12.4-10.43a25.39,25.39,0,0,1,11.62,3.1,2.65,2.65,0,0,1,1.34,2.26,2.37,2.37,0,0,1-2.4,2.32,2.71,2.71,0,0,1-1.19-.28,19.76,19.76,0,0,0-9.51-2.82c-4.3,0-7.05,2.26-7.05,5.29v.14c0,3.45,4.51,4.79,9.37,6.27,5.64,1.69,11.69,3.87,11.69,10.42v.14c0,6.91-5.7,10.92-13,10.92A25.2,25.2,0,0,1,629.36,196.8Z"/><path class="cls-3" d="M660.92,196.8a2.45,2.45,0,0,1-1-2,2.36,2.36,0,0,1,2.4-2.32,2.18,2.18,0,0,1,1.34.42,20.42,20.42,0,0,0,11.55,3.87c4.37,0,7.54-2.25,7.54-5.77v-.14c0-3.67-4.3-5.08-9.09-6.41-5.7-1.62-12-3.6-12-10.29v-.14c0-6.27,5.21-10.43,12.39-10.43a25.4,25.4,0,0,1,11.63,3.1A2.65,2.65,0,0,1,687,169a2.37,2.37,0,0,1-2.4,2.32,2.79,2.79,0,0,1-1.2-.28,19.73,19.73,0,0,0-9.51-2.82c-4.29,0-7,2.26-7,5.29v.14c0,3.45,4.51,4.79,9.37,6.27,5.63,1.69,11.69,3.87,11.69,10.42v.14c0,6.91-5.7,10.92-13,10.92A25.2,25.2,0,0,1,660.92,196.8Z"/><path class="cls-3" d="M696.5,169.05h-3a2.36,2.36,0,0,1,0-4.72h3v-3.17c0-4.16,1.12-7.33,3.17-9.37a10.71,10.71,0,0,1,7.82-2.82,18.43,18.43,0,0,1,4.29.42,2.42,2.42,0,0,1,2,2.33,2.34,2.34,0,0,1-2.61,2.32,19.06,19.06,0,0,0-3-.35c-4.23,0-6.34,2.54-6.34,7.75v3h9.44a2.32,2.32,0,0,1,2.4,2.32,2.37,2.37,0,0,1-2.4,2.33h-9.37v29.23a2.7,2.7,0,0,1-2.68,2.75,2.75,2.75,0,0,1-2.74-2.75Z"/><path class="cls-3" d="M748,198.28a2.68,2.68,0,1,1-5.35,0v-3.94c-2.47,3.94-6.2,7.11-12.47,7.11-8.81,0-13.95-5.91-13.95-14.58V166.65a2.65,2.65,0,0,1,2.68-2.75,2.75,2.75,0,0,1,2.75,2.75v18.88c0,6.77,3.66,11,10.07,11,6.2,0,10.92-4.58,10.92-11.41V166.65a2.65,2.65,0,0,1,2.68-2.75,2.69,2.69,0,0,1,2.67,2.75Z"/><path class="cls-3" d="M757.15,151.65a2.71,2.71,0,1,1,5.42,0v46.63A2.65,2.65,0,0,1,759.9,201a2.71,2.71,0,0,1-2.75-2.75Z"/><path class="cls-3" d="M772.15,151.65a2.72,2.72,0,1,1,5.43,0v46.63A2.65,2.65,0,0,1,774.9,201a2.71,2.71,0,0,1-2.75-2.75Z"/><path class="cls-3" d="M786,211.11a2.48,2.48,0,0,1-1.69-2.33,2.34,2.34,0,0,1,2.32-2.32,4.1,4.1,0,0,1,1.34.28,11.31,11.31,0,0,0,4,.63c3.38,0,5.35-2,7.32-6.48l.29-.56-15.22-32.27a3.81,3.81,0,0,1-.35-1.48,2.69,2.69,0,0,1,2.74-2.68,2.88,2.88,0,0,1,2.75,2.12l12.68,28.6L813.36,166a2.74,2.74,0,0,1,2.61-2,2.68,2.68,0,0,1,2.68,2.68,4.58,4.58,0,0,1-.28,1.34l-14.23,34c-3.17,7.54-6.7,10.28-12.19,10.28A17.23,17.23,0,0,1,786,211.11Z"/><path class="cls-4" d="M607.64,75.62a4,4,0,0,1-2.86-1.18L593.39,63.05a4,4,0,1,1,5.71-5.71l8.54,8.53,27.25-27.25a4,4,0,1,1,5.71,5.71L610.49,74.44A4,4,0,0,1,607.64,75.62Z"/><g class="cls-5"><path class="cls-4" d="M607.64,75.62a4,4,0,0,1-2.86-1.18L593.39,63.05a4,4,0,1,1,5.71-5.71l8.54,8.53,27.25-27.25a4,4,0,1,1,5.71,5.71L610.49,74.44A4,4,0,0,1,607.64,75.62Z"/></g></g></g></svg>