<svg id="Layer_1" data-name="Layer 1" xmlns="http://www.w3.org/2000/svg" xmlns:xlink="http://www.w3.org/1999/xlink" viewBox="0 0 315.49 49.04"><defs><style>.cls-1{fill:url(#linear-gradient);}.cls-2,.cls-3{fill:#fff;}.cls-2{fill-rule:evenodd;}</style><linearGradient id="linear-gradient" y1="24.52" x2="315.49" y2="24.52" gradientUnits="userSpaceOnUse"><stop offset="0.01" stop-color="#00b2ee"/><stop offset="1" stop-color="#0058a8"/></linearGradient></defs><title>access-cam-btn</title><path class="cls-1" d="M24.52,0a24.52,24.52,0,0,0,0,49H291A24.49,24.49,0,0,0,308.29,7.2,24.38,24.38,0,0,0,291,0Z"/><path class="cls-2" d="M287.65,26.38c0-4,.19-7.78-.25-10.76-1-2.81-5.41-2.26-9.26-2.25-.89-.78-.64-2.54-2.25-3.25-1.92-.85-10.2-1-13,0-2.28.78-1.75,2.5-3,3.25-4.14.21-7.72-.91-9,2.25-2,4.88.77,15.68,0,21.27,2.07,3.57,11.24,2.26,18.27,2.26,5.32,0,12.75,1.17,16.26-.25C288.64,37.57,287.65,31.17,287.65,26.38Zm-2.51,10.26c-2,2-11.62.75-16,.75-2.84,0-14.07,1.2-16-.75-1.41-1.4-.75-7.91-.75-10.51,0-2-1-8.48.75-10.25,1.62-1.63,5.51-.33,8.75-.75,1.11-.15.42-2.1,1-2.76,3.13-1.12,8.31-.2,12.26-.5.83.6.58,2.26,1,3.26,3.09.23,7.29-.63,9.25.75.87,3,.5,6.46.5,10.5C285.89,29.36,287,34.78,285.14,36.64Z"/><path class="cls-2" d="M281.64,17.63a1.76,1.76,0,1,0,.25,3.5C283.9,20.9,283.74,17.33,281.64,17.63Z"/><path class="cls-2" d="M267.38,17.88c-8.7,1.54-9.17,13.57-1.75,16.51a9.38,9.38,0,0,0,11.51-4.25C280.39,23.18,274.6,16.59,267.38,17.88Zm8.51,9.25c-.8,7.93-13.95,7.94-13.52-1.25a6.08,6.08,0,0,1,5.26-6C272.68,18.88,276.39,22,275.89,27.13Z"/><path class="cls-3" d="M34.62,29.62l5.69-12.44a1,1,0,0,1,1-.7h.08a1,1,0,0,1,1,.7L48.06,29.6a1.07,1.07,0,0,1,.1.4.76.76,0,0,1-.76.77.86.86,0,0,1-.78-.58L45.16,27h-7.7L36,30.22a.79.79,0,0,1-.76.55.72.72,0,0,1-.72-.73A.94.94,0,0,1,34.62,29.62Zm9.91-4.1-3.22-7.18-3.23,7.18Z"/><path class="cls-3" d="M49.29,25.54v0a5.38,5.38,0,0,1,9.11-3.91.72.72,0,0,1,.24.54.74.74,0,0,1-.74.74.8.8,0,0,1-.5-.18,4,4,0,0,0-2.83-1.24,3.82,3.82,0,0,0-3.7,4v0a3.86,3.86,0,0,0,3.8,4,4.14,4.14,0,0,0,2.89-1.26.61.61,0,0,1,.44-.2.72.72,0,0,1,.7.7.7.7,0,0,1-.2.48,5.22,5.22,0,0,1-3.91,1.67A5.32,5.32,0,0,1,49.29,25.54Z"/><path class="cls-3" d="M59.72,25.54v0a5.39,5.39,0,0,1,9.12-3.91.72.72,0,0,1,.24.54.74.74,0,0,1-.74.74.8.8,0,0,1-.5-.18A4,4,0,0,0,65,21.45a3.82,3.82,0,0,0-3.7,4v0a3.86,3.86,0,0,0,3.8,4A4.14,4.14,0,0,0,68,28.26a.61.61,0,0,1,.44-.2.72.72,0,0,1,.7.7.7.7,0,0,1-.2.48A5.22,5.22,0,0,1,65,30.91,5.33,5.33,0,0,1,59.72,25.54Z"/><path class="cls-3" d="M75.33,30.91a5.16,5.16,0,0,1-5.17-5.39v0a5.11,5.11,0,0,1,5-5.39c3.07,0,4.81,2.5,4.81,5.25a.72.72,0,0,1-.72.72H71.73a3.61,3.61,0,0,0,3.64,3.5,4.23,4.23,0,0,0,3-1.2.66.66,0,0,1,1.12.48.66.66,0,0,1-.24.5A5.23,5.23,0,0,1,75.33,30.91Zm3.07-6c-.16-1.89-1.24-3.53-3.31-3.53-1.8,0-3.16,1.5-3.36,3.53Z"/><path class="cls-3" d="M81.11,29.56a.67.67,0,0,1,.4-1.22.62.62,0,0,1,.38.12,5.81,5.81,0,0,0,3.28,1.1c1.24,0,2.15-.64,2.15-1.64v0c0-1-1.23-1.44-2.59-1.82-1.62-.46-3.43-1-3.43-2.93v0c0-1.78,1.49-3,3.53-3a7.28,7.28,0,0,1,3.31.88.75.75,0,0,1,.38.64.67.67,0,0,1-.68.66.77.77,0,0,1-.34-.08,5.66,5.66,0,0,0-2.71-.8c-1.22,0-2,.64-2,1.5v0c0,1,1.28,1.36,2.66,1.79,1.6.48,3.33,1.1,3.33,3v0c0,2-1.62,3.11-3.69,3.11A7.09,7.09,0,0,1,81.11,29.56Z"/><path class="cls-3" d="M90.08,29.56A.7.7,0,0,1,89.8,29a.67.67,0,0,1,.68-.66.62.62,0,0,1,.38.12,5.84,5.84,0,0,0,3.29,1.1c1.24,0,2.14-.64,2.14-1.64v0c0-1-1.22-1.44-2.58-1.82-1.63-.46-3.43-1-3.43-2.93v0c0-1.78,1.48-3,3.53-3a7.2,7.2,0,0,1,3.3.88.75.75,0,0,1,.38.64.67.67,0,0,1-.68.66.77.77,0,0,1-.34-.08,5.6,5.6,0,0,0-2.7-.8c-1.22,0-2,.64-2,1.5v0c0,1,1.29,1.36,2.67,1.79,1.6.48,3.32,1.1,3.32,3v0c0,2-1.62,3.11-3.68,3.11A7.12,7.12,0,0,1,90.08,29.56Z"/><path class="cls-3" d="M104.27,23.69v0a7.06,7.06,0,0,1,7.09-7.25,7.27,7.27,0,0,1,5,1.82.89.89,0,0,1,.32.65.81.81,0,0,1-.8.78.94.94,0,0,1-.52-.18,5.72,5.72,0,0,0-4-1.61,5.5,5.5,0,0,0-5.43,5.75v0a5.53,5.53,0,0,0,5.43,5.79,5.77,5.77,0,0,0,4.17-1.7.73.73,0,0,1,.5-.22.79.79,0,0,1,.76.76.75.75,0,0,1-.26.56,7.16,7.16,0,0,1-5.21,2.07A7,7,0,0,1,104.27,23.69Z"/><path class="cls-3" d="M117.63,27.66v0c0-2.18,1.81-3.34,4.43-3.34a11.1,11.1,0,0,1,3.19.44v-.36c0-1.87-1.15-2.83-3.09-2.83a6.46,6.46,0,0,0-2.68.58.79.79,0,0,1-.28.06.69.69,0,0,1-.69-.66.7.7,0,0,1,.43-.64,8.15,8.15,0,0,1,3.38-.7,4.56,4.56,0,0,1,3.35,1.14,4.08,4.08,0,0,1,1.06,3V30a.73.73,0,0,1-.74.77.71.71,0,0,1-.74-.73V29.1a4.56,4.56,0,0,1-3.75,1.79C119.58,30.89,117.63,29.79,117.63,27.66Zm7.64-.8v-1a10.92,10.92,0,0,0-3-.44c-1.94,0-3,.84-3,2.14v0c0,1.3,1.2,2.06,2.6,2.06C123.7,29.66,125.27,28.5,125.27,26.86Z"/><path class="cls-3" d="M129,21a.79.79,0,0,1,.77-.78.77.77,0,0,1,.78.78v1.06a3.78,3.78,0,0,1,3.34-2,3.52,3.52,0,0,1,3.33,2.06,4.12,4.12,0,0,1,3.64-2.06c2.39,0,3.85,1.6,3.85,4.16V30a.77.77,0,1,1-1.54,0V24.62c0-2-1-3.13-2.69-3.13s-2.84,1.16-2.84,3.21V30a.77.77,0,1,1-1.54,0v-5.4c0-1.95-1-3.09-2.67-3.09a3,3,0,0,0-2.88,3.27V30a.75.75,0,0,1-.76.79A.78.78,0,0,1,129,30Z"/><path class="cls-3" d="M151.6,30.91a5.15,5.15,0,0,1-5.17-5.39v0a5.1,5.1,0,0,1,5-5.39c3.06,0,4.8,2.5,4.8,5.25a.72.72,0,0,1-.72.72H148a3.61,3.61,0,0,0,3.65,3.5,4.23,4.23,0,0,0,3-1.2.66.66,0,0,1,1.12.48.66.66,0,0,1-.24.5A5.22,5.22,0,0,1,151.6,30.91Zm3.06-6c-.16-1.89-1.24-3.53-3.3-3.53-1.81,0-3.17,1.5-3.37,3.53Z"/><path class="cls-3" d="M157.93,21a.78.78,0,0,1,.76-.78.77.77,0,0,1,.78.78v1.94A4.29,4.29,0,0,1,163,20.17a.74.74,0,0,1,.76.78.76.76,0,0,1-.68.78c-2,.24-3.65,1.74-3.65,4.73V30a.77.77,0,1,1-1.54,0Z"/><path class="cls-3" d="M164.26,27.66v0c0-2.18,1.8-3.34,4.43-3.34a11,11,0,0,1,3.18.44v-.36c0-1.87-1.14-2.83-3.08-2.83a6.54,6.54,0,0,0-2.69.58.79.79,0,0,1-.28.06.68.68,0,0,1-.68-.66.71.71,0,0,1,.42-.64,8.2,8.2,0,0,1,3.39-.7,4.54,4.54,0,0,1,3.34,1.14,4,4,0,0,1,1.07,3V30a.73.73,0,0,1-.74.77.71.71,0,0,1-.75-.73V29.1a4.54,4.54,0,0,1-3.74,1.79C166.2,30.89,164.26,29.79,164.26,27.66Zm7.63-.8v-1a10.79,10.79,0,0,0-3-.44c-1.94,0-3,.84-3,2.14v0c0,1.3,1.21,2.06,2.61,2.06C170.33,29.66,171.89,28.5,171.89,26.86Z"/></svg>