<svg xmlns="http://www.w3.org/2000/svg" xmlns:xlink="http://www.w3.org/1999/xlink" viewBox="0 0 655.94 57.31"><defs><style>.cls-1{isolation:isolate;}.cls-2{mix-blend-mode:overlay;fill:url(#linear-gradient);}.cls-3{fill:#fff;}</style><linearGradient id="linear-gradient" x1="236.57" y1="186.95" x2="421.51" y2="-133.36" gradientUnits="userSpaceOnUse"><stop offset="0.01" stop-color="#00b2ee"/><stop offset="1" stop-color="#0058a8"/></linearGradient></defs><title>adjust-btn</title><g class="cls-1"><g id="Layer_1" data-name="Layer 1"><path class="cls-2" d="M28.65,57.31A28.62,28.62,0,0,1,8.42,8.42,28.43,28.43,0,0,1,28.65,0H627.28a28.62,28.62,0,0,1,20.24,48.89,28.46,28.46,0,0,1-20.24,8.42Z"/><path class="cls-3" d="M104.36,36.29,113,17.43a1.58,1.58,0,0,1,1.52-1.07h.12a1.53,1.53,0,0,1,1.49,1.07l8.63,18.83a1.7,1.7,0,0,1,.15.61A1.16,1.16,0,0,1,123.75,38a1.32,1.32,0,0,1-1.19-.89l-2.22-4.89H108.68l-2.22,5a1.21,1.21,0,0,1-1.15.82,1.1,1.1,0,0,1-1.1-1.1A1.43,1.43,0,0,1,104.36,36.29Zm15-6.22-4.89-10.88-4.89,10.88Z"/><path class="cls-3" d="M141.94,36.84A1.16,1.16,0,0,1,140.79,38a1.17,1.17,0,0,1-1.19-1.19V34.71a7,7,0,0,1-6,3.5c-3.77,0-7.51-3-7.51-8.14V30c0-5.14,3.74-8.18,7.51-8.18a7.07,7.07,0,0,1,6,3.34V16.73a1.15,1.15,0,0,1,1.16-1.19,1.17,1.17,0,0,1,1.18,1.19ZM128.49,30V30c0,3.7,2.58,6.07,5.52,6.07A5.87,5.87,0,0,0,139.7,30V30a5.84,5.84,0,0,0-5.69-6C131,23.93,128.49,26.18,128.49,30Z"/><path class="cls-3" d="M143.34,42.8c-.67,0-1.19-.37-1.19-1a1,1,0,0,1,1-1c.18,0,.36,0,.51,0,1,0,1.64-.64,1.64-2V23.2A1.19,1.19,0,0,1,146.44,22a1.17,1.17,0,0,1,1.18,1.19V38.78c0,2.77-1.46,4-3.73,4A3,3,0,0,1,143.34,42.8Zm1.73-25.55a1.39,1.39,0,0,1,2.77,0v.39a1.39,1.39,0,0,1-2.77,0Z"/><path class="cls-3" d="M164.42,36.84a1.16,1.16,0,1,1-2.31,0v-1.7a6,6,0,0,1-5.37,3.07c-3.8,0-6-2.55-6-6.29V23.2A1.15,1.15,0,0,1,151.88,22a1.19,1.19,0,0,1,1.18,1.19v8.14c0,2.92,1.58,4.74,4.34,4.74a4.63,4.63,0,0,0,4.71-4.92v-8a1.16,1.16,0,1,1,2.31,0Z"/><path class="cls-3" d="M166.73,36.2a1.05,1.05,0,0,1-.43-.85,1,1,0,0,1,1-1,.92.92,0,0,1,.57.18,8.83,8.83,0,0,0,5,1.67c1.88,0,3.25-1,3.25-2.49v-.06c0-1.58-1.86-2.19-3.92-2.76-2.46-.7-5.2-1.55-5.2-4.44v-.06c0-2.7,2.25-4.5,5.35-4.5a10.94,10.94,0,0,1,5,1.34,1.13,1.13,0,0,1,.58,1,1,1,0,0,1-1,1,1.21,1.21,0,0,1-.52-.12,8.48,8.48,0,0,0-4.1-1.21c-1.85,0-3,1-3,2.28v.06c0,1.49,1.95,2.06,4,2.7,2.43.73,5.05,1.67,5.05,4.5v.06c0,3-2.47,4.71-5.59,4.71A10.84,10.84,0,0,1,166.73,36.2Z"/><path class="cls-3" d="M181.43,33.71V24.23h-1.27a1.06,1.06,0,0,1-1-1,1,1,0,0,1,1-1h1.27V18.46a1.16,1.16,0,0,1,1.16-1.18,1.2,1.2,0,0,1,1.18,1.18v3.71h4.07a1.07,1.07,0,0,1,1.07,1,1.05,1.05,0,0,1-1.07,1h-4.07v9.18A2.33,2.33,0,0,0,186.42,36a6.55,6.55,0,0,0,1.42-.21,1,1,0,0,1,1,1,1,1,0,0,1-.67.91,6,6,0,0,1-2.31.43C183.35,38.15,181.43,36.9,181.43,33.71Z"/><path class="cls-3" d="M198.63,33.71V24.23h-1.28a1.06,1.06,0,0,1-1-1,1,1,0,0,1,1-1h1.28V18.46a1.15,1.15,0,0,1,1.15-1.18A1.2,1.2,0,0,1,201,18.46v3.71H205a1.07,1.07,0,0,1,1.06,1,1,1,0,0,1-1.06,1H201v9.18A2.32,2.32,0,0,0,203.61,36a6.83,6.83,0,0,0,1.43-.21,1,1,0,0,1,1,1,1,1,0,0,1-.67.91,6,6,0,0,1-2.31.43C200.54,38.15,198.63,36.9,198.63,33.71Z"/><path class="cls-3" d="M208,16.73a1.17,1.17,0,1,1,2.34,0V24.9a6,6,0,0,1,5.38-3.07c3.8,0,6,2.55,6,6.29v8.72a1.17,1.17,0,1,1-2.33,0V28.7c0-2.92-1.58-4.74-4.35-4.74a4.62,4.62,0,0,0-4.71,4.92v8A1.14,1.14,0,0,1,209.17,38,1.17,1.17,0,0,1,208,36.84Z"/><path class="cls-3" d="M231.47,38.24a7.8,7.8,0,0,1-7.84-8.17V30c0-4.53,3.19-8.18,7.53-8.18,4.65,0,7.29,3.8,7.29,8a1.09,1.09,0,0,1-1.09,1.1H226a5.48,5.48,0,0,0,5.53,5.31,6.42,6.42,0,0,0,4.52-1.82,1.06,1.06,0,0,1,.67-.27,1,1,0,0,1,.67,1.76A8,8,0,0,1,231.47,38.24Zm4.64-9.09c-.24-2.85-1.88-5.34-5-5.34-2.73,0-4.8,2.28-5.1,5.34Z"/><path class="cls-3" d="M247.5,23.2a1.17,1.17,0,1,1,2.34,0v2.13a7.06,7.06,0,0,1,6-3.5c3.77,0,7.5,3,7.5,8.14V30c0,5.13-3.7,8.17-7.5,8.17a7.1,7.1,0,0,1-6-3.34V41.7a1.14,1.14,0,0,1-1.15,1.19,1.17,1.17,0,0,1-1.19-1.19ZM261,30.07V30c0-3.71-2.55-6.08-5.53-6.08a5.86,5.86,0,0,0-5.68,6V30a5.85,5.85,0,0,0,5.68,6.07C258.47,36.11,261,33.86,261,30.07Z"/><path class="cls-3" d="M265.58,17.25a1.39,1.39,0,0,1,2.76,0v.39a1.39,1.39,0,0,1-2.76,0Zm.21,5.95A1.19,1.19,0,0,1,267,22a1.17,1.17,0,0,1,1.18,1.19V36.84A1.15,1.15,0,0,1,267,38a1.17,1.17,0,0,1-1.19-1.19Z"/><path class="cls-3" d="M270.5,30.1V30a8.16,8.16,0,0,1,13.82-5.93,1.11,1.11,0,0,1-.76,1.94,1.25,1.25,0,0,1-.76-.27,6.06,6.06,0,0,0-4.28-1.88A5.79,5.79,0,0,0,272.9,30V30a5.86,5.86,0,0,0,5.77,6.1,6.32,6.32,0,0,0,4.38-1.91.92.92,0,0,1,.66-.31A1.1,1.1,0,0,1,284.78,35a1.06,1.06,0,0,1-.31.73,7.88,7.88,0,0,1-5.92,2.52A8.06,8.06,0,0,1,270.5,30.1Z"/><path class="cls-3" d="M287.54,33.71V24.23h-1.27a1.06,1.06,0,0,1-1-1,1,1,0,0,1,1-1h1.27V18.46a1.16,1.16,0,0,1,1.16-1.18,1.2,1.2,0,0,1,1.18,1.18v3.71H294a1.07,1.07,0,0,1,1.07,1,1.05,1.05,0,0,1-1.07,1h-4.07v9.18A2.32,2.32,0,0,0,292.52,36a6.7,6.7,0,0,0,1.43-.21,1,1,0,0,1,1,1,1,1,0,0,1-.66.91,6,6,0,0,1-2.31.43C289.46,38.15,287.54,36.9,287.54,33.71Z"/><path class="cls-3" d="M310.36,36.84a1.16,1.16,0,1,1-2.31,0v-1.7a6,6,0,0,1-5.38,3.07c-3.8,0-6-2.55-6-6.29V23.2A1.15,1.15,0,0,1,297.81,22,1.18,1.18,0,0,1,299,23.2v8.14c0,2.92,1.58,4.74,4.35,4.74a4.64,4.64,0,0,0,4.71-4.92v-8A1.14,1.14,0,0,1,309.2,22a1.17,1.17,0,0,1,1.16,1.19Z"/><path class="cls-3" d="M313.51,23.2A1.19,1.19,0,0,1,314.67,22a1.17,1.17,0,0,1,1.18,1.19v2.95c1.16-2.62,3.44-4.2,5.41-4.2a1.13,1.13,0,0,1,1.16,1.19,1.16,1.16,0,0,1-1,1.18c-3,.37-5.53,2.65-5.53,7.17v5.35A1.16,1.16,0,0,1,314.7,38a1.17,1.17,0,0,1-1.19-1.19Z"/><path class="cls-3" d="M330.59,38.24a7.8,7.8,0,0,1-7.84-8.17V30c0-4.53,3.19-8.18,7.53-8.18,4.65,0,7.29,3.8,7.29,8a1.09,1.09,0,0,1-1.09,1.1H325.12a5.48,5.48,0,0,0,5.53,5.31,6.46,6.46,0,0,0,4.53-1.82,1,1,0,0,1,1.7.73,1,1,0,0,1-.37.76A8,8,0,0,1,330.59,38.24Zm4.65-9.09c-.25-2.85-1.89-5.34-5-5.34-2.73,0-4.8,2.28-5.1,5.34Z"/><path class="cls-3" d="M350.45,37.05l-4.77-13.27a2.3,2.3,0,0,1-.15-.64A1.16,1.16,0,0,1,346.72,22a1.23,1.23,0,0,1,1.18,1l4,11.78,4-11.81A1.2,1.2,0,0,1,357,22h.12a1.24,1.24,0,0,1,1.21.95l3.95,11.81,4-11.84a1.15,1.15,0,0,1,1.13-.92,1.13,1.13,0,0,1,1.15,1.1,2.3,2.3,0,0,1-.15.64l-4.8,13.3a1.39,1.39,0,0,1-1.28,1.07h-.09A1.3,1.3,0,0,1,361,37.05L357.05,25.6,353.1,37.05a1.32,1.32,0,0,1-1.28,1.07h-.06A1.4,1.4,0,0,1,350.45,37.05Z"/><path class="cls-3" d="M370.59,17.25a1.39,1.39,0,0,1,2.77,0v.39a1.39,1.39,0,0,1-2.77,0Zm.22,5.95a1.17,1.17,0,1,1,2.34,0V36.84A1.15,1.15,0,0,1,372,38a1.17,1.17,0,0,1-1.18-1.19Z"/><path class="cls-3" d="M377.31,33.71V24.23H376a1.06,1.06,0,0,1-1-1,1,1,0,0,1,1-1h1.28V18.46a1.15,1.15,0,0,1,1.15-1.18,1.2,1.2,0,0,1,1.19,1.18v3.71h4.07a1.06,1.06,0,0,1,1.06,1,1,1,0,0,1-1.06,1h-4.07v9.18A2.32,2.32,0,0,0,382.29,36a6.7,6.7,0,0,0,1.43-.21,1,1,0,0,1,1,1,1,1,0,0,1-.67.91,6,6,0,0,1-2.31.43C379.22,38.15,377.31,36.9,377.31,33.71Z"/><path class="cls-3" d="M386.66,16.73a1.17,1.17,0,1,1,2.34,0V24.9a6,6,0,0,1,5.38-3.07c3.8,0,6,2.55,6,6.29v8.72a1.17,1.17,0,1,1-2.34,0V28.7c0-2.92-1.58-4.74-4.35-4.74A4.62,4.62,0,0,0,389,28.88v8A1.14,1.14,0,0,1,387.85,38a1.17,1.17,0,0,1-1.19-1.19Z"/><path class="cls-3" d="M403.28,17.25a1.39,1.39,0,0,1,2.76,0v.39a1.39,1.39,0,0,1-2.76,0Zm.21,5.95A1.19,1.19,0,0,1,404.65,22a1.17,1.17,0,0,1,1.18,1.19V36.84A1.14,1.14,0,0,1,404.68,38a1.17,1.17,0,0,1-1.19-1.19Z"/><path class="cls-3" d="M409.17,23.2A1.19,1.19,0,0,1,410.33,22a1.17,1.17,0,0,1,1.18,1.19v1.7a6,6,0,0,1,5.38-3.07c3.8,0,6,2.55,6,6.29v8.72a1.17,1.17,0,1,1-2.33,0V28.7c0-2.92-1.58-4.74-4.35-4.74a4.62,4.62,0,0,0-4.71,4.92v8A1.14,1.14,0,0,1,410.36,38a1.17,1.17,0,0,1-1.19-1.19Z"/><path class="cls-3" d="M433.63,33.71V24.23h-1.28a1.06,1.06,0,0,1-1-1,1,1,0,0,1,1-1h1.28V18.46a1.15,1.15,0,0,1,1.15-1.18A1.2,1.2,0,0,1,436,18.46v3.71H440a1.07,1.07,0,0,1,1.06,1,1,1,0,0,1-1.06,1H436v9.18A2.32,2.32,0,0,0,438.61,36a6.7,6.7,0,0,0,1.43-.21,1,1,0,0,1,1,1,1,1,0,0,1-.67.91,6,6,0,0,1-2.31.43C435.54,38.15,433.63,36.9,433.63,33.71Z"/><path class="cls-3" d="M443,16.73a1.17,1.17,0,1,1,2.34,0V24.9a6,6,0,0,1,5.38-3.07c3.8,0,6,2.55,6,6.29v8.72a1.17,1.17,0,1,1-2.34,0V28.7c0-2.92-1.58-4.74-4.35-4.74a4.62,4.62,0,0,0-4.71,4.92v8A1.14,1.14,0,0,1,444.17,38,1.17,1.17,0,0,1,443,36.84Z"/><path class="cls-3" d="M466.47,38.24a7.8,7.8,0,0,1-7.84-8.17V30c0-4.53,3.19-8.18,7.53-8.18,4.65,0,7.29,3.8,7.29,8a1.09,1.09,0,0,1-1.09,1.1H461a5.48,5.48,0,0,0,5.53,5.31,6.42,6.42,0,0,0,4.52-1.82,1.06,1.06,0,0,1,.67-.27,1,1,0,0,1,.67,1.76A8,8,0,0,1,466.47,38.24Zm4.64-9.09c-.24-2.85-1.88-5.34-5-5.34-2.73,0-4.8,2.28-5.1,5.34Z"/><path class="cls-3" d="M483.39,24.23h-1.28a1,1,0,0,1-1-1,1,1,0,0,1,1-1h1.28V20.83a5.55,5.55,0,0,1,1.36-4,4.64,4.64,0,0,1,3.38-1.22,8,8,0,0,1,1.85.19,1,1,0,0,1,.85,1,1,1,0,0,1-1.13,1,8.19,8.19,0,0,0-1.27-.15c-1.82,0-2.73,1.09-2.73,3.34v1.28h4.07a1,1,0,0,1,1,1,1,1,0,0,1-1,1h-4V36.84A1.17,1.17,0,0,1,484.57,38a1.18,1.18,0,0,1-1.18-1.19Z"/><path class="cls-3" d="M491.56,23.2a1.17,1.17,0,1,1,2.34,0v2.95c1.15-2.62,3.43-4.2,5.4-4.2a1.13,1.13,0,0,1,1.16,1.19,1.16,1.16,0,0,1-1,1.18c-3,.37-5.53,2.65-5.53,7.17v5.35a1.17,1.17,0,1,1-2.34,0Z"/><path class="cls-3" d="M500.58,33.32v-.06c0-3.32,2.73-5.08,6.71-5.08a16.78,16.78,0,0,1,4.83.67V28.3c0-2.82-1.73-4.28-4.67-4.28a9.81,9.81,0,0,0-4.08.88A1.18,1.18,0,0,1,503,25a1,1,0,0,1-1-1,1.06,1.06,0,0,1,.63-1A12.37,12.37,0,0,1,507.69,22a6.85,6.85,0,0,1,5.07,1.74,6.16,6.16,0,0,1,1.61,4.58v8.6A1.11,1.11,0,0,1,513.25,38a1.09,1.09,0,0,1-1.13-1.1V35.5a6.87,6.87,0,0,1-5.68,2.71C503.53,38.21,500.58,36.54,500.58,33.32Zm11.57-1.22V30.58a16.47,16.47,0,0,0-4.61-.67c-3,0-4.59,1.28-4.59,3.25v.06c0,2,1.82,3.13,3.95,3.13C509.78,36.35,512.15,34.59,512.15,32.1Z"/><path class="cls-3" d="M517.26,23.2a1.17,1.17,0,1,1,2.34,0v1.61a5.73,5.73,0,0,1,5.07-3,5.34,5.34,0,0,1,5,3.13,6.28,6.28,0,0,1,5.53-3.13c3.62,0,5.83,2.43,5.83,6.32v8.69a1.17,1.17,0,1,1-2.33,0V28.7c0-3-1.52-4.74-4.08-4.74-2.36,0-4.31,1.76-4.31,4.86v8a1.17,1.17,0,1,1-2.34,0v-8.2c0-2.95-1.55-4.68-4-4.68S519.6,26,519.6,28.91v7.93A1.15,1.15,0,0,1,518.44,38a1.17,1.17,0,0,1-1.18-1.19Z"/><path class="cls-3" d="M550.92,38.24a7.8,7.8,0,0,1-7.84-8.17V30c0-4.53,3.19-8.18,7.53-8.18,4.65,0,7.29,3.8,7.29,8a1.09,1.09,0,0,1-1.09,1.1H545.45A5.48,5.48,0,0,0,551,36.2a6.42,6.42,0,0,0,4.52-1.82,1.06,1.06,0,0,1,.67-.27,1,1,0,0,1,.67,1.76A8,8,0,0,1,550.92,38.24Zm4.64-9.09c-.24-2.85-1.88-5.34-5-5.34-2.73,0-4.8,2.28-5.1,5.34Z"/></g></g></svg>