<svg id="Layer_1" data-name="Layer 1" xmlns="http://www.w3.org/2000/svg" xmlns:xlink="http://www.w3.org/1999/xlink" viewBox="0 0 315.49 49.04"><defs><style>.cls-1{fill:url(#linear-gradient);}.cls-2{fill:#fff;}</style><linearGradient id="linear-gradient" y1="24.52" x2="315.49" y2="24.52" gradientUnits="userSpaceOnUse"><stop offset="0.01" stop-color="#00b2ee"/><stop offset="1" stop-color="#0058a8"/></linearGradient></defs><title>adjust-btn</title><path class="cls-1" d="M24.52,0a24.52,24.52,0,0,0,0,49H291A24.49,24.49,0,0,0,308.29,7.2,24.38,24.38,0,0,0,291,0Z"/><path class="cls-2" d="M24.5,29.73l5.12-11.18a.92.92,0,0,1,.9-.63h.07a.9.9,0,0,1,.88.63l5.11,11.16a.87.87,0,0,1,.09.36.68.68,0,0,1-.68.69.77.77,0,0,1-.7-.53L34,27.33H27.06l-1.31,2.94a.72.72,0,0,1-.69.49.65.65,0,0,1-.65-.65A.84.84,0,0,1,24.5,29.73ZM33.42,26l-2.9-6.45L27.62,26Z"/><path class="cls-2" d="M46.77,30.05a.69.69,0,1,1-1.38,0V28.79a4.19,4.19,0,0,1-3.57,2.07A4.54,4.54,0,0,1,37.37,26v0a4.57,4.57,0,0,1,4.45-4.84,4.22,4.22,0,0,1,3.57,2v-5a.67.67,0,0,1,.68-.7.69.69,0,0,1,.7.7ZM38.8,26v0a3.36,3.36,0,0,0,3.27,3.6A3.48,3.48,0,0,0,45.44,26v0a3.46,3.46,0,0,0-3.37-3.58A3.28,3.28,0,0,0,38.8,26Z"/><path class="cls-2" d="M47.6,33.58c-.4,0-.71-.21-.71-.59a.58.58,0,0,1,.58-.58l.31,0c.57,0,1-.38,1-1.19V22a.7.7,0,1,1,1.39,0v9.24a2.08,2.08,0,0,1-2.22,2.39A1.52,1.52,0,0,1,47.6,33.58Zm1-15.14a.82.82,0,0,1,1.64,0v.23a.82.82,0,0,1-1.64,0Z"/><path class="cls-2" d="M60.09,30.05a.69.69,0,1,1-1.37,0V29a3.54,3.54,0,0,1-3.18,1.82A3.4,3.4,0,0,1,52,27.14V22a.68.68,0,0,1,.69-.7.7.7,0,0,1,.7.7v4.82c0,1.73.93,2.81,2.57,2.81a2.74,2.74,0,0,0,2.79-2.91V22a.69.69,0,1,1,1.37,0Z"/><path class="cls-2" d="M61.46,29.68a.62.62,0,0,1-.25-.51.6.6,0,0,1,.61-.59.51.51,0,0,1,.34.11,5.27,5.27,0,0,0,3,1c1.12,0,1.93-.58,1.93-1.48v0c0-.93-1.1-1.29-2.32-1.63-1.46-.42-3.08-.92-3.08-2.63v0c0-1.6,1.33-2.66,3.17-2.66a6.43,6.43,0,0,1,3,.79.66.66,0,0,1,.34.57.6.6,0,0,1-.61.6.79.79,0,0,1-.31-.07,5,5,0,0,0-2.43-.72c-1.1,0-1.8.57-1.8,1.35v0c0,.88,1.15,1.23,2.39,1.6,1.44.44,3,1,3,2.67v0c0,1.77-1.46,2.8-3.31,2.8A6.45,6.45,0,0,1,61.46,29.68Z"/><path class="cls-2" d="M70.17,28.2V22.58h-.76A.63.63,0,0,1,68.8,22a.62.62,0,0,1,.61-.61h.76v-2.2a.69.69,0,0,1,.68-.7.72.72,0,0,1,.71.7v2.2H74a.64.64,0,0,1,.63.61.62.62,0,0,1-.63.61H71.56V28a1.38,1.38,0,0,0,1.56,1.55,3.84,3.84,0,0,0,.85-.13.6.6,0,0,1,.59.6.58.58,0,0,1-.39.54,3.56,3.56,0,0,1-1.37.25A2.37,2.37,0,0,1,70.17,28.2Z"/><path class="cls-2" d="M80.36,28.2V22.58H79.6A.63.63,0,0,1,79,22a.62.62,0,0,1,.61-.61h.76v-2.2a.68.68,0,0,1,.68-.7.71.71,0,0,1,.7.7v2.2h2.42a.64.64,0,0,1,.63.61.62.62,0,0,1-.63.61H81.74V28a1.38,1.38,0,0,0,1.57,1.55,3.84,3.84,0,0,0,.85-.13.6.6,0,0,1,.59.6.58.58,0,0,1-.4.54,3.48,3.48,0,0,1-1.36.25A2.37,2.37,0,0,1,80.36,28.2Z"/><path class="cls-2" d="M85.9,18.13a.7.7,0,1,1,1.39,0V23a3.51,3.51,0,0,1,3.18-1.82A3.4,3.4,0,0,1,94,24.89v5.16a.7.7,0,1,1-1.39,0V25.23c0-1.73-.93-2.81-2.57-2.81a2.73,2.73,0,0,0-2.79,2.92v4.71a.68.68,0,0,1-.69.71.7.7,0,0,1-.7-.71Z"/><path class="cls-2" d="M99.82,30.88A4.63,4.63,0,0,1,95.17,26v0a4.59,4.59,0,0,1,4.47-4.84c2.75,0,4.32,2.25,4.32,4.72a.66.66,0,0,1-.65.65H96.57a3.26,3.26,0,0,0,3.28,3.15,3.8,3.8,0,0,0,2.68-1.08.63.63,0,0,1,.4-.17.6.6,0,0,1,.61.6.61.61,0,0,1-.21.45A4.77,4.77,0,0,1,99.82,30.88Zm2.75-5.38c-.14-1.69-1.12-3.17-3-3.17a3.21,3.21,0,0,0-3,3.17Z"/><path class="cls-2" d="M109.32,22a.69.69,0,1,1,1.38,0v1.26a4.19,4.19,0,0,1,3.57-2.07A4.54,4.54,0,0,1,118.72,26v0a4.56,4.56,0,0,1-4.45,4.84,4.19,4.19,0,0,1-3.57-2v4.05a.68.68,0,0,1-.68.71.69.69,0,0,1-.7-.71Zm8,4.07v0A3.35,3.35,0,0,0,114,22.4,3.47,3.47,0,0,0,110.65,26v0a3.47,3.47,0,0,0,3.37,3.6A3.28,3.28,0,0,0,117.29,26Z"/><path class="cls-2" d="M120,18.44a.82.82,0,0,1,1.64,0v.23a.82.82,0,0,1-1.64,0Zm.12,3.53a.7.7,0,0,1,.69-.7.69.69,0,0,1,.7.7v8.08a.68.68,0,0,1-.68.71.7.7,0,0,1-.71-.71Z"/><path class="cls-2" d="M122.94,26.06v0a4.84,4.84,0,0,1,8.2-3.51.68.68,0,0,1,.21.49.66.66,0,0,1-.66.66.7.7,0,0,1-.45-.16,3.62,3.62,0,0,0-2.54-1.12,3.44,3.44,0,0,0-3.33,3.6v0a3.47,3.47,0,0,0,3.42,3.62,3.76,3.76,0,0,0,2.59-1.13.56.56,0,0,1,.4-.18.65.65,0,0,1,.63.63.67.67,0,0,1-.18.43,4.72,4.72,0,0,1-3.52,1.49A4.78,4.78,0,0,1,122.94,26.06Z"/><path class="cls-2" d="M133,28.2V22.58h-.75a.63.63,0,0,1-.62-.61.62.62,0,0,1,.62-.61H133v-2.2a.69.69,0,0,1,.69-.7.72.72,0,0,1,.7.7v2.2h2.41a.64.64,0,0,1,.63.61.62.62,0,0,1-.63.61h-2.41V28A1.38,1.38,0,0,0,136,29.57a3.84,3.84,0,0,0,.85-.13.6.6,0,0,1,.59.6.58.58,0,0,1-.39.54,3.56,3.56,0,0,1-1.37.25A2.37,2.37,0,0,1,133,28.2Z"/><path class="cls-2" d="M146.56,30.05a.69.69,0,1,1-1.37,0V29A3.54,3.54,0,0,1,142,30.86a3.4,3.4,0,0,1-3.57-3.72V22a.67.67,0,0,1,.68-.7.7.7,0,0,1,.71.7v4.82c0,1.73.93,2.81,2.57,2.81a2.74,2.74,0,0,0,2.79-2.91V22a.69.69,0,1,1,1.37,0Z"/><path class="cls-2" d="M148.43,22a.7.7,0,0,1,.69-.7.69.69,0,0,1,.7.7v1.75a3.85,3.85,0,0,1,3.2-2.49.67.67,0,0,1,.69.7.71.71,0,0,1-.62.71c-1.8.21-3.27,1.56-3.27,4.24v3.17a.7.7,0,1,1-1.39,0Z"/><path class="cls-2" d="M158.55,30.88A4.63,4.63,0,0,1,153.9,26v0a4.59,4.59,0,0,1,4.47-4.84c2.75,0,4.32,2.25,4.32,4.72a.66.66,0,0,1-.65.65h-6.73a3.25,3.25,0,0,0,3.27,3.15,3.82,3.82,0,0,0,2.69-1.08.59.59,0,0,1,.39-.17.61.61,0,0,1,.62.6.63.63,0,0,1-.22.45A4.75,4.75,0,0,1,158.55,30.88Zm2.75-5.38c-.14-1.69-1.11-3.17-3-3.17a3.21,3.21,0,0,0-3,3.17Z"/><path class="cls-2" d="M170.32,30.18l-2.83-7.87a1.51,1.51,0,0,1-.09-.38.68.68,0,0,1,.7-.66.73.73,0,0,1,.71.57l2.34,7,2.36-7a.69.69,0,0,1,.68-.56h.07a.73.73,0,0,1,.72.56l2.34,7,2.38-7a.68.68,0,0,1,.67-.54.66.66,0,0,1,.68.65,1.12,1.12,0,0,1-.09.37l-2.84,7.89a.84.84,0,0,1-.76.63h-.05a.79.79,0,0,1-.76-.63l-2.32-6.79-2.34,6.79a.79.79,0,0,1-.76.63h0A.82.82,0,0,1,170.32,30.18Z"/><path class="cls-2" d="M182.25,18.44a.82.82,0,0,1,1.64,0v.23a.82.82,0,0,1-1.64,0Zm.13,3.53a.7.7,0,1,1,1.39,0v8.08a.68.68,0,0,1-.69.71.69.69,0,0,1-.7-.71Z"/><path class="cls-2" d="M186.23,28.2V22.58h-.76a.63.63,0,0,1-.61-.61.62.62,0,0,1,.61-.61h.76v-2.2a.69.69,0,0,1,.68-.7.72.72,0,0,1,.71.7v2.2H190a.64.64,0,0,1,.63.61.62.62,0,0,1-.63.61h-2.41V28a1.38,1.38,0,0,0,1.56,1.55,3.84,3.84,0,0,0,.85-.13.6.6,0,0,1,.59.6.58.58,0,0,1-.39.54,3.56,3.56,0,0,1-1.37.25A2.37,2.37,0,0,1,186.23,28.2Z"/><path class="cls-2" d="M191.77,18.13a.7.7,0,1,1,1.39,0V23a3.53,3.53,0,0,1,3.19-1.82,3.4,3.4,0,0,1,3.56,3.73v5.16a.69.69,0,1,1-1.38,0V25.23c0-1.73-.94-2.81-2.58-2.81a2.74,2.74,0,0,0-2.79,2.92v4.71a.68.68,0,0,1-.68.71.7.7,0,0,1-.71-.71Z"/><path class="cls-2" d="M201.62,18.44a.82.82,0,0,1,1.64,0v.23a.82.82,0,0,1-1.64,0Zm.13,3.53a.69.69,0,0,1,.68-.7.68.68,0,0,1,.7.7v8.08a.68.68,0,0,1-.68.71.69.69,0,0,1-.7-.71Z"/><path class="cls-2" d="M205.11,22a.7.7,0,0,1,.69-.7.69.69,0,0,1,.7.7v1a3.52,3.52,0,0,1,3.19-1.82,3.4,3.4,0,0,1,3.56,3.73v5.16a.7.7,0,1,1-1.39,0V25.23c0-1.73-.93-2.81-2.57-2.81a2.74,2.74,0,0,0-2.79,2.92v4.71a.68.68,0,0,1-.69.71.7.7,0,0,1-.7-.71Z"/><path class="cls-2" d="M219.6,28.2V22.58h-.75a.63.63,0,0,1-.62-.61.62.62,0,0,1,.62-.61h.75v-2.2a.69.69,0,0,1,.69-.7.72.72,0,0,1,.7.7v2.2h2.41A.64.64,0,0,1,224,22a.62.62,0,0,1-.63.61H221V28a1.38,1.38,0,0,0,1.56,1.55,3.84,3.84,0,0,0,.85-.13.6.6,0,0,1,.59.6.58.58,0,0,1-.39.54,3.56,3.56,0,0,1-1.37.25A2.37,2.37,0,0,1,219.6,28.2Z"/><path class="cls-2" d="M225.14,18.13a.7.7,0,1,1,1.39,0V23a3.53,3.53,0,0,1,3.19-1.82,3.4,3.4,0,0,1,3.56,3.73v5.16a.69.69,0,1,1-1.38,0V25.23c0-1.73-.94-2.81-2.58-2.81a2.74,2.74,0,0,0-2.79,2.92v4.71a.68.68,0,0,1-.68.71.7.7,0,0,1-.71-.71Z"/><path class="cls-2" d="M239.06,30.88A4.63,4.63,0,0,1,234.41,26v0a4.6,4.6,0,0,1,4.47-4.84c2.75,0,4.32,2.25,4.32,4.72a.65.65,0,0,1-.65.65h-6.73a3.26,3.26,0,0,0,3.28,3.15,3.8,3.8,0,0,0,2.68-1.08.61.61,0,0,1,.4-.17.6.6,0,0,1,.61.6.59.59,0,0,1-.22.45A4.75,4.75,0,0,1,239.06,30.88Zm2.76-5.38c-.15-1.69-1.12-3.17-3-3.17a3.21,3.21,0,0,0-3,3.17Z"/><path class="cls-2" d="M249.09,22.58h-.76a.6.6,0,1,1,0-1.2h.76v-.82a3.24,3.24,0,0,1,.81-2.39,2.71,2.71,0,0,1,2-.72,4.79,4.79,0,0,1,1.1.11.62.62,0,0,1,.51.59.61.61,0,0,1-.67.6,4.4,4.4,0,0,0-.76-.09c-1.08,0-1.62.64-1.62,2v.75h2.42a.6.6,0,1,1,0,1.19h-2.4v7.47a.69.69,0,0,1-.68.71.7.7,0,0,1-.7-.71Z"/><path class="cls-2" d="M253.93,22a.69.69,0,0,1,.68-.7.68.68,0,0,1,.7.7v1.75a3.87,3.87,0,0,1,3.21-2.49.67.67,0,0,1,.68.7.7.7,0,0,1-.61.71c-1.8.21-3.28,1.56-3.28,4.24v3.17a.69.69,0,1,1-1.38,0Z"/><path class="cls-2" d="M259.27,28v0c0-2,1.62-3,4-3a9.73,9.73,0,0,1,2.87.4V25c0-1.67-1-2.53-2.78-2.53a5.75,5.75,0,0,0-2.41.52.85.85,0,0,1-.25.05.62.62,0,0,1-.62-.59.64.64,0,0,1,.38-.58,7.31,7.31,0,0,1,3.05-.63,4,4,0,0,1,3,1,3.68,3.68,0,0,1,1,2.72v5.09a.66.66,0,0,1-.67.69.63.63,0,0,1-.66-.65v-.85a4.07,4.07,0,0,1-3.37,1.6C261,30.86,259.27,29.87,259.27,28Zm6.86-.71v-.91A10,10,0,0,0,263.4,26c-1.75,0-2.72.76-2.72,1.93v0c0,1.17,1.08,1.86,2.34,1.86C264.73,29.77,266.13,28.72,266.13,27.25Z"/><path class="cls-2" d="M269.15,22a.7.7,0,0,1,.69-.7.68.68,0,0,1,.7.7v1a3.41,3.41,0,0,1,3-1.76,3.18,3.18,0,0,1,3,1.85,3.7,3.7,0,0,1,3.27-1.85c2.15,0,3.46,1.44,3.46,3.74v5.15a.7.7,0,1,1-1.39,0V25.23c0-1.8-.9-2.81-2.41-2.81a2.6,2.6,0,0,0-2.56,2.88v4.75a.69.69,0,1,1-1.38,0V25.19c0-1.74-.92-2.77-2.4-2.77a2.7,2.7,0,0,0-2.59,2.93v4.7a.68.68,0,0,1-.68.71.7.7,0,0,1-.71-.71Z"/><path class="cls-2" d="M289.1,30.88A4.63,4.63,0,0,1,284.45,26v0a4.59,4.59,0,0,1,4.47-4.84c2.75,0,4.32,2.25,4.32,4.72a.66.66,0,0,1-.65.65h-6.73a3.26,3.26,0,0,0,3.28,3.15,3.81,3.81,0,0,0,2.68-1.08.59.59,0,0,1,1,.43.63.63,0,0,1-.22.45A4.75,4.75,0,0,1,289.1,30.88Zm2.75-5.38c-.14-1.69-1.11-3.17-3-3.17a3.21,3.21,0,0,0-3,3.17Z"/></svg>