<svg xmlns="http://www.w3.org/2000/svg" xmlns:xlink="http://www.w3.org/1999/xlink" viewBox="0 0 307.52 82.87"><defs><style>.cls-1{fill:none;}.cls-2{isolation:isolate;}.cls-3{clip-path:url(#clip-path);}.cls-4{fill-rule:evenodd;fill:url(#linear-gradient);}.cls-5{fill:#0058a8;}.cls-6{mix-blend-mode:multiply;fill:url(#linear-gradient-2);}.cls-7{fill:#fff;}.cls-8{clip-path:url(#clip-path-2);}.cls-9{fill:url(#linear-gradient-3);}.cls-10{clip-path:url(#clip-path-3);}.cls-11{fill:url(#linear-gradient-4);}</style><clipPath id="clip-path"><rect class="cls-1" x="594.94" y="-657.08" width="1920" height="1170"/></clipPath><linearGradient id="linear-gradient" x1="5995.59" y1="-10612.64" x2="5043.62" y2="-9660.67" gradientTransform="matrix(0.71, 0.71, 0.71, -0.71, 3874.56, -11261.4)" gradientUnits="userSpaceOnUse"><stop offset="0.01" stop-color="#f6c4de"/><stop offset="1" stop-color="#9dceec"/></linearGradient><linearGradient id="linear-gradient-2" x1="67.67" y1="64.94" x2="105.18" y2="27.44" gradientTransform="matrix(1, 0, 0, 1, 0, 0)" xlink:href="#linear-gradient"/><clipPath id="clip-path-2"><path class="cls-1" d="M121.34,74.73a7.49,7.49,0,0,1-3.7-6.47,7.28,7.28,0,0,1,7.5-7.19,8.12,8.12,0,0,1,4.11,1.23,21.06,21.06,0,0,0,11.5,3.19c8.84,0,13.56-6.68,14.59-16.33-3.49,3-8.32,4.93-14.59,4.93-15.61,0-25.68-8.63-25.68-23.22v-.2c0-14.49,11.2-25.17,27.43-25.17,9.66,0,15.31,2.36,20.75,7.81,5.14,5.13,8.53,12.94,8.53,27.11v.21c0,23.32-11,39.24-31.44,39.24C132.33,79.87,126.68,78,121.34,74.73Zm34.31-44.47v-.21c0-6.37-4.73-11-12.64-11S130.79,23.58,130.79,30v.2c0,6.37,4.73,10.79,12.53,10.79S155.65,36.42,155.65,30.26Z"/></clipPath><linearGradient id="linear-gradient-3" x1="173.81" y1="13.3" x2="94.55" y2="92.56" gradientUnits="userSpaceOnUse"><stop offset="0.01" stop-color="#00b2ee"/><stop offset="1" stop-color="#0058a8"/></linearGradient><clipPath id="clip-path-3"><path class="cls-1" d="M5,58.92v-.21C5,50,9,44.84,16.61,41.35c-5.55-3.39-9.14-8-9.14-15.72v-.2c0-11,10.06-19.72,25.26-19.72S58,14.33,58,25.43v.2c0,7.71-3.59,12.33-9.14,15.72,7.3,3.8,11.61,8.42,11.61,16.95v.2c0,13.36-11.81,21.17-27.74,21.17S5,71.45,5,58.92Zm40.16-1.24v-.2c0-5.55-5.23-8.84-12.43-8.84s-12.42,3.29-12.42,8.84v.2c0,4.93,4.62,8.94,12.42,8.94S45.16,62.72,45.16,57.68ZM43,27.38v-.21c0-4.41-3.8-8.42-10.28-8.42s-10.27,3.9-10.27,8.32v.21c0,5,4,8.83,10.27,8.83S43,32.41,43,27.38Z"/></clipPath><linearGradient id="linear-gradient-4" x1="64.87" y1="13.3" x2="-14.39" y2="92.56" xlink:href="#linear-gradient-3"/></defs><title>date</title><g class="cls-2"><g id="Layer_1" data-name="Layer 1"><g class="cls-3"><path class="cls-4" d="M740.63,8.67a54.16,54.16,0,0,1,4,18.07,80.37,80.37,0,0,1-.24,32.11c0,8.23.48,16.07,3,22.65,19.19,50.12,101.74,78.26,72.89,135-38.12,5.52-66.61-78.08-116-72.23,37.3,21,56,65.51,114,96.67l76.61,39,0,0c19.73,11.69,38.61,23.75,41.21,52.61-97.93-27.22-209.59-70-282.81-149.12C610.81,137.67,551.85,52.63,525-43.71a343.22,343.22,0,0,1-14.38-93c0-.65-.07-1.3-.09-2,0-.14,0-.27,0-.45-.76-88.23,32.37-176.73,99.54-243.9l50.27-50.27,27.27-27.27,111-111C879.8-652.84,879.81-736.28,811-805.08S657.32-872.41,573.89-789L336-551.11c-31.47,31.48-81.26,31.46-112.73,0s-31.46-81.22,0-112.7L464.09-904.62c150.78-150.77,311.8-143.45,449.41-5.85s148.56,300.81-6.61,456L800.62-348.22c-.1.1-.19.22-.28.31L722.8-270.37C653.42-201,652.33-89,719.17-18.07,728.27-10.92,735.8-2.31,740.63,8.67Z"/></g><path class="cls-5" d="M190.61,9a3.62,3.62,0,0,1,3.65-3.65H195a4.5,4.5,0,0,1,3.79,2.13L212.88,26V8.88a3.6,3.6,0,0,1,7.2,0v26.4a3.62,3.62,0,0,1-3.65,3.64h-.24a4.53,4.53,0,0,1-3.79-2.13L197.81,17.65V35.42a3.6,3.6,0,1,1-7.2,0Z"/><path class="cls-5" d="M224.2,22.25v-.1C224.2,12.72,231.64,5,241.87,5s17.58,7.63,17.58,17.06v.09c0,9.43-7.44,17.15-17.67,17.15S224.2,31.67,224.2,22.25Zm27.62,0v-.1c0-5.69-4.17-10.42-10-10.42s-9.95,4.64-9.95,10.33v.09c0,5.69,4.17,10.42,10,10.42S251.82,27.93,251.82,22.25Z"/><path class="cls-5" d="M272.44,36.36,261.68,10.64a4.51,4.51,0,0,1-.43-1.76,3.59,3.59,0,0,1,3.65-3.6,3.8,3.8,0,0,1,3.7,2.56l8.29,21.46,8.39-21.69a3.77,3.77,0,0,1,3.5-2.33,3.52,3.52,0,0,1,3.6,3.51A4.24,4.24,0,0,1,292,10.4l-10.85,26A4.26,4.26,0,0,1,277,39.25h-.47A4.26,4.26,0,0,1,272.44,36.36Z"/><path class="cls-5" d="M298.4,30.87a4,4,0,0,1,4.12,4V35a4.12,4.12,0,0,1-8.24,0V34.9A4,4,0,0,1,298.4,30.87Z"/><path class="cls-5" d="M189.85,73.53l9.23-7.85c4.12-3.48,5.62-5.41,5.62-8.12a4.51,4.51,0,0,0-4.85-4.68c-2.41,0-4.08,1.12-5.93,3.35a2.43,2.43,0,0,1-4.25-1.59,2.66,2.66,0,0,1,.61-1.63,11.62,11.62,0,0,1,9.95-4.85c5.88,0,9.92,3.61,9.92,9v.09c0,4.72-2.49,7.3-7.81,11.63L196.16,74h12.19a2.32,2.32,0,0,1,0,4.64h-17a2.54,2.54,0,0,1-2.84-2.49A3.29,3.29,0,0,1,189.85,73.53Z"/><path class="cls-5" d="M213.24,63.7v-.08c0-8.59,5.24-15.54,13.13-15.54s13,6.87,13,15.45v.09c0,8.58-5.23,15.53-13.13,15.53S213.24,72.29,213.24,63.7Zm20.73,0v-.08c0-5.93-3.05-10.78-7.68-10.78s-7.6,4.72-7.6,10.69v.09c0,5.92,3,10.77,7.68,10.77S234,69.58,234,63.7Z"/><path class="cls-5" d="M242.94,73.53l9.23-7.85c4.12-3.48,5.62-5.41,5.62-8.12a4.51,4.51,0,0,0-4.85-4.68c-2.4,0-4.07,1.12-5.92,3.35a2.43,2.43,0,0,1-1.85.82,2.4,2.4,0,0,1-2.4-2.41,2.65,2.65,0,0,1,.6-1.63,11.65,11.65,0,0,1,10-4.85c5.88,0,9.91,3.61,9.91,9v.09c0,4.72-2.49,7.3-7.81,11.63L249.25,74h12.19a2.32,2.32,0,0,1,0,4.64h-17a2.54,2.54,0,0,1-2.83-2.49A3.28,3.28,0,0,1,242.94,73.53Z"/><path class="cls-5" d="M271.53,53.57l-3.09,1a4.12,4.12,0,0,1-.95.12,2.28,2.28,0,0,1-.55-4.5l4.55-1.46a9.14,9.14,0,0,1,2.57-.47h.09a2.58,2.58,0,0,1,2.62,2.61V76.23a2.62,2.62,0,0,1-5.24,0Z"/><path class="cls-6" d="M66.05,44.35A22.22,22.22,0,1,0,88.27,22.13,22.21,22.21,0,0,0,66.05,44.35Z"/><path class="cls-7" d="M97.64,56.24l-3.43-3.59a11.61,11.61,0,0,1-8.68,4.15c-4.76,0-8.3-3-8.3-7.39v-.08c0-3.51,2.34-6,6.37-7.62C81.79,39.6,81,38,81,35.9v-.08c0-3.47,2.79-6.26,7-6.26a6.11,6.11,0,0,1,6.42,6v.08c0,3.35-2.38,5.5-6.23,6.86l6,6.15a34.78,34.78,0,0,0,2.75-5,1.34,1.34,0,0,1,2.57.57,1.75,1.75,0,0,1-.19.68A32.83,32.83,0,0,1,96,50.46l3.66,3.74a1.58,1.58,0,0,1,.56,1.17,1.36,1.36,0,0,1-1.39,1.39A1.63,1.63,0,0,1,97.64,56.24ZM92.4,50.8l-7.1-7.24c-3.51,1.28-5.06,3.43-5.06,5.66v.07c0,2.83,2.27,5,5.51,5C88.28,54.27,90.47,53,92.4,50.8Zm-.83-15v-.08A3.6,3.6,0,0,0,87.83,32a3.78,3.78,0,0,0-4,3.81v.08c0,1.54.64,2.71,2.64,4.86C89.83,39.63,91.57,38.05,91.57,35.75Z"/><g class="cls-8"><rect class="cls-9" x="109.32" y="0.19" width="72.54" height="82.66"/></g><g class="cls-10"><rect class="cls-11" x="0.38" y="0.19" width="72.54" height="82.66"/></g></g></g></svg>