<svg xmlns="http://www.w3.org/2000/svg" xmlns:xlink="http://www.w3.org/1999/xlink" viewBox="0 0 65.33 87.61"><defs><style>.cls-1{isolation:isolate;}.cls-2{mix-blend-mode:multiply;}.cls-3{fill:#9d9d9c;}.cls-4{fill:url(#linear-gradient);}.cls-5{fill:#fff;fill-rule:evenodd;}</style><linearGradient id="linear-gradient" x1="7.84" y1="32.67" x2="93.52" y2="32.67" gradientTransform="translate(3.38 -3.06) rotate(5.65)" gradientUnits="userSpaceOnUse"><stop offset="0.01" stop-color="#dadada"/><stop offset="1" stop-color="#878787"/></linearGradient></defs><title>Artboard 11</title><g class="cls-1"><g id="Layer_1" data-name="Layer 1"><g class="cls-2"><path class="cls-3" d="M16.11,86.59V74.17a.8.8,0,0,1,.78-.81h8.72a.73.73,0,0,1,0,1.45H17.7v4.78h7a.74.74,0,0,1,.72.73.72.72,0,0,1-.72.72h-7V86h8a.72.72,0,0,1,0,1.44H16.89A.8.8,0,0,1,16.11,86.59Z"/><path class="cls-3" d="M38.13,86.71a.77.77,0,1,1-1.54,0V85.3a4.64,4.64,0,0,1-4,2.31,5.06,5.06,0,0,1-4.95-5.37v0a5.08,5.08,0,0,1,4.95-5.39,4.67,4.67,0,0,1,4,2.2V73.44a.75.75,0,0,1,.76-.78.77.77,0,0,1,.78.78Zm-8.87-4.53v0a3.74,3.74,0,0,0,3.64,4,3.87,3.87,0,0,0,3.75-4v0a3.85,3.85,0,0,0-3.75-4A3.65,3.65,0,0,0,29.26,82.18Z"/><path class="cls-3" d="M40.58,73.79a.91.91,0,0,1,1.82,0V74a.91.91,0,0,1-1.82,0Zm.14,3.92a.78.78,0,0,1,.76-.78.77.77,0,0,1,.78.78v9a.75.75,0,0,1-.76.78.77.77,0,0,1-.78-.78Z"/><path class="cls-3" d="M45.39,84.64V78.39h-.84a.7.7,0,0,1-.68-.68.69.69,0,0,1,.68-.68h.84V74.59a.77.77,0,0,1,.76-.79.8.8,0,0,1,.78.79V77h2.69a.7.7,0,0,1,.7.68.69.69,0,0,1-.7.68H46.93v6a1.53,1.53,0,0,0,1.74,1.73,4.64,4.64,0,0,0,.95-.14.67.67,0,0,1,.66.66.64.64,0,0,1-.45.6,3.89,3.89,0,0,1-1.52.28A2.64,2.64,0,0,1,45.39,84.64Z"/><circle class="cls-4" cx="32.67" cy="32.67" r="32.67" transform="translate(-3.06 3.38) rotate(-5.65)"/><path class="cls-5" d="M28.15,32.06c-1.28,2.59-1.83,6.64-2,9.06,3.05.08,6.06-1.75,9.51-2,2.3-2.63,4.68-4.68,7.47-7.47C45,29.7,50,26.36,49.67,23c-.2-2.15-3.76-5.68-6.34-5.43s-5.49,4.58-8.16,7.25S29,30.4,28.15,32.06Zm-.22,7a34,34,0,0,0,1.36-5.2A10.13,10.13,0,0,1,33.14,38C31.13,38.06,29.91,39,27.93,39.08ZM46.72,25.5c-1.79-1.46-3.18-3.31-5-4.76C43.8,16.69,50.44,23.09,46.72,25.5Zm-6.34-3.63c2,1.15,3.16,3.19,5,4.53-3,3.91-7,6.93-10.2,10.65a17.65,17.65,0,0,1-2.49-2.49c-.46-.47-2.46-1.67-2.49-2.27s4.07-4.3,4.76-5C37.26,25,38.93,23.66,40.38,21.87Z"/><path class="cls-5" d="M47.63,31.16c-1.24.28-.66,2.13-.68,3.17-.06,3.76.54,8.68-.68,11.1-8.16.52-17.28.07-25.82.22V20.29c3.86,0,8.87,0,12.69,0,1,0,3.34.67,3.39-.91-.1-1.59-2.28-.9-3.39-.91-4.29,0-10.88-.15-14,.23-.9,8.54-.45,19.63-.22,28.54,4.12.4,9.42.22,15,.22,4.11,0,12,1.21,14-1.13,1.72-1.93,1-8.7.9-12C48.74,33.18,49.46,30.9,47.63,31.16Z"/><path class="cls-5" d="M35.85,32.74c1.72-2.2,4.14-3.72,5.67-6.11-.62-.14-.57-.95-1.36-.91-1.76,2.1-3.91,3.8-5.67,5.89C35.17,31.77,35.32,32.44,35.85,32.74Z"/></g></g></g></svg>