<?xml version="1.0" encoding="utf-8"?>
<!-- Generator: Adobe Illustrator 22.1.0, SVG Export Plug-In . SVG Version: 6.00 Build 0)  -->
<svg version="1.1" id="Layer_1" xmlns="http://www.w3.org/2000/svg" xmlns:xlink="http://www.w3.org/1999/xlink" x="0px" y="0px"
	 viewBox="0 0 764.5 882.3" style="enable-background:new 0 0 764.5 882.3;" xml:space="preserve">
<style type="text/css">
	.st0{fill:url(#SVGID_1_);}
	.st1{fill:#BBD3D5;}
	.st2{fill:#F5F5F5;}
	.st3{clip-path:url(#SVGID_3_);}
	.st4{fill:#FFFFFF;}
	.st5{fill:url(#SVGID_4_);}
</style>
<title>frame</title>
<linearGradient id="SVGID_1_" gradientUnits="userSpaceOnUse" x1="170.5" y1="231.11" x2="723.36" y2="783.97" gradientTransform="matrix(1 0 0 -1 0 884)">
	<stop  offset="1.000000e-02" style="stop-color:#00B2EE"/>
	<stop  offset="1" style="stop-color:#0058A8"/>
</linearGradient>
<path class="st0" d="M81.2,0h602c44.9,0,81.2,36.4,81.2,81.2v719.9c0,44.9-36.4,81.2-81.2,81.2h-602C36.4,882.3,0,845.9,0,801.1
	V81.2C0,36.4,36.4,0,81.2,0z"/>
<rect x="110.1" y="110.1" class="st1" width="544.3" height="662.1"/>
<path class="st2" d="M628.8,821c0.2,14-5.7,27.3-16.3,36.4c15.5-3.3,27.4-20.4,27.4-38.9c0-1.5,0-3-0.1-4.4l12-4.1
	c1.5-0.5,2.5-1.3,2.5-2.8c0-1,0-1.5,0-1.5c-6.5-0.1-30-0.9-30-0.9C627.3,809.7,628.8,815.3,628.8,821 M623.4,800.7
	c11,1.7,17.8,0.4,17.8,0.4s-1.6-5.8-6.1-5.8c-4.1,0-8.2-0.3-12.3-0.8c-15.4-2.3-19.3-7.8-19.3-7.8
	C604.4,792.7,613.6,799.2,623.4,800.7"/>
<g>
	<defs>
		<path id="SVGID_2_" d="M628.8,821c0.2,14-5.7,27.3-16.3,36.4c15.5-3.3,27.4-20.4,27.4-38.9c0-1.5,0-3-0.1-4.4l12-4.1
			c1.5-0.5,2.5-1.3,2.5-2.8c0-1,0-1.5,0-1.5c-6.5-0.1-30-0.9-30-0.9C627.3,809.7,628.8,815.3,628.8,821 M623.4,800.7
			c11,1.7,17.8,0.4,17.8,0.4s-1.6-5.8-6.1-5.8c-4.1,0-8.2-0.3-12.3-0.8c-15.4-2.3-19.3-7.8-19.3-7.8
			C604.4,792.7,613.6,799.2,623.4,800.7"/>
	</defs>
	<clipPath id="SVGID_3_">
		<use xlink:href="#SVGID_2_"  style="overflow:visible;"/>
	</clipPath>
	<g class="st3">
		<rect x="603.5" y="786.7" class="st2" width="50.8" height="70.7"/>
	</g>
</g>
<path class="st2" d="M469.6,843.8v-2.4c2.4-0.9,4.1-3,4.1-7.8v-21.3h3.6v21C477.4,839.7,473.6,843.3,469.6,843.8"/>
<path class="st2" d="M490.8,835c-5.8,0-8.5-2.5-8.5-6.6c0-5.9,5.5-7.7,12.4-8.4v-1.3c0-3.4-2.1-4.4-4.9-4.4
	c-1.9,0.1-3.7,0.5-5.4,1.4l-0.9-2.1c2.1-1.1,4.4-1.7,6.8-1.7c4.1,0,7.8,1.8,7.8,7.2v14.3C496,834.6,493.4,835.2,490.8,835
	 M494.8,822c-5.6,0.7-9,1.9-9,6.4c0,3.2,2,4.5,5.3,4.5c1.3,0,2.5-0.2,3.7-0.7L494.8,822z"/>
<path class="st2" d="M516.6,834.6v-16c0-2.1-0.9-4.3-4.7-4.3c-1.4-0.1-2.9,0.2-4.2,0.8v19.6h-3.6v-21.1c2.6-1.1,5.4-1.7,8.2-1.6
	c6.2,0,8,3.4,8,6.6v16.1H516.6z"/>
<path class="st2" d="M530.5,834.9c-2,0.1-4-0.4-5.7-1.5l1-2.4c1.3,0.9,2.8,1.4,4.3,1.3c2.1,0.1,4-1.5,4.1-3.7c0-0.1,0-0.2,0-0.2
	c0-2.3-1.3-3.4-3.7-4.3c-4.3-1.6-5.2-3.9-5.2-6.2c0-3.4,2.9-6.2,6.3-6.1c0.1,0,0.2,0,0.4,0c1.8,0,3.7,0.5,5.2,1.5l-0.9,2.2
	c-1.1-0.8-2.4-1.3-3.7-1.3c-1.9-0.2-3.6,1.2-3.7,3.1c0,0.1,0,0.3,0,0.4c0,2.1,1.6,3.2,3.7,4c4.3,1.6,5.4,3.9,5.4,6.5
	c0,3.4-2.9,6.5-7.5,6.5"/>
<path class="st2" d="M546.8,834.9c-2,0.1-4-0.4-5.7-1.5l1-2.4c1.3,0.9,2.8,1.4,4.4,1.3c2.1,0.1,4-1.5,4.1-3.7c0-0.1,0-0.2,0-0.2
	c0-2.3-1.2-3.4-3.7-4.3c-4.3-1.6-5.2-3.9-5.2-6.2c0-3.4,2.9-6.2,6.3-6.1c0.1,0,0.2,0,0.4,0c1.8,0,3.7,0.5,5.2,1.5l-0.9,2.2
	c-1.1-0.8-2.4-1.3-3.7-1.3c-1.9-0.2-3.6,1.2-3.7,3.1c0,0.1,0,0.3,0,0.4c0,2.1,1.6,3.2,3.7,4c4.3,1.6,5.4,3.9,5.4,6.5
	c0,3.4-2.9,6.5-7.5,6.5"/>
<path class="st2" d="M561.7,824.8c0.4,5,2.8,7.5,6.8,7.5c1.9,0.1,3.8-0.4,5.5-1.3l0.9,2.4c-2.1,1.1-4.4,1.6-6.7,1.6
	c-5.8,0-9.9-3.7-9.9-11.7c0-7.6,3.7-11.5,9-11.5c5.2,0,8.6,3.5,8.5,10.9L561.7,824.8z M567.1,814.2c-3.2,0-5.6,2.6-5.5,8.6l10.7-1.6
	C572.2,816.2,570.3,814.2,567.1,814.2"/>
<path class="st2" d="M593.3,834.6v-16c0-2.1-0.9-4.3-4.7-4.3c-1.4-0.1-2.9,0.2-4.2,0.8v19.6h-3.6v-21.1c2.6-1.1,5.3-1.7,8.1-1.6
	c6.2,0,8,3.4,8,6.6v16.1H593.3z"/>
<path class="st2" d="M486.9,847.6c1,0,1.5,0.5,1.5,1.5s-0.9,1.4-1.7,1.4h-0.9v1.5h-1.1v-4.3L486.9,847.6z M485.9,849.7h0.7
	c0.5,0,0.8-0.1,0.8-0.7s-0.5-0.6-0.8-0.6h-0.7L485.9,849.7z"/>
<polygon class="st2" points="491.8,851.8 491.8,850 490.2,850 490.2,851.8 489.1,851.8 489.1,847.6 490.2,847.6 490.2,849.1 
	491.8,849.1 491.8,847.6 492.8,847.6 492.8,851.8 "/>
<path class="st2" d="M496.6,851.9l-0.2-0.7h-1.6l-0.2,0.7h-1.1l1.6-4.3h1.1l1.6,4.3H496.6z M495.6,848.7l-0.5,1.8h1.1L495.6,848.7z"
	/>
<path class="st2" d="M500.4,847.6c0.6,0,1.6,0.2,1.6,1.4c0,0.6-0.3,1-0.9,1.2l1,1.7h-1.2l-0.8-1.5h-0.7v1.6h-1.1v-4.3L500.4,847.6z
	 M499.4,849.5h0.9c0.6,0,0.6-0.5,0.6-0.6c0-0.6-0.4-0.6-0.6-0.6h-0.9V849.5z"/>
<path class="st2" d="M506.7,851.9c0,0,0-2.4,0-3.2l-0.9,3.2h-0.9l-0.9-3.2c0,0.6,0,3.2,0,3.2h-1v-4.3h1.5l0.8,3l0.8-3h1.6v4.3H506.7
	z"/>
<path class="st2" d="M511.5,851.9l-0.2-0.7h-1.6l-0.2,0.7h-1.1l1.6-4.3h1l1.6,4.3H511.5z M510.5,848.7l-0.5,1.8h1.1L510.5,848.7z"/>
<path class="st2" d="M516.7,850.9c-0.4,0.7-1.1,1.1-1.8,1.1c-1.1,0-2-0.9-2.1-2c0-0.1,0-0.2,0-0.2c-0.1-1.2,0.8-2.2,2-2.3
	c0,0,0.1,0,0.1,0c0.8,0,1.5,0.4,1.8,1.1l-0.8,0.4c-0.1-0.4-0.5-0.6-0.9-0.6c-0.7,0-1.1,0.6-1.1,1.3c0,0.9,0.5,1.4,1.1,1.4
	c0.4,0,0.8-0.3,0.9-0.6L516.7,850.9z"/>
<polygon class="st2" points="517.5,847.6 520.6,847.6 520.6,848.4 518.5,848.4 518.5,849.2 520.5,849.2 520.5,850 518.5,850 
	518.5,851 520.8,851 520.8,851.8 517.5,851.8 "/>
<path class="st2" d="M525.3,850.2c0.1,0.9-0.6,1.7-1.5,1.8c-0.1,0-0.2,0-0.3,0c-0.9,0.1-1.7-0.5-1.8-1.4c0-0.1,0-0.2,0-0.3v-2.6h1
	v2.8c0,0.6,0.3,0.7,0.8,0.7s0.7-0.3,0.7-0.8v-2.7h1.1V850.2z"/>
<polygon class="st2" points="528,848.4 528,851.8 527,851.8 527,848.4 525.8,848.4 525.8,847.6 529.1,847.6 529.1,848.4 "/>
<rect x="529.8" y="847.6" class="st2" width="1.1" height="4.3"/>
<path class="st2" d="M535.5,850.9c-0.4,0.7-1.1,1.1-1.8,1.1c-1.1,0-2-0.9-2.1-2c0-0.1,0-0.2,0-0.2c-0.1-1.2,0.8-2.2,2-2.3
	c0,0,0.1,0,0.1,0c0.8,0,1.5,0.4,1.8,1.1l-0.8,0.4c-0.1-0.4-0.5-0.6-0.9-0.6c-0.7,0-1,0.6-1,1.3c0,0.9,0.5,1.4,1,1.4
	c0.4,0,0.8-0.3,0.9-0.6L535.5,850.9z"/>
<path class="st2" d="M538.7,851.9l-0.2-0.7H537l-0.2,0.7h-1.1l1.6-4.3h1.1l1.6,4.3H538.7z M537.7,848.7l-0.5,1.8h1.1L537.7,848.7z"
	/>
<polygon class="st2" points="540.4,851.8 540.4,847.6 541.4,847.6 541.4,850.9 543.1,850.9 543.1,851.8 "/>
<path class="st2" d="M549.3,850.9c-0.4,0.7-1.1,1.1-1.8,1.1c-1.1,0-2-0.9-2.1-2c0-0.1,0-0.2,0-0.2c-0.1-1.2,0.8-2.2,2-2.3
	c0,0,0.1,0,0.1,0c0.8,0,1.5,0.4,1.8,1.1l-0.8,0.4c-0.1-0.4-0.5-0.6-0.9-0.6c-0.7,0-1,0.6-1,1.3c0,0.9,0.5,1.4,1,1.4
	c0.4,0,0.8-0.3,0.9-0.6L549.3,850.9z"/>
<path class="st2" d="M551.8,847.5c1.2,0,2.2,1,2.2,2.2c0,0,0,0.1,0,0.1c0.1,1.2-0.9,2.2-2,2.2c0,0-0.1,0-0.1,0c-1.2,0-2.3-1-2.3-2.3
	C549.6,848.5,550.6,847.5,551.8,847.5 M551.9,851.1c0.8,0,1.1-0.7,1.1-1.3c0-0.6-0.3-1.4-1.1-1.4s-1.1,0.8-1.1,1.3
	S551.1,851.1,551.9,851.1"/>
<path class="st2" d="M558.6,851.9c0,0,0-2.4,0-3.2l-0.8,3.2h-0.9l-0.9-3.2c0,0.6,0,3.2,0,3.2h-1v-4.3h1.5l0.8,3l0.8-3h1.6v4.3H558.6
	z"/>
<path class="st2" d="M562.8,847.6c1,0,1.5,0.5,1.5,1.5s-0.9,1.4-1.7,1.4h-0.9v1.5h-1.1v-4.3L562.8,847.6z M561.8,849.7h0.7
	c0.5,0,0.8-0.1,0.8-0.7s-0.5-0.6-0.8-0.6h-0.7L561.8,849.7z"/>
<path class="st2" d="M567.3,851.9l-0.2-0.7h-1.6l-0.2,0.7h-1.1l1.6-4.3h1l1.6,4.3H567.3z M566.3,848.7l-0.5,1.8h1.1L566.3,848.7z"/>
<polygon class="st2" points="571.5,851.8 570,849.3 570,851.8 569,851.8 569,847.6 570,847.6 571.5,850.2 571.5,847.6 572.6,847.6 
	572.6,851.8 "/>
<rect x="573.9" y="847.6" class="st2" width="1.1" height="4.3"/>
<polygon class="st2" points="576.2,847.6 579.4,847.6 579.4,848.4 577.3,848.4 577.3,849.2 579.2,849.2 579.2,850 577.3,850 
	577.3,851 579.6,851 579.6,851.8 576.2,851.8 "/>
<path class="st2" d="M583.2,848.9c-0.3-0.3-0.7-0.5-1.1-0.5c-0.4,0-0.6,0.3-0.6,0.5c0,0.2,0.2,0.3,0.5,0.4l0.5,0.1
	c1.1,0.2,1.6,0.5,1.6,1.2s-0.7,1.5-1.9,1.5c-0.8,0.1-1.5-0.3-1.9-0.9l0.8-0.5c0.3,0.3,0.8,0.5,1.2,0.5c0.3,0,0.8-0.1,0.8-0.5
	s-0.4-0.4-0.8-0.4h-0.5c-0.8-0.1-1.3-0.5-1.3-1.2c0-0.8,0.6-1.4,1.7-1.4c0.7,0,1.4,0.3,1.9,0.8L583.2,848.9z"/>
<path class="st2" d="M486.6,859.9c1.2,0,2.3,1,2.3,2.3c0,1.2-1,2.2-2.3,2.3c-1.2,0-2.3-1-2.3-2.3
	C484.4,860.9,485.4,859.9,486.6,859.9 M486.6,863.5c0.8,0,1.1-0.7,1.1-1.3c0-0.6-0.3-1.4-1.1-1.4c-0.8,0-1.1,0.8-1.1,1.3
	C485.6,862.6,485.9,863.5,486.6,863.5"/>
<polygon class="st2" points="492.8,860 492.8,860.8 490.6,860.8 490.6,861.7 492.7,861.7 492.7,862.6 490.6,862.6 490.6,864.3 
	489.6,864.3 489.6,860 "/>
<path class="st2" d="M499.3,856.6c0,0.1-0.2,0.4-0.4,1.1c-0.3,0.9-0.5,1.8-0.5,2.8c0,0.8,0.1,1.7,0.3,2.5l-0.4,0.5
	c-0.8-0.9-1.1-2.1-1.1-3.2C497.3,858.1,498.6,856.6,499.3,856.6L499.3,856.6 M517.6,862.8c0.1,0.2,0.1,0.4,0.1,0.6
	c0,0.2-0.1,0.4-0.2,0.4c-0.1,0-0.2-0.1-0.2-0.3C517.3,863.2,517.4,863,517.6,862.8 M498.8,863.6c0.1,0.6,0.2,1.3,0.2,1.9
	c0,1.3-0.4,2.7-1.1,2.6c-0.3,0-0.5-0.3-0.5-0.8C497.4,866,497.9,864.6,498.8,863.6 M520,860.8c-0.3,0.4-0.4,0.8-0.4,1.3
	c-0.1,1,0.6,2,1.7,2.1c0,0,0.1,0,0.1,0c1.1,0,2-0.9,2-2c0-0.1,0-0.1,0-0.2c0-0.2,0-0.4,0-0.6c0.2-0.1,0.5-0.3,0.7-0.4
	c0.1-0.1,0.2-0.2,0.4-0.2c0.1,0,0.2,0.1,0.2,0.3v2.5c0,0.4,0.1,0.6,0.5,0.6c0.3,0,0.5-0.2,0.6-0.5c0.4-0.9,1-2.1,1.3-2.5
	c0-0.1,0.1-0.2,0.2-0.2c0,0,0.1,0,0.1,0.2v2c0,0.6,0.3,0.9,0.8,0.9c0.6,0,0.9-0.6,1.4-1.4c0,0,0-0.1,0-0.1c0-0.1-0.1-0.2-0.2-0.2
	c0,0,0,0,0,0c-0.1,0-0.2,0.1-0.6,0.5c-0.1,0.1-0.2,0.2-0.3,0.2c-0.1,0-0.1,0-0.1-0.1v-2.1c0-0.6-0.3-0.8-0.6-0.8
	c-0.3,0-0.6,0.2-0.8,0.5c-0.4,0.6-0.9,1.5-1.1,2c0,0-0.1,0.1-0.1,0.1s0,0,0-0.1v-1.6c0-0.5-0.1-0.8-0.6-0.8c-0.5,0-0.8,0.4-1.2,0.6
	c-0.2,0.1-0.4,0.3-0.6,0.4c-0.1-0.5-0.6-0.9-1.1-1c-0.4,0-0.7,0.2-0.7,0.6c0,0,0,0.1,0,0.1c0,0.4,0.2,0.7,0.6,0.9
	c0.2,0.1,0.4,0.1,0.6,0.1h0.2c0,0.1,0,0.3,0,0.4c0.1,0.6-0.3,1.2-0.9,1.3c0,0-0.1,0-0.1,0c-0.7,0-1.1-0.7-1.1-1.5
	c0-0.5,0.1-1,0.5-1.5c0.1-0.1,0.2-0.2,0.2-0.3c0-0.1-0.1-0.1-0.2-0.1c-0.5,0-1,0.2-1.4,0.4c-0.6,0.3-1.1,0.7-1.5,1.1
	c-0.2-0.5-0.5-1-0.7-1.3c-0.1-0.3-0.1-0.3-0.2-0.3c-0.1,0-0.1,0.1-0.2,0.3c-0.5,1-1,2-1.7,3c0,0,0,0.1-0.1,0.1c-0.1,0,0,0,0-0.1
	v-2.3c0-0.6-0.2-0.8-0.6-0.8c-0.3,0-0.6,0.2-0.8,0.5c-0.4,0.6-0.9,1.6-1.2,2c0,0.1-0.1,0.1-0.1,0.1s0,0,0-0.1v-1.6
	c0-0.6-0.2-0.8-0.6-0.8c-0.3,0-0.6,0.2-0.8,0.5c-0.5,0.9-1.4,2.3-1.6,2.6l-0.1,0.1c0,0,0,0,0-0.1v-2.2c0-0.6-0.2-0.8-0.6-0.8
	s-0.7,0.4-0.9,0.7s-0.5,0.9-0.8,1.3c-0.1,0.2-0.2,0.4-0.4,0.6c0,0,0-0.1,0-0.3v-1.7c0.8-0.9,1.3-2,1.3-3.2c0-0.7-0.3-1.1-0.8-1.1
	c-0.9,0-1.6,1.4-1.6,3v1.3c-0.4,0.2-0.8,0.4-1.3,0.5c-0.1-0.6-0.6-1-1.2-1.1c-0.4,0-0.7,0.2-0.7,0.6c0,0,0,0.1,0,0.1
	c0,0.7,0.7,1,1.3,1h0.2c0,0.1,0,0.3,0,0.4c0.1,0.6-0.3,1.2-0.9,1.3c0,0-0.1,0-0.1,0c-0.7,0-1.1-0.7-1.1-1.5c0-0.5,0.1-1,0.5-1.5
	c0.1-0.1,0.2-0.2,0.2-0.3c0,0-0.1-0.1-0.2-0.1c-1.1,0.4-2.1,1-2.8,1.9c-0.1-1-0.2-2-0.2-3c0-0.8,0.1-1.5,0.3-2.3c0-0.2,0-0.3,0-0.3
	c0-0.1,0-0.2-0.2-0.2c-1.9,0.5-3.3,2.2-3.3,4.1c0,1.4,0.6,2.8,1.8,3.7c-0.7,1.1-1.1,2.3-1.2,3.5c0,0.8,0.2,1.5,0.8,1.5
	c1.3,0,2.3-2.7,2.3-4.6c0-0.6,0-1.2-0.1-1.8c0.4-0.5,0.9-0.9,1.4-1.3c-0.1,0.3-0.1,0.5-0.1,0.8c-0.1,1,0.6,2,1.7,2.1
	c0,0,0.1,0,0.1,0c1.1,0,2-1,2-2.1c0,0,0-0.1,0-0.1c0-0.2,0-0.3,0-0.5c0.4-0.1,0.8-0.2,1.1-0.4v2.6c0,0.2,0.2,0.4,0.4,0.5
	c0,0,0,0,0.1,0c0.3,0,0.4-0.2,0.7-0.7c0.2-0.5,0.7-1.3,1-1.8c0.3-0.5,0.4-0.7,0.5-0.7c0.1,0,0,0,0,0.2v2.3c0,0.6,0.3,0.8,0.6,0.8
	c0.3,0,0.5-0.2,0.6-0.4c0.7-0.9,1.4-2.1,1.7-2.6c0-0.1,0.1-0.2,0.2-0.2c0.1,0,0.1,0,0.1,0.2v2.3c0,0.4,0.1,0.6,0.4,0.6
	c0.3,0,0.5-0.2,0.6-0.5c0.4-0.9,1.1-2.1,1.3-2.5c0-0.1,0.1-0.2,0.2-0.2s0,0,0,0.2v2.2c0,0.6,0.3,0.8,0.6,0.8s0.6-0.3,0.8-0.6
	c0.4-0.6,1-1.5,1.4-2.2c0.1,0.2,0.3,0.5,0.4,0.7c-0.4,0.3-0.6,0.8-0.6,1.3c0,0.4,0.3,0.7,0.7,0.8c0,0,0,0,0,0
	c0.7-0.1,1.1-0.6,1.1-1.3c0-0.3-0.1-0.6-0.2-0.9c0.4-0.5,1-0.9,1.6-1.1 M506.9,859.1c0-1.9,0.4-2.2,0.5-2.2c0.1,0,0.2,0.1,0.2,0.9
	c0,0.8-0.3,1.6-0.7,2.3V859.1z M503.3,861c0-0.1,0.1-0.2,0.2-0.2c0,0,0,0,0,0c0.2,0,0.4,0.2,0.5,0.5
	C503.6,861.3,503.3,861.2,503.3,861 M521.9,861c0-0.1,0.1-0.2,0.2-0.2c0,0,0,0,0,0c0.2,0,0.4,0.2,0.6,0.5h-0.2
	C522.2,861.3,521.9,861.2,521.9,861"/>
<path class="st2" d="M532.3,863c-0.2,0-0.4,0-0.6,0c-0.5,0-0.9-0.2-0.9-0.5s0.1-0.3,0.4-0.3S531.9,862.5,532.3,863 M534.9,863.1
	c0.3,0.3,0.6,0.6,0.9,0.9c-0.7,1-1.2,2.3-1.3,3.5c0,0.8,0.2,1.5,0.8,1.5c1.3,0,2.2-2.7,2.2-4.6c0-0.6,0-1.2-0.1-1.8
	c0.4-0.5,0.9-0.9,1.4-1.3c-0.1,0.3-0.1,0.5-0.1,0.8c-0.1,1,0.6,2,1.7,2.1c0,0,0.1,0,0.1,0c1.1,0,2-1,2-2.1c0,0,0-0.1,0-0.1
	c0-0.2,0-0.3,0-0.5c0.4-0.1,0.8-0.2,1.2-0.4v2.6c0,0.2,0.2,0.4,0.4,0.5c0,0,0,0,0.1,0c0.3,0,0.5-0.2,0.7-0.7c0.2-0.5,0.7-1.3,1-1.8
	c0.3-0.5,0.4-0.7,0.5-0.7c0.1,0,0.1,0,0.1,0.2v2.3c0,0.6,0.3,0.8,0.6,0.8c0.3,0,0.5-0.2,0.6-0.4c0.7-0.9,1.4-2.1,1.6-2.6
	c0-0.1,0.1-0.2,0.2-0.2s0.1,0,0.1,0.2v2.3c0,0.4,0.1,0.6,0.5,0.6c0.3,0,0.5-0.2,0.6-0.5c0.4-0.9,1.1-2.1,1.3-2.5
	c0.1-0.1,0.1-0.2,0.2-0.2s0,0,0,0.2v2.2c0,0.6,0.3,0.8,0.6,0.8s0.6-0.3,0.8-0.6c0.4-0.6,1-1.5,1.4-2.2c0.1,0.2,0.3,0.5,0.4,0.7
	c-0.3,0.3-0.6,0.8-0.6,1.3c0,0.4,0.2,0.7,0.6,0.8c0,0,0,0,0,0c0.7-0.1,1.1-0.6,1.1-1.3c0-0.3-0.1-0.6-0.2-0.9c0.4-0.5,1-0.9,1.6-1.1
	c-0.3,0.4-0.4,0.8-0.4,1.3c-0.1,1,0.6,2,1.7,2.1c0,0,0.1,0,0.1,0c1.1,0,2-0.9,2-2.1c0,0,0-0.1,0-0.1c0-0.2,0-0.4,0-0.6
	c0.2-0.1,0.5-0.3,0.7-0.4c0.1-0.1,0.2-0.2,0.4-0.2c0.1,0,0.2,0.1,0.2,0.3v2.5c0,0.4,0.1,0.6,0.4,0.6c0.3,0,0.5-0.2,0.6-0.5
	c0.4-0.9,1-2.1,1.3-2.5c0.1-0.1,0.1-0.2,0.2-0.2s0.1,0,0.1,0.2v2c0,0.6,0.2,0.9,0.8,0.9c0.6,0,0.9-0.6,1.4-1.4c0,0,0-0.1,0-0.1
	c0-0.1-0.1-0.2-0.2-0.2c0,0,0,0,0,0c-0.1,0-0.2,0.1-0.6,0.5c-0.1,0.1-0.2,0.2-0.3,0.2c-0.1,0-0.1,0-0.1-0.1v-2.4
	c0-0.6-0.3-0.8-0.6-0.8c-0.3,0-0.6,0.2-0.8,0.5c-0.4,0.6-0.8,1.3-1.1,2c0,0,0,0.1-0.1,0.1s0,0,0-0.1v-1.6c0-0.5-0.1-0.8-0.6-0.8
	c-0.5,0-0.8,0.4-1.2,0.6c-0.2,0.1-0.4,0.3-0.6,0.4c-0.1-0.5-0.6-0.9-1.1-1c-0.4,0-0.7,0.2-0.7,0.6c0,0,0,0.1,0,0.1
	c0,0.4,0.2,0.7,0.6,0.9c0.2,0.1,0.4,0.1,0.6,0.1h0.2c0,0.1,0,0.3,0,0.4c0.1,0.6-0.3,1.2-1,1.3c0,0-0.1,0-0.1,0
	c-0.7,0-1.1-0.7-1.1-1.5c0-0.5,0.1-1,0.5-1.5c0.1-0.1,0.2-0.2,0.2-0.3c0-0.1-0.1-0.1-0.2-0.1c-0.5,0-1,0.2-1.4,0.4
	c-0.6,0.3-1.1,0.7-1.5,1.1c-0.2-0.5-0.5-1-0.6-1.3c-0.1-0.3-0.1-0.3-0.2-0.3c-0.1,0-0.1,0.1-0.2,0.3c-0.5,1-1.1,2-1.7,3
	c0,0,0,0.1-0.1,0.1c-0.1,0,0,0,0-0.1v-2.3c0-0.6-0.2-0.8-0.6-0.8c-0.3,0-0.6,0.2-0.8,0.5c-0.4,0.6-0.9,1.6-1.2,2c0,0,0,0.1-0.1,0.1
	c0,0,0,0,0-0.1v-1.6c0-0.6-0.2-0.8-0.6-0.8c-0.3,0-0.6,0.2-0.8,0.5c-0.5,0.9-1.5,2.3-1.6,2.6l-0.1,0.1c0,0,0,0,0-0.1v-2.2
	c0-0.6-0.2-0.8-0.6-0.8s-0.7,0.4-0.9,0.7c-0.2,0.3-0.5,0.9-0.8,1.3c-0.1,0.2-0.2,0.4-0.4,0.6c0,0,0-0.1,0-0.3v-1.7
	c0.8-0.9,1.3-2,1.3-3.2c0-0.7-0.3-1.1-0.8-1.1c-0.9,0-1.6,1.4-1.6,3v1.3c-0.4,0.2-0.8,0.4-1.3,0.5c-0.1-0.6-0.6-1-1.2-1.1
	c-0.4,0-0.7,0.2-0.7,0.6c0,0,0,0.1,0,0.1c0,0.7,0.7,1,1.3,1h0.2c0,0.1,0,0.3,0,0.4c0.1,0.6-0.3,1.2-1,1.3c0,0-0.1,0-0.1,0
	c-0.7,0-1.1-0.7-1.1-1.5c0-0.5,0.2-1,0.5-1.5c0.1-0.1,0.2-0.2,0.2-0.3c0,0-0.1-0.1-0.2-0.1c-1.1,0.4-2.1,1-2.9,1.9
	c-0.1-1-0.2-2-0.2-3c0-0.8,0.1-1.5,0.3-2.3c0-0.2,0-0.3,0-0.3c0-0.1,0-0.2-0.2-0.2c-1.9,0.5-3.3,2.2-3.3,4.1c0,0.8,0.2,1.6,0.6,2.4
	c-0.1,0-0.2,0-0.4,0c-0.4,0-0.7,0.1-1.1,0.2v-0.3c0-0.5-0.1-1.1-0.4-1.6c0,0-0.1,0-0.1,0c-0.1,0-0.3,0.1-0.4,0.1
	c-0.2,0.1-0.3,0.2-0.3,0.2c0,0,0,0.1,0,0.1c0.2,0.3,0.4,0.6,0.4,1c-0.4-0.4-1-0.6-1.6-0.6c-0.8,0-1,0.3-1,0.7c0,0.7,0.9,1,2,1
	c0.2,0,0.4,0,0.7-0.1c0,0.2,0,0.4,0,0.5c0,0.2,0,0.4,0.2,0.4c0.2,0,0.4-0.4,0.4-1.1c0.4-0.1,0.8-0.2,1.2-0.2
	C534.4,863.1,534.6,863.1,534.9,863.1 M537,856.6c0,0.1-0.2,0.4-0.4,1.1c-0.3,0.9-0.5,1.8-0.5,2.8c0,0.8,0.2,1.7,0.3,2.5l-0.4,0.5
	c-0.8-0.9-1.1-2.1-1.1-3.2C534.9,858.1,536.2,856.6,537,856.6L537,856.6 M555.2,862.7c0.1,0.2,0.1,0.4,0.1,0.6
	c0,0.2-0.1,0.4-0.2,0.4c-0.1,0-0.2-0.1-0.2-0.3C555,863.2,555.1,862.9,555.2,862.7 M536.5,863.6c0.1,0.6,0.2,1.3,0.2,1.9
	c0,1.3-0.4,2.7-1.1,2.6c-0.3,0-0.5-0.3-0.5-0.8C535.1,865.9,535.6,864.6,536.5,863.6 M544.6,858.9c0-1.9,0.4-2.2,0.5-2.2
	c0.1,0,0.2,0.1,0.2,0.9c0,0.8-0.3,1.6-0.7,2.3V858.9z M541,860.7c0-0.1,0-0.2,0.1-0.2c0,0,0,0,0,0c0.2,0,0.4,0.2,0.6,0.5
	C541.3,861.1,541,861,541,860.7 M559.6,860.7c0-0.1,0.1-0.2,0.2-0.2c0.3,0.1,0.5,0.3,0.6,0.5h-0.2
	C559.9,861.1,559.6,860.9,559.6,860.7"/>
<path class="st4" d="M375.2,54.3c0,5,4.1,9.1,9.1,9.1c5,0,9.1-4.1,9.1-9.1s-4.1-9.1-9.1-9.1c0,0,0,0,0,0
	C379.2,45.2,375.2,49.3,375.2,54.3C375.2,54.3,375.2,54.3,375.2,54.3z"/>
<linearGradient id="SVGID_4_" gradientUnits="userSpaceOnUse" x1="377.96" y1="829.845" x2="389.66" y2="829.845" gradientTransform="matrix(1 0 0 -1 0 884)">
	<stop  offset="1.000000e-02" style="stop-color:#F6C4DE"/>
	<stop  offset="1" style="stop-color:#9DCEEC"/>
</linearGradient>
<path class="st5" d="M384.9,58h-5.5c-0.8,0-1.4-0.6-1.4-1.4c0-0.6,0.3-1.2,0.7-1.6l5.8-6.8c0.4-0.6,1.1-1,1.8-1
	c0.8,0,1.4,0.6,1.4,1.4c0,0,0,0,0,0v7h0.7c0.7,0,1.2,0.5,1.2,1.2s-0.5,1.2-1.2,1.2h-0.7v1.6c0,0.8-0.6,1.4-1.4,1.4c0,0,0,0,0,0
	c-0.8,0-1.4-0.6-1.4-1.4c0,0,0,0,0,0L384.9,58z M384.9,55.6v-4.2l-3.6,4.2H384.9z"/>
<path class="st4" d="M416.3,29h-15c-3,0-5.5,2.4-5.5,5.4c0,0,0,0.1,0,0.1v34.8c0,6.8-5.4,12.3-12.2,12.5c-0.8-0.1-1.6,0-2.4,0.3
	c-0.4,0.2-0.8,0.4-1.1,0.7c-0.6,0.4-1.2,1-1.6,1.6c-0.4,0.4-0.8,0.7-1.3,1c-3.4,1.5-8.8-1.2-10.2,3c1.6,2.1,7.1-0.6,9.2,2.1
	c-2.9-0.8-6,0.5-10.3-0.8l-5.7-1.8l0,0c-1.5-0.4-3-0.7-4.6,0.6c6.1,3.5,13.7,6.8,21.1,6.5c6.1-0.3,12-1.9,17.4-4.8
	c1.9-1,3.7-2.3,5.3-3.8c0,0,0.1-0.1,0.1-0.1l0,0c4.5-4.4,7.1-10.5,7.1-16.8v-5.2h8.4c11.3,0,20.3-6,20.3-17.6v-0.2
	C435.5,36.1,428.2,29,416.3,29z M424.3,46.7c0,4.3-3.2,7.6-8.7,7.6h-8.7V39h8.5c5.5,0,9,2.7,9,7.6L424.3,46.7z"/>
<path class="st4" d="M387.3,26.5c0.4-0.2,0.8-0.4,1.1-0.7c0.6-0.4,1.1-1,1.6-1.6c0.4-0.4,0.8-0.7,1.3-1c3.4-1.5,8.8,1.1,10.2-3
	c-1.6-2.1-7.1,0.6-9.2-2.1c2.9,0.8,6-0.5,10.3,0.8l5.7,1.9l0,0c1.5,0.4,3,0.7,4.6-0.5c-6.1-3.5-13.7-6.8-21.1-6.6
	c-6.1,0.3-12,1.9-17.4,4.8c-1.9,1-3.7,2.3-5.3,3.9l-0.1,0.1l0,0c-4.5,4.4-7.1,10.5-7.1,16.8v18.5c0,8-4.1,12-10.8,12
	S340,65.6,340,57.4V34.1c0.3-3-2-5.7-5-6c-3-0.3-5.7,2-6,5c0,0.3,0,0.6,0,0.9v23.6c0,14.8,8.2,22.3,21.7,22.3s22-7.5,22-22.7V46.9
	l0,0v-7.6c0-6.8,5.4-12.3,12.2-12.5C385.7,26.9,386.5,26.8,387.3,26.5z"/>
</svg>
