<svg id="Layer_1" data-name="Layer 1" xmlns="http://www.w3.org/2000/svg" xmlns:xlink="http://www.w3.org/1999/xlink" viewBox="0 0 315.49 49.04"><defs><style>.cls-1{fill:url(#linear-gradient);}.cls-2,.cls-3{fill:#fff;}.cls-2{fill-rule:evenodd;}</style><linearGradient id="linear-gradient" y1="24.52" x2="315.49" y2="24.52" gradientUnits="userSpaceOnUse"><stop offset="0.01" stop-color="#00b2ee"/><stop offset="1" stop-color="#0058a8"/></linearGradient></defs><title>from-gallery-btn</title><path class="cls-1" d="M24.52,0a24.52,24.52,0,0,0,0,49H291A24.49,24.49,0,0,0,308.29,7.2,24.38,24.38,0,0,0,291,0Z"/><path class="cls-2" d="M284.3,9.33c-4.21-1.15-9.23-.64-14.38-.64h-7.51c-2.33,0-5.58-.53-7.51,0-2.44.67-1.72,4.35-1.72,7.51,0,7.33-.32,18.55.43,23.4,3.95,1.5,9.79.86,15.24.86s11.45.64,15.45-.86A212.37,212.37,0,0,0,284.3,9.33ZM256,38.52c1.74-1.22,2.43-4.92,4.51-4.93s2.66,3.62,4.51,4.72C262.41,38.81,258.9,38.38,256,38.52Zm11.59,0a12.09,12.09,0,0,1-3-3.86c2.79-2.08,4.36-7.66,7.51-9,1.23-.53,5.41,5.3,6,6,2,2.41,3.85,4.1,4.94,6.66C278.29,38.81,272.65,38.38,267.56,38.52ZM283,34.23c-.79.27-1.53-1.39-2.36-2.36-1.54-1.79-5.48-7.8-8.16-7.94-2.43-.13-3.87,2.42-5.15,4.08-1.54,2-2.57,3.63-3.87,5.36-3.41-4.21-7.11,1.63-8.58,3.22.14-8.66-.29-17.88.21-26.18,9.23.14,19-.29,27.91.21Z"/><path class="cls-2" d="M262,19.42a3.33,3.33,0,0,0-2.36,1.07c-3.88,5.06,6.4,8.79,6.44,2.37A3.46,3.46,0,0,0,262,19.42Zm-1.29,4.08c-.41-1.32.51-2.72,2.58-2.36C266.18,23.25,261.56,26.27,260.69,23.5Z"/><path class="cls-3" d="M34.86,23.69v0A7.06,7.06,0,0,1,42,16.4a7.27,7.27,0,0,1,5,1.82.89.89,0,0,1,.32.65.81.81,0,0,1-.8.78.94.94,0,0,1-.52-.18,5.74,5.74,0,0,0-4-1.61,5.5,5.5,0,0,0-5.43,5.75v0a5.53,5.53,0,0,0,5.43,5.79,5.77,5.77,0,0,0,4.17-1.7.73.73,0,0,1,.5-.22.79.79,0,0,1,.76.76.75.75,0,0,1-.26.56,7.16,7.16,0,0,1-5.21,2.07A7,7,0,0,1,34.86,23.69Z"/><path class="cls-3" d="M49,16.72a.78.78,0,1,1,1.55,0v5.39a3.92,3.92,0,0,1,3.54-2c2.51,0,4,1.68,4,4.14V30a.77.77,0,1,1-1.54,0V24.62c0-1.93-1-3.13-2.87-3.13a3,3,0,0,0-3.1,3.25V30a.76.76,0,0,1-.77.79A.77.77,0,0,1,49,30Z"/><path class="cls-3" d="M59.7,25.54v0a5.4,5.4,0,0,1,10.8,0v0a5.38,5.38,0,0,1-5.43,5.41A5.31,5.31,0,0,1,59.7,25.54Zm9.22,0v0a3.92,3.92,0,0,0-3.85-4.05,3.82,3.82,0,0,0-3.78,4v0a3.88,3.88,0,0,0,3.82,4A3.82,3.82,0,0,0,68.92,25.54Z"/><path class="cls-3" d="M71.65,25.54v0a5.4,5.4,0,0,1,10.79,0v0A5.38,5.38,0,0,1,77,30.91,5.31,5.31,0,0,1,71.65,25.54Zm9.21,0v0A3.92,3.92,0,0,0,77,21.45a3.82,3.82,0,0,0-3.79,4v0a3.88,3.88,0,0,0,3.83,4A3.82,3.82,0,0,0,80.86,25.54Z"/><path class="cls-3" d="M83.67,29.56a.7.7,0,0,1-.28-.56.67.67,0,0,1,.68-.66.62.62,0,0,1,.38.12,5.82,5.82,0,0,0,3.29,1.1c1.24,0,2.14-.64,2.14-1.64v0c0-1-1.22-1.44-2.59-1.82-1.62-.46-3.42-1-3.42-2.93v0c0-1.78,1.48-3,3.53-3a7.2,7.2,0,0,1,3.3.88.75.75,0,0,1,.38.64.67.67,0,0,1-.68.66.77.77,0,0,1-.34-.08,5.6,5.6,0,0,0-2.71-.8c-1.22,0-2,.64-2,1.5v0c0,1,1.28,1.36,2.67,1.79,1.6.48,3.32,1.1,3.32,3v0c0,2-1.62,3.11-3.68,3.11A7.09,7.09,0,0,1,83.67,29.56Z"/><path class="cls-3" d="M97.73,30.91a5.15,5.15,0,0,1-5.16-5.39v0a5.1,5.1,0,0,1,5-5.39c3.07,0,4.81,2.5,4.81,5.25a.72.72,0,0,1-.72.72H94.13a3.61,3.61,0,0,0,3.64,3.5,4.23,4.23,0,0,0,3-1.2.66.66,0,0,1,1.12.48.66.66,0,0,1-.24.5A5.23,5.23,0,0,1,97.73,30.91Zm3.07-6c-.16-1.89-1.24-3.53-3.31-3.53-1.8,0-3.16,1.5-3.36,3.53Z"/><path class="cls-3" d="M109.66,21.67h-.84a.67.67,0,0,1-.67-.68.67.67,0,0,1,.67-.66h.84v-.9a3.66,3.66,0,0,1,.9-2.67,3,3,0,0,1,2.22-.8,5.38,5.38,0,0,1,1.23.12.69.69,0,0,1,.56.66.67.67,0,0,1-.75.66,5.37,5.37,0,0,0-.84-.1c-1.2,0-1.8.72-1.8,2.21v.84h2.68a.66.66,0,0,1,.69.66.67.67,0,0,1-.69.66H111.2V30a.77.77,0,0,1-.76.79.78.78,0,0,1-.78-.79Z"/><path class="cls-3" d="M115.43,21a.78.78,0,0,1,.76-.78A.77.77,0,0,1,117,21v1.94a4.28,4.28,0,0,1,3.57-2.76.74.74,0,0,1,.76.78.76.76,0,0,1-.68.78c-2,.24-3.65,1.74-3.65,4.73V30a.77.77,0,1,1-1.54,0Z"/><path class="cls-3" d="M121.9,25.54v0a5.4,5.4,0,0,1,10.8,0v0a5.39,5.39,0,0,1-5.43,5.41A5.31,5.31,0,0,1,121.9,25.54Zm9.22,0v0a3.92,3.92,0,0,0-3.85-4.05,3.83,3.83,0,0,0-3.79,4v0a3.89,3.89,0,0,0,3.83,4A3.82,3.82,0,0,0,131.12,25.54Z"/><path class="cls-3" d="M134.48,21a.78.78,0,0,1,.77-.78A.77.77,0,0,1,136,21v1.06a3.78,3.78,0,0,1,3.34-2,3.52,3.52,0,0,1,3.33,2.06,4.13,4.13,0,0,1,3.65-2.06c2.38,0,3.84,1.6,3.84,4.16V30a.77.77,0,1,1-1.54,0V24.62c0-2-1-3.13-2.69-3.13s-2.84,1.16-2.84,3.21V30a.77.77,0,1,1-1.54,0v-5.4c0-1.95-1-3.09-2.67-3.09A3,3,0,0,0,136,24.76V30a.75.75,0,0,1-.76.79.77.77,0,0,1-.79-.79Z"/><path class="cls-3" d="M157.19,23.69v0a7,7,0,0,1,7-7.25A7.49,7.49,0,0,1,169,17.9a.81.81,0,0,1-.46,1.45.83.83,0,0,1-.5-.2,5.93,5.93,0,0,0-3.89-1.29,5.48,5.48,0,0,0-5.33,5.75v0c0,3.35,2.14,5.83,5.55,5.83a6.65,6.65,0,0,0,4.05-1.4V24.6h-3.77a.72.72,0,0,1,0-1.43h4.51a.8.8,0,0,1,.78.8v4.27a1.13,1.13,0,0,1-.54,1,8.57,8.57,0,0,1-5.09,1.71A6.88,6.88,0,0,1,157.19,23.69Z"/><path class="cls-3" d="M171.47,27.66v0c0-2.18,1.81-3.34,4.43-3.34a11.05,11.05,0,0,1,3.19.44v-.36c0-1.87-1.15-2.83-3.09-2.83a6.46,6.46,0,0,0-2.68.58.79.79,0,0,1-.28.06.69.69,0,0,1-.69-.66.71.71,0,0,1,.43-.64,8.15,8.15,0,0,1,3.38-.7,4.56,4.56,0,0,1,3.35,1.14,4.08,4.08,0,0,1,1.06,3V30a.73.73,0,0,1-.74.77.71.71,0,0,1-.74-.73V29.1a4.56,4.56,0,0,1-3.75,1.79C173.42,30.89,171.47,29.79,171.47,27.66Zm7.64-.8v-1a10.86,10.86,0,0,0-3.05-.44c-1.94,0-3,.84-3,2.14v0c0,1.3,1.2,2.06,2.6,2.06C177.54,29.66,179.11,28.5,179.11,26.86Z"/><path class="cls-3" d="M183,16.72a.77.77,0,1,1,1.54,0V30a.75.75,0,0,1-.76.79A.77.77,0,0,1,183,30Z"/><path class="cls-3" d="M187.26,16.72a.78.78,0,1,1,1.55,0V30a.76.76,0,0,1-.77.79.77.77,0,0,1-.78-.79Z"/><path class="cls-3" d="M195.92,30.91a5.15,5.15,0,0,1-5.17-5.39v0a5.1,5.1,0,0,1,5-5.39c3.06,0,4.81,2.5,4.81,5.25a.72.72,0,0,1-.72.72h-7.5a3.61,3.61,0,0,0,3.65,3.5,4.23,4.23,0,0,0,3-1.2.67.67,0,0,1,1.13.48.66.66,0,0,1-.24.5A5.26,5.26,0,0,1,195.92,30.91Zm3.06-6c-.16-1.89-1.24-3.53-3.3-3.53-1.81,0-3.17,1.5-3.37,3.53Z"/><path class="cls-3" d="M202.25,21a.78.78,0,0,1,.76-.78.77.77,0,0,1,.78.78v1.94a4.29,4.29,0,0,1,3.57-2.76.74.74,0,0,1,.76.78.76.76,0,0,1-.68.78c-2,.24-3.65,1.74-3.65,4.73V30a.77.77,0,1,1-1.54,0Z"/><path class="cls-3" d="M209.16,33.63a.7.7,0,0,1-.48-.66.67.67,0,0,1,.67-.66,1.29,1.29,0,0,1,.38.08,3.18,3.18,0,0,0,1.12.18c1,0,1.52-.58,2.08-1.84l.08-.16-4.33-9.18a1.07,1.07,0,0,1-.1-.42.76.76,0,0,1,.78-.76.83.83,0,0,1,.79.6l3.6,8.13L217,20.79a.77.77,0,0,1,.74-.58.76.76,0,0,1,.76.76,1.29,1.29,0,0,1-.08.38l-4,9.66c-.9,2.14-1.9,2.92-3.46,2.92A5,5,0,0,1,209.16,33.63Z"/></svg>