<svg xmlns="http://www.w3.org/2000/svg" xmlns:xlink="http://www.w3.org/1999/xlink" viewBox="0 0 1323.66 876.62"><defs><style>.cls-1{isolation:isolate;}.cls-2,.cls-3{mix-blend-mode:multiply;}.cls-2{fill:url(#linear-gradient);}.cls-3{fill:url(#linear-gradient-2);}.cls-4{fill:#fff;}.cls-5{fill:url(#linear-gradient-3);}</style><linearGradient id="linear-gradient" x1="596.46" y1="731.18" x2="889.68" y2="437.96" gradientUnits="userSpaceOnUse"><stop offset="0.01" stop-color="#f6c4de"/><stop offset="1" stop-color="#9dceec"/></linearGradient><linearGradient id="linear-gradient-2" x1="777.62" y1="68.01" x2="187.25" y2="658.38" gradientUnits="userSpaceOnUse"><stop offset="0.01" stop-color="#00b2ee"/><stop offset="1" stop-color="#0058a8"/></linearGradient><linearGradient id="linear-gradient-3" x1="568.01" y1="423.31" x2="758.65" y2="423.31" xlink:href="#linear-gradient"/></defs><title>thank-you</title><g class="cls-1"><g id="Layer_1" data-name="Layer 1"><path class="cls-2" d="M522,423.33c0,211.15,171.14,382.29,382.3,382.29s382.36-171.14,382.36-382.29S1115.45,41,904.3,41,522,212.18,522,423.33Z"/><path class="cls-3" d="M40,423.33c0,211.15,171.14,382.29,382.29,382.29S804.66,634.48,804.66,423.33,633.44,41,422.29,41,40,212.18,40,423.33Z"/><path class="cls-4" d="M357.62,248.43h-17a8.15,8.15,0,1,1,0-16.3h51.67a8.15,8.15,0,0,1,0,16.3h-17v55.91a8.84,8.84,0,0,1-17.68,0Z"/><path class="cls-4" d="M407.55,240.28a8.85,8.85,0,0,1,17.69,0v23.65h32.6V240.28a8.84,8.84,0,1,1,17.68,0v64.06a8.84,8.84,0,1,1-17.68,0V280.23h-32.6v24.11a8.85,8.85,0,0,1-17.69,0Z"/><path class="cls-4" d="M484.59,301.13l28-63.26c1.95-4.36,5.51-7,10.33-7h1c4.82,0,8.26,2.64,10.21,7l28,63.26a8.65,8.65,0,0,1,.91,3.56,8.38,8.38,0,0,1-8.38,8.49c-4.13,0-6.89-2.41-8.49-6.08l-5.4-12.63H505.48l-5.62,13.2a8.69,8.69,0,0,1-8.16,5.51,8.13,8.13,0,0,1-8.15-8.26A9.26,9.26,0,0,1,484.59,301.13Zm49.71-22.28-11.14-26.52L512,278.85Z"/><path class="cls-4" d="M571.26,240.51a8.77,8.77,0,0,1,8.84-8.84h1.84c4.25,0,6.77,2.07,9.18,5.17l34.1,44.77V240.17a8.73,8.73,0,1,1,17.45,0v63.94a8.77,8.77,0,0,1-8.84,8.84h-.57c-4.25,0-6.78-2.06-9.19-5.16L588.71,261.4v43.06a8.73,8.73,0,0,1-17.45,0Z"/><path class="cls-4" d="M656.22,240.28a8.84,8.84,0,0,1,17.68,0v27l32.6-32.38c2.18-2.18,4.36-3.44,7.46-3.44a8,8,0,0,1,8.15,8.15,8.85,8.85,0,0,1-3.21,6.66l-22.62,21.12,24.69,31a9.45,9.45,0,0,1,2.41,6.2c0,4.94-3.79,8.61-9,8.61-3.44,0-5.51-1.72-7.46-4.25l-23-30.08-10.1,9.42v16.07a8.84,8.84,0,0,1-17.68,0Z"/><path class="cls-4" d="M781.92,281.5,756,246.25a10.42,10.42,0,0,1-2.18-6.31,8.63,8.63,0,0,1,8.84-8.5c4,0,6.54,2.18,8.72,5.4L790.88,265l19.86-28.35c2.18-3.22,4.82-5.28,8.5-5.28,5.39,0,8.61,3.78,8.61,8.61a11,11,0,0,1-2.3,6.2l-25.95,35v23.19a8.84,8.84,0,0,1-17.68,0Z"/><path class="cls-4" d="M830.6,272.54v-.23c0-22.85,18-41.56,42.82-41.56S916,249.24,916,272.08v.23c0,22.85-18,41.56-42.82,41.56S830.6,295.39,830.6,272.54Zm66.93,0v-.23c0-13.78-10.1-25.26-24.34-25.26s-24.11,11.25-24.11,25v.23c0,13.78,10.1,25.26,24.34,25.26S897.53,286.32,897.53,272.54Z"/><path class="cls-4" d="M924.74,278.05V240.28a8.84,8.84,0,1,1,17.68,0v37.31c0,13.09,6.54,19.86,17.33,19.86s17.34-6.54,17.34-19.28V240.28a8.84,8.84,0,0,1,17.68,0v37.2c0,24.34-13.67,36.28-35.25,36.28S924.74,301.7,924.74,278.05Z"/><path class="cls-4" d="M256.7,550.41a2.82,2.82,0,1,1,5.63,0v44.91a2.82,2.82,0,1,1-5.63,0Z"/><path class="cls-4" d="M272.45,563.39a2.77,2.77,0,0,1,2.71-2.78,2.74,2.74,0,0,1,2.78,2.78v3.78c2.43-3.64,5.7-7,11.91-7a12.52,12.52,0,0,1,11.83,7.34c2.64-4.06,6.56-7.34,13-7.34,8.48,0,13.68,5.7,13.68,14.83V595.4a2.75,2.75,0,1,1-5.49,0V576.29c0-7.13-3.56-11.12-9.55-11.12-5.56,0-10.12,4.13-10.12,11.41V595.4a2.75,2.75,0,1,1-5.49,0V576.15c0-6.92-3.64-11-9.48-11s-10.27,4.85-10.27,11.62V595.4a2.68,2.68,0,0,1-2.71,2.77,2.73,2.73,0,0,1-2.78-2.77Z"/><path class="cls-4" d="M333.9,587.13V587c0-7.77,6.41-11.9,15.75-11.9A39,39,0,0,1,361,576.65v-1.29c0-6.63-4.07-10.05-11-10.05a23,23,0,0,0-9.55,2.07,2.89,2.89,0,0,1-1,.21,2.44,2.44,0,0,1-2.43-2.35,2.51,2.51,0,0,1,1.5-2.28,29,29,0,0,1,12.05-2.5c5.2,0,9.2,1.36,11.9,4.07,2.5,2.49,3.78,6.06,3.78,10.76v20.18a2.6,2.6,0,0,1-2.63,2.7,2.53,2.53,0,0,1-2.64-2.56v-3.35a16.16,16.16,0,0,1-13.33,6.34C340.81,598.6,333.9,594.68,333.9,587.13Zm27.16-2.86v-3.56a38.27,38.27,0,0,0-10.84-1.57c-6.91,0-10.76,3-10.76,7.63v.14c0,4.64,4.28,7.34,9.27,7.34C355.5,594.25,361.06,590.12,361.06,584.27Z"/><path class="cls-4" d="M375.31,605a2.54,2.54,0,0,1-1.42-2.28,2.62,2.62,0,0,1,2.49-2.43,2.22,2.22,0,0,1,1.21.36,23.25,23.25,0,0,0,13.05,4c8.13,0,13.4-4.49,13.4-13.11V587.2c-3.2,4.27-7.7,7.77-14.47,7.77-8.84,0-17.32-6.63-17.32-17.25v-.15a17.45,17.45,0,0,1,31.72-10v-4.2a2.72,2.72,0,0,1,2.71-2.78,2.78,2.78,0,0,1,2.78,2.78v28c0,5.71-1.71,10.05-4.7,13.05-3.28,3.28-8.2,4.92-14.05,4.92A28.9,28.9,0,0,1,375.31,605Zm28.88-27.38v-.14c0-7.56-6.56-12.47-13.55-12.47s-12.76,4.84-12.76,12.4v.14a12.48,12.48,0,0,0,12.76,12.55C397.63,590.12,404.19,585.06,404.19,577.64Z"/><path class="cls-4" d="M434.27,598.67c-10.13,0-18.4-7.77-18.4-19.17v-.15c0-10.62,7.49-19.17,17.68-19.17,10.91,0,17.11,8.91,17.11,18.68a2.55,2.55,0,0,1-2.56,2.56H421.43c.79,8,6.42,12.48,13,12.48A15,15,0,0,0,445,589.62a2.37,2.37,0,0,1,4,1.71,2.36,2.36,0,0,1-.85,1.78A18.75,18.75,0,0,1,434.27,598.67Zm10.9-21.31c-.57-6.7-4.42-12.55-11.76-12.55-6.42,0-11.26,5.35-12,12.55Z"/><path class="cls-4" d="M473.75,591.83a2.53,2.53,0,0,1-1.06-2.14,2.72,2.72,0,0,1,2.7-2.78,2.54,2.54,0,0,1,1.72.64,22.65,22.65,0,0,0,15.75,5.92c6.7,0,11.12-3.56,11.12-8.48v-.15c0-4.63-2.49-7.27-13-9.48-11.48-2.49-16.76-6.2-16.76-14.4v-.14c0-7.84,6.92-13.62,16.4-13.62a25.45,25.45,0,0,1,15.9,4.92,2.9,2.9,0,0,1,1.21,2.28,2.71,2.71,0,0,1-2.71,2.71,2.62,2.62,0,0,1-1.64-.5,20.89,20.89,0,0,0-12.9-4.35c-6.49,0-10.62,3.57-10.62,8.06v.14c0,4.71,2.56,7.35,13.54,9.7s16.25,6.49,16.25,14.11v.15c0,8.55-7.12,14.11-17,14.11A29.2,29.2,0,0,1,473.75,591.83Z"/><path class="cls-4" d="M513.89,587.13V587c0-7.77,6.41-11.9,15.75-11.9A39,39,0,0,1,541,576.65v-1.29c0-6.63-4.07-10.05-11-10.05a23,23,0,0,0-9.55,2.07,2.89,2.89,0,0,1-1,.21,2.44,2.44,0,0,1-2.43-2.35,2.51,2.51,0,0,1,1.5-2.28,29,29,0,0,1,12.05-2.5c5.2,0,9.2,1.36,11.9,4.07,2.5,2.49,3.78,6.06,3.78,10.76v20.18a2.6,2.6,0,0,1-2.63,2.7,2.53,2.53,0,0,1-2.64-2.56v-3.35a16.16,16.16,0,0,1-13.33,6.34C520.8,598.6,513.89,594.68,513.89,587.13Zm27.16-2.86v-3.56a38.27,38.27,0,0,0-10.84-1.57c-6.91,0-10.76,3-10.76,7.63v.14c0,4.64,4.28,7.34,9.27,7.34C535.49,594.25,541.05,590.12,541.05,584.27Z"/><path class="cls-4" d="M569.2,598.39h-.28a3.41,3.41,0,0,1-3.14-2.35L552,564.81a5.85,5.85,0,0,1-.35-1.49,2.82,2.82,0,0,1,5.56-.57l11.9,28.8,12.12-28.95a2.62,2.62,0,0,1,2.57-2,2.71,2.71,0,0,1,2.71,2.71,3.89,3.89,0,0,1-.29,1.35L572.27,596C571.63,597.46,570.7,598.39,569.2,598.39Z"/><path class="cls-4" d="M608.55,598.67c-10.12,0-18.39-7.77-18.39-19.17v-.15c0-10.62,7.49-19.17,17.68-19.17,10.91,0,17.11,8.91,17.11,18.68a2.55,2.55,0,0,1-2.57,2.56H595.72c.79,8,6.42,12.48,13,12.48a15,15,0,0,0,10.62-4.28,2.37,2.37,0,0,1,4,1.71,2.36,2.36,0,0,1-.85,1.78A18.76,18.76,0,0,1,608.55,598.67Zm10.91-21.31c-.57-6.7-4.42-12.55-11.76-12.55-6.42,0-11.27,5.35-12,12.55Z"/><path class="cls-4" d="M666.15,595.4a2.75,2.75,0,1,1-5.49,0v-5c-3,4.42-7.34,8.19-14.11,8.19-8.84,0-17.61-7-17.61-19.1v-.15c0-12,8.77-19.17,17.61-19.17,6.84,0,11.26,3.71,14.11,7.84V548.2a2.68,2.68,0,0,1,2.71-2.78,2.74,2.74,0,0,1,2.78,2.78Zm-31.58-16.12v.15c0,8.69,6.06,14.25,13,14.25s13.33-5.77,13.33-14.25v-.15c0-8.48-6.49-14.18-13.33-14.18C640.42,565.1,634.57,570.37,634.57,579.28Z"/><path class="cls-4" d="M691.81,591.83a2.54,2.54,0,0,1-1.07-2.14,2.72,2.72,0,0,1,2.71-2.78,2.53,2.53,0,0,1,1.71.64,22.67,22.67,0,0,0,15.76,5.92c6.7,0,11.12-3.56,11.12-8.48v-.15c0-4.63-2.5-7.27-13-9.48-11.48-2.49-16.75-6.2-16.75-14.4v-.14c0-7.84,6.91-13.62,16.4-13.62a25.44,25.44,0,0,1,15.89,4.92,2.9,2.9,0,0,1,1.21,2.28,2.7,2.7,0,0,1-2.7,2.71,2.58,2.58,0,0,1-1.64-.5,20.92,20.92,0,0,0-12.91-4.35c-6.48,0-10.62,3.57-10.62,8.06v.14c0,4.71,2.57,7.35,13.55,9.7s16.25,6.49,16.25,14.11v.15c0,8.55-7.13,14.11-17,14.11A29.15,29.15,0,0,1,691.81,591.83Z"/><path class="cls-4" d="M766.3,595.4a2.71,2.71,0,1,1-5.41,0v-4c-2.5,4-6.28,7.2-12.62,7.2-8.91,0-14.12-6-14.12-14.75V563.39a2.68,2.68,0,0,1,2.71-2.78,2.78,2.78,0,0,1,2.78,2.78v19.1c0,6.84,3.71,11.12,10.2,11.12,6.27,0,11-4.63,11-11.55V563.39a2.68,2.68,0,0,1,2.7-2.78,2.72,2.72,0,0,1,2.71,2.78Z"/><path class="cls-4" d="M772.79,579.57v-.14a19.16,19.16,0,0,1,32.43-13.91,2.58,2.58,0,0,1,.86,1.93,2.63,2.63,0,0,1-2.64,2.64,2.88,2.88,0,0,1-1.78-.64C799,567,796,565,791.61,565c-7.49,0-13.19,6.34-13.19,14.25v.15c0,8,5.85,14.32,13.54,14.32a14.72,14.72,0,0,0,10.27-4.49,2.21,2.21,0,0,1,1.57-.71,2.57,2.57,0,0,1,2.49,2.5,2.48,2.48,0,0,1-.71,1.71,18.55,18.55,0,0,1-13.9,5.91A18.92,18.92,0,0,1,772.79,579.57Z"/><path class="cls-4" d="M809.93,579.57v-.14a19.16,19.16,0,0,1,32.43-13.91,2.58,2.58,0,0,1,.86,1.93,2.63,2.63,0,0,1-2.64,2.64,2.88,2.88,0,0,1-1.78-.64c-2.64-2.43-5.63-4.42-10-4.42-7.49,0-13.19,6.34-13.19,14.25v.15c0,8,5.84,14.32,13.54,14.32a14.72,14.72,0,0,0,10.27-4.49,2.19,2.19,0,0,1,1.57-.71,2.57,2.57,0,0,1,2.49,2.5,2.48,2.48,0,0,1-.71,1.71,18.55,18.55,0,0,1-13.9,5.91A18.91,18.91,0,0,1,809.93,579.57Z"/><path class="cls-4" d="M865.46,598.67c-10.12,0-18.39-7.77-18.39-19.17v-.15c0-10.62,7.48-19.17,17.68-19.17,10.9,0,17.1,8.91,17.1,18.68a2.55,2.55,0,0,1-2.56,2.56H852.63c.78,8,6.41,12.48,13,12.48a15,15,0,0,0,10.62-4.28,2.37,2.37,0,0,1,4,1.71,2.36,2.36,0,0,1-.85,1.78A18.74,18.74,0,0,1,865.46,598.67Zm10.91-21.31c-.58-6.7-4.42-12.55-11.77-12.55-6.41,0-11.26,5.35-12,12.55Z"/><path class="cls-4" d="M886,593.9a2.49,2.49,0,0,1-1-2,2.39,2.39,0,0,1,2.42-2.35,2.19,2.19,0,0,1,1.36.43,20.74,20.74,0,0,0,11.69,3.92c4.42,0,7.63-2.28,7.63-5.85v-.14c0-3.71-4.35-5.13-9.2-6.49-5.77-1.64-12.19-3.63-12.19-10.41v-.14c0-6.34,5.27-10.55,12.55-10.55A25.63,25.63,0,0,1,911,563.46a2.67,2.67,0,0,1,1.35,2.28,2.39,2.39,0,0,1-2.42,2.35,2.77,2.77,0,0,1-1.21-.28A19.9,19.9,0,0,0,899.1,565c-4.35,0-7.13,2.29-7.13,5.35v.14c0,3.5,4.57,4.85,9.49,6.35,5.7,1.71,11.83,3.92,11.83,10.55v.14c0,7-5.77,11-13.12,11A25.5,25.5,0,0,1,886,593.9Z"/><path class="cls-4" d="M917.92,593.9a2.49,2.49,0,0,1-1-2,2.39,2.39,0,0,1,2.43-2.35,2.16,2.16,0,0,1,1.35.43,20.76,20.76,0,0,0,11.69,3.92c4.42,0,7.63-2.28,7.63-5.85v-.14c0-3.71-4.35-5.13-9.2-6.49-5.77-1.64-12.19-3.63-12.19-10.41v-.14c0-6.34,5.28-10.55,12.55-10.55a25.59,25.59,0,0,1,11.76,3.14,2.65,2.65,0,0,1,1.36,2.28,2.39,2.39,0,0,1-2.43,2.35,2.84,2.84,0,0,1-1.21-.28A19.86,19.86,0,0,0,931,565c-4.35,0-7.13,2.29-7.13,5.35v.14c0,3.5,4.56,4.85,9.48,6.35,5.7,1.71,11.83,3.92,11.83,10.55v.14c0,7-5.77,11-13.11,11A25.51,25.51,0,0,1,917.92,593.9Z"/><path class="cls-4" d="M953.92,565.81h-3a2.34,2.34,0,0,1-2.35-2.42,2.38,2.38,0,0,1,2.35-2.36h3v-3.2c0-4.21,1.14-7.42,3.21-9.49a10.85,10.85,0,0,1,7.91-2.85,18.93,18.93,0,0,1,4.35.43,2.43,2.43,0,0,1,2,2.35,2.36,2.36,0,0,1-2.63,2.36,18.39,18.39,0,0,0-3-.36c-4.27,0-6.41,2.56-6.41,7.84v3h9.55a2.35,2.35,0,0,1,2.42,2.36,2.39,2.39,0,0,1-2.42,2.35h-9.48V595.4a2.72,2.72,0,0,1-2.71,2.77,2.78,2.78,0,0,1-2.78-2.77Z"/><path class="cls-4" d="M1006,595.4a2.71,2.71,0,1,1-5.42,0v-4c-2.49,4-6.27,7.2-12.62,7.2-8.91,0-14.11-6-14.11-14.75V563.39a2.68,2.68,0,0,1,2.71-2.78,2.79,2.79,0,0,1,2.78,2.78v19.1c0,6.84,3.7,11.12,10.19,11.12,6.27,0,11.05-4.63,11.05-11.55V563.39a2.68,2.68,0,0,1,2.71-2.78,2.72,2.72,0,0,1,2.71,2.78Z"/><path class="cls-4" d="M1015.29,548.2a2.75,2.75,0,1,1,5.49,0v47.2a2.68,2.68,0,0,1-2.71,2.77,2.73,2.73,0,0,1-2.78-2.77Z"/><path class="cls-4" d="M1030.48,548.2a2.74,2.74,0,1,1,5.48,0v47.2a2.67,2.67,0,0,1-2.7,2.77,2.73,2.73,0,0,1-2.78-2.77Z"/><path class="cls-4" d="M1044.45,608.37a2.5,2.5,0,0,1-1.71-2.35,2.37,2.37,0,0,1,2.35-2.35,4.21,4.21,0,0,1,1.35.28,11.26,11.26,0,0,0,4,.64c3.43,0,5.42-2.07,7.42-6.56l.28-.57-15.39-32.65a3.74,3.74,0,0,1-.36-1.49,2.72,2.72,0,0,1,2.78-2.71,2.9,2.9,0,0,1,2.78,2.14l12.83,28.94,11.41-29a2.75,2.75,0,0,1,2.64-2.06,2.7,2.7,0,0,1,2.7,2.71,4.72,4.72,0,0,1-.28,1.35L1062.84,599c-3.21,7.63-6.77,10.41-12.33,10.41A17.35,17.35,0,0,1,1044.45,608.37Z"/><path class="cls-5" d="M627.33,496.73a15.52,15.52,0,0,1-11-4.55l-43.79-43.79a15.53,15.53,0,1,1,22-22l32.81,32.81,104.81-104.8a15.53,15.53,0,1,1,22,22L638.32,492.18A15.53,15.53,0,0,1,627.33,496.73Z"/></g></g></svg>