<svg xmlns="http://www.w3.org/2000/svg" xmlns:xlink="http://www.w3.org/1999/xlink" viewBox="0 0 958 276"><defs><style>.cls-1,.cls-25{fill:none;}.cls-2{isolation:isolate;}.cls-3{clip-path:url(#clip-path);}.cls-4{fill:url(#linear-gradient);}.cls-5{clip-path:url(#clip-path-2);}.cls-6{fill:url(#linear-gradient-2);}.cls-7{clip-path:url(#clip-path-3);}.cls-8{fill:url(#linear-gradient-3);}.cls-9{opacity:0.7;}.cls-17,.cls-9{mix-blend-mode:multiply;}.cls-10{clip-path:url(#clip-path-4);}.cls-11{fill:#ffa000;}.cls-12{mix-blend-mode:overlay;}.cls-13{clip-path:url(#clip-path-5);}.cls-14{fill:#ffeea3;}.cls-15{clip-path:url(#clip-path-6);}.cls-16{clip-path:url(#clip-path-7);}.cls-18{clip-path:url(#clip-path-8);}.cls-19{clip-path:url(#clip-path-9);}.cls-20{clip-path:url(#clip-path-10);}.cls-21{clip-path:url(#clip-path-11);}.cls-22{fill:url(#linear-gradient-4);}.cls-23{clip-path:url(#clip-path-12);}.cls-24{fill:url(#linear-gradient-5);}.cls-25{stroke:#333;stroke-linejoin:round;stroke-width:0.11px;}.cls-26{clip-path:url(#clip-path-13);}.cls-27{fill:url(#linear-gradient-6);}.cls-28{clip-path:url(#clip-path-14);}.cls-29{fill:url(#linear-gradient-7);}.cls-30{clip-path:url(#clip-path-15);}.cls-31{fill:url(#linear-gradient-8);}.cls-32{clip-path:url(#clip-path-16);}.cls-33{fill:url(#linear-gradient-9);}.cls-34{clip-path:url(#clip-path-17);}.cls-35{fill:url(#linear-gradient-10);}.cls-36{clip-path:url(#clip-path-18);}.cls-37{fill:url(#linear-gradient-11);}.cls-38{clip-path:url(#clip-path-19);}.cls-39{fill:url(#linear-gradient-12);}.cls-40{clip-path:url(#clip-path-20);}.cls-41{fill:url(#linear-gradient-13);}.cls-42{clip-path:url(#clip-path-21);}.cls-43{fill:url(#linear-gradient-14);}.cls-44{clip-path:url(#clip-path-22);}.cls-45{fill:url(#linear-gradient-15);}.cls-46{clip-path:url(#clip-path-23);}.cls-47{fill:url(#linear-gradient-16);}.cls-48{clip-path:url(#clip-path-24);}.cls-49{fill:url(#linear-gradient-17);}.cls-50{clip-path:url(#clip-path-25);}.cls-51{fill:url(#linear-gradient-18);}.cls-52{clip-path:url(#clip-path-26);}.cls-53{fill:url(#linear-gradient-19);}.cls-54{clip-path:url(#clip-path-27);}.cls-55{fill:url(#linear-gradient-20);}.cls-56{clip-path:url(#clip-path-28);}.cls-57{fill:url(#linear-gradient-21);}.cls-58{clip-path:url(#clip-path-29);}.cls-59{fill:url(#linear-gradient-22);}.cls-60{clip-path:url(#clip-path-30);}.cls-61{fill:url(#linear-gradient-23);}.cls-62{clip-path:url(#clip-path-31);}.cls-63{fill:url(#linear-gradient-24);}.cls-64{clip-path:url(#clip-path-32);}.cls-65{fill:url(#linear-gradient-25);}.cls-66{clip-path:url(#clip-path-33);}.cls-67{fill:url(#linear-gradient-26);}.cls-68{clip-path:url(#clip-path-34);}.cls-69{fill:url(#linear-gradient-27);}</style><clipPath id="clip-path"><polygon class="cls-1" points="15.87 61.72 69.56 184.98 193.57 199.37 134.59 61.72 15.87 61.72"/></clipPath><linearGradient id="linear-gradient" x1="-300.19" y1="1590.63" x2="-299.19" y2="1590.63" gradientTransform="matrix(936.69, 0, 0, -936.69, 281191.76, 1490067.51)" gradientUnits="userSpaceOnUse"><stop offset="0" stop-color="#ffd83d"/><stop offset="0.14" stop-color="#ff9c04"/><stop offset="0.88" stop-color="#ff9c04"/><stop offset="1" stop-color="#ffd83d"/></linearGradient><clipPath id="clip-path-2"><polygon class="cls-1" points="825.87 61.72 766.88 199.37 890.9 184.98 944.59 61.72 825.87 61.72"/></clipPath><linearGradient id="linear-gradient-2" x1="-300.19" y1="1590.63" x2="-299.19" y2="1590.63" gradientTransform="matrix(936.69, 0, 0, -936.69, 281191.8, 1490067.7)" xlink:href="#linear-gradient"/><clipPath id="clip-path-3"><path class="cls-1" d="M480.23,54.67C213.46,54.45,111,34,111,34l58.89,180.76c135,58.69,283.3,54.88,310.37,53.62,27.07,1.26,175.38,5.07,310.37-53.62L849.49,34S747,54.45,480.23,54.67"/></clipPath><linearGradient id="linear-gradient-3" x1="-300.24" y1="1590.8" x2="-299.24" y2="1590.8" gradientTransform="matrix(738.52, 0, 0, -738.52, 221846.8, 1174991.35)" gradientUnits="userSpaceOnUse"><stop offset="0" stop-color="#ffd83d"/><stop offset="0.34" stop-color="#ff8d0d"/><stop offset="0.62" stop-color="#ff9c04"/><stop offset="0.8" stop-color="#ffe138"/><stop offset="1" stop-color="#ff9c04"/></linearGradient><clipPath id="clip-path-4"><rect class="cls-1" x="110.96" y="33.98" width="738.54" height="234.95"/></clipPath><clipPath id="clip-path-5"><rect class="cls-1" x="110.96" y="33.98" width="738.54" height="41.86"/></clipPath><clipPath id="clip-path-6"><rect class="cls-1" x="15.87" y="61.72" width="108.16" height="12.35"/></clipPath><clipPath id="clip-path-7"><rect class="cls-1" x="836.43" y="61.72" width="108.16" height="12.35"/></clipPath><clipPath id="clip-path-8"><rect class="cls-1" x="796.74" y="61.72" width="147.85" height="134.19"/></clipPath><clipPath id="clip-path-9"><rect class="cls-1" x="118.09" y="61.72" width="45.63" height="134.19"/></clipPath><clipPath id="clip-path-10"><rect class="cls-1" x="796.74" y="61.72" width="45.63" height="134.19"/></clipPath><clipPath id="clip-path-11"><path class="cls-1" d="M646.92,209.89l7.34-16.76a3.66,3.66,0,0,1,6.91.43l5.2,17.14ZM637,96a95.38,95.38,0,0,0-12.47,1.42c-1,.28-1.54.75-1.67,1.43L580.68,250.24q-.63,2.65,2.1,2.65,6.08.41,14.15.61t18.55.21q6.91,0,13.73-.21c4.54-.13,8.14-.34,10.79-.61,1,0,1.71-1.63,2.21-4.89s.94-6.11,1.36-8.56l.84-4.89,21,1q.63,4.49,1.36,9.58a58.14,58.14,0,0,1,.73,7.33,1.83,1.83,0,0,0,2.1,2l53.87,1.63c1.82,0,2.52-.81,2.1-2.44L692.62,99.42a1.83,1.83,0,0,0-2.1-2q-7.12-.41-17.19-1.12t-22-.71q-7.12,0-14.36.41"/></clipPath><linearGradient id="linear-gradient-4" x1="-301.24" y1="1594.09" x2="-300.24" y2="1594.09" gradientTransform="matrix(145.08, 0, 0, -145.08, 44284.78, 231448.21)" gradientUnits="userSpaceOnUse"><stop offset="0" stop-color="#053166"/><stop offset="0.52" stop-color="#0531bb"/><stop offset="1" stop-color="#053166"/></linearGradient><clipPath id="clip-path-12"><path class="cls-1" d="M636,201.24l7.35-16.76a3.66,3.66,0,0,1,6.91.44l5.19,17.14ZM626.11,87.3a93.68,93.68,0,0,0-12.47,1.42c-1,.28-1.54.75-1.68,1.43L569.75,241.56c-.42,1.76.28,2.65,2.1,2.65q6.07.4,14.15.62t18.55.21q6.91,0,13.73-.2c4.54-.13,8.14-.34,10.79-.6,1,0,1.71-1.63,2.21-4.89s.94-6.12,1.36-8.56.7-4.08.85-4.9l21,1c.41,3,.87,6.19,1.35,9.59a58.14,58.14,0,0,1,.73,7.33,1.83,1.83,0,0,0,2.1,2l53.87,1.66c1.82,0,2.52-.82,2.1-2.45L681.76,90.79a1.83,1.83,0,0,0-2.09-2q-7.14-.41-17.19-1.13t-22-.72h-.09q-7.1,0-14.27.4"/></clipPath><linearGradient id="linear-gradient-5" x1="-296.31" y1="1591.12" x2="-295.31" y2="1591.12" gradientTransform="matrix(0.08, -160.6, -160.6, -0.08, 256204.12, -47212.82)" gradientUnits="userSpaceOnUse"><stop offset="0" stop-color="#e6e6e6"/><stop offset="0.22" stop-color="#f1f1f1"/><stop offset="0.59" stop-color="#fbfbfb"/><stop offset="1" stop-color="#fff"/></linearGradient><clipPath id="clip-path-13"><path class="cls-1" d="M381.89,100.22q-33.54,0-55.65,1.12t-22.33,4.59q0,6.52,1.37,32.81t4.08,63q2.73,36.69,5.46,55.23a2.13,2.13,0,0,0,2.3,1.83q7.75,0,22.85.21t22.64.2q13.41,0,23.79-.51T407.26,257c1.25-.27,1.88-1,1.88-2L410,234.6a1.83,1.83,0,0,0-2.09-2l-24.5.24V217.51c4.61,0,2.59-.41,9.09-.75s14.3-.67,15.76-1,2.34-1,2.63-1.94L412.5,191c.41-1.63-.28-2.44-2.1-2.44q-6.91,0-19.7-.82c-8.53-.54-5.91-.58-7.31-.58v-12l27,1a2,2,0,0,0,2.1-1.64c1.26-6.52,2.58-26.08,4-45.51q.63-9.59,1.68-26.7,0-2-1.89-2Z"/></clipPath><linearGradient id="linear-gradient-6" x1="-301.57" y1="1595.19" x2="-300.57" y2="1595.19" gradientTransform="matrix(114.24, 0, 0, -114.24, 34756.39, 182417.82)" xlink:href="#linear-gradient-4"/><clipPath id="clip-path-14"><path class="cls-1" d="M315.38,93.14q-22.11,1.11-22.32,4.58,0,6.52,1.34,32.81t4.06,63q2.71,36.69,5.43,55.24a2.13,2.13,0,0,0,2.3,1.83q7.76,0,22.85.21t22.64.22q13.41,0,23.79-.5t20.86-1.72c1.25-.27,1.89-.95,1.89-2l.84-20.31a1.82,1.82,0,0,0-2.09-2l-24.49.23V209.34c4.61,0,2.59-.41,9.09-.74s14.3-.67,15.77-1,2.33-1,2.62-1.94l1.64-22.83c.42-1.63-.28-2.44-2.09-2.44q-6.93,0-19.71-.83c-8.52-.54-5.91-.58-7.3-.58V167l27,1a2,2,0,0,0,2.1-1.64c1.26-6.52,2.59-26.08,4-45.51q.64-9.57,1.69-26.7c0-1.36-.63-2-1.88-2H369.93q-32.79,0-54.55,1.09"/></clipPath><linearGradient id="linear-gradient-7" x1="-296.27" y1="1591.13" x2="-295.27" y2="1591.13" gradientTransform="matrix(0.08, -158.97, -158.97, -0.08, 253319.68, -46721.53)" xlink:href="#linear-gradient-5"/><clipPath id="clip-path-15"><path class="cls-1" d="M566.71,100.22q-33.54,0-55.66,1.12t-22.32,4.59q0,6.52,1.36,32.81t4.09,63q2.73,36.69,5.45,55.23a2.14,2.14,0,0,0,2.31,1.83q7.74,0,22.85.21t22.63.2q13.41,0,23.79-.51T592.07,257c1.26-.27,1.89-1,1.89-2l.84-20.31a1.83,1.83,0,0,0-2.1-2l-24.49.24V217.51c4.61,0,2.58-.41,9.08-.75s14.3-.67,15.77-1,2.34-1,2.62-1.94L597.31,191c.42-1.63-.28-2.44-2.09-2.44q-6.93,0-19.71-.82c-8.52-.54-5.91-.58-7.3-.58v-12l27,1a2,2,0,0,0,2.09-1.64c1.26-6.52,2.59-26.08,4-45.51q.63-9.59,1.67-26.7c0-1.36-.63-2-1.88-2Z"/></clipPath><linearGradient id="linear-gradient-8" x1="-301.57" y1="1595.19" x2="-300.57" y2="1595.19" gradientTransform="matrix(114.24, 0, 0, -114.24, 34941.21, 182417.82)" xlink:href="#linear-gradient-4"/><clipPath id="clip-path-16"><path class="cls-1" d="M500.2,93.14q-22.11,1.11-22.33,4.58,0,6.52,1.35,32.81t4.06,63q2.7,36.69,5.42,55.24a2.14,2.14,0,0,0,2.31,1.83q7.75,0,22.85.21t22.63.22q13.43,0,23.79-.5t20.86-1.72q1.89-.4,1.89-2l.85-20.31a1.83,1.83,0,0,0-2.1-2l-24.49.23V209.34c4.61,0,2.59-.41,9.08-.74s14.31-.67,15.77-1,2.34-1,2.62-1.94l1.64-22.83c.42-1.63-.28-2.44-2.09-2.44q-6.92,0-19.7-.83c-8.53-.54-5.91-.58-7.31-.58V167l27,1a2,2,0,0,0,2.09-1.64c1.27-6.52,2.6-26.08,4-45.51q.63-9.57,1.69-26.7,0-2-1.89-2H554.75q-32.81,0-54.55,1.09"/></clipPath><linearGradient id="linear-gradient-9" x1="-296.27" y1="1591.13" x2="-295.27" y2="1591.13" gradientTransform="matrix(0.08, -158.97, -158.97, -0.08, 253504.5, -46721.53)" xlink:href="#linear-gradient-5"/><clipPath id="clip-path-17"><path class="cls-1" d="M736,92.55q-28,2-28.41,5.51,0,6.52,1.37,32.91t4.09,63q2.72,36.59,5.44,55.13a2.14,2.14,0,0,0,2.3,1.83q7.76,0,22.86.21t22.63.2c9,0,11.45-.17,18.36-.51s13.87-.91,20.86-1.73q1.89-.41,1.89-2l.84-26.9a1.83,1.83,0,0,0-2.1-2H774.06l5.43-125.55a1.83,1.83,0,0,0-2.1-2q-13.41,0-41.39,2"/></clipPath><linearGradient id="linear-gradient-10" x1="-301.79" y1="1595.89" x2="-300.79" y2="1595.89" gradientTransform="matrix(100.63, 0, 0, -100.63, 31077.79, 160772.97)" xlink:href="#linear-gradient-4"/><clipPath id="clip-path-18"><path class="cls-1" d="M725.14,85.14q-28,2-28.4,5.49,0,6.53,1.35,32.91t4,63q2.7,36.58,5.42,55.14a2.14,2.14,0,0,0,2.31,1.83q7.74,0,22.85.21t22.63.22c8.95,0,11.45-.17,18.36-.5s13.88-.91,20.86-1.72c1.26-.27,1.89-1,1.89-2l.86-26.9a1.84,1.84,0,0,0-2.11-2l-32.06,0,5.49-125.54a1.83,1.83,0,0,0-2.1-2h-.11q-13.42,0-41.29,2"/></clipPath><linearGradient id="linear-gradient-11" x1="-296.31" y1="1591.12" x2="-295.31" y2="1591.12" gradientTransform="matrix(0.08, -160.81, -160.81, -0.08, 256638.24, -47278.37)" xlink:href="#linear-gradient-5"/><clipPath id="clip-path-19"><path class="cls-1" d="M257,175.27c34.22,3.75,17.85,23.16,13.66,26.55q-7.77,6.12-15.1,6.12ZM209.9,93.91a262.51,262.51,0,0,0-26.41,6,2.24,2.24,0,0,0-1.47,2.24q1.26,18.14,2.51,36.07,3.15,44.24,5.24,69.71,3.36,39.12,4.82,45.24a2,2,0,0,0,2.1,1.63l15.62.41q8.07.19,16.45.2,9,0,15-.51a55.87,55.87,0,0,0,10.37-1.73c1-.13,1.47-.81,1.47-2V235.86L302.46,259a2.17,2.17,0,0,0,2.31.61l13.31-13.86q2.51-1,1.05-3.06l-22.24-28.79a150.79,150.79,0,0,0,16.55-15.69q12.38-13.66,15.1-24.87a70.49,70.49,0,0,0,1.89-15.49,51.34,51.34,0,0,0-13-34.85Q305.27,109.09,282,100.12a142.15,142.15,0,0,0-23.58-6.62,128.73,128.73,0,0,0-22.74-1.94,149,149,0,0,0-25.78,2.35"/></clipPath><linearGradient id="linear-gradient-12" x1="-301.21" y1="1593.99" x2="-300.21" y2="1593.99" gradientTransform="matrix(148.41, 0, 0, -148.41, 44884.8, 236740.32)" xlink:href="#linear-gradient-4"/><clipPath id="clip-path-20"><path class="cls-1" d="M246.14,168.58c34.22,3.77,17.83,23.17,13.64,26.56q-7.75,6.11-15.1,6.11ZM199.05,87.19a265.44,265.44,0,0,0-26.42,6,2.24,2.24,0,0,0-1.47,2.24q1.25,18.15,2.5,36.08,3.14,44.24,5.21,69.7,3.33,39.14,4.8,45.25a2,2,0,0,0,2.09,1.63l15.61.42c5.39.13,10.87.21,16.46.21q9,0,15-.5a58,58,0,0,0,10.38-1.73c1-.14,1.46-.82,1.47-2V229.17l46.86,23.11a2.17,2.17,0,0,0,2.31.61L307.15,239q2.52-1,1.05-3.06L286,207.18a150.22,150.22,0,0,0,16.57-15.69q12.38-13.65,15.11-24.86a71.15,71.15,0,0,0,1.9-15.49,51.37,51.37,0,0,0-13-34.85q-12.17-13.87-35.42-22.85a141.29,141.29,0,0,0-23.58-6.63,127.77,127.77,0,0,0-22.74-2h-.09a149.92,149.92,0,0,0-25.69,2.33"/></clipPath><linearGradient id="linear-gradient-13" x1="-296.47" y1="1591.07" x2="-295.47" y2="1591.07" gradientTransform="matrix(0.08, -168.11, -168.11, -0.08, 267751.17, -49454.73)" xlink:href="#linear-gradient-5"/><clipPath id="clip-path-21"><path class="cls-1" d="M492.22,100.63a1.79,1.79,0,0,0-1.88,1.43l-12.95,39.15C474,133.74,467,105.6,462.53,102.26c-1.6-1.18-63.55-.27-67.74,0-1.81,0-2.51.89-2.09,2.65l53,151.43c.13.68.7,1.16,1.68,1.43,5,1,26.09.2,26.66.2a1.82,1.82,0,0,0,2.09-2l43.77-154.29q.63-2.45-2.31-2.44Z"/></clipPath><linearGradient id="linear-gradient-14" x1="-301.41" y1="1594.65" x2="-300.41" y2="1594.65" gradientTransform="matrix(127.42, 0, 0, -127.42, 38799.38, 203374.77)" xlink:href="#linear-gradient-4"/><clipPath id="clip-path-22"><path class="cls-1" d="M481.37,94.4a1.81,1.81,0,0,0-1.89,1.43l-13,39.15c-3.36-7.48-10.34-35.62-14.85-39-1.59-1.19-63.54-.3-67.73,0q-2.73,0-2.1,2.64l52.92,151.46c.13.68.7,1.15,1.68,1.43,5,.95,26.1.21,26.66.21a1.82,1.82,0,0,0,2.09-2L509,95.43q.63-2.45-2.31-2.44Z"/></clipPath><linearGradient id="linear-gradient-15" x1="-296.27" y1="1591.13" x2="-295.27" y2="1591.13" gradientTransform="matrix(0.08, -159.05, -159.05, -0.08, 253532.06, -46742.57)" xlink:href="#linear-gradient-5"/><clipPath id="clip-path-23"><path class="cls-1" d="M361,12.36q-15.52,0-25.75.52T324.93,15q0,3,.63,15.19t1.89,29.14q1.26,17,2.52,25.56a1,1,0,0,0,1.07.84h1.74c1.23,0,2.54,0,3.93,0s2.86,0,4.41,0q2.91,0,6.65-.29c2.49-.18,9.53-.44,13.41-1,.59-.12.88-.44.88-.94v-17a78.06,78.06,0,0,0,10-.89,3.28,3.28,0,0,0,2.68-3.11l.46-8.25c.19-.75-.13-1.13-1-1.13-2.13,0-1.31,0-5.26-.29s-6.24-.38-6.88-.38V47l12.14-.09a.91.91,0,0,0,1-.75c.78-4,1.52-14.43,2.23-25.31.06-1.88.19-4.37.39-7.45,0-.69-.29-1-.87-1Z"/></clipPath><linearGradient id="linear-gradient-16" x1="-303.4" y1="1601.21" x2="-302.4" y2="1601.21" gradientTransform="matrix(52.86, 0, 0, -52.86, 16363.18, 84691.83)" xlink:href="#linear-gradient-4"/><clipPath id="clip-path-24"><path class="cls-1" d="M330.23,9.14Q320,9.65,319.9,11.26q0,3,.63,15.18t1.87,29.14q1.26,17,2.51,25.56A1,1,0,0,0,326,82h1.75c1.22,0,2.53,0,3.93.05s2.86,0,4.41,0c1.94,0,4.15-.1,6.64-.28s9.54-.45,13.42-1c.58-.13.87-.44.87-.94v-17A78.34,78.34,0,0,0,367,62a3.28,3.28,0,0,0,2.67-3.11l.47-8.24c.19-.76-.13-1.14-1-1.14-2.14,0-1.32,0-5.26-.29s-6.24-.38-6.88-.38V43.27l12.14-.08a.91.91,0,0,0,1-.76c.78-4,1.53-14.43,2.24-25.3q.11-2.83.4-7.45c0-.69-.3-1-.88-1H355.51q-15.19,0-25.28.51"/></clipPath><linearGradient id="linear-gradient-17" x1="-291.93" y1="1592.45" x2="-290.93" y2="1592.45" gradientTransform="matrix(0.04, -73.46, -73.46, -0.04, 117345.52, -21306.06)" xlink:href="#linear-gradient-5"/><clipPath id="clip-path-25"><path class="cls-1" d="M433.17,12.74a.85.85,0,0,0-1,.94q0,8.4-.39,25.42t-.87,33l-.39,12.64a.85.85,0,0,0,1,.94h31.33a.85.85,0,0,0,1-.94q0-9.26-.63-22.54t-1.26-25.51q-.63-12.22-.63-23a.85.85,0,0,0-1-.94Z"/></clipPath><linearGradient id="linear-gradient-18" x1="-305.4" y1="1607.82" x2="-304.4" y2="1607.82" gradientTransform="matrix(33.27, 0, 0, -33.27, 10590.95, 53539.31)" xlink:href="#linear-gradient-4"/><clipPath id="clip-path-26"><path class="cls-1" d="M427.18,10.1q0,8.39-.4,25.41t-.89,33q-.19,6.32-.4,12.64a.85.85,0,0,0,1,.94l31.33,0a.85.85,0,0,0,1-.95q0-9.24-.62-22.53t-1.25-25.51q-.61-12.22-.62-23a.84.84,0,0,0-1-.94H428.15c-.65,0-1,.31-1,.94"/></clipPath><linearGradient id="linear-gradient-19" x1="-291.87" y1="1592.47" x2="-290.87" y2="1592.47" gradientTransform="matrix(0.04, -72.9, -72.9, -0.04, 116542.91, -21137.04)" xlink:href="#linear-gradient-5"/><clipPath id="clip-path-27"><path class="cls-1" d="M395.59,12.46q-12.94.94-13.14,2.54c0,2,.21,7.09.63,15.24s1.05,17.85,1.89,29.14,1.68,19.79,2.52,25.51a1,1,0,0,0,1.07.84c2.39,0,5.92,0,10.57.1s8.15.09,10.48.09c4.14,0,5.29-.08,8.49-.23s6.42-.43,9.65-.8c.59-.13.88-.45.88-1L429,71.49a.85.85,0,0,0-1-.94H413.21l2.51-58.09a.85.85,0,0,0-1-1q-6.21,0-19.16,1"/></clipPath><linearGradient id="linear-gradient-20" x1="-303.86" y1="1602.73" x2="-302.86" y2="1602.73" gradientTransform="matrix(46.57, 0, 0, -46.57, 14531.78, 74680.13)" xlink:href="#linear-gradient-4"/><clipPath id="clip-path-28"><path class="cls-1" d="M390.57,9q-12.94.93-13.14,2.54,0,3,.62,15.23t1.88,29.14q1.24,16.94,2.5,25.51a1,1,0,0,0,1.07.85q3.58,0,10.58.1c4.65.06,8.14.1,10.47.1,4.14,0,5.3-.08,8.5-.23s6.41-.43,9.65-.8c.58-.13.87-.44.87-.94l.4-12.45c0-.63-.33-.94-1-.94H408.16L410.7,9a.85.85,0,0,0-1-.95h-.06q-6.21,0-19.1.94"/></clipPath><linearGradient id="linear-gradient-21" x1="-292.04" y1="1592.42" x2="-291.03" y2="1592.42" gradientTransform="matrix(0.04, -74.41, -74.41, -0.04, 118901.9, -21588.27)" xlink:href="#linear-gradient-5"/><clipPath id="clip-path-29"><path class="cls-1" d="M499.24,50.91c10-1.08,10.45,4.31,10.44,5.06,0,5.56-7.84,7.89-10.11,7.89Zm-19.79-40q-6.65,1.21-13.24,3a1,1,0,0,0-.68,1q.59,8.4,1.16,16.69,1.46,20.48,2.43,32.26,1.54,18.11,2.23,20.93a.91.91,0,0,0,1,.75l7.22.19q3.73.1,7.62.1,4.17,0,6.94-.24a26.34,26.34,0,0,0,4.79-.8c.46-.06.68-.38.68-.94V75c3.11-.88,5.82-1.76,8.15-2.64a45.24,45.24,0,0,0,10.19-5.18,62.8,62.8,0,0,0,9.89-8.3,24.66,24.66,0,0,0,5.53-11c.19-1.06.35-2.06.48-3a17.81,17.81,0,0,0,.2-2.5c0-5.91-1.85-32.72-42-32.72a69.16,69.16,0,0,0-12.56,1.23"/></clipPath><linearGradient id="linear-gradient-22" x1="-302.63" y1="1598.66" x2="-301.63" y2="1598.66" gradientTransform="matrix(68.48, 0, 0, -68.48, 21188.53, 109519.61)" xlink:href="#linear-gradient-4"/><clipPath id="clip-path-30"><path class="cls-1" d="M494.2,47.7c10-1.08,10.44,4.31,10.44,5.06,0,5.57-7.85,7.88-10.11,7.88ZM474.43,7.63q-6.65,1.23-13.24,3a1,1,0,0,0-.68,1q.57,8.4,1.15,16.69,1.45,20.47,2.41,32.26,1.55,18.1,2.22,20.93a.91.91,0,0,0,1,.76l7.23.19c2.49.07,5,.1,7.61.1q4.17,0,6.94-.23a26.61,26.61,0,0,0,4.8-.8c.45-.06.68-.38.68-.94V71.77c3.11-.88,5.82-1.76,8.15-2.64A44.82,44.82,0,0,0,512.86,64a61.86,61.86,0,0,0,9.89-8.29,24.59,24.59,0,0,0,5.54-11q.29-1.6.48-3a17.92,17.92,0,0,0,.2-2.5c0-5.91-1.83-32.73-42-32.75h0a69.61,69.61,0,0,0-12.53,1.22"/></clipPath><linearGradient id="linear-gradient-23" x1="-292.22" y1="1592.36" x2="-291.22" y2="1592.36" gradientTransform="matrix(0.04, -76.2, -76.2, -0.04, 121841.99, -22123.67)" xlink:href="#linear-gradient-5"/><clipPath id="clip-path-31"><path class="cls-1" d="M548.61,11.38,549,44.93c0,.63.32.94,1,.94h13.48c0,.89,2.66,37,2.66,38,0,.63.29.95.87.95,2,.12,4.25.25,6.74.37s5.06.19,7.71.19c1.62,0,3.18-.06,4.71-.19a9.6,9.6,0,0,0,2.81-.47.92.92,0,0,0,.53-.85c.84-7.35,3.94-33.25,3.94-38h13.29c.65,0,1-.31,1-.94l-.35-32.79a.85.85,0,0,0-1-1l-56.74-.75c-.65,0-1,.31-1,.94"/></clipPath><linearGradient id="linear-gradient-24" x1="-303.05" y1="1600.04" x2="-302.05" y2="1600.04" gradientTransform="matrix(59.03, 0, 0, -59.03, 18437.84, 94500.85)" xlink:href="#linear-gradient-4"/><clipPath id="clip-path-32"><path class="cls-1" d="M543.59,8.37l.33,33.55a.85.85,0,0,0,1,.95h13.48c0,.88,2.64,37,2.64,38,0,.63.29.95.87.95,2,.12,4.25.25,6.74.38s5.06.19,7.72.19c1.61,0,3.18-.06,4.7-.19a9.52,9.52,0,0,0,2.81-.47.9.9,0,0,0,.54-.84c.84-7.36,4-33.25,4-38h13.29c.65,0,1-.31,1-.94l-.33-32.79a.85.85,0,0,0-1-.95l-56.74-.78a.85.85,0,0,0-1,.94"/></clipPath><linearGradient id="linear-gradient-25" x1="-292.09" y1="1592.4" x2="-291.09" y2="1592.4" gradientTransform="matrix(0.04, -74.97, -74.97, -0.04, 119971.32, -21757.14)" xlink:href="#linear-gradient-5"/><clipPath id="clip-path-33"><path class="cls-1" d="M624.27,68.76c-.7-1.14-2.83-15.28,5.64-15.08,10.07.24,7,13.11,6.25,14.51q-1.63,3-6.33,3c-2.68,0-4.54-.82-5.56-2.48M617.9,11.61a22.82,22.82,0,0,0-9.16,7.3,56.36,56.36,0,0,0-8,15,49.61,49.61,0,0,0-2.93,16.78,48.91,48.91,0,0,0,.87,9,46.28,46.28,0,0,0,2.59,9A26.63,26.63,0,0,0,612.77,82a32,32,0,0,0,16.68,4.39A34.39,34.39,0,0,0,646.61,82a26.71,26.71,0,0,0,11.5-12.45A45.61,45.61,0,0,0,661.22,60a50.12,50.12,0,0,0,1-10.06,56.69,56.69,0,0,0-2.4-16.45,40.82,40.82,0,0,0-6-12.82,27,27,0,0,0-10.49-8.49,31.86,31.86,0,0,0-13.56-3,29,29,0,0,0-11.84,2.43"/></clipPath><linearGradient id="linear-gradient-26" x1="-302.79" y1="1599.2" x2="-301.79" y2="1599.2" gradientTransform="matrix(64.42, 0, 0, -64.42, 20102.32, 103061.7)" xlink:href="#linear-gradient-4"/><clipPath id="clip-path-34"><path class="cls-1" d="M619.22,65.49c-.7-1.14-2.82-15.28,5.64-15.08,10.08.25,7,13.12,6.25,14.52q-1.64,3-6.33,3c-2.68,0-4.54-.83-5.56-2.49M612.87,8.34a22.75,22.75,0,0,0-9.15,7.29,56.1,56.1,0,0,0-8,15,48.56,48.56,0,0,0-2.08,25.74,46.28,46.28,0,0,0,2.59,9,26.68,26.68,0,0,0,11.49,13.45,32.06,32.06,0,0,0,16.68,4.39,34.28,34.28,0,0,0,17.16-4.42,26.71,26.71,0,0,0,11.51-12.44,45.25,45.25,0,0,0,3.12-9.58,50.12,50.12,0,0,0,1-10.06A56.68,56.68,0,0,0,654.8,30.2a41,41,0,0,0-6-12.83,27,27,0,0,0-10.49-8.49,31.87,31.87,0,0,0-13.57-3,29.06,29.06,0,0,0-11.84,2.42"/></clipPath><linearGradient id="linear-gradient-27" x1="-292.33" y1="1592.33" x2="-291.33" y2="1592.33" gradientTransform="matrix(0.04, -77.24, -77.24, -0.04, 123622.03, -22433.56)" xlink:href="#linear-gradient-5"/></defs><title>game-title</title><g class="cls-2"><g id="Layer_1" data-name="Layer 1"><g class="cls-3"><rect class="cls-4" x="15.87" y="61.72" width="177.71" height="137.65"/></g><g class="cls-5"><rect class="cls-6" x="766.89" y="61.72" width="177.71" height="137.65"/></g><g class="cls-7"><rect class="cls-8" x="110.97" y="33.99" width="738.52" height="239.45"/></g><g class="cls-9"><g class="cls-10"><path class="cls-11" d="M849.49,34,790.6,214.74c-135,58.72-283.3,54.9-310.37,53.63-27.07,1.27-175.38,5.09-310.38-53.63L111,34s2,.4,6.26,1.09L169.85,196.6c135,58.71,283.31,54.9,310.38,53.63,27.07,1.27,175.38,5.08,310.37-53.63L843.23,35.07c4.24-.69,6.26-1.09,6.26-1.09"/></g></g><g class="cls-12"><g class="cls-13"><path class="cls-14" d="M849.49,34,836.07,57c-27.65,4.48-129.62,18.67-355.84,18.86C254,75.66,152.14,61.87,124.5,57.39L111,34S213.47,54.46,480.23,54.67C747,54.46,849.49,34,849.49,34"/></g></g><g class="cls-12"><g class="cls-15"><polygon class="cls-14" points="15.87 61.72 30.88 74.07 124.03 74.07 120 61.72 15.87 61.72"/></g></g><g class="cls-12"><g class="cls-16"><polygon class="cls-14" points="944.59 61.72 929.58 74.07 836.43 74.07 840.46 61.72 944.59 61.72"/></g></g><g class="cls-17"><polygon class="cls-11" points="15.87 61.72 69.56 184.98 163.72 195.91 160.12 184.41 72.97 175.15 30.88 74.07 15.87 61.72"/></g><g class="cls-17"><g class="cls-18"><polygon class="cls-11" points="944.59 61.72 890.9 184.98 796.74 195.91 800.34 184.41 887.49 175.15 929.58 74.07 944.59 61.72"/></g></g><g class="cls-17"><g class="cls-19"><polygon class="cls-11" points="120 61.72 118.09 74.07 140.5 193.21 163.72 195.91 120 61.72"/></g></g><g class="cls-17"><g class="cls-20"><polygon class="cls-11" points="840.46 61.72 842.37 74.07 819.95 193.21 796.74 195.91 840.46 61.72"/></g></g><g class="cls-21"><rect class="cls-22" x="580.26" y="95.55" width="145.68" height="160.6"/></g><g class="cls-23"><rect class="cls-24" x="569.29" y="86.86" width="145.76" height="160.71"/></g><path class="cls-25" d="M714.6,245.09c.42,1.63-.28,2.45-2.1,2.45l-53.87-1.66a1.83,1.83,0,0,1-2.1-2,58,58,0,0,0-.73-7.33c-.48-3.4-.94-6.6-1.35-9.59l-21-1c-.14.82-.43,2.45-.84,4.9s-.88,5.3-1.37,8.56-1.23,4.88-2.21,4.88c-2.65.27-6.25.48-10.79.61s-9.12.2-13.73.2q-10.49,0-18.55-.21t-14.15-.62c-1.82,0-2.52-.89-2.1-2.65L612,90.15c.14-.68.7-1.16,1.68-1.43a93.68,93.68,0,0,1,12.47-1.42q7.23-.4,14.36-.4,12,0,22,.72t17.19,1.13a1.83,1.83,0,0,1,2.09,2Zm-59.14-43-5.19-17.13a3.66,3.66,0,0,0-6.91-.44L636,201.23Z"/><g class="cls-26"><rect class="cls-27" x="303.91" y="100.22" width="114.24" height="158.97"/></g><g class="cls-28"><rect class="cls-29" x="293.02" y="92.02" width="114.32" height="159.03"/></g><path class="cls-25" d="M407.3,94.1q-1.05,17.12-1.69,26.7c-1.41,19.43-2.74,39-4,45.51a2,2,0,0,1-2.1,1.64l-27-1v12c1.39,0-1.22,0,7.3.58s15.09.83,19.7.83c1.82,0,2.52.81,2.1,2.44L400,205.65c-.29.95-1.16,1.6-2.63,1.94s-9.26.67-15.76,1-4.48.74-9.09.74v15.29L397,224.4a1.82,1.82,0,0,1,2.09,2l-.85,20.31c0,1.09-.63,1.77-1.88,2q-10.49,1.22-20.86,1.72t-23.79.5q-7.55,0-22.64-.22t-22.85-.21a2.13,2.13,0,0,1-2.3-1.84q-2.73-18.54-5.43-55.23t-4.06-63q-1.35-26.29-1.34-32.81.21-3.47,22.32-4.58T371,92.05h34.38C406.67,92.06,407.3,92.74,407.3,94.1Z"/><g class="cls-30"><rect class="cls-31" x="488.73" y="100.22" width="114.24" height="158.97"/></g><g class="cls-32"><rect class="cls-33" x="477.83" y="92.02" width="114.32" height="159.03"/></g><path class="cls-25" d="M592.12,94.1q-1.07,17.12-1.69,26.7c-1.41,19.43-2.74,39-4,45.51a2,2,0,0,1-2.09,1.64l-27-1v12c1.4,0-1.22,0,7.31.58s15.09.83,19.7.83c1.81,0,2.51.81,2.09,2.44l-1.64,22.83c-.28.95-1.15,1.6-2.62,1.94s-9.27.67-15.77,1-4.47.74-9.08.74v15.29l24.49-.23a1.83,1.83,0,0,1,2.1,2L583,246.75q0,1.63-1.89,2-10.49,1.22-20.86,1.72t-23.79.5q-7.54,0-22.63-.22T491,250.58a2.14,2.14,0,0,1-2.31-1.84q-2.71-18.54-5.42-55.23t-4.06-63q-1.35-26.29-1.35-32.81.21-3.47,22.33-4.58t55.66-1.09h34.37Q592.12,92.06,592.12,94.1Z"/><g class="cls-34"><rect class="cls-35" x="707.59" y="90.51" width="100.64" height="160.81"/></g><g class="cls-36"><rect class="cls-37" x="696.7" y="83.09" width="100.66" height="160.86"/></g><path class="cls-25" d="M797.31,212.76l-.85,26.9c0,1.08-.63,1.77-1.89,2q-10.49,1.22-20.86,1.72c-6.91.33-9.41.51-18.36.5q-7.54,0-22.63-.22t-22.85-.21a2.14,2.14,0,0,1-2.31-1.83q-2.71-18.56-5.42-55.14t-4-63q-1.37-26.39-1.35-32.91.42-3.47,28.4-5.49t41.4-2a1.83,1.83,0,0,1,2.1,2L763.15,210.7l32.06,0A1.83,1.83,0,0,1,797.31,212.76Z"/><g class="cls-38"><rect class="cls-39" x="182.02" y="91.56" width="148.41" height="168.27"/></g><g class="cls-40"><rect class="cls-41" x="171.12" y="84.82" width="148.47" height="168.38"/></g><path class="cls-25" d="M317.65,166.63q-2.73,11.2-15.11,24.86A150.22,150.22,0,0,1,286,207.18L308.2,236q1.47,2-1.05,3.06l-13.31,13.85a2.17,2.17,0,0,1-2.31-.61l-46.86-23.11v15.28c0,1.22-.49,1.9-1.47,2a58,58,0,0,1-10.38,1.73q-6,.5-15,.5c-5.59,0-11.07-.08-16.46-.21l-15.61-.42a2,2,0,0,1-2.09-1.63q-1.47-6.12-4.8-45.25-2.09-25.47-5.21-69.7-1.24-17.94-2.5-36.08a2.24,2.24,0,0,1,1.47-2.24,265.44,265.44,0,0,1,26.42-6,148.94,148.94,0,0,1,25.78-2.33,127.77,127.77,0,0,1,22.74,2,141.29,141.29,0,0,1,23.58,6.63q23.27,9,35.42,22.85a51.37,51.37,0,0,1,13,34.85A71.08,71.08,0,0,1,317.65,166.63Zm-71.51,2-1.46,32.67q7.33,0,15.1-6.11C264,191.75,280.36,172.35,246.14,168.58Z"/><g class="cls-42"><rect class="cls-43" x="392.28" y="99.21" width="128.03" height="159.51"/></g><g class="cls-44"><rect class="cls-45" x="381.38" y="92.96" width="128.11" height="159.54"/></g><path class="cls-25" d="M509,95.43,465.19,249.7a1.82,1.82,0,0,1-2.09,2c-.56,0-21.64.74-26.66-.21-1-.28-1.55-.75-1.68-1.43L381.84,98.63q-.63-2.64,2.1-2.64c4.19-.27,66.14-1.16,67.73,0,4.51,3.34,11.49,31.48,14.85,39l13-39.15a1.81,1.81,0,0,1,1.89-1.43L506.73,93Q509.67,93,509,95.43Z"/><g class="cls-46"><rect class="cls-47" x="324.93" y="12.36" width="52.86" height="73.46"/></g><g class="cls-48"><rect class="cls-49" x="319.88" y="8.62" width="52.9" height="73.48"/></g><path class="cls-25" d="M372.77,9.68q-.3,4.62-.4,7.45c-.71,10.87-1.46,21.34-2.24,25.3a.91.91,0,0,1-1,.76L357,43.26v5.57c.64,0,2.94.13,6.88.38s3.12.29,5.26.29c.84,0,1.16.38,1,1.14l-.47,8.24A3.28,3.28,0,0,1,367,62a78.34,78.34,0,0,1-10,.89v17c0,.5-.29.81-.87.94-3.88.5-10.93.76-13.42,1s-4.7.28-6.64.28c-1.55,0-3,0-4.42,0S329,82,327.73,82H326a1,1,0,0,1-1.07-.85q-1.25-8.58-2.51-25.56t-1.87-29.14q-.63-12.17-.63-15.19.11-1.59,10.33-2.11T356,8.63h15.9C372.47,8.64,372.77,9,372.77,9.68Z"/><g class="cls-50"><rect class="cls-51" x="430.55" y="12.74" width="33.27" height="72.9"/></g><g class="cls-52"><rect class="cls-53" x="425.47" y="9.15" width="33.31" height="72.93"/></g><path class="cls-25" d="M425.49,81.11q.19-6.31.4-12.64.5-15.93.89-33t.4-25.41c0-.63.32-.94,1-.94H455.3c.65,0,1,.31,1,.94q0,10.76.62,23t1.25,25.51q.63,13.29.62,22.54a.85.85,0,0,1-1,.94l-31.33,0A.85.85,0,0,1,425.49,81.11Z"/><g class="cls-54"><rect class="cls-55" x="382.45" y="11.51" width="46.57" height="74.41"/></g><g class="cls-56"><rect class="cls-57" x="377.41" y="8.08" width="46.58" height="74.43"/></g><path class="cls-25" d="M424,68.08l-.4,12.45c0,.5-.29.81-.87.94-3.24.37-6.45.64-9.66.8s-4.35.23-8.49.23c-2.33,0-5.82,0-10.47-.1s-8.19-.1-10.58-.1a1,1,0,0,1-1.07-.85q-1.24-8.58-2.5-25.51T378.05,26.8q-.63-12.21-.62-15.23Q377.63,10,390.57,9t19.15-.94a.86.86,0,0,1,1,.95l-2.54,58.09H423C423.64,67.14,424,67.45,424,68.08Z"/><g class="cls-58"><rect class="cls-59" x="465.53" y="9.63" width="68.48" height="76.2"/></g><g class="cls-60"><rect class="cls-61" x="460.49" y="6.4" width="68.51" height="76.23"/></g><path class="cls-25" d="M528.29,44.63a24.59,24.59,0,0,1-5.54,11A61.86,61.86,0,0,1,512.86,64a44.82,44.82,0,0,1-10.19,5.18q-3.5,1.32-8.15,2.64v8.87c0,.56-.23.88-.68.94a26.61,26.61,0,0,1-4.8.8q-2.78.23-6.94.23c-2.59,0-5.12,0-7.61-.1l-7.23-.19a.91.91,0,0,1-1-.75q-.68-2.83-2.22-20.94-1-11.79-2.41-32.25-.57-8.31-1.15-16.7a1,1,0,0,1,.68-1q6.58-1.79,13.24-3A69.93,69.93,0,0,1,487,6.41c40.15,0,42,26.84,42,32.75a17.92,17.92,0,0,1-.2,2.5Q528.58,43,528.29,44.63ZM494.2,47.7l.33,12.94c2.26,0,10.08-2.31,10.11-7.88C504.64,52,504.2,46.62,494.2,47.7Z"/><g class="cls-62"><rect class="cls-63" x="548.61" y="10.44" width="59.03" height="74.97"/></g><g class="cls-64"><rect class="cls-65" x="543.57" y="7.42" width="59.05" height="75.02"/></g><path class="cls-25" d="M602.6,42c0,.63-.32.94-1,.94H588.34c0,4.77-3.11,30.67-4,38a.9.9,0,0,1-.53.85,9.52,9.52,0,0,1-2.81.47c-1.52.13-3.09.19-4.7.19-2.66,0-5.23-.07-7.72-.19s-4.73-.26-6.74-.38c-.58,0-.87-.32-.87-.95,0-1.07-2.64-37.15-2.64-38H544.89c-.65,0-1-.31-1-.94l-.33-33.55a.85.85,0,0,1,1-.94l56.74.78a.85.85,0,0,1,1,.94Z"/><g class="cls-66"><rect class="cls-67" x="597.81" y="9.18" width="64.42" height="77.24"/></g><g class="cls-68"><rect class="cls-69" x="592.75" y="5.9" width="64.46" height="77.27"/></g><path class="cls-25" d="M596.22,65.31a46.28,46.28,0,0,1-2.59-9A48.66,48.66,0,0,1,595.7,30.6a56.41,56.41,0,0,1,8-15,22.75,22.75,0,0,1,9.15-7.29,28.9,28.9,0,0,1,11.84-2.42,31.87,31.87,0,0,1,13.57,3,27,27,0,0,1,10.49,8.49,41,41,0,0,1,6,12.83,56.68,56.68,0,0,1,2.39,16.45,50.12,50.12,0,0,1-1,10.06,45.25,45.25,0,0,1-3.12,9.58,26.71,26.71,0,0,1-11.51,12.44,34.28,34.28,0,0,1-17.16,4.42,32.06,32.06,0,0,1-16.68-4.39A26.68,26.68,0,0,1,596.22,65.31Zm23,.18c1,1.66,2.88,2.48,5.56,2.49q4.69,0,6.33-3c.77-1.4,3.83-14.27-6.25-14.52C616.4,50.21,618.52,64.35,619.22,65.49Z"/></g></g></svg>