<svg xmlns="http://www.w3.org/2000/svg" xmlns:xlink="http://www.w3.org/1999/xlink" viewBox="0 0 696 106"><defs><style>.cls-1{clip-path:url(#clip-path);}.cls-2{fill:none;}.cls-3{isolation:isolate;}.cls-4{clip-path:url(#clip-path-2);}.cls-5{fill:url(#radial-gradient);}.cls-6{clip-path:url(#clip-path-3);}.cls-7{clip-path:url(#clip-path-4);}.cls-8{fill:url(#radial-gradient-2);}.cls-9{clip-path:url(#clip-path-5);}.cls-10{fill:url(#radial-gradient-3);}.cls-11{clip-path:url(#clip-path-6);}.cls-12{clip-path:url(#clip-path-7);}.cls-13{fill:url(#radial-gradient-4);}.cls-14{clip-path:url(#clip-path-8);}.cls-15{clip-path:url(#clip-path-9);}.cls-16{fill:url(#radial-gradient-5);}.cls-17{mask:url(#mask);}.cls-18{opacity:0.5;}.cls-18,.cls-23{mix-blend-mode:screen;}.cls-19{clip-path:url(#clip-path-10);}.cls-20{fill:#b7eaff;}.cls-21{fill:#ffbdfd;}.cls-22{mask:url(#mask-2);}.cls-24{clip-path:url(#clip-path-11);}.cls-25{mask:url(#mask-3);}.cls-26{mix-blend-mode:overlay;}.cls-27{clip-path:url(#clip-path-12);}.cls-28{fill:#000122;}.cls-29{clip-path:url(#clip-path-13);}.cls-30{fill:url(#linear-gradient);}.cls-31{mask:url(#mask-4);}.cls-32{clip-path:url(#clip-path-14);}.cls-33{fill:#00fff5;}.cls-34{fill:#00f1f8;}.cls-35{mask:url(#mask-5);}.cls-36{clip-path:url(#clip-path-15);}.cls-37{fill:#7dfff8;}</style><clipPath id="clip-path"><rect class="cls-2" x="575.58" y="56.87" width="75.99" height="19.69"/></clipPath><clipPath id="clip-path-2"><path class="cls-2" d="M651.56,68.71c-.27,5.32-17.51,8.75-38.49,7.64S575.31,70,575.58,64.72s17.52-8.75,38.5-7.64,37.77,6.31,37.48,11.63"/></clipPath><radialGradient id="radial-gradient" cx="-431.57" cy="1288.35" r="1" gradientTransform="matrix(37.99, 1.99, 0.53, -9.64, 16331.25, 13343.48)" gradientUnits="userSpaceOnUse"><stop offset="0" stop-color="#fff"/><stop offset="0.12" stop-color="#c7c7c7"/><stop offset="0.24" stop-color="#929292"/><stop offset="0.37" stop-color="#666"/><stop offset="0.5" stop-color="#414141"/><stop offset="0.62" stop-color="#242424"/><stop offset="0.75" stop-color="#101010"/><stop offset="0.88" stop-color="#040404"/><stop offset="1"/></radialGradient><clipPath id="clip-path-3"><rect class="cls-2" x="627.09" y="60.06" width="4.07" height="3.8"/></clipPath><clipPath id="clip-path-4"><path class="cls-2" d="M629.11,60.06a1.9,1.9,0,1,1-2,1.92,2,2,0,0,1,2-1.92"/></clipPath><radialGradient id="radial-gradient-2" cx="-113.39" cy="1313.92" r="1" gradientTransform="matrix(0, -1.9, -2.04, 0, 3303.74, -152.11)" xlink:href="#radial-gradient"/><clipPath id="clip-path-5"><path class="cls-2" d="M629.12,61a1,1,0,1,1-1,1,1,1,0,0,1,1-1"/></clipPath><radialGradient id="radial-gradient-3" cx="188.62" cy="1396.92" r="1" gradientTransform="matrix(0, -0.97, -1.04, 0, 2075.42, 245.1)" xlink:href="#radial-gradient"/><clipPath id="clip-path-6"><rect class="cls-2" x="-13.17" y="76.65" width="786.28" height="32.18"/></clipPath><clipPath id="clip-path-7"><path class="cls-2" d="M380,76.65c217.12.12,393.14,7.42,393.12,16.3S597,108.94,380,108.83-13.19,101.41-13.17,92.52,162.89,76.53,380,76.65"/></clipPath><radialGradient id="radial-gradient-4" cx="-389.17" cy="1228.45" r="1" gradientTransform="matrix(-0.03, -16.09, -393.03, -0.22, 483186.84, -5900.11)" xlink:href="#radial-gradient"/><clipPath id="clip-path-8"><rect class="cls-2" x="4.31" y="-9.77" width="770.65" height="30.69"/></clipPath><clipPath id="clip-path-9"><path class="cls-2" d="M389.66-9.77C602.46-9.65,775-2.69,775,5.78S602.4,21,389.62,20.92,4.29,13.84,4.31,5.36,176.87-9.89,389.66-9.77"/></clipPath><radialGradient id="radial-gradient-5" cx="-387.38" cy="1228.46" r="1" gradientTransform="matrix(-0.03, -15.35, -385.22, -0.22, 473604.55, -5675.55)" xlink:href="#radial-gradient"/><mask id="mask" x="574.14" y="51.97" width="78.88" height="29.49" maskUnits="userSpaceOnUse"><g class="cls-1"><rect x="575.31" y="55.97" width="76.54" height="21.48"/><g class="cls-3"><g class="cls-4"><polygon class="cls-5" points="575.52 51.97 653.01 56.03 651.63 81.46 574.14 77.39 575.52 51.97"/></g></g></g></mask><clipPath id="clip-path-10"><rect class="cls-2" x="575.58" y="56.87" width="75.99" height="19.69"/></clipPath><mask id="mask-2" x="627.05" y="60.02" width="4.15" height="3.88" maskUnits="userSpaceOnUse"><g class="cls-6"><rect x="627.08" y="60.05" width="4.09" height="3.82"/><g class="cls-3"><g class="cls-7"><rect class="cls-8" x="627.07" y="60.03" width="4.12" height="3.85" transform="translate(-0.49 5.17) rotate(-0.47)"/></g></g></g></mask><clipPath id="clip-path-11"><rect class="cls-2" x="627.09" y="60.06" width="4.07" height="3.8"/></clipPath><mask id="mask-3" x="628.07" y="60.97" width="2.11" height="1.97" maskUnits="userSpaceOnUse"><rect x="628.09" y="60.99" width="2.08" height="1.94"/><g class="cls-3"><g class="cls-9"><rect class="cls-10" x="628.08" y="60.98" width="2.1" height="1.96" transform="translate(-0.49 5.18) rotate(-0.47)"/></g></g></mask><clipPath id="clip-path-12"><rect class="cls-2" x="628.09" y="60.99" width="2.07" height="1.93"/></clipPath><clipPath id="clip-path-13"><polygon class="cls-2" points="49.15 4.33 689.53 4.33 689.53 70.27 646.92 93.71 5.58 93.71 6.08 28.09 49.15 4.33"/></clipPath><linearGradient id="linear-gradient" x1="-434.17" y1="1225.52" x2="-433.17" y2="1225.52" gradientTransform="matrix(0, 72.55, 72.55, 0, -88565.15, 31502.9)" gradientUnits="userSpaceOnUse"><stop offset="0" stop-color="#004d9c"/><stop offset="0.76" stop-color="#001341"/><stop offset="1" stop-color="#001341"/></linearGradient><mask id="mask-4" x="-13.25" y="76.09" width="786.44" height="33.29" maskUnits="userSpaceOnUse"><g class="cls-11"><rect x="-13.19" y="76.53" width="786.32" height="32.41"/><g class="cls-3"><g class="cls-12"><polygon class="cls-13" points="-13.19 108.94 -13.25 76.09 773.13 76.53 773.19 109.38 -13.19 108.94"/></g></g></g></mask><clipPath id="clip-path-14"><rect class="cls-2" x="-13.17" y="76.65" width="786.28" height="32.18"/></clipPath><mask id="mask-5" x="4.23" y="-10.32" width="770.81" height="31.78" maskUnits="userSpaceOnUse"><g class="cls-14"><rect x="4.29" y="-9.89" width="770.69" height="30.92"/><g class="cls-3"><g class="cls-15"><polygon class="cls-16" points="4.29 21.03 4.23 -10.32 774.98 -9.89 775.04 21.46 4.29 21.03"/></g></g></g></mask><clipPath id="clip-path-15"><rect class="cls-2" x="4.31" y="-9.77" width="770.65" height="30.69"/></clipPath></defs><title>input-bg</title><g class="cls-3"><g id="Layer_1" data-name="Layer 1"><g class="cls-17"><g class="cls-18"><g class="cls-19"><path class="cls-20" d="M651.56,68.71c-.27,5.32-17.51,8.75-38.49,7.64S575.31,70,575.58,64.72s17.52-8.75,38.5-7.64,37.77,6.31,37.48,11.63"/></g></g></g><path class="cls-21" d="M629.77,62a.65.65,0,1,1-.64-.64.64.64,0,0,1,.64.64"/><g class="cls-22"><g class="cls-23"><g class="cls-24"><path class="cls-21" d="M629.11,60.06a1.9,1.9,0,1,1-2,1.92,2,2,0,0,1,2-1.92"/></g></g></g><g class="cls-25"><g class="cls-26"><g class="cls-27"><path class="cls-21" d="M629.12,61a1,1,0,1,1-1,1,1,1,0,0,1,1-1"/></g></g></g><polygon class="cls-28" points="47.26 11.25 1.65 36.41 1.13 105.33 648.81 105.33 693.97 80.48 693.97 11.25 47.26 11.25"/><g class="cls-29"><rect class="cls-30" x="5.59" y="4.33" width="683.95" height="89.38"/></g><g class="cls-31"><g class="cls-26"><g class="cls-32"><path class="cls-33" d="M380,76.65c217.12.12,393.14,7.42,393.12,16.3S597,108.94,380,108.83-13.19,101.41-13.17,92.52,162.89,76.53,380,76.65"/></g></g></g><path class="cls-34" d="M648.81,97.05H1.13l.52-68.92L47.26,3H694V72.21ZM10,92.35H645l40.06-22V7.66H51L10.51,30Z"/><g class="cls-35"><g class="cls-23"><g class="cls-36"><path class="cls-37" d="M389.66-9.77C602.46-9.65,775-2.69,775,5.78S602.4,21,389.62,20.92,4.29,13.83,4.31,5.36,176.87-9.89,389.66-9.77"/></g></g></g></g></g></svg>