<svg xmlns="http://www.w3.org/2000/svg" xmlns:xlink="http://www.w3.org/1999/xlink" viewBox="0 0 269.28 59.23"><defs><style>.cls-1{fill:none;}.cls-2{isolation:isolate;}.cls-3{clip-path:url(#clip-path);}.cls-4{opacity:0.61;mix-blend-mode:color-dodge;}.cls-5{clip-path:url(#clip-path-3);}.cls-6{clip-path:url(#clip-path-4);}.cls-7{fill:url(#radial-gradient);}.cls-8{opacity:0.39;mix-blend-mode:multiply;}.cls-9{clip-path:url(#clip-path-6);}.cls-10{clip-path:url(#clip-path-7);}.cls-11{fill:url(#radial-gradient-2);}.cls-12{fill:#fff;}</style><clipPath id="clip-path"><rect class="cls-1" x="-2005.78" y="-1541" width="1920" height="1080"/></clipPath><clipPath id="clip-path-3"><rect class="cls-1" x="-1887.07" y="-1824.21" width="1724.29" height="1724.29"/></clipPath><clipPath id="clip-path-4"><path class="cls-1" d="M-168.93-860C-225.3-387.24-654.24-49.69-1127-106.06s-810.3-485.31-753.93-958.07,485.31-810.3,958.06-753.93S-112.56-1332.75-168.93-860"/></clipPath><radialGradient id="radial-gradient" cx="-2004.78" cy="-460" r="1" gradientTransform="matrix(0, 862.06, 862.06, 0, 395522.53, 1727280.35)" gradientUnits="userSpaceOnUse"><stop offset="0" stop-color="#00b1ff"/><stop offset="0.11" stop-color="#00aefa"/><stop offset="0.23" stop-color="#00a4ec"/><stop offset="0.36" stop-color="#0093d4"/><stop offset="0.5" stop-color="#007db3"/><stop offset="0.65" stop-color="#005f89"/><stop offset="0.79" stop-color="#003b55"/><stop offset="0.94" stop-color="#001119"/><stop offset="1"/></radialGradient><clipPath id="clip-path-6"><rect class="cls-1" x="-1311.82" y="-1239.13" width="1016.43" height="1099.92"/></clipPath><clipPath id="clip-path-7"><path class="cls-1" d="M-382.72-446.17C-540-173.77-855.92-61.74-1088.36-195.95s-293.4-463.82-136.13-736.22,473.2-384.43,705.65-250.23,293.39,463.83,136.12,736.23"/></clipPath><radialGradient id="radial-gradient-2" cx="-2004.78" cy="-460" r="1" gradientTransform="matrix(0, 485.98, 569.54, -0.01, 261186.27, 973590.82)" gradientUnits="userSpaceOnUse"><stop offset="0" stop-color="#313b65"/><stop offset="0.1" stop-color="#37416a"/><stop offset="0.25" stop-color="#4a5277"/><stop offset="0.42" stop-color="#686f8e"/><stop offset="0.61" stop-color="#9196ad"/><stop offset="0.81" stop-color="#c6c9d4"/><stop offset="1" stop-color="#fff"/></radialGradient></defs><title>janssin-logo</title><g class="cls-2"><g id="Layer_1" data-name="Layer 1"><g class="cls-3"><g class="cls-3"><g class="cls-4"><g class="cls-5"><g class="cls-6"><rect class="cls-7" x="-2038.9" y="-1976.03" width="2027.94" height="2027.94" transform="translate(51.72 -1865.87) rotate(-83.2)"/></g></g></g></g><g class="cls-3"><g class="cls-8"><g class="cls-9"><g class="cls-10"><rect class="cls-11" x="-1636.06" y="-1503.59" width="1664.91" height="1628.83" transform="translate(195.05 -1040.49) rotate(-60)"/></g></g></g></g></g><path class="cls-12" d="M156.58,27.09c0,.12-.29.69-.65,1.69a13,13,0,0,0-.75,4.36,29.83,29.83,0,0,0,.49,3.92l-.64.88a7.3,7.3,0,0,1-1.68-5.11c0-3.43,2.08-5.82,3.15-5.82.07,0,.08,0,.08.08m28.8,9.64a3.06,3.06,0,0,1,.17.91c0,.33-.11.66-.34.66s-.32-.18-.32-.47a2.42,2.42,0,0,1,.49-1.1m-29.53,1.39a21.68,21.68,0,0,1,.31,2.94c0,1.94-.65,4.2-1.76,4.19-.43,0-.79-.43-.81-1.17a9.53,9.53,0,0,1,2.26-6m33.31-4.42a3.49,3.49,0,0,0-.63,2.07c0,1.7,1,3.31,2.85,3.31a3.16,3.16,0,0,0,3.1-3.44,5,5,0,0,0-.06-.91,4.5,4.5,0,0,0,1.06-.68,1.11,1.11,0,0,1,.57-.29c.18,0,.26.15.26.41v4c0,.64.21.94.71.94a1.09,1.09,0,0,0,1-.7c.67-1.4,1.64-3.26,2.06-4,.11-.15.18-.28.24-.28s.13.06.13.32v3.16c0,.89.41,1.47,1.29,1.47s1.4-.89,2.21-2.27a.39.39,0,0,0,.05-.2.28.28,0,0,0-.31-.27c-.19,0-.29.18-.89.85-.13.11-.25.29-.47.29s-.14-.09-.14-.22V33.73c0-1-.43-1.35-1-1.35a1.37,1.37,0,0,0-1.19.76c-.69,1-1.39,2.45-1.79,3.18,0,.07-.1.2-.14.2s0-.07,0-.2V33.73c0-.75-.21-1.35-1-1.35s-1.26.58-1.86,1a6.37,6.37,0,0,1-1,.61,2.1,2.1,0,0,0-1.77-1.54,1,1,0,0,0-1.08,1,1.39,1.39,0,0,0,1,1.34,2.5,2.5,0,0,0,1,.14,1.37,1.37,0,0,0,.31,0,2.75,2.75,0,0,1,0,.71,1.79,1.79,0,0,1-1.68,2c-1.14,0-1.8-1.09-1.8-2.33a3.51,3.51,0,0,1,.74-2.29c.19-.2.33-.32.33-.52s-.14-.12-.27-.12a5.43,5.43,0,0,0-2.2.65,13.88,13.88,0,0,0-2.43,1.74c-.36-.8-.81-1.51-1-2.06-.09-.22-.14-.47-.31-.47s-.2.14-.31.41a24.83,24.83,0,0,1-2.72,4.63c0,.06-.1.12-.12.12s-.07,0-.07-.14V33.73c0-1-.38-1.35-.91-1.35a1.36,1.36,0,0,0-1.19.76c-.66,1-1.47,2.49-1.86,3.22-.06.11-.12.16-.14.16s0-.09,0-.2V33.73c0-1-.39-1.35-.91-1.35a1.34,1.34,0,0,0-1.22.76c-.85,1.44-2.27,3.64-2.53,4,0,.05-.07.1-.11.11s-.06,0-.06-.14V33.73c0-1-.38-1.35-.92-1.35-.72,0-1.12.68-1.4,1.1-.36.59-.84,1.38-1.22,2.11a3.72,3.72,0,0,1-.56.93c-.05,0-.05-.18-.05-.53v-2.7a7.55,7.55,0,0,0,2.07-5.06c0-1.1-.49-1.71-1.24-1.71-1.4,0-2.46,2.19-2.46,4.77V33.4a5.32,5.32,0,0,1-2,.75,2.19,2.19,0,0,0-1.84-1.7,1,1,0,0,0-1.06,1c0,1.08,1,1.52,2,1.52h.26a3.39,3.39,0,0,1,0,.65,1.79,1.79,0,0,1-1.68,2c-1.14,0-1.8-1.09-1.8-2.33a3.46,3.46,0,0,1,.75-2.29c.17-.2.32-.38.32-.52s-.15-.12-.27-.12c-.76,0-2.46,1-4.48,3.06a40.87,40.87,0,0,1-.38-4.73,17.85,17.85,0,0,1,.42-3.6,3.75,3.75,0,0,0,.06-.54c0-.16-.09-.25-.3-.25-1.64,0-5.24,2.61-5.24,6.51,0,2.77,1,4.1,2.77,5.83a11.42,11.42,0,0,0-1.93,5.58c0,1.33.32,2.31,1.28,2.31,2,0,3.54-4.21,3.54-7.33q0-1.38-.12-2.79a14.37,14.37,0,0,1,2.18-2,4.82,4.82,0,0,0-.2,1.3c0,1.7,1,3.31,2.85,3.31a3.19,3.19,0,0,0,3.1-3.44c0-.26,0-.48,0-.73a5.14,5.14,0,0,0,1.8-.62v4.07a.66.66,0,0,0,.7.72c.47,0,.7-.32,1.06-1.06s1-2,1.51-2.84c.36-.65.56-1.07.73-1.07s.09.1.09.34v3.46c0,.94.47,1.17.9,1.17a1.06,1.06,0,0,0,.92-.58c1.07-1.5,2.18-3.28,2.62-4,.08-.14.18-.24.27-.24s.11,0,.11.3v3.63c0,.64.21.94.71.94a1.06,1.06,0,0,0,.95-.7c.67-1.4,1.66-3.24,2.08-4,.1-.15.21-.3.27-.3s.1.1.1.36v3.44c0,.94.48,1.17.91,1.17s.93-.4,1.29-.86c.67-.88,1.64-2.43,2.23-3.42a8.94,8.94,0,0,1,.61,1.12,3.42,3.42,0,0,0-1,2,1.12,1.12,0,0,0,1.07,1.19A2,2,0,0,0,186.93,37a4.38,4.38,0,0,0-.32-1.48,7.15,7.15,0,0,1,2.55-1.78m-20.53-3c0-3,.59-3.46.77-3.46s.36.2.36,1.35a6.88,6.88,0,0,1-1.13,3.6ZM163,33.65a.25.25,0,0,1,.28-.28c.25,0,.64.28.87.84-.75,0-1.15-.16-1.15-.56m29.23,0a.26.26,0,0,1,.28-.28c.27,0,.67.28.89.84l-.28,0c-.48,0-.89-.23-.89-.59M208.53,37a5.49,5.49,0,0,1-.91,0c-.79,0-1.38-.32-1.38-.75s.15-.45.55-.45c.64,0,1.16.45,1.74,1.15m4,.2a11.71,11.71,0,0,0,1.34,1.46,11.23,11.23,0,0,0-1.94,5.58c0,1.33.32,2.31,1.29,2.31,2,0,3.54-4.21,3.54-7.33,0-.92-.05-1.85-.13-2.79a13.85,13.85,0,0,1,2.19-2,4.84,4.84,0,0,0-.21,1.3c0,1.7,1,3.31,2.86,3.31a3.19,3.19,0,0,0,3.09-3.44c0-.26,0-.48,0-.73a5.07,5.07,0,0,0,1.8-.62v4.07a.66.66,0,0,0,.7.72c.48,0,.71-.32,1.05-1.06s1.06-2,1.53-2.84c.36-.65.56-1.07.72-1.07s.09.1.09.34v3.46c0,.94.48,1.17.9,1.17a1.14,1.14,0,0,0,.94-.58c1.05-1.5,2.16-3.28,2.6-4,.08-.14.18-.24.26-.24s.12,0,.12.3v3.63c0,.64.21.94.71.94a1.06,1.06,0,0,0,1-.7c.68-1.4,1.66-3.24,2.08-4,.1-.15.21-.3.28-.3s.09.1.09.36v3.44c0,.94.48,1.17.91,1.17s.93-.4,1.29-.86a38.57,38.57,0,0,0,2.22-3.42,7.81,7.81,0,0,1,.61,1.12,3.41,3.41,0,0,0-1,2,1.12,1.12,0,0,0,1.08,1.19A2,2,0,0,0,246.22,37a3.94,3.94,0,0,0-.32-1.48,7.26,7.26,0,0,1,2.56-1.78,3.49,3.49,0,0,0-.63,2.07c0,1.7,1,3.31,2.85,3.31a3.14,3.14,0,0,0,3.09-3.44,4.19,4.19,0,0,0-.06-.91,4.45,4.45,0,0,0,1.08-.68,1.06,1.06,0,0,1,.56-.29c.18,0,.27.15.27.41v4c0,.64.2.94.71.94a1.1,1.1,0,0,0,1-.7c.66-1.4,1.63-3.26,2.06-4,.1-.15.18-.28.24-.28s.12.06.12.32v3.16c0,.89.41,1.47,1.3,1.47s1.4-.89,2.21-2.27a.53.53,0,0,0,0-.2.29.29,0,0,0-.32-.27c-.19,0-.29.18-.9.85-.11.11-.24.29-.46.29s-.13-.09-.13-.22V33.73c0-1-.43-1.35-1-1.35a1.37,1.37,0,0,0-1.19.76,35.21,35.21,0,0,0-1.78,3.18c0,.07-.09.2-.15.2s0-.07,0-.2V33.73c0-.75-.21-1.35-1-1.35s-1.26.58-1.86,1a7.48,7.48,0,0,1-1,.61,2.1,2.1,0,0,0-1.78-1.54,1,1,0,0,0-1.07,1,1.4,1.4,0,0,0,.95,1.34,2.55,2.55,0,0,0,1,.14,1.42,1.42,0,0,0,.31,0,4.09,4.09,0,0,1,0,.71,1.8,1.8,0,0,1-1.69,2c-1.12,0-1.79-1.09-1.79-2.33a3.51,3.51,0,0,1,.74-2.29c.18-.2.33-.32.33-.52s-.15-.12-.26-.12A5.34,5.34,0,0,0,248,33a13.52,13.52,0,0,0-2.43,1.74c-.37-.8-.8-1.51-1-2.06-.08-.22-.14-.47-.31-.47s-.2.14-.3.41a24.82,24.82,0,0,1-2.73,4.63c0,.06-.1.12-.12.12s-.06,0-.06-.14V33.73c0-1-.38-1.35-.91-1.35a1.36,1.36,0,0,0-1.2.76c-.66,1-1.47,2.49-1.85,3.22-.06.11-.12.16-.14.16s-.05-.09-.05-.2V33.73c0-1-.38-1.35-.91-1.35a1.32,1.32,0,0,0-1.21.76c-.85,1.44-2.27,3.64-2.53,4a.21.21,0,0,1-.12.11s-.06,0-.06-.14V33.73c0-1-.39-1.35-.91-1.35-.73,0-1.13.68-1.39,1.1-.37.59-.85,1.38-1.24,2.11a4.08,4.08,0,0,1-.56.93s0-.18,0-.53v-2.7A7.58,7.58,0,0,0,230,28.23c0-1.1-.49-1.71-1.24-1.71-1.39,0-2.46,2.19-2.46,4.77V33.4a5.38,5.38,0,0,1-2,.75,2.19,2.19,0,0,0-1.83-1.7,1,1,0,0,0-1.07,1c0,1.08,1,1.52,2,1.52h.25a2.72,2.72,0,0,1,0,.65,1.79,1.79,0,0,1-1.68,2c-1.12,0-1.8-1.09-1.8-2.33a3.57,3.57,0,0,1,.75-2.29c.18-.2.33-.38.33-.52s-.15-.12-.27-.12c-.77,0-2.47,1-4.49,3.06a40.92,40.92,0,0,1-.39-4.73,17.6,17.6,0,0,1,.43-3.6,3.75,3.75,0,0,0,.06-.54c0-.16-.08-.25-.3-.25-1.64,0-5.24,2.61-5.24,6.51a6.78,6.78,0,0,0,1,3.72,3.9,3.9,0,0,0-.56,0,6.92,6.92,0,0,0-1.64.25v-.41a4.51,4.51,0,0,0-.58-2.47.17.17,0,0,0-.15-.07,1.41,1.41,0,0,0-.59.21c-.24.12-.48.24-.48.32s0,.08.07.18a3.05,3.05,0,0,1,.65,1.56,3.27,3.27,0,0,0-2.5-1c-1.21,0-1.58.54-1.58,1.09,0,1.06,1.4,1.59,3.16,1.59a4.62,4.62,0,0,0,1.05-.16c0,.33,0,.61,0,.86s.05.6.29.6.54-.68.57-1.68a8.6,8.6,0,0,1,1.83-.3,6.63,6.63,0,0,1,.91.1m3.37-10.11c0,.12-.28.69-.65,1.69a13.06,13.06,0,0,0-.74,4.36,31.43,31.43,0,0,0,.48,3.92l-.64.88a7.3,7.3,0,0,1-1.67-5.11c0-3.43,2.08-5.82,3.14-5.82.07,0,.08,0,.08.08m28.8,9.64a2.56,2.56,0,0,1,.18.91c0,.33-.12.66-.34.66s-.33-.18-.33-.47a2.53,2.53,0,0,1,.49-1.1m-29.52,1.39a21.53,21.53,0,0,1,.3,2.94c0,1.94-.65,4.2-1.76,4.19-.42,0-.79-.43-.81-1.17a9.59,9.59,0,0,1,2.27-6m12.78-7.4c0-3,.57-3.46.76-3.46s.37.2.37,1.35a7,7,0,0,1-1.13,3.6Zm-5.65,2.93a.26.26,0,0,1,.28-.28c.27,0,.65.28.88.84-.76,0-1.16-.16-1.16-.56m29.24,0a.26.26,0,0,1,.28-.28,1.17,1.17,0,0,1,.89.84l-.28,0c-.48,0-.89-.23-.89-.59"/><path class="cls-12" d="M152.1,18.6h1.58c.65,0,1.22,0,1.56.49a1.55,1.55,0,0,1,.23.81,1.37,1.37,0,0,1-.14.61,1.57,1.57,0,0,1-1.59.73h-.65v1.28h-1Zm1,.72v1.19h.59c.36,0,.81,0,.81-.62s-.5-.57-.78-.57Zm6.81-.72v3.92h-1V20.85h-1.43v1.67h-1V18.6h1V20h1.43V18.6Zm3.41,0,1.44,3.92h-1l-.2-.62h-1.44l-.2.62h-1l1.46-3.92Zm-.53.93-.16.61c-.08.29-.23.75-.32,1.05h1Zm2.92-.93h1.77a1.62,1.62,0,0,1,1.28.4,1.33,1.33,0,0,1,.31.87,1.06,1.06,0,0,1-.8,1.09l.9,1.56h-1.08l-.78-1.4h-.62v1.4h-1Zm1,.73v1.06h.81a.51.51,0,0,0,.59-.54c0-.5-.36-.51-.56-.52Zm8.08-.73v3.92h-.94l.07-2.79v-.4l0,.14c-.05.22-.05.25-.1.42L173,22.52h-.84L171.47,20l-.17-.7c0,.31,0,.38,0,.75l0,2.47h-.95V18.6h1.43l.6,2.2.14.63c.06-.27.06-.3.11-.49l.63-2.34Zm3.42,0,1.44,3.92h-1l-.2-.62h-1.44l-.2.62h-1l1.45-3.92Zm-.53.93-.16.61c-.09.29-.24.75-.33,1.05h1Zm6.22,2.1a2,2,0,0,1-.59.67,2,2,0,0,1-1.1.34,1.89,1.89,0,0,1-1.88-2.08,2,2,0,0,1,1.9-2.08,1.89,1.89,0,0,1,1.15.38,2.07,2.07,0,0,1,.51.63l-.78.39a1,1,0,0,0-.29-.4.86.86,0,0,0-.54-.2c-.64,0-1,.59-1,1.25,0,.86.44,1.29,1,1.29a1,1,0,0,0,.85-.59Zm1-3h2.9v.76h-1.92v.71h1.8v.75h-1.8v.93h2.1v.77h-3.08Zm7.7,0v2.19a2,2,0,0,1-.23,1.11,1.75,1.75,0,0,1-1.46.71,2.09,2.09,0,0,1-.91-.21,1.52,1.52,0,0,1-.75-1.61V18.6h1V21a1,1,0,0,0,.07.49.7.7,0,0,0,.63.27c.67,0,.67-.46.68-.76V18.6Zm1,0h3v.78h-1v3.15h-1V19.37h-1Zm5,3.93h-1V18.6h1Zm4.85-.89a2.15,2.15,0,0,1-.6.67,1.94,1.94,0,0,1-1.09.34,1.89,1.89,0,0,1-1.88-2.08,2,2,0,0,1,1.9-2.08,1.89,1.89,0,0,1,1.15.38,2.07,2.07,0,0,1,.51.63l-.78.39a.93.93,0,0,0-.3-.4.82.82,0,0,0-.53-.2c-.64,0-1,.59-1,1.25,0,.86.44,1.29,1,1.29a1,1,0,0,0,.85-.59Zm2.84-3,1.45,3.92h-1.05l-.19-.62h-1.45l-.19.62h-1.05l1.46-3.92Zm-.53.93c0,.2-.1.41-.16.61s-.23.75-.32,1.05h1Zm2.92-.94h1v3.1h1.54v.83h-2.52Zm8.49,3a2.15,2.15,0,0,1-.6.67,1.94,1.94,0,0,1-1.09.34,1.89,1.89,0,0,1-1.88-2.08,2,2,0,0,1,1.9-2.08,1.89,1.89,0,0,1,1.15.38,2.23,2.23,0,0,1,.51.63l-.78.39a.93.93,0,0,0-.3-.4.85.85,0,0,0-.54-.2c-.63,0-1,.59-1,1.25,0,.86.44,1.29,1,1.29a.93.93,0,0,0,.85-.59Zm2.78,1a1.93,1.93,0,0,1-2-2.09,1.92,1.92,0,0,1,1.93-2.06,2.29,2.29,0,0,1,.72.11,2.09,2.09,0,0,1,1.28,2,2.15,2.15,0,0,1-.75,1.64,1.86,1.86,0,0,1-1.23.41m.67-3.05a.93.93,0,0,0-.68-.29c-.6,0-1,.53-1,1.24,0,.93.52,1.28,1,1.28s1-.34,1-1.16a1.49,1.49,0,0,0-.32-1.07m6.81-1v3.92h-.94l.07-2.79v-.4l0,.14c0,.22,0,.25-.1.42l-.74,2.63h-.84L224,20l-.18-.7c0,.31,0,.38,0,.75l.05,2.47h-1V18.6h1.43l.6,2.2.14.63c.06-.27.06-.3.11-.49l.63-2.34Zm1.55,0h1.58c.64,0,1.21,0,1.56.49a1.54,1.54,0,0,1,.22.81,1.36,1.36,0,0,1-.13.61,1.58,1.58,0,0,1-1.6.73h-.65v1.28h-1Zm1,.72v1.19h.59c.37,0,.81,0,.81-.62s-.49-.57-.78-.57Zm4.94-.72,1.45,3.92h-1L235,21.9h-1.45l-.19.62h-1l1.46-3.92Zm-.52.93c0,.2-.11.41-.17.61s-.23.75-.32,1.05h1Zm2.63-.93h1l.85,1.44c.31.55.4.73.59,1.08l-.05-2.52h.94v3.92h-1l-.73-1.24a10.55,10.55,0,0,1-.69-1.23l0,2.47h-.94Zm5.82,3.92h-1V18.6h1Zm1.56-3.92h2.9v.76h-1.92v.71H247v.75h-1.79v.93h2.09v.77h-3.07Zm4.8,2.74a1.13,1.13,0,0,0,.38.31,1.57,1.57,0,0,0,.75.19c.39,0,.72-.18.72-.46s-.39-.36-.68-.4a4.49,4.49,0,0,1-.64-.1c-.24-.05-1.06-.22-1.06-1.06,0-1,.9-1.32,1.58-1.32a2.38,2.38,0,0,1,1.73.75l-.72.52a1.52,1.52,0,0,0-.39-.32,1.39,1.39,0,0,0-.64-.17c-.39,0-.58.22-.58.41s.33.34.5.36a7.19,7.19,0,0,1,1.2.24,1,1,0,0,1,.68,1,1.34,1.34,0,0,1-.31.83,1.88,1.88,0,0,1-1.48.53,2.12,2.12,0,0,1-1.79-.79Zm7.83,1.29A1.93,1.93,0,0,1,255,20.54a1.92,1.92,0,0,1,1.93-2.06,2.25,2.25,0,0,1,.72.11,2.09,2.09,0,0,1,1.28,2,2.11,2.11,0,0,1-.75,1.64,1.86,1.86,0,0,1-1.23.41m.68-3.05a1,1,0,0,0-.69-.29c-.6,0-1,.53-1,1.24,0,.93.53,1.28,1,1.28s1-.34,1-1.16a1.54,1.54,0,0,0-.31-1.07m5.48-1v.75h-2v.83h1.88v.76H261v1.58h-1V18.6Z"/><rect class="cls-12" x="139.35" y="16.85" width="1.06" height="31.17"/><path class="cls-12" d="M118,12.78a43.56,43.56,0,0,1-13.44-.27c-7.41-1.12-14.33-6-15-10.51,0,0,3,4.09,14.58,5.84a73.71,73.71,0,0,0,9.25.57c3.43,0,4.61,4.37,4.61,4.37m9.85,3.55c-4.88-.08-22.6-.67-22.6-.67a23.62,23.62,0,0,1,3.37,12.14A35.52,35.52,0,0,1,96.32,55.23C108,52.77,117,39.85,117,25.94c0-1.13,0-2.28,0-3.28l9-3.09c1.14-.4,1.87-1,1.88-2.12V16.33"/><path class="cls-12" d="M3,46.17V44.54c1.59-.58,2.77-2,2.77-5.28V24.89H8.23v14.2c0,4.34-2.55,6.77-5.23,7.08m14.34-5.93c-3.91,0-5.73-1.7-5.73-4.44,0-4,3.75-5.18,8.41-5.65v-.92c0-2.32-1.39-3-3.32-3a8.55,8.55,0,0,0-3.64.95l-.59-1.45a9.93,9.93,0,0,1,4.62-1.12c2.79,0,5.25,1.21,5.25,4.89v9.68a10.59,10.59,0,0,1-5,1.06M20,31.41c-3.8.47-6.06,1.28-6.06,4.33,0,2.18,1.34,3.07,3.58,3.07a5.37,5.37,0,0,0,2.48-.5ZM34.78,40V29.14c0-1.4-.58-2.94-3.15-2.94a6.25,6.25,0,0,0-2.86.54V40H26.31V25.68a12.47,12.47,0,0,1,5.51-1.07c4.19,0,5.42,2.32,5.42,4.48V40Zm9.37.22a6.73,6.73,0,0,1-3.86-1L41,37.53a4.78,4.78,0,0,0,2.94.89,2.61,2.61,0,0,0,2.79-2.6c0-1.56-.84-2.26-2.49-2.87-2.93-1.1-3.52-2.66-3.52-4.23a4.21,4.21,0,0,1,4.5-4.14,6.26,6.26,0,0,1,3.52,1l-.64,1.48a4.31,4.31,0,0,0-2.52-.84A2.31,2.31,0,0,0,43,28.64c0,1.45,1.06,2.15,2.51,2.71,2.94,1.12,3.67,2.69,3.67,4.42,0,2.29-2,4.41-5.06,4.41m11,0a6.73,6.73,0,0,1-3.86-1L52,37.53a4.83,4.83,0,0,0,2.94.89,2.62,2.62,0,0,0,2.8-2.6c0-1.56-.85-2.26-2.49-2.87-2.94-1.1-3.53-2.66-3.53-4.23a4.22,4.22,0,0,1,4.51-4.14,6.28,6.28,0,0,1,3.52,1l-.65,1.48a4.28,4.28,0,0,0-2.51-.84A2.32,2.32,0,0,0,54,28.64c0,1.45,1.06,2.15,2.52,2.71,2.94,1.12,3.66,2.69,3.66,4.42,0,2.29-2,4.41-5.06,4.41m10.09-6.82c.28,3.41,1.88,5.09,4.59,5.09a7.49,7.49,0,0,0,3.72-.87l.64,1.63a9.23,9.23,0,0,1-4.56,1c-3.94,0-6.71-2.49-6.71-7.86,0-5.11,2.52-7.77,6.07-7.77S74.79,27,74.73,32Zm3.66-7.16c-2.18,0-3.8,1.77-3.74,5.85L72.38,31c0-3.41-1.31-4.76-3.47-4.76M86.58,40V29.14c0-1.4-.59-2.94-3.16-2.94a6.26,6.26,0,0,0-2.85.54V40H78.11V25.68a12.44,12.44,0,0,1,5.51-1.07c4.19,0,5.42,2.32,5.42,4.48V40Z"/></g></g></svg>