<svg xmlns="http://www.w3.org/2000/svg" xmlns:xlink="http://www.w3.org/1999/xlink" viewBox="0 0 459.82 120.57"><defs><style>.cls-1{fill:none;}.cls-2{isolation:isolate;}.cls-3{clip-path:url(#clip-path);}.cls-4,.cls-8{opacity:0.61;}.cls-4{mix-blend-mode:color-dodge;}.cls-5{clip-path:url(#clip-path-3);}.cls-6{clip-path:url(#clip-path-4);}.cls-7{fill:url(#radial-gradient);}.cls-12,.cls-8{mix-blend-mode:screen;}.cls-9{clip-path:url(#clip-path-5);}.cls-10{clip-path:url(#clip-path-6);}.cls-11{fill:url(#radial-gradient-2);}.cls-13{clip-path:url(#clip-path-7);}.cls-14{clip-path:url(#clip-path-8);}.cls-15{fill:url(#radial-gradient-3);}.cls-16{opacity:0.39;}.cls-16,.cls-22{mix-blend-mode:multiply;}.cls-17{clip-path:url(#clip-path-10);}.cls-18{clip-path:url(#clip-path-11);}.cls-19{fill:url(#radial-gradient-4);}.cls-20{clip-path:url(#clip-path-12);}.cls-21{fill:url(#linear-gradient);}.cls-22{opacity:0.7;}.cls-23{clip-path:url(#clip-path-13);}.cls-24{fill:#ffa000;}.cls-25{fill:#fff;}</style><clipPath id="clip-path"><rect class="cls-1" x="-667.09" y="-1484.54" width="1920" height="1080"/></clipPath><clipPath id="clip-path-3"><rect class="cls-1" x="-548.38" y="-1767.75" width="1724.29" height="1724.29"/></clipPath><clipPath id="clip-path-4"><path class="cls-1" d="M1169.76-803.53C1113.39-330.78,684.45,6.77,211.7-49.6s-810.3-485.31-753.93-958.07S-56.92-1818,415.83-1761.6s810.3,485.31,753.93,958.07"/></clipPath><radialGradient id="radial-gradient" cx="-666.09" cy="-403.54" r="1" gradientTransform="matrix(0, 862.06, 862.06, 0, 348187.34, 573304.15)" gradientUnits="userSpaceOnUse"><stop offset="0" stop-color="#00b1ff"/><stop offset="0.11" stop-color="#00aefa"/><stop offset="0.23" stop-color="#00a4ec"/><stop offset="0.36" stop-color="#0093d4"/><stop offset="0.5" stop-color="#007db3"/><stop offset="0.65" stop-color="#005f89"/><stop offset="0.79" stop-color="#003b55"/><stop offset="0.94" stop-color="#001119"/><stop offset="1"/></radialGradient><clipPath id="clip-path-5"><rect class="cls-1" x="-481.16" y="-1635.26" width="1524.43" height="1524.43"/></clipPath><clipPath id="clip-path-6"><path class="cls-1" d="M1037.83-782.81c-49.83,418-429,716.38-847,666.54s-716.38-429.05-666.54-847,429.06-716.38,847-666.54,716.38,429.06,666.54,847"/></clipPath><radialGradient id="radial-gradient-2" cx="-666.09" cy="-403.54" r="1" gradientTransform="matrix(0, 762.14, 762.14, 0, 307831.86, 506779.14)" gradientUnits="userSpaceOnUse"><stop offset="0" stop-color="#00b1ff"/><stop offset="0.69" stop-color="#00b1ff"/><stop offset="0.88" stop-color="#00425f"/><stop offset="1"/></radialGradient><clipPath id="clip-path-7"><rect class="cls-1" x="-477.51" y="-1575.02" width="1524.43" height="1524.43"/></clipPath><clipPath id="clip-path-8"><path class="cls-1" d="M1041.48-722.57C991.65-304.61,612.42-6.19,194.47-56S-521.91-485.08-472.07-903s429.05-716.37,847-666.54,716.38,429.06,666.54,847"/></clipPath><radialGradient id="radial-gradient-3" cx="-666.09" cy="-403.54" r="1" gradientTransform="matrix(0, 762.14, 762.14, 0, 307835.53, 506839.42)" gradientUnits="userSpaceOnUse"><stop offset="0" stop-color="#00b1ff"/><stop offset="0.81" stop-color="#00b1ff"/><stop offset="0.93" stop-color="#00425f"/><stop offset="1"/></radialGradient><clipPath id="clip-path-10"><rect class="cls-1" x="26.87" y="-1182.67" width="1016.43" height="1099.92"/></clipPath><clipPath id="clip-path-11"><path class="cls-1" d="M956-389.71C798.7-117.31,482.77-5.28,250.33-139.49S-43.07-603.31,114.2-875.71s473.2-384.43,705.65-250.22S1113.24-662.11,956-389.71"/></clipPath><radialGradient id="radial-gradient-4" cx="-666.09" cy="-403.54" r="1" gradientTransform="matrix(0, 485.98, 569.54, -0.01, 230367.28, 323069.64)" gradientUnits="userSpaceOnUse"><stop offset="0" stop-color="#313b65"/><stop offset="0.1" stop-color="#37416a"/><stop offset="0.25" stop-color="#4a5277"/><stop offset="0.42" stop-color="#686f8e"/><stop offset="0.61" stop-color="#9196ad"/><stop offset="0.81" stop-color="#c6c9d4"/><stop offset="1" stop-color="#fff"/></radialGradient><clipPath id="clip-path-12"><path class="cls-1" d="M230.91,17.64C69.15,17.53,7,8,7,8L42.71,92.22c81.86,27.35,171.79,25.57,188.2,25,16.42.59,106.35,2.37,188.21-25L454.82,8s-62.15,9.53-223.91,9.64"/></clipPath><linearGradient id="linear-gradient" x1="-666.23" y1="-405" x2="-665.23" y2="-405" gradientTransform="matrix(447.82, 0, 0, -447.82, 298360.85, -181303.67)" gradientUnits="userSpaceOnUse"><stop offset="0" stop-color="#ffd83d"/><stop offset="0.34" stop-color="#ff8d0d"/><stop offset="0.62" stop-color="#ff9c04"/><stop offset="0.8" stop-color="#ffe138"/><stop offset="1" stop-color="#ff9c04"/></linearGradient><clipPath id="clip-path-13"><rect class="cls-1" x="7" y="8" width="447.84" height="109.47"/></clipPath></defs><title>login-btn</title><g class="cls-2"><g id="Layer_1" data-name="Layer 1"><g class="cls-3"><g class="cls-3"><g class="cls-4"><g class="cls-5"><g class="cls-6"><rect class="cls-7" x="-700.21" y="-1919.57" width="2027.94" height="2027.94" transform="translate(1175.85 -486.82) rotate(-83.2)"/></g></g></g><g class="cls-8"><g class="cls-9"><g class="cls-10"><rect class="cls-11" x="-615.38" y="-1769.48" width="1792.88" height="1792.88" transform="translate(1114.69 -490.6) rotate(-83.2)"/></g></g></g><g class="cls-12"><g class="cls-13"><g class="cls-14"><rect class="cls-15" x="-611.74" y="-1709.24" width="1792.88" height="1792.88" transform="translate(1058.08 -433.87) rotate(-83.2)"/></g></g></g></g><g class="cls-3"><g class="cls-16"><g class="cls-17"><g class="cls-18"><rect class="cls-19" x="-297.37" y="-1447.12" width="1664.91" height="1628.83" transform="translate(815.46 147.05) rotate(-60)"/></g></g></g></g></g><g class="cls-20"><rect class="cls-21" x="7" y="8" width="447.82" height="111.57"/></g><g class="cls-22"><g class="cls-23"><path class="cls-24" d="M454.83,8,419.12,92.22c-81.86,27.35-171.79,25.58-188.21,25-16.41.6-106.34,2.37-188.2-25L7,8s1.23.18,3.79.5L42.71,83.76c81.86,27.36,171.79,25.58,188.2,25,16.42.59,106.35,2.37,188.21-25L451,8.5c2.57-.32,3.8-.5,3.8-.5"/></g></g><path class="cls-25" d="M147.86,81.73H167v6.56H139.3V45.63h8.56Z"/><path class="cls-25" d="M207.33,70.8a17.92,17.92,0,0,1-5,13,17.14,17.14,0,0,1-12.89,5.11q-7.91,0-12.83-5.12a18,18,0,0,1-4.92-13V63.12a18,18,0,0,1,4.9-13A16.89,16.89,0,0,1,189.43,45a17.18,17.18,0,0,1,12.92,5.14,17.88,17.88,0,0,1,5,13Zm-8.52-7.74a12.89,12.89,0,0,0-2.49-8.17,8.25,8.25,0,0,0-6.89-3.19,8,8,0,0,0-6.75,3.19,13.17,13.17,0,0,0-2.42,8.17V70.8a13.26,13.26,0,0,0,2.43,8.26,8.07,8.07,0,0,0,6.8,3.19,8.17,8.17,0,0,0,6.86-3.19,13.15,13.15,0,0,0,2.46-8.26Z"/><path class="cls-25" d="M248.9,82.46A16.29,16.29,0,0,1,243,87a23.59,23.59,0,0,1-10.2,1.91A17.24,17.24,0,0,1,220.1,84a17,17,0,0,1-4.93-12.63v-8.9A17.27,17.27,0,0,1,220,49.9,16.41,16.41,0,0,1,232.23,45q7.82,0,12,3.7a12.18,12.18,0,0,1,4,9.89l-.06.18h-8a7,7,0,0,0-2-5.29,7.92,7.92,0,0,0-5.71-1.89,7.68,7.68,0,0,0-6.33,3,12.21,12.21,0,0,0-2.4,7.81v9a12.18,12.18,0,0,0,2.46,7.89,8,8,0,0,0,6.59,3,15.19,15.19,0,0,0,4.82-.61,7.26,7.26,0,0,0,2.74-1.56V71.91h-8.2V66H248.9Z"/><path class="cls-25" d="M267.34,88.29h-8.55V45.63h8.55Z"/><path class="cls-25" d="M312.39,88.29h-8.55l-17.2-28.77-.18,0V88.29h-8.55V45.63h8.55l17.2,28.74.18,0V45.63h8.55Z"/></g></g></svg>